<?xml version="1.0" encoding="UTF-8"?>
<!DOCTYPE svg PUBLIC "-//W3C//DTD SVG 1.1//EN" "http://www.w3.org/Graphics/SVG/1.1/DTD/svg11.dtd">
<svg xmlns="http://www.w3.org/2000/svg" version="1.1" width="512px" height="512px" style="shape-rendering:geometricPrecision; text-rendering:geometricPrecision; image-rendering:optimizeQuality; fill-rule:evenodd; clip-rule:evenodd" xmlns:xlink="http://www.w3.org/1999/xlink">
<g><path style="opacity:1" fill="#0d3a66" d="M 511.5,204.5 C 511.5,209.833 511.5,215.167 511.5,220.5C 509.912,225.01 507.745,229.343 505,233.5C 479.29,263.541 453.957,293.874 429,324.5C 417.962,336.217 404.795,339.384 389.5,334C 386.833,332.333 384.167,330.667 381.5,329C 351.459,303.29 321.126,277.957 290.5,253C 279.254,241.734 276.42,228.567 282,213.5C 293.016,195.95 308.183,191.116 327.5,199C 341.291,209.789 354.791,220.956 368,232.5C 358.627,177.788 328.793,138.621 278.5,115C 210.921,89.7795 152.088,102.946 102,154.5C 66.226,197.953 55.8927,246.953 71,301.5C 91.0381,357.873 130.205,392.706 188.5,406C 201.137,407.682 213.804,409.016 226.5,410C 245.966,417.764 253.133,431.931 248,452.5C 243.57,463.265 235.737,470.099 224.5,473C 136.912,473.305 70.7455,436.138 26,361.5C 11.59,334.777 2.75667,306.444 -0.5,276.5C -0.5,262.5 -0.5,248.5 -0.5,234.5C 10.1927,153.999 51.526,95.1654 123.5,58C 183.409,31.8082 243.742,30.8082 304.5,55C 374.068,87.9139 416.901,142.081 433,217.5C 441.421,206.408 450.588,195.908 460.5,186C 484.005,174.768 501.005,180.935 511.5,204.5 Z"/></g>
</svg>
