<?xml version="1.0" encoding="UTF-8"?>
<!DOCTYPE svg PUBLIC "-//W3C//DTD SVG 1.1//EN" "http://www.w3.org/Graphics/SVG/1.1/DTD/svg11.dtd">
<svg xmlns="http://www.w3.org/2000/svg" version="1.1" width="790px" height="832px" style="shape-rendering:geometricPrecision; text-rendering:geometricPrecision; image-rendering:optimizeQuality; fill-rule:evenodd; clip-rule:evenodd" xmlns:xlink="http://www.w3.org/1999/xlink">
<g><path style="opacity:1" fill="#302319" d="M 287.5,3.5 C 295.191,3.4035 302.858,3.73683 310.5,4.5C 308.866,5.16109 307.033,5.49442 305,5.5C 298.984,5.12825 293.151,4.46159 287.5,3.5 Z"/></g>
<g><path style="opacity:0.355" fill="#030201" d="M 287.5,3.5 C 293.151,4.46159 298.984,5.12825 305,5.5C 307.033,5.49442 308.866,5.16109 310.5,4.5C 326.759,6.30246 340.925,12.6358 353,23.5C 357.012,28.2084 360.512,33.2084 363.5,38.5C 364.038,40.1172 364.371,41.7839 364.5,43.5C 365.873,43.6567 367.207,43.49 368.5,43C 367.584,42.7216 366.918,42.2216 366.5,41.5C 370.192,40.9712 373.358,41.9712 376,44.5C 380.849,51.197 384.349,58.5304 386.5,66.5C 386.369,67.3764 386.702,68.0431 387.5,68.5C 392.156,67.336 396.823,66.1693 401.5,65C 400.552,64.5172 399.552,64.3505 398.5,64.5C 411.374,61.699 424.374,60.3656 437.5,60.5C 437.611,61.1174 437.944,61.6174 438.5,62C 447.68,62.2977 456.847,62.7977 466,63.5C 467.707,63.4915 469.207,63.1582 470.5,62.5C 477.179,62.7831 483.512,64.1164 489.5,66.5C 495.515,68.2148 501.682,69.8815 508,71.5C 508.765,71.4301 509.265,71.0967 509.5,70.5C 521.296,73.6538 532.629,77.9871 543.5,83.5C 549.948,87.8941 556.948,91.5608 564.5,94.5C 566.434,95.1103 568.101,96.1103 569.5,97.5C 575.238,102.549 581.571,106.882 588.5,110.5C 589.492,110.328 590.158,110.662 590.5,111.5C 589.527,111.987 588.527,112.487 587.5,113C 591.07,114.31 594.737,115.143 598.5,115.5C 603.283,116.762 607.95,118.428 612.5,120.5C 613.451,119.674 614.451,119.508 615.5,120C 615.167,120.333 614.833,120.667 614.5,121C 620.137,123.367 620.804,126.534 616.5,130.5C 615.357,130.908 614.357,131.575 613.5,132.5C 615.029,133.763 616.695,134.763 618.5,135.5C 622.436,137.766 625.769,140.766 628.5,144.5C 641.806,163.639 655.306,182.639 669,201.5C 679.066,219.1 686.399,237.767 691,257.5C 734.63,262.805 764.63,285.805 781,326.5C 781.667,328.5 781.667,330.5 781,332.5C 779.043,333.889 777.21,335.389 775.5,337C 779.374,347.102 780.374,357.436 778.5,368C 779.738,367.923 780.738,368.089 781.5,368.5C 778.529,383.109 772.862,396.443 764.5,408.5C 754.014,421.321 741.68,431.988 727.5,440.5C 727.077,441.265 726.743,442.098 726.5,443C 735.259,495.586 732.593,547.586 718.5,599C 721.577,601.695 725.244,603.028 729.5,603C 725.489,603.166 724.989,604 728,605.5C 728.333,606.833 728.667,608.167 729,609.5C 730.441,608.74 731.941,608.074 733.5,607.5C 734.468,610.262 735.801,612.762 737.5,615C 739.199,615.393 740.699,614.893 742,613.5C 744.438,614.966 746.605,614.632 748.5,612.5C 749.103,614.452 748.77,616.452 747.5,618.5C 749.943,623.65 753.443,624.65 758,621.5C 758.198,623.656 759.365,625.656 761.5,627.5C 764.717,627.825 767.717,627.325 770.5,626C 770.957,626.414 771.291,626.914 771.5,627.5C 768.766,630.789 766.766,634.455 765.5,638.5C 768.825,639.377 772.158,639.544 775.5,639C 776.747,640.458 776.747,641.958 775.5,643.5C 776.85,644.95 778.516,645.617 780.5,645.5C 780.33,646.822 780.663,647.989 781.5,649C 777.137,649.839 773.137,651.339 769.5,653.5C 769.695,657.192 771.695,659.026 775.5,659C 777.135,660.748 779.135,661.915 781.5,662.5C 782.641,663.425 782.641,664.259 781.5,665C 782.448,665.483 783.448,665.649 784.5,665.5C 784.61,668.059 783.944,670.392 782.5,672.5C 780.958,673.747 779.458,673.747 778,672.5C 776.033,678.865 778.033,680.531 784,677.5C 785.28,677.613 786.113,678.28 786.5,679.5C 780.715,680.035 780.048,682.035 784.5,685.5C 781.097,688.199 777.93,687.866 775,684.5C 773.352,685.717 771.519,686.55 769.5,687C 774.401,687.58 774.735,689.247 770.5,692C 772.797,693.16 772.464,694.16 769.5,695C 772.378,697.714 772.711,700.547 770.5,703.5C 772.805,704.231 774.638,705.564 776,707.5C 776.284,705.114 777.284,704.448 779,705.5C 778.901,708.112 778.568,710.779 778,713.5C 776.284,714.552 775.284,713.886 775,711.5C 773.33,713.698 771.33,714.032 769,712.5C 767.583,713.078 766.75,714.078 766.5,715.5C 765.078,715.709 763.745,716.209 762.5,717C 762.943,718.518 762.276,719.685 760.5,720.5C 760.709,721.086 761.043,721.586 761.5,722C 760.023,724.148 758.023,725.482 755.5,726C 757.146,727.555 757.479,729.221 756.5,731C 753.528,731.288 750.861,730.455 748.5,728.5C 747.483,730.837 745.816,732.504 743.5,733.5C 742.167,735.5 742.167,737.5 743.5,739.5C 745.256,739.36 746.922,739.86 748.5,741C 746.008,742.249 746.175,743.416 749,744.5C 749.483,745.448 749.649,746.448 749.5,747.5C 746.639,747.513 745.639,748.679 746.5,751C 744.559,751.743 742.726,751.576 741,750.5C 739.795,751.071 738.628,751.738 737.5,752.5C 738.428,753.768 738.595,755.101 738,756.5C 736.816,754.346 735.65,754.68 734.5,757.5C 736.674,759.527 737.008,761.86 735.5,764.5C 733.468,765.048 732.468,766.381 732.5,768.5C 729.513,768.998 726.513,769.498 723.5,770C 722.167,770.667 721.167,771.667 720.5,773C 719.5,773.167 718.5,773.333 717.5,773.5C 714.741,771.906 711.741,770.573 708.5,769.5C 706.833,769.833 705.833,770.833 705.5,772.5C 706.595,774.62 708.261,776.12 710.5,777C 708.586,778.413 707.253,780.247 706.5,782.5C 703.743,783.029 701.243,784.029 699,785.5C 697.089,785.745 695.089,785.745 693,785.5C 690.689,786.397 688.856,787.73 687.5,789.5C 686.141,790.007 685.141,791.007 684.5,792.5C 682.278,790.116 681.944,787.449 683.5,784.5C 681.396,784.799 679.396,784.466 677.5,783.5C 678.55,781.898 677.883,781.065 675.5,781C 674.851,778.519 673.851,778.186 672.5,780C 675.028,781.316 675.028,782.483 672.5,783.5C 672.709,784.086 673.043,784.586 673.5,785C 671.717,785.232 670.05,784.732 668.5,783.5C 665.736,784.628 665.069,786.462 666.5,789C 665.88,791.212 664.713,793.046 663,794.5C 661.699,793.902 660.865,792.902 660.5,791.5C 661.737,790.719 662.737,789.719 663.5,788.5C 661.59,785.597 659.59,782.764 657.5,780C 657.957,779.586 658.291,779.086 658.5,778.5C 656.604,777.534 654.604,777.201 652.5,777.5C 652.38,779.734 652.713,781.901 653.5,784C 652.507,786.78 650.507,788.447 647.5,789C 648.99,791.2 648.657,793.034 646.5,794.5C 645.098,794.135 644.098,793.301 643.5,792C 644.148,790.56 644.481,789.06 644.5,787.5C 643.178,787.67 642.011,787.337 641,786.5C 641,784.5 641,782.5 641,780.5C 640.092,778.561 638.592,777.561 636.5,777.5C 636.357,779.262 636.691,780.929 637.5,782.5C 636.05,783.85 635.383,785.516 635.5,787.5C 630.182,787.652 625.015,787.652 620,787.5C 619.366,791.597 617.699,792.264 615,789.5C 614.883,793.785 612.717,795.785 608.5,795.5C 608.5,794.5 608.5,793.5 608.5,792.5C 606.167,792.5 603.833,792.5 601.5,792.5C 601.955,797.817 599.622,800.317 594.5,800C 592.579,798.297 592.579,796.297 594.5,794C 594.167,793.5 593.833,793 593.5,792.5C 592.614,793.325 592.281,794.325 592.5,795.5C 590.409,795.682 588.409,795.348 586.5,794.5C 584.976,796.858 582.976,798.691 580.5,800C 583.167,801 583.167,802 580.5,803C 581.517,804.049 581.684,805.216 581,806.5C 579.559,807.26 578.059,807.926 576.5,808.5C 575.28,808.113 574.613,807.28 574.5,806C 575.017,803.923 575.684,801.923 576.5,800C 574.667,799.5 573.5,798.333 573,796.5C 570.878,797.22 570.378,798.387 571.5,800C 568.833,801.667 566.167,803.333 563.5,805C 565.645,805.743 565.811,806.576 564,807.5C 563.127,807.735 562.293,808.069 561.5,808.5C 560.193,807.184 558.693,806.184 557,805.5C 555.89,807.037 554.39,807.703 552.5,807.5C 552.349,810.718 551.516,811.051 550,808.5C 548.989,809.337 547.822,809.67 546.5,809.5C 545.752,807.416 545.752,805.416 546.5,803.5C 543.503,802.752 540.503,802.085 537.5,801.5C 536.5,802.833 535.5,804.167 534.5,805.5C 531.068,801.581 526.901,798.581 522,796.5C 517.864,797.9 517.697,799.4 521.5,801C 522.03,802.256 522.03,803.756 521.5,805.5C 519.647,806.76 517.814,806.76 516,805.5C 515.5,806.5 515,807.5 514.5,808.5C 515.642,811.399 516.308,814.399 516.5,817.5C 512.71,818.047 510.71,816.38 510.5,812.5C 513.433,810.262 513.099,809.262 509.5,809.5C 509.577,812.509 508.244,814.676 505.5,816C 506.337,817.011 506.67,818.178 506.5,819.5C 504.856,819.286 503.356,819.62 502,820.5C 501.418,816.749 499.251,815.082 495.5,815.5C 495.36,813.876 496.027,812.71 497.5,812C 494.168,811.329 493.001,812.496 494,815.5C 491.63,817.371 489.13,819.038 486.5,820.5C 486.709,821.086 487.043,821.586 487.5,822C 484.498,824.122 481.664,823.955 479,821.5C 475.579,824.282 472.745,823.948 470.5,820.5C 468.659,819.77 466.825,819.103 465,818.5C 464.667,819.5 464.333,820.5 464,821.5C 461.8,822.522 459.8,823.855 458,825.5C 455.555,824.094 453.055,822.76 450.5,821.5C 451.167,820.5 451.833,819.5 452.5,818.5C 451.147,817.476 450.48,816.143 450.5,814.5C 448.071,814.415 446.071,813.415 444.5,811.5C 444.167,811.833 443.833,812.167 443.5,812.5C 444.445,817.973 443.112,822.973 439.5,827.5C 438.197,825.522 436.531,825.522 434.5,827.5C 435.397,827.669 436.397,828.002 437.5,828.5C 438.791,829.527 438.791,830.527 437.5,831.5C 436.833,831.5 436.167,831.5 435.5,831.5C 434.833,830.167 434.167,830.167 433.5,831.5C 432.833,831.5 432.167,831.5 431.5,831.5C 430.194,829.755 429.194,827.755 428.5,825.5C 425.926,827.398 424.26,829.398 423.5,831.5C 422.833,831.5 422.167,831.5 421.5,831.5C 420.426,829.716 418.76,828.549 416.5,828C 417.451,827.282 417.617,826.449 417,825.5C 415.43,824.386 414.097,823.053 413,821.5C 410.223,824.291 408.723,823.625 408.5,819.5C 406.833,819.5 405.167,819.5 403.5,819.5C 403.714,821.144 403.38,822.644 402.5,824C 399.873,825.31 397.54,826.977 395.5,829C 394.207,829.49 392.873,829.657 391.5,829.5C 391.404,825.689 390.738,825.689 389.5,829.5C 386.999,828.571 386.333,827.071 387.5,825C 387.387,823.72 386.72,822.887 385.5,822.5C 381.625,823.709 378.625,826.042 376.5,829.5C 374.714,827.979 372.881,827.646 371,828.5C 369.547,825.702 368.547,822.702 368,819.5C 366.074,821.545 363.908,823.378 361.5,825C 359.157,826.746 357.157,826.579 355.5,824.5C 351.946,827.337 349.946,826.337 349.5,821.5C 348.268,820.855 346.935,820.689 345.5,821C 344.167,819.667 342.833,818.333 341.5,817C 343.738,814.573 343.071,812.739 339.5,811.5C 338.5,812 337.5,812.5 336.5,813C 337.337,814.011 337.67,815.178 337.5,816.5C 336.167,816.5 334.833,816.5 333.5,816.5C 333.421,815.07 333.754,813.736 334.5,812.5C 330.926,811.139 329.26,812.473 329.5,816.5C 328.167,816.5 326.833,816.5 325.5,816.5C 325.383,814.516 326.05,812.85 327.5,811.5C 326.63,809.474 325.13,808.141 323,807.5C 322.517,806.552 322.351,805.552 322.5,804.5C 319.71,804.222 317.21,804.889 315,806.5C 313.433,805.144 311.6,804.477 309.5,804.5C 309.086,808.7 307.086,809.533 303.5,807C 302.577,804.959 302.244,802.792 302.5,800.5C 298.054,800.985 294.054,802.652 290.5,805.5C 287.833,804.833 285.167,804.167 282.5,803.5C 280.167,806.167 277.833,806.167 275.5,803.5C 274.833,803.833 274.167,804.167 273.5,804.5C 271.025,802.67 268.359,801.336 265.5,800.5C 262.233,800.775 260.233,802.442 259.5,805.5C 253.909,807.685 249.242,806.519 245.5,802C 250.24,801.038 250.573,799.538 246.5,797.5C 244.471,798.551 242.637,799.885 241,801.5C 239.127,800.132 237.46,798.466 236,796.5C 231.826,800.171 227.66,800.171 223.5,796.5C 224.506,795.604 224.506,794.938 223.5,794.5C 221.401,796.534 219.068,796.868 216.5,795.5C 217.894,794.313 217.727,793.646 216,793.5C 212.645,796.049 209.312,796.049 206,793.5C 204.287,794.137 204.121,795.137 205.5,796.5C 202.973,797.214 200.473,797.88 198,798.5C 196.011,798.679 194.011,798.012 192,796.5C 187.877,798.261 184.377,797.428 181.5,794C 177.696,791.956 174.029,792.123 170.5,794.5C 169.155,793.653 168.155,792.487 167.5,791C 168.726,788.473 170.392,786.306 172.5,784.5C 171.055,784.259 169.388,783.592 167.5,782.5C 164.493,782.963 163.493,784.463 164.5,787C 161.907,787.537 159.407,788.37 157,789.5C 154.73,788.14 152.23,787.473 149.5,787.5C 149.64,785.876 148.973,784.71 147.5,784C 152.884,781.66 152.717,779.827 147,778.5C 145.596,778.509 144.43,779.009 143.5,780C 143.833,781 144.167,782 144.5,783C 140.207,784.124 135.874,784.457 131.5,784C 130.167,782 128.833,780 127.5,778C 129.078,776.86 130.744,776.36 132.5,776.5C 128.549,772.188 123.549,770.022 117.5,770C 117.402,767.911 116.736,765.745 115.5,763.5C 116.978,763.762 118.311,763.429 119.5,762.5C 115.718,761.317 112.218,761.983 109,764.5C 106.773,763.637 104.607,762.637 102.5,761.5C 101.538,763.883 102.538,764.883 105.5,764.5C 105.5,765.5 105.5,766.5 105.5,767.5C 104.448,767.649 103.448,767.483 102.5,767C 100.612,765.355 98.9451,763.522 97.5,761.5C 102.834,759.077 102.501,757.077 96.5,755.5C 95.8333,754.167 95.1667,752.833 94.5,751.5C 91.9058,750.408 89.7391,748.741 88,746.5C 85.9251,748.648 83.5918,748.982 81,747.5C 76.6101,749.94 75.7768,748.94 78.5,744.5C 77.1068,742.06 76.2734,739.393 76,736.5C 75.3333,737.833 74.6667,737.833 74,736.5C 72.9447,733.758 71.9447,731.425 71,729.5C 69.2298,731.418 67.0631,731.918 64.5,731C 65.6872,729.981 66.6872,728.814 67.5,727.5C 66.675,726.614 65.675,726.281 64.5,726.5C 64.4208,725.07 64.7542,723.736 65.5,722.5C 62.8336,721.961 60.6669,720.628 59,718.5C 58.6258,719.416 58.1258,720.25 57.5,721C 55.1013,721.731 52.9347,722.898 51,724.5C 49.4933,722.992 47.8267,721.659 46,720.5C 45.586,720.957 45.086,721.291 44.5,721.5C 43.0379,718.262 41.8712,714.929 41,711.5C 38.736,708.48 35.9027,707.813 32.5,709.5C 31.1934,708.184 29.6934,707.184 28,706.5C 27.3333,705.833 27.3333,705.167 28,704.5C 32.3333,703.167 32.6667,701.167 29,698.5C 28.0853,699.328 27.4186,700.328 27,701.5C 26.1512,698.479 24.6512,697.979 22.5,700C 26.375,700.986 26.375,702.153 22.5,703.5C 20.4293,701.815 18.4293,700.148 16.5,698.5C 17.1408,697.518 17.8075,696.518 18.5,695.5C 16.3333,694.052 14,692.885 11.5,692C 10.9288,690.795 10.2621,689.628 9.5,688.5C 6.22725,686.473 2.89392,685.806 -0.5,686.5C -0.5,685.5 -0.5,684.5 -0.5,683.5C 1.28801,683.785 2.95467,683.452 4.5,682.5C 4.02335,681.522 3.35668,680.689 2.5,680C 6.5,678.667 6.5,677.333 2.5,676C 3.30806,675.692 3.97473,675.192 4.5,674.5C 3.5,673.167 2.5,671.833 1.5,670.5C 3.14916,669.852 4.48249,668.852 5.5,667.5C 1.33403,666.82 0.167363,664.82 2,661.5C 8.08265,663.319 8.74931,662.319 4,658.5C 2.97044,656.412 2.1371,654.245 1.5,652C 3.54807,649.788 5.8814,647.788 8.5,646C 5.77609,644.478 3.77609,642.311 2.5,639.5C 3.83333,638.833 5.16667,638.167 6.5,637.5C 4.76411,632.876 6.43077,630.209 11.5,629.5C 15.2706,632.411 17.9373,631.577 19.5,627C 19.0426,626.586 18.7093,626.086 18.5,625.5C 20.3686,624.376 22.3686,623.543 24.5,623C 23.6039,620.821 22.2706,618.988 20.5,617.5C 23.3819,613.587 26.2152,613.587 29,617.5C 31.977,615.394 35.3104,614.061 39,613.5C 40.9512,614.285 42.7845,615.285 44.5,616.5C 46.3046,614.407 48.6379,613.24 51.5,613C 52.2931,611.915 52.9598,610.748 53.5,609.5C 55.7471,608.755 57.5804,607.422 59,605.5C 59.5609,602.71 60.8942,600.377 63,598.5C 63.8494,595.479 64.6827,592.479 65.5,589.5C 67.5824,589.472 69.4157,590.139 71,591.5C 74.3774,590.107 76.544,591.274 77.5,595C 79.2182,595.346 80.8849,595.846 82.5,596.5C 84.0706,594.029 85.0706,591.363 85.5,588.5C 92.9944,589.429 93.9944,592.262 88.5,597C 91.1242,597.576 91.7908,598.91 90.5,601C 91.3333,601.833 92.1667,602.667 93,603.5C 94.0458,601.91 95.2125,600.41 96.5,599C 98.622,597.919 100.622,597.252 102.5,597C 100.27,594.434 98.9363,591.434 98.5,588C 99.0933,586.118 100.427,585.118 102.5,585C 95.075,571.645 89.7416,557.478 86.5,542.5C 87.0343,537.64 86.0343,533.306 83.5,529.5C 81.4148,521.002 79.7481,512.335 78.5,503.5C 79.1599,502.036 79.4932,500.369 79.5,498.5C 78.4705,479.835 77.1372,461.502 75.5,443.5C 73.4136,442.852 72.4136,441.352 72.5,439C 74.2739,433.181 75.9405,427.347 77.5,421.5C 79.253,412.877 80.5863,404.043 81.5,395C 81.4915,393.293 81.1582,391.793 80.5,390.5C 81.1098,389.609 81.4431,388.609 81.5,387.5C 82.9973,385.71 83.664,383.544 83.5,381C 83.4915,379.293 83.1582,377.793 82.5,376.5C 94.0406,303.442 123.374,238.776 170.5,182.5C 173.2,180.766 175.2,178.432 176.5,175.5C 180.908,170.589 185.575,165.755 190.5,161C 193.892,158.306 197.559,156.14 201.5,154.5C 202.609,155.29 203.942,155.79 205.5,156C 207.007,156.837 207.507,158.004 207,159.5C 204.26,160.144 201.76,161.311 199.5,163C 180.402,181.091 164.068,201.257 150.5,223.5C 112.769,281.192 91.2687,344.525 86,413.5C 85.6667,413.167 85.3333,412.833 85,412.5C 84.4635,420.724 82.9635,428.724 80.5,436.5C 81.5,436.5 82.5,436.5 83.5,436.5C 81.4139,489.566 90.5806,540.566 111,589.5C 111.92,589.93 112.753,590.264 113.5,590.5C 112.572,591.768 112.405,593.101 113,594.5C 118.602,587.782 125.769,584.449 134.5,584.5C 137.134,585.133 138.8,586.8 139.5,589.5C 140.755,591.519 141.089,593.519 140.5,595.5C 139.614,594.675 139.281,593.675 139.5,592.5C 136.001,591.556 132.668,591.556 129.5,592.5C 121.087,595.088 114.587,600.088 110,607.5C 108.491,615.546 110.991,621.879 117.5,626.5C 118.083,622.919 120.083,620.586 123.5,619.5C 130.128,618.657 135.961,620.323 141,624.5C 141.49,625.793 141.657,627.127 141.5,628.5C 139.833,628.5 138.167,628.5 136.5,628.5C 134.714,627.278 132.714,626.611 130.5,626.5C 128.235,627.342 126.068,627.342 124,626.5C 123.543,630.561 124.71,634.061 127.5,637C 127.043,637.414 126.709,637.914 126.5,638.5C 127.869,640.124 129.536,640.624 131.5,640C 132.594,638.22 133.594,636.386 134.5,634.5C 135.736,633.754 137.07,633.421 138.5,633.5C 142.144,634.404 145.644,635.737 149,637.5C 150.44,636.852 151.94,636.519 153.5,636.5C 156.318,647.287 160.318,657.62 165.5,667.5C 168.653,673.807 171.82,680.14 175,686.5C 175.654,687.696 176.154,687.696 176.5,686.5C 175.833,685.167 175.167,683.833 174.5,682.5C 174.624,681.893 174.957,681.56 175.5,681.5C 176.072,682.973 176.905,684.307 178,685.5C 190.813,678.335 203.98,677.668 217.5,683.5C 219.795,686.297 222.295,688.964 225,691.5C 226.275,693.717 227.275,696.051 228,698.5C 232.031,693.304 236.531,688.637 241.5,684.5C 248.365,679.9 255.698,676.066 263.5,673C 278.746,669.792 290.08,674.959 297.5,688.5C 301.076,695.22 304.076,702.22 306.5,709.5C 308.08,712.659 309.08,715.993 309.5,719.5C 310.573,720.251 310.74,721.251 310,722.5C 307.623,726.088 305.123,729.588 302.5,733C 303.672,733.353 304.838,733.187 306,732.5C 310.318,734.662 314.818,736.328 319.5,737.5C 320.48,734.914 320.813,732.247 320.5,729.5C 320.944,727.887 321.944,726.72 323.5,726C 327.486,725.501 331.486,725.334 335.5,725.5C 339.851,726.08 342.684,728.414 344,732.5C 348.179,729.743 352.179,726.743 356,723.5C 357.867,721.192 358.867,718.525 359,715.5C 359.699,709.825 360.032,704.158 360,698.5C 358.894,703.769 358.227,709.103 358,714.5C 357.29,715.973 356.124,716.64 354.5,716.5C 353.005,712.327 350.338,708.994 346.5,706.5C 344.599,704.204 342.266,702.371 339.5,701C 334.5,700.333 329.5,700.333 324.5,701C 322.148,701.24 320.148,702.073 318.5,703.5C 314.456,704.944 310.956,707.278 308,710.5C 307.601,710.272 307.435,709.938 307.5,709.5C 310.923,702.408 316.257,697.408 323.5,694.5C 329.441,693.587 335.441,693.254 341.5,693.5C 346.754,695.586 350.588,699.252 353,704.5C 353.667,691.5 353.667,678.5 353,665.5C 352.959,654.076 352.126,642.743 350.5,631.5C 351.305,622.881 351.805,614.215 352,605.5C 352.414,605.043 352.914,604.709 353.5,604.5C 354.329,609.467 354.829,614.467 355,619.5C 355.67,622.174 356.837,624.507 358.5,626.5C 358.869,628.441 359.536,630.275 360.5,632C 382.481,639.71 404.815,641.21 427.5,636.5C 436.173,634.164 444.84,631.831 453.5,629.5C 453.337,627.143 453.503,624.81 454,622.5C 456.093,619.862 457.593,620.196 458.5,623.5C 459.332,646.915 459.665,670.248 459.5,693.5C 457.55,700.358 457.05,707.358 458,714.5C 462,709.005 466.166,703.671 470.5,698.5C 476.073,693.047 482.74,689.713 490.5,688.5C 498.234,687.683 505.234,689.516 511.5,694C 515.015,697.682 518.682,701.182 522.5,704.5C 525.658,701.172 528.658,697.672 531.5,694C 535.08,691.723 538.414,689.223 541.5,686.5C 550.041,682.058 559.041,680.725 568.5,682.5C 572.4,684.123 576.067,686.289 579.5,689C 584.632,695.448 589.632,701.948 594.5,708.5C 599.04,701.961 605.04,697.294 612.5,694.5C 621.201,691.364 629.535,692.031 637.5,696.5C 642.856,701.873 646.689,708.206 649,715.5C 651.043,713.792 652.71,711.792 654,709.5C 654.623,699.428 655.79,689.428 657.5,679.5C 665.934,642.494 672.767,605.16 678,567.5C 678.781,559.18 679.281,550.847 679.5,542.5C 680.769,512.501 679.102,482.501 674.5,452.5C 670.65,451.018 666.65,450.184 662.5,450C 660.336,449.086 658.336,447.919 656.5,446.5C 644.74,464.772 633.573,483.439 623,502.5C 618.957,508.753 614.79,514.92 610.5,521C 606.771,522.272 605.104,520.939 605.5,517C 606.757,509.474 608.091,501.974 609.5,494.5C 609.833,494.5 610.167,494.5 610.5,494.5C 611.5,494.5 612.5,494.5 613.5,494.5C 611.523,501.397 610.356,508.397 610,515.5C 615.42,506.328 620.587,496.994 625.5,487.5C 625.291,486.914 624.957,486.414 624.5,486C 637.804,469.917 648.471,452.083 656.5,432.5C 670.773,393.575 673.273,353.908 664,313.5C 653.558,263.093 632.225,218.093 600,178.5C 575.664,151.811 547.164,130.978 514.5,116C 487.698,107.643 460.365,101.643 432.5,98C 403.581,96.6421 374.914,98.6421 346.5,104C 328.201,111.215 310.201,119.215 292.5,128C 253.7,149.487 223.2,178.653 201,215.5C 196.862,224.228 192.196,231.894 187,238.5C 181.817,244.24 176.65,249.907 171.5,255.5C 171.5,256.833 171.5,258.167 171.5,259.5C 167.686,259.349 166.019,257.349 166.5,253.5C 172.429,246.397 178.596,239.397 185,232.5C 184.805,230.874 184.805,229.207 185,227.5C 195.441,206.732 208.608,187.898 224.5,171C 217.931,165.933 212.265,160.1 207.5,153.5C 202.813,144.79 198.646,135.79 195,126.5C 191.353,102.292 195.686,79.6253 208,58.5C 219.666,36.5008 236.833,20.3341 259.5,10C 268.56,6.62155 277.893,4.45488 287.5,3.5 Z M 728.5,760.5 C 729.737,761.743 729.404,762.743 727.5,763.5C 727.167,763.167 726.833,762.833 726.5,762.5C 727.243,761.818 727.909,761.151 728.5,760.5 Z M 683.5,784.5 C 684.406,782.086 686.072,781.253 688.5,782C 687.347,783.883 685.681,784.716 683.5,784.5 Z M 398.5,812.5 C 399.708,811.218 401.042,811.218 402.5,812.5C 401.3,813.292 399.967,813.292 398.5,812.5 Z"/></g>
<g><path style="opacity:1" fill="#7f5a40" d="M 368.5,56.5 C 368.461,57.5832 368.127,58.5832 367.5,59.5C 368.718,59.109 369.552,59.7756 370,61.5C 374.194,74.8036 369.527,82.4703 356,84.5C 352.927,84.4771 350.26,83.4771 348,81.5C 344.442,59.9423 332.276,45.7756 311.5,39C 299.182,39.4801 287.182,41.8134 275.5,46C 270.636,49.9083 264.969,51.9083 258.5,52C 248.175,54.6641 240.508,60.6641 235.5,70C 241.856,70.5935 248.189,70.4269 254.5,69.5C 254.414,70.4959 254.748,71.3292 255.5,72C 245.925,76.0741 239.258,82.9075 235.5,92.5C 229.844,96.4903 226.844,101.824 226.5,108.5C 228.573,106.42 230.907,104.754 233.5,103.5C 234.021,107.481 234.354,111.481 234.5,115.5C 234.76,123.222 235.427,130.889 236.5,138.5C 230.83,140.33 225.83,139.164 221.5,135C 215.607,129.248 209.607,123.748 203.5,118.5C 202.671,113.533 202.171,108.533 202,103.5C 201.722,102.584 201.222,101.918 200.5,101.5C 199.919,94.9386 200.752,88.6053 203,82.5C 210.082,67.4398 218.748,53.4398 229,40.5C 261.612,8.06809 298.779,1.90142 340.5,22C 351.299,30.0808 358.799,40.5808 363,53.5C 364,54.5 365,55.5 366,56.5C 366.77,55.4019 367.603,55.4019 368.5,56.5 Z"/></g>
<g><path style="opacity:1" fill="#5e3b27" d="M 368.5,56.5 C 369.319,53.6946 369.819,50.6946 370,47.5C 377.861,59.0915 382.527,71.7581 384,85.5C 382.575,86.2123 381.075,86.379 379.5,86C 381.669,88.2031 384.335,89.0365 387.5,88.5C 387.5,89.1667 387.5,89.8333 387.5,90.5C 374.065,92.3504 360.732,94.5171 347.5,97C 348.703,87.2573 346.203,78.424 340,70.5C 324.512,51.687 304.679,44.5204 280.5,49C 274.306,51.5561 271.973,56.0561 273.5,62.5C 274.085,60.1003 275.252,58.1003 277,56.5C 302.542,49.9039 323.209,57.2372 339,78.5C 342.786,84.71 344.786,91.3767 345,98.5C 311.23,109.468 280.063,125.301 251.5,146C 243.053,152.611 235.053,159.777 227.5,167.5C 212.369,153.909 203.536,136.909 201,116.5C 200.501,111.511 200.334,106.511 200.5,101.5C 201.222,101.918 201.722,102.584 202,103.5C 202.171,108.533 202.671,113.533 203.5,118.5C 209.607,123.748 215.607,129.248 221.5,135C 225.83,139.164 230.83,140.33 236.5,138.5C 235.427,130.889 234.76,123.222 234.5,115.5C 235.222,115.918 235.722,116.584 236,117.5C 234.364,101.937 239.531,89.1037 251.5,79C 256.79,76.7497 262.123,74.7497 267.5,73C 261.592,72.8112 261.258,71.8112 266.5,70C 257.3,70.524 256.3,68.1906 263.5,63C 265.833,61.5 268.167,60 270.5,58.5C 270.113,57.2801 269.28,56.6135 268,56.5C 261.277,58.7345 256.777,63.0678 254.5,69.5C 248.189,70.4269 241.856,70.5935 235.5,70C 240.508,60.6641 248.175,54.6641 258.5,52C 264.969,51.9083 270.636,49.9083 275.5,46C 287.182,41.8134 299.182,39.4801 311.5,39C 332.276,45.7756 344.442,59.9423 348,81.5C 350.26,83.4771 352.927,84.4771 356,84.5C 369.527,82.4703 374.194,74.8036 370,61.5C 369.552,59.7756 368.718,59.109 367.5,59.5C 368.127,58.5832 368.461,57.5832 368.5,56.5 Z"/></g>
<g><path style="opacity:1" fill="#5a412c" d="M 363.5,38.5 C 364.833,39.1667 365.833,40.1667 366.5,41.5C 366.918,42.2216 367.584,42.7216 368.5,43C 367.207,43.49 365.873,43.6567 364.5,43.5C 364.371,41.7839 364.038,40.1172 363.5,38.5 Z"/></g>
<g><path style="opacity:1" fill="#0d0805" d="M 234.5,115.5 C 234.354,111.481 234.021,107.481 233.5,103.5C 233.111,99.5863 233.778,95.9196 235.5,92.5C 239.258,82.9075 245.925,76.0741 255.5,72C 254.748,71.3292 254.414,70.4959 254.5,69.5C 256.777,63.0678 261.277,58.7345 268,56.5C 269.28,56.6135 270.113,57.2801 270.5,58.5C 268.167,60 265.833,61.5 263.5,63C 256.3,68.1906 257.3,70.524 266.5,70C 261.258,71.8112 261.592,72.8112 267.5,73C 262.123,74.7497 256.79,76.7497 251.5,79C 239.531,89.1037 234.364,101.937 236,117.5C 235.722,116.584 235.222,115.918 234.5,115.5 Z"/></g>
<g><path style="opacity:1" fill="#302318" d="M 437.5,60.5 C 448.548,60.4636 459.548,61.1303 470.5,62.5C 469.207,63.1582 467.707,63.4915 466,63.5C 456.847,62.7977 447.68,62.2977 438.5,62C 437.944,61.6174 437.611,61.1174 437.5,60.5 Z"/></g>
<g><path style="opacity:1" fill="#503a27" d="M 398.5,64.5 C 399.552,64.3505 400.552,64.5172 401.5,65C 396.823,66.1693 392.156,67.336 387.5,68.5C 386.702,68.0431 386.369,67.3764 386.5,66.5C 390.557,66.1522 394.557,65.4855 398.5,64.5 Z"/></g>
<g><path style="opacity:0.996" fill="#35271b" d="M 489.5,66.5 C 496.372,66.941 503.038,68.2743 509.5,70.5C 509.265,71.0967 508.765,71.4301 508,71.5C 501.682,69.8815 495.515,68.2148 489.5,66.5 Z"/></g>
<g><path style="opacity:1" fill="#573e29" d="M 451.5,70.5 C 437.156,70.456 422.822,70.7893 408.5,71.5C 416.95,70.0089 425.617,69.3422 434.5,69.5C 440.343,69.5005 446.01,69.8339 451.5,70.5 Z"/></g>
<g><path style="opacity:1" fill="#a4764d" d="M 451.5,70.5 C 488.673,72.7091 523.673,82.5424 556.5,100C 566.67,105.248 576.337,111.248 585.5,118C 592.486,120.606 599.486,123.106 606.5,125.5C 602.159,127.668 597.492,129.168 592.5,130C 589.924,133.681 591.09,135.848 596,136.5C 599.8,136.222 603.133,134.889 606,132.5C 606.377,133.942 607.21,134.942 608.5,135.5C 613.936,139.76 619.269,144.26 624.5,149C 623.833,149.333 623.167,149.667 622.5,150C 652.199,180.375 673.199,216.042 685.5,257C 685.095,257.945 684.428,258.612 683.5,259C 675.559,259.446 667.893,260.946 660.5,263.5C 659.883,263.389 659.383,263.056 659,262.5C 658.632,252.146 657.966,241.813 657,231.5C 653.209,222.586 648.876,213.919 644,205.5C 636.705,196.536 629.038,187.87 621,179.5C 616.501,171.164 611.501,163.164 606,155.5C 593.867,145.035 582.034,134.202 570.5,123C 559.463,115.816 548.13,109.149 536.5,103C 520.293,95.9312 503.627,90.2645 486.5,86C 469.028,82.9525 451.528,80.1192 434,77.5C 422.859,77.733 411.693,77.8996 400.5,78C 397.245,79.1534 393.912,79.9868 390.5,80.5C 390.326,78.139 389.993,75.8056 389.5,73.5C 395.782,72.4232 402.116,71.7565 408.5,71.5C 422.822,70.7893 437.156,70.456 451.5,70.5 Z"/></g>
<g><path style="opacity:1" fill="#875632" d="M 660.5,263.5 C 659.791,264.404 658.791,264.737 657.5,264.5C 643.656,222.171 620.656,185.671 588.5,155C 565.705,135.756 540.705,119.756 513.5,107C 472.629,92.6872 430.629,87.1872 387.5,90.5C 387.5,89.8333 387.5,89.1667 387.5,88.5C 389.278,86.1708 390.278,83.5042 390.5,80.5C 393.912,79.9868 397.245,79.1534 400.5,78C 411.693,77.8996 422.859,77.733 434,77.5C 451.528,80.1192 469.028,82.9525 486.5,86C 503.627,90.2645 520.293,95.9312 536.5,103C 548.13,109.149 559.463,115.816 570.5,123C 582.034,134.202 593.867,145.035 606,155.5C 611.501,163.164 616.501,171.164 621,179.5C 629.038,187.87 636.705,196.536 644,205.5C 648.876,213.919 653.209,222.586 657,231.5C 657.966,241.813 658.632,252.146 659,262.5C 659.383,263.056 659.883,263.389 660.5,263.5 Z"/></g>
<g><path style="opacity:0.988" fill="#433121" d="M 543.5,83.5 C 550.976,86.4034 557.976,90.0701 564.5,94.5C 556.948,91.5608 549.948,87.8941 543.5,83.5 Z"/></g>
<g><path style="opacity:1" fill="#603d29" d="M 235.5,92.5 C 233.778,95.9196 233.111,99.5863 233.5,103.5C 230.907,104.754 228.573,106.42 226.5,108.5C 226.844,101.824 229.844,96.4903 235.5,92.5 Z"/></g>
<g><path style="opacity:1" fill="#a6774e" d="M 656.5,432.5 C 650.562,436.603 645.395,441.603 641,447.5C 631.827,461.848 622.16,475.848 612,489.5C 610.991,491.025 610.491,492.692 610.5,494.5C 610.167,494.5 609.833,494.5 609.5,494.5C 607.706,488.992 604.872,483.992 601,479.5C 597.298,486.904 593.631,494.237 590,501.5C 588.232,493.609 586.732,485.609 585.5,477.5C 584.448,477.351 583.448,477.517 582.5,478C 570.112,493.054 556.446,506.721 541.5,519C 535.33,522.919 528.997,526.586 522.5,530C 502.262,536.559 481.595,541.226 460.5,544C 449.188,544.96 437.855,545.46 426.5,545.5C 406.197,544.233 385.864,543.4 365.5,543C 357.518,540.844 349.852,537.844 342.5,534C 336.934,528.598 330.934,523.764 324.5,519.5C 323.772,517.807 322.772,516.307 321.5,515C 288.304,497.486 258.804,474.986 233,447.5C 222.011,433.527 212.011,418.86 203,403.5C 195.084,384.502 188.084,365.169 182,345.5C 179.451,332.873 177.118,320.206 175,307.5C 174.5,296.505 174.333,285.505 174.5,274.5C 177.354,268.626 180.354,262.793 183.5,257C 183.333,255.5 182.5,254.667 181,254.5C 179.037,255.625 177.204,256.959 175.5,258.5C 174.099,257.479 172.765,256.479 171.5,255.5C 176.65,249.907 181.817,244.24 187,238.5C 192.196,231.894 196.862,224.228 201,215.5C 223.2,178.653 253.7,149.487 292.5,128C 310.201,119.215 328.201,111.215 346.5,104C 374.914,98.6421 403.581,96.6421 432.5,98C 460.365,101.643 487.698,107.643 514.5,116C 547.164,130.978 575.664,151.811 600,178.5C 632.225,218.093 653.558,263.093 664,313.5C 673.273,353.908 670.773,393.575 656.5,432.5 Z"/></g>
<g><path style="opacity:1" fill="#3c2c1e" d="M 569.5,97.5 C 576.391,101.105 582.725,105.438 588.5,110.5C 581.571,106.882 575.238,102.549 569.5,97.5 Z"/></g>
<g><path style="opacity:0.09" fill="#7e5b3d" d="M 590.5,111.5 C 593.232,112.866 595.899,114.199 598.5,115.5C 594.737,115.143 591.07,114.31 587.5,113C 588.527,112.487 589.527,111.987 590.5,111.5 Z"/></g>
<g><path style="opacity:1" fill="#895834" d="M 606.5,125.5 C 608.14,126.32 609.807,127.153 611.5,128C 610.349,130.464 609.349,132.964 608.5,135.5C 607.21,134.942 606.377,133.942 606,132.5C 603.133,134.889 599.8,136.222 596,136.5C 591.09,135.848 589.924,133.681 592.5,130C 597.492,129.168 602.159,127.668 606.5,125.5 Z"/></g>
<g><path style="opacity:1" fill="#966c47" d="M 616.5,130.5 C 617.167,132.167 617.833,133.833 618.5,135.5C 616.695,134.763 615.029,133.763 613.5,132.5C 614.357,131.575 615.357,130.908 616.5,130.5 Z"/></g>
<g><path style="opacity:0.052" fill="#000000" d="M 184.5,141.5 C 185.997,143.29 186.664,145.456 186.5,148C 186.167,149.5 185.833,151 185.5,152.5C 184.511,148.893 184.177,145.226 184.5,141.5 Z"/></g>
<g><path style="opacity:1" fill="#875631" d="M 207.5,153.5 C 212.265,160.1 217.931,165.933 224.5,171C 208.608,187.898 195.441,206.732 185,227.5C 184.805,229.207 184.805,230.874 185,232.5C 178.596,239.397 172.429,246.397 166.5,253.5C 168.728,244.156 168.895,234.823 167,225.5C 161.975,220.997 156.475,220.331 150.5,223.5C 164.068,201.257 180.402,181.091 199.5,163C 201.76,161.311 204.26,160.144 207,159.5C 207.507,158.004 207.007,156.837 205.5,156C 203.942,155.79 202.609,155.29 201.5,154.5C 203.735,154.795 205.735,154.461 207.5,153.5 Z"/></g>
<g><path style="opacity:1" fill="#875631" d="M 374.5,195.5 C 366.61,189.72 357.944,185.22 348.5,182C 316.406,175.395 296.906,188.228 290,220.5C 286.835,244.273 296.002,261.107 317.5,271C 333.482,276.686 349.482,276.853 365.5,271.5C 360.76,276.388 355.093,279.888 348.5,282C 335.48,282.626 322.48,282.293 309.5,281C 273.54,266.843 263.04,241.676 278,205.5C 289.316,182.202 307.983,170.202 334,169.5C 352.15,170.988 365.65,179.655 374.5,195.5 Z"/></g>
<g><path style="opacity:1" fill="#976d48" d="M 176.5,175.5 C 175.2,178.432 173.2,180.766 170.5,182.5C 171.412,180.405 172.579,178.405 174,176.5C 174.671,175.748 175.504,175.414 176.5,175.5 Z"/></g>
<g><path style="opacity:1" fill="#060504" d="M 374.5,195.5 C 380.921,201.419 386.421,208.086 391,215.5C 394.275,223.485 394.275,231.485 391,239.5C 387.333,246.167 383.667,252.833 380,259.5C 375.876,264.467 371.042,268.467 365.5,271.5C 349.482,276.853 333.482,276.686 317.5,271C 296.002,261.107 286.835,244.273 290,220.5C 296.906,188.228 316.406,175.395 348.5,182C 357.944,185.22 366.61,189.72 374.5,195.5 Z"/></g>
<g><path style="opacity:1" fill="#f2f2f2" d="M 379.5,247.5 C 380.164,244.854 380.498,242.021 380.5,239C 380.714,234.867 380.048,231.034 378.5,227.5C 372.167,205.485 357.5,195.652 334.5,198C 314.798,202.534 303.131,214.701 299.5,234.5C 298.778,234.918 298.278,235.584 298,236.5C 297.502,233.518 297.335,230.518 297.5,227.5C 298.428,209.801 306.761,196.968 322.5,189C 347.539,186.937 367.372,196.103 382,216.5C 382.635,218.618 383.469,220.618 384.5,222.5C 384.514,230.071 384.347,237.738 384,245.5C 382.08,248.339 380.413,251.339 379,254.5C 378.666,252.153 378.833,249.819 379.5,247.5 Z"/></g>
<g><path style="opacity:1" fill="#a5774e" d="M 166.5,253.5 C 165.732,254.263 165.232,255.263 165,256.5C 164.833,255.833 164.667,255.167 164.5,254.5C 165.662,250.206 166.162,245.872 166,241.5C 159.944,254.335 154.278,267.335 149,280.5C 143.746,303.927 137.079,326.927 129,349.5C 125.341,367.816 121.675,386.15 118,404.5C 112.53,450.367 113.864,496.034 122,541.5C 125.714,553.262 129.714,564.929 134,576.5C 134.497,579.146 134.664,581.813 134.5,584.5C 125.769,584.449 118.602,587.782 113,594.5C 112.405,593.101 112.572,591.768 113.5,590.5C 112.753,590.264 111.92,589.93 111,589.5C 90.5806,540.566 81.4139,489.566 83.5,436.5C 82.5,436.5 81.5,436.5 80.5,436.5C 82.9635,428.724 84.4635,420.724 85,412.5C 85.3333,412.833 85.6667,413.167 86,413.5C 91.2687,344.525 112.769,281.192 150.5,223.5C 156.475,220.331 161.975,220.997 167,225.5C 168.895,234.823 168.728,244.156 166.5,253.5 Z"/></g>
<g><path style="opacity:1" fill="#f6f6f6" d="M 348.5,231.5 C 360.702,230.866 366.202,236.533 365,248.5C 355.682,258.771 348.349,257.438 343,244.5C 341.571,238.7 343.404,234.367 348.5,231.5 Z"/></g>
<g><path style="opacity:1" fill="#515151" d="M 378.5,227.5 C 380.048,231.034 380.714,234.867 380.5,239C 380.498,242.021 380.164,244.854 379.5,247.5C 379.664,240.798 379.331,234.131 378.5,227.5 Z"/></g>
<g><path style="opacity:1" fill="#6c6c6c" d="M 297.5,227.5 C 297.335,230.518 297.502,233.518 298,236.5C 298.278,235.584 298.778,234.918 299.5,234.5C 299.799,236.604 299.466,238.604 298.5,240.5C 296.366,236.188 296.033,231.854 297.5,227.5 Z"/></g>
<g><path style="opacity:1" fill="#885631" d="M 166.5,253.5 C 166.019,257.349 167.686,259.349 171.5,259.5C 172.263,260.268 173.263,260.768 174.5,261C 167.293,270.914 161.793,281.747 158,293.5C 157.667,298.167 157.333,302.833 157,307.5C 146.303,323.238 139.303,340.571 136,359.5C 125.901,435.433 127.401,511.1 140.5,586.5C 140.737,587.791 140.404,588.791 139.5,589.5C 138.8,586.8 137.134,585.133 134.5,584.5C 134.664,581.813 134.497,579.146 134,576.5C 129.714,564.929 125.714,553.262 122,541.5C 113.864,496.034 112.53,450.367 118,404.5C 121.675,386.15 125.341,367.816 129,349.5C 137.079,326.927 143.746,303.927 149,280.5C 154.278,267.335 159.944,254.335 166,241.5C 166.162,245.872 165.662,250.206 164.5,254.5C 164.667,255.167 164.833,255.833 165,256.5C 165.232,255.263 165.732,254.263 166.5,253.5 Z"/></g>
<g><path style="opacity:1" fill="#865631" d="M 455.5,260.5 C 455.281,261.675 455.614,262.675 456.5,263.5C 461.515,265.341 466.182,267.674 470.5,270.5C 470.291,271.922 469.791,273.255 469,274.5C 462.795,271.621 457.128,267.954 452,263.5C 451.517,262.552 451.351,261.552 451.5,260.5C 452.833,260.5 454.167,260.5 455.5,260.5 Z"/></g>
<g><path style="opacity:1" fill="#100a05" d="M 470.5,270.5 C 466.182,267.674 461.515,265.341 456.5,263.5C 455.614,262.675 455.281,261.675 455.5,260.5C 460.323,259.019 464.99,259.519 469.5,262C 473.029,264.577 473.363,267.41 470.5,270.5 Z"/></g>
<g><path style="opacity:1" fill="#5d3b27" d="M 695.5,266.5 C 685.102,269.061 679.102,275.561 677.5,286C 677.365,289.042 678.031,291.875 679.5,294.5C 684.666,297.322 689.666,300.322 694.5,303.5C 686.439,302.708 678.772,304.041 671.5,307.5C 668.199,294.132 664.199,280.965 659.5,268C 659.905,267.055 660.572,266.388 661.5,266C 667.813,265.235 674.146,264.735 680.5,264.5C 685.745,264.392 690.745,265.058 695.5,266.5 Z"/></g>
<g><path style="opacity:1" fill="#7f5a40" d="M 695.5,266.5 C 713.229,268.537 728.896,275.203 742.5,286.5C 741.037,288.598 741.204,290.598 743,292.5C 750.783,302.286 757.783,312.62 764,323.5C 764.259,326.587 764.759,329.587 765.5,332.5C 769.243,344.712 771.91,357.212 773.5,370C 767.989,399.228 751.989,420.394 725.5,433.5C 725.77,431.193 727.103,429.026 729.5,427C 724.014,428.737 718.681,431.071 713.5,434C 705.041,436.893 696.374,438.227 687.5,438C 684.452,437.394 681.952,435.894 680,433.5C 678.753,430.671 677.253,428.005 675.5,425.5C 684.428,425.284 691.928,421.951 698,415.5C 698.044,417.76 697.211,419.76 695.5,421.5C 698.106,422.652 700.773,422.818 703.5,422C 709.934,418.316 714.601,413.149 717.5,406.5C 729.065,393.363 735.732,378.029 737.5,360.5C 738.754,351.345 739.254,342.012 739,332.5C 733.166,315.665 721.333,307.332 703.5,307.5C 700.5,306.167 697.5,304.833 694.5,303.5C 689.666,300.322 684.666,297.322 679.5,294.5C 678.031,291.875 677.365,289.042 677.5,286C 679.102,275.561 685.102,269.061 695.5,266.5 Z"/></g>
<g><path style="opacity:1" fill="#875632" d="M 444.5,272.5 C 444.369,273.376 444.702,274.043 445.5,274.5C 453.68,278.355 460.68,283.688 466.5,290.5C 464.864,291.749 463.697,293.416 463,295.5C 459.812,291.315 456.312,287.482 452.5,284C 447.249,281.472 441.916,279.139 436.5,277C 435.269,275.817 435.269,274.651 436.5,273.5C 439.084,272.607 441.751,272.274 444.5,272.5 Z"/></g>
<g><path style="opacity:1" fill="#0d0804" d="M 466.5,290.5 C 460.68,283.688 453.68,278.355 445.5,274.5C 444.702,274.043 444.369,273.376 444.5,272.5C 458.144,271.308 466.144,277.474 468.5,291C 467.563,291.692 466.897,291.525 466.5,290.5 Z"/></g>
<g><path style="opacity:1" fill="#885631" d="M 174.5,274.5 C 174.333,285.505 174.5,296.505 175,307.5C 177.118,320.206 179.451,332.873 182,345.5C 188.084,365.169 195.084,384.502 203,403.5C 212.011,418.86 222.011,433.527 233,447.5C 258.804,474.986 288.304,497.486 321.5,515C 322.772,516.307 323.772,517.807 324.5,519.5C 330.934,523.764 336.934,528.598 342.5,534C 349.852,537.844 357.518,540.844 365.5,543C 385.864,543.4 406.197,544.233 426.5,545.5C 437.855,545.46 449.188,544.96 460.5,544C 481.595,541.226 502.262,536.559 522.5,530C 528.997,526.586 535.33,522.919 541.5,519C 556.446,506.721 570.112,493.054 582.5,478C 583.448,477.517 584.448,477.351 585.5,477.5C 586.732,485.609 588.232,493.609 590,501.5C 593.631,494.237 597.298,486.904 601,479.5C 604.872,483.992 607.706,488.992 609.5,494.5C 608.091,501.974 606.757,509.474 605.5,517C 605.104,520.939 606.771,522.272 610.5,521C 614.79,514.92 618.957,508.753 623,502.5C 633.573,483.439 644.74,464.772 656.5,446.5C 658.336,447.919 660.336,449.086 662.5,450C 666.65,450.184 670.65,451.018 674.5,452.5C 679.102,482.501 680.769,512.501 679.5,542.5C 678.337,551.015 676.17,560.015 673,569.5C 671.737,571.797 669.903,572.63 667.5,572C 665.867,558.967 661.7,546.8 655,535.5C 653.333,533.833 651.667,532.167 650,530.5C 637.161,548.187 624.828,566.187 613,584.5C 612.667,583.5 612.333,582.5 612,581.5C 582.416,610.039 546.916,624.539 505.5,625C 492.695,625.837 480.195,624.337 468,620.5C 464.435,620.548 461.268,621.548 458.5,623.5C 457.593,620.196 456.093,619.862 454,622.5C 453.503,624.81 453.337,627.143 453.5,629.5C 444.84,631.831 436.173,634.164 427.5,636.5C 409.168,634.915 390.834,632.415 372.5,629C 368.037,626.7 363.704,624.2 359.5,621.5C 358.548,623.045 358.215,624.712 358.5,626.5C 356.837,624.507 355.67,622.174 355,619.5C 354.829,614.467 354.329,609.467 353.5,604.5C 352.914,604.709 352.414,605.043 352,605.5C 351.805,614.215 351.305,622.881 350.5,631.5C 352.126,642.743 352.959,654.076 353,665.5C 353.667,678.5 353.667,691.5 353,704.5C 350.588,699.252 346.754,695.586 341.5,693.5C 336.305,654.691 326.472,617.024 312,580.5C 307.213,571.09 302.047,561.924 296.5,553C 289.886,553.543 283.219,553.543 276.5,553C 254.836,548.896 234.836,540.896 216.5,529C 207.53,521.031 198.863,512.697 190.5,504C 182.155,500.606 173.488,498.773 164.5,498.5C 157.045,498.374 150.212,500.374 144,504.5C 141.454,507.86 139.621,511.526 138.5,515.5C 135.769,473.648 135.935,431.648 139,389.5C 140.109,364.447 145.609,340.447 155.5,317.5C 156.167,324.833 156.833,332.167 157.5,339.5C 161.112,357.394 164.278,375.394 167,393.5C 181.464,451.965 216.631,492.465 272.5,515C 280.889,518.741 289.556,521.574 298.5,523.5C 301.871,534.37 309.037,541.37 320,544.5C 323.091,544.008 325.925,543.175 328.5,542C 347.634,559.79 368.968,574.457 392.5,586C 422.039,598.489 452.372,600.822 483.5,593C 512.748,586.374 539.081,573.874 562.5,555.5C 563.167,555.833 563.833,556.167 564.5,556.5C 571.338,553.422 577.005,548.922 581.5,543C 585.667,541.5 588.5,538.667 590,534.5C 595.213,524.741 599.88,514.741 604,504.5C 604.497,502.19 604.663,499.857 604.5,497.5C 602.856,497.286 601.356,497.62 600,498.5C 593.62,513.596 585.954,527.93 577,541.5C 574.833,543.667 572.667,545.833 570.5,548C 569.551,548.617 568.718,548.451 568,547.5C 567.101,538.381 565.767,538.381 564,547.5C 525.866,576.766 482.699,590.599 434.5,589C 413.02,586.729 393.02,580.062 374.5,569C 360.559,560.058 346.892,550.724 333.5,541C 330.124,539.497 326.791,537.997 323.5,536.5C 322.614,537.325 322.281,538.325 322.5,539.5C 319.206,539.741 316.206,538.908 313.5,537C 309.082,533.253 305.416,528.92 302.5,524C 282.238,518.533 263.572,509.866 246.5,498C 225.41,481.584 207.91,462.084 194,439.5C 178.514,409.537 168.514,377.87 164,344.5C 163.172,328.139 163.505,311.806 165,295.5C 166.575,287.69 169.742,280.69 174.5,274.5 Z"/></g>
<g><path style="opacity:1" fill="#080402" d="M 477.5,344.5 C 481.151,349.616 482.651,355.283 482,361.5C 479.06,367.046 476.394,372.713 474,378.5C 469.269,384.783 463.102,388.95 455.5,391C 436.032,397.836 418.198,395.003 402,382.5C 397.697,389.634 393.197,396.634 388.5,403.5C 391.57,405.464 394.403,407.798 397,410.5C 398.177,414.492 396.677,416.158 392.5,415.5C 387.86,413.18 383.193,410.847 378.5,408.5C 375.787,406.786 373.787,404.453 372.5,401.5C 375.889,401.632 379.223,401.799 382.5,402C 385.968,394.518 390.301,387.518 395.5,381C 365.536,364.881 356.369,340.714 368,308.5C 370.258,303.647 372.758,298.981 375.5,294.5C 378.063,290.264 381.73,287.598 386.5,286.5C 429.719,285.927 460.053,305.26 477.5,344.5 Z"/></g>
<g><path style="opacity:1" fill="#5d3b28" d="M 742.5,286.5 C 752.816,293.982 760.316,303.649 765,315.5C 769.321,319.309 772.154,323.975 773.5,329.5C 770.212,329.016 767.545,330.016 765.5,332.5C 764.759,329.587 764.259,326.587 764,323.5C 757.783,312.62 750.783,302.286 743,292.5C 741.204,290.598 741.037,288.598 742.5,286.5 Z"/></g>
<g><path style="opacity:1" fill="#473223" d="M 478.5,353.5 C 478.372,351.91 477.705,350.577 476.5,349.5C 474.992,360.18 468.992,367.013 458.5,370C 451.838,371.997 445.171,373.997 438.5,376C 427.766,378.8 417.432,377.8 407.5,373C 400.109,367.277 392.443,361.944 384.5,357C 375.896,348.628 371.563,338.461 371.5,326.5C 372.613,312.444 377.946,300.277 387.5,290C 407.68,293.395 426.347,300.728 443.5,312C 452.068,319.998 459.568,328.831 466,338.5C 469.446,342.548 473.446,345.882 478,348.5C 478.707,350.081 479.54,351.581 480.5,353C 479.906,353.464 479.239,353.631 478.5,353.5 Z"/></g>
<g><path style="opacity:1" fill="#875531" d="M 375.5,294.5 C 372.758,298.981 370.258,303.647 368,308.5C 356.369,340.714 365.536,364.881 395.5,381C 390.301,387.518 385.968,394.518 382.5,402C 379.223,401.799 375.889,401.632 372.5,401.5C 373.209,400.596 374.209,400.263 375.5,400.5C 377.058,394.251 377.558,387.917 377,381.5C 360.375,369.683 351.208,353.516 349.5,333C 351.494,318.35 357.494,305.683 367.5,295C 366.847,291.338 368.514,290.005 372.5,291C 373.636,292.145 374.636,293.312 375.5,294.5 Z"/></g>
<g><path style="opacity:1" fill="#0c0805" d="M 391.5,316.5 C 394.098,317.528 394.098,318.528 391.5,319.5C 394.132,326.798 399.132,331.798 406.5,334.5C 413.212,340.184 420.879,344.184 429.5,346.5C 433.646,347.647 437.98,347.814 442.5,347C 443.437,335.995 439.437,327.162 430.5,320.5C 424.63,316.064 418.297,312.397 411.5,309.5C 406.652,305.548 400.985,303.548 394.5,303.5C 404.575,302.796 413.909,305.296 422.5,311C 431.972,315.474 439.139,322.307 444,331.5C 445.048,335.79 445.882,340.124 446.5,344.5C 446.162,349.695 443.329,352.028 438,351.5C 419.156,347.578 402.823,338.911 389,325.5C 387.578,322.97 387.245,320.303 388,317.5C 389.011,316.663 390.178,316.33 391.5,316.5 Z"/></g>
<g><path style="opacity:1" fill="#836b51" d="M 411.5,309.5 C 418.297,312.397 424.63,316.064 430.5,320.5C 431.688,323.041 433.022,325.541 434.5,328C 435.182,332.646 436.182,337.146 437.5,341.5C 437.449,343.1 437.116,344.6 436.5,346C 434.19,346.497 431.857,346.663 429.5,346.5C 420.879,344.184 413.212,340.184 406.5,334.5C 401.264,329.719 396.264,324.719 391.5,319.5C 394.098,318.528 394.098,317.528 391.5,316.5C 392.23,315.288 393.23,314.288 394.5,313.5C 393.025,310.755 393.691,308.588 396.5,307C 398.833,306.333 401.167,306.333 403.5,307C 406.022,308.341 408.689,309.174 411.5,309.5 Z"/></g>
<g><path style="opacity:1" fill="#5d3b27" d="M 703.5,307.5 C 721.333,307.332 733.166,315.665 739,332.5C 739.254,342.012 738.754,351.345 737.5,360.5C 738.896,350.157 737.063,340.49 732,331.5C 724.685,324.22 715.851,319.886 705.5,318.5C 706.042,314.763 705.376,311.097 703.5,307.5 Z"/></g>
<g><path style="opacity:1" fill="#5e3b27" d="M 717.5,406.5 C 714.601,413.149 709.934,418.316 703.5,422C 700.773,422.818 698.106,422.652 695.5,421.5C 697.211,419.76 698.044,417.76 698,415.5C 691.928,421.951 684.428,425.284 675.5,425.5C 677.253,428.005 678.753,430.671 680,433.5C 681.952,435.894 684.452,437.394 687.5,438C 696.374,438.227 705.041,436.893 713.5,434C 718.681,431.071 724.014,428.737 729.5,427C 727.103,429.026 725.77,431.193 725.5,433.5C 714.028,440.497 701.695,445.664 688.5,449C 684.459,449.827 680.459,449.66 676.5,448.5C 675.263,444.475 672.763,443.475 669,445.5C 665.138,444.794 661.305,443.961 657.5,443C 674.598,401.883 679.598,359.216 672.5,315C 672.675,313.342 673.342,312.009 674.5,311C 681.516,309.118 688.516,309.118 695.5,311C 698.861,312.426 699.361,314.593 697,317.5C 695.559,318.87 693.892,319.87 692,320.5C 691.517,321.448 691.351,322.448 691.5,323.5C 704.197,322.677 715.364,326.344 725,334.5C 730.768,344.509 732.101,355.176 729,366.5C 726.017,380.785 720.683,394.118 713,406.5C 710.131,409.704 706.965,412.537 703.5,415C 704.908,415.315 706.241,414.982 707.5,414C 710.729,411.259 714.062,408.759 717.5,406.5 Z"/></g>
<g><path style="opacity:1" fill="#050504" d="M 552.5,313.5 C 574.366,321.532 589.533,336.532 598,358.5C 603.893,384.214 594.726,402.381 570.5,413C 546.272,422.971 526.605,417.471 511.5,396.5C 503.342,379.891 501.175,362.558 505,344.5C 507.63,337.865 511.797,332.365 517.5,328C 523.108,324.724 528.442,321.057 533.5,317C 539.483,314.015 545.816,312.849 552.5,313.5 Z"/></g>
<g><path style="opacity:1" fill="#885632" d="M 552.5,313.5 C 567.624,315.097 580.124,321.763 590,333.5C 592.95,338.118 596.284,342.452 600,346.5C 609.448,362.774 612.115,380.107 608,398.5C 600.395,416.075 587.229,427.242 568.5,432C 560.719,434.202 553.052,433.868 545.5,431C 539.634,426.969 533.634,423.136 527.5,419.5C 520.557,412.901 515.224,405.234 511.5,396.5C 526.605,417.471 546.272,422.971 570.5,413C 594.726,402.381 603.893,384.214 598,358.5C 589.533,336.532 574.366,321.532 552.5,313.5 Z"/></g>
<g><path style="opacity:1" fill="#f4f4f4" d="M 550.5,409.5 C 548.901,409.768 547.568,409.434 546.5,408.5C 564.408,404.426 575.574,393.426 580,375.5C 583.277,345.053 569.61,329.387 539,328.5C 532.575,328.257 526.408,329.09 520.5,331C 523.228,328.608 526.228,326.608 529.5,325C 544.283,319.778 557.617,322.111 569.5,332C 582.27,342.589 589.603,356.089 591.5,372.5C 590.292,388.887 581.959,400.054 566.5,406C 561.4,408.313 556.067,409.48 550.5,409.5 Z"/></g>
<g><path style="opacity:1" fill="#483324" d="M 430.5,320.5 C 439.437,327.162 443.437,335.995 442.5,347C 437.98,347.814 433.646,347.647 429.5,346.5C 431.857,346.663 434.19,346.497 436.5,346C 437.116,344.6 437.449,343.1 437.5,341.5C 436.182,337.146 435.182,332.646 434.5,328C 433.022,325.541 431.688,323.041 430.5,320.5 Z"/></g>
<g><path style="opacity:1" fill="#4b3627" d="M 391.5,319.5 C 396.264,324.719 401.264,329.719 406.5,334.5C 399.132,331.798 394.132,326.798 391.5,319.5 Z"/></g>
<g><path style="opacity:1" fill="#8a5833" d="M 205.5,333.5 C 204.854,357.455 208.687,380.788 217,403.5C 223.985,426.212 221.318,427.879 209,408.5C 205.345,401.868 202.679,394.868 201,387.5C 200.333,375.167 200.333,362.833 201,350.5C 202.039,344.674 203.539,339.007 205.5,333.5 Z"/></g>
<g><path style="opacity:1" fill="#2c1d14" d="M 371.5,326.5 C 371.563,338.461 375.896,348.628 384.5,357C 392.443,361.944 400.109,367.277 407.5,373C 417.432,377.8 427.766,378.8 438.5,376C 445.171,373.997 451.838,371.997 458.5,370C 468.992,367.013 474.992,360.18 476.5,349.5C 477.705,350.577 478.372,351.91 478.5,353.5C 470.895,379.042 453.228,390.208 425.5,387C 418.368,385.677 411.534,383.51 405,380.5C 404.51,379.207 404.343,377.873 404.5,376.5C 402.473,376.662 400.473,376.495 398.5,376C 391.069,370.573 384.236,364.407 378,357.5C 371.896,347.806 369.729,337.472 371.5,326.5 Z"/></g>
<g><path style="opacity:1" fill="#f9f9f9" d="M 543.5,354.5 C 553.215,353.511 559.215,357.678 561.5,367C 561.485,371.373 559.485,374.373 555.5,376C 547.959,378.137 542.126,375.97 538,369.5C 537.333,366.833 537.333,364.167 538,361.5C 539.666,359.004 541.5,356.671 543.5,354.5 Z"/></g>
<g><path style="opacity:1" fill="#875531" d="M 477.5,344.5 C 478.496,344.414 479.329,344.748 480,345.5C 487.629,357.045 489.296,369.378 485,382.5C 482.378,388.402 478.212,392.902 472.5,396C 463.112,400.098 453.445,403.432 443.5,406C 433.099,406.545 422.766,405.879 412.5,404C 409.794,402.452 406.96,401.286 404,400.5C 400.059,403.525 398.559,407.358 399.5,412C 398.815,414.795 398.315,417.628 398,420.5C 395.809,419.167 393.976,417.5 392.5,415.5C 396.677,416.158 398.177,414.492 397,410.5C 394.403,407.798 391.57,405.464 388.5,403.5C 393.197,396.634 397.697,389.634 402,382.5C 418.198,395.003 436.032,397.836 455.5,391C 463.102,388.95 469.269,384.783 474,378.5C 476.394,372.713 479.06,367.046 482,361.5C 482.651,355.283 481.151,349.616 477.5,344.5 Z"/></g>
<g><path style="opacity:1" fill="#3f2e20" d="M 82.5,376.5 C 83.1582,377.793 83.4915,379.293 83.5,381C 83.664,383.544 82.9973,385.71 81.5,387.5C 81.7244,383.821 82.0578,380.154 82.5,376.5 Z"/></g>
<g><path style="opacity:1" fill="#885733" d="M 372.5,401.5 C 373.787,404.453 375.787,406.786 378.5,408.5C 373.295,406.822 367.961,405.656 362.5,405C 361.5,404.167 360.5,403.333 359.5,402.5C 363.843,401.078 368.176,400.744 372.5,401.5 Z"/></g>
<g><path style="opacity:1" fill="#5f452e" d="M 80.5,390.5 C 81.1582,391.793 81.4915,393.293 81.5,395C 80.5863,404.043 79.253,412.877 77.5,421.5C 78.4268,411.159 79.4268,400.825 80.5,390.5 Z"/></g>
<g><path style="opacity:1" fill="#696969" d="M 546.5,408.5 C 547.568,409.434 548.901,409.768 550.5,409.5C 548.153,410.895 545.819,410.728 543.5,409C 544.448,408.517 545.448,408.351 546.5,408.5 Z"/></g>
<g><path style="opacity:0.995" fill="#986d49" d="M 764.5,408.5 C 757.122,424.877 744.789,435.543 727.5,440.5C 741.68,431.988 754.014,421.321 764.5,408.5 Z"/></g>
<g><path style="opacity:1" fill="#855531" d="M 656.5,432.5 C 648.471,452.083 637.804,469.917 624.5,486C 624.957,486.414 625.291,486.914 625.5,487.5C 620.587,496.994 615.42,506.328 610,515.5C 610.356,508.397 611.523,501.397 613.5,494.5C 612.5,494.5 611.5,494.5 610.5,494.5C 610.491,492.692 610.991,491.025 612,489.5C 622.16,475.848 631.827,461.848 641,447.5C 645.395,441.603 650.562,436.603 656.5,432.5 Z"/></g>
<g><path style="opacity:1" fill="#875631" d="M 723.5,493.5 C 719.267,496.585 714.6,499.085 709.5,501C 706.72,502.812 704.22,504.979 702,507.5C 697.049,532.05 694.216,556.883 693.5,582C 696.86,585.878 699.86,590.045 702.5,594.5C 696.818,593.93 691.485,594.93 686.5,597.5C 684.847,597.34 683.514,596.674 682.5,595.5C 688.348,561.385 690.015,527.052 687.5,492.5C 686.15,479.716 684.15,467.049 681.5,454.5C 687.192,454.663 692.859,454.163 698.5,453C 705.7,450.656 712.7,447.822 719.5,444.5C 721.071,446.882 721.904,449.549 722,452.5C 722.978,466.151 723.478,479.817 723.5,493.5 Z"/></g>
<g><path style="opacity:1" fill="#684b32" d="M 75.5,443.5 C 77.1372,461.502 78.4705,479.835 79.5,498.5C 79.4932,500.369 79.1599,502.036 78.5,503.5C 76.7028,483.542 75.7028,463.542 75.5,443.5 Z"/></g>
<g><path style="opacity:1" fill="#a5764e" d="M 723.5,493.5 C 723.716,509.19 723.216,524.857 722,540.5C 719.091,561.436 716.758,582.436 715,603.5C 711.701,599.118 707.534,596.118 702.5,594.5C 699.86,590.045 696.86,585.878 693.5,582C 694.216,556.883 697.049,532.05 702,507.5C 704.22,504.979 706.72,502.812 709.5,501C 714.6,499.085 719.267,496.585 723.5,493.5 Z"/></g>
<g><path style="opacity:1" fill="#a6774e" d="M 341.5,693.5 C 335.441,693.254 329.441,693.587 323.5,694.5C 322.776,692.782 322.109,690.948 321.5,689C 316.322,689.383 311.155,690.216 306,691.5C 302.877,691.182 300.044,690.182 297.5,688.5C 290.08,674.959 278.746,669.792 263.5,673C 255.698,676.066 248.365,679.9 241.5,684.5C 242.014,682.634 242.68,680.8 243.5,679C 243.167,678.5 242.833,678 242.5,677.5C 234.568,681.144 226.234,683.144 217.5,683.5C 203.98,677.668 190.813,678.335 178,685.5C 176.905,684.307 176.072,682.973 175.5,681.5C 173.15,676.095 170.816,670.761 168.5,665.5C 152.219,616.764 142.219,566.764 138.5,515.5C 139.621,511.526 141.454,507.86 144,504.5C 150.212,500.374 157.045,498.374 164.5,498.5C 173.488,498.773 182.155,500.606 190.5,504C 198.863,512.697 207.53,521.031 216.5,529C 234.836,540.896 254.836,548.896 276.5,553C 283.219,553.543 289.886,553.543 296.5,553C 302.047,561.924 307.213,571.09 312,580.5C 326.472,617.024 336.305,654.691 341.5,693.5 Z"/></g>
<g><path style="opacity:1" fill="#0c0704" d="M 174.5,274.5 C 169.742,280.69 166.575,287.69 165,295.5C 163.505,311.806 163.172,328.139 164,344.5C 168.514,377.87 178.514,409.537 194,439.5C 207.91,462.084 225.41,481.584 246.5,498C 263.572,509.866 282.238,518.533 302.5,524C 305.416,528.92 309.082,533.253 313.5,537C 316.206,538.908 319.206,539.741 322.5,539.5C 322.281,538.325 322.614,537.325 323.5,536.5C 326.791,537.997 330.124,539.497 333.5,541C 346.892,550.724 360.559,560.058 374.5,569C 393.02,580.062 413.02,586.729 434.5,589C 482.699,590.599 525.866,576.766 564,547.5C 565.767,538.381 567.101,538.381 568,547.5C 568.718,548.451 569.551,548.617 570.5,548C 572.667,545.833 574.833,543.667 577,541.5C 585.954,527.93 593.62,513.596 600,498.5C 601.356,497.62 602.856,497.286 604.5,497.5C 604.663,499.857 604.497,502.19 604,504.5C 599.88,514.741 595.213,524.741 590,534.5C 588.5,538.667 585.667,541.5 581.5,543C 577.005,548.922 571.338,553.422 564.5,556.5C 563.833,556.167 563.167,555.833 562.5,555.5C 539.081,573.874 512.748,586.374 483.5,593C 452.372,600.822 422.039,598.489 392.5,586C 368.968,574.457 347.634,559.79 328.5,542C 325.925,543.175 323.091,544.008 320,544.5C 309.037,541.37 301.871,534.37 298.5,523.5C 289.556,521.574 280.889,518.741 272.5,515C 216.631,492.465 181.464,451.965 167,393.5C 164.278,375.394 161.112,357.394 157.5,339.5C 157.666,330.161 157.5,320.827 157,311.5C 156.685,313.586 156.185,315.586 155.5,317.5C 145.609,340.447 140.109,364.447 139,389.5C 135.935,431.648 135.769,473.648 138.5,515.5C 142.219,566.764 152.219,616.764 168.5,665.5C 168.649,666.552 168.483,667.552 168,668.5C 167.329,667.748 166.496,667.414 165.5,667.5C 160.318,657.62 156.318,647.287 153.5,636.5C 152.833,634.167 152.167,631.833 151.5,629.5C 147.342,615.198 143.675,600.864 140.5,586.5C 127.401,511.1 125.901,435.433 136,359.5C 139.303,340.571 146.303,323.238 157,307.5C 157.333,302.833 157.667,298.167 158,293.5C 161.793,281.747 167.293,270.914 174.5,261C 173.263,260.768 172.263,260.268 171.5,259.5C 171.5,258.167 171.5,256.833 171.5,255.5C 172.765,256.479 174.099,257.479 175.5,258.5C 177.204,256.959 179.037,255.625 181,254.5C 182.5,254.667 183.333,255.5 183.5,257C 180.354,262.793 177.354,268.626 174.5,274.5 Z"/></g>
<g><path style="opacity:1" fill="#342114" d="M 157.5,339.5 C 156.833,332.167 156.167,324.833 155.5,317.5C 156.185,315.586 156.685,313.586 157,311.5C 157.5,320.827 157.666,330.161 157.5,339.5 Z"/></g>
<g><path style="opacity:1" fill="#a6774e" d="M 679.5,542.5 C 679.281,550.847 678.781,559.18 678,567.5C 672.767,605.16 665.934,642.494 657.5,679.5C 656.85,679.196 656.183,678.863 655.5,678.5C 654.536,684.752 651.869,690.085 647.5,694.5C 644.388,696.184 641.054,696.85 637.5,696.5C 629.535,692.031 621.201,691.364 612.5,694.5C 603.404,694.257 594.404,692.757 585.5,690C 580.662,686.078 575.329,682.911 569.5,680.5C 568.702,680.957 568.369,681.624 568.5,682.5C 559.041,680.725 550.041,682.058 541.5,686.5C 540.254,683.768 538.087,682.434 535,682.5C 529.875,683.813 525.042,685.813 520.5,688.5C 510.414,684.808 500.081,683.808 489.5,685.5C 490.376,686.251 491.376,686.751 492.5,687C 491.584,687.278 490.918,687.778 490.5,688.5C 482.74,689.713 476.073,693.047 470.5,698.5C 466.921,696.954 463.254,695.287 459.5,693.5C 459.665,670.248 459.332,646.915 458.5,623.5C 461.268,621.548 464.435,620.548 468,620.5C 480.195,624.337 492.695,625.837 505.5,625C 546.916,624.539 582.416,610.039 612,581.5C 612.333,582.5 612.667,583.5 613,584.5C 624.828,566.187 637.161,548.187 650,530.5C 651.667,532.167 653.333,533.833 655,535.5C 661.7,546.8 665.867,558.967 667.5,572C 669.903,572.63 671.737,571.797 673,569.5C 676.17,560.015 678.337,551.015 679.5,542.5 Z"/></g>
<g><path style="opacity:1" fill="#513b29" d="M 83.5,529.5 C 86.0343,533.306 87.0343,537.64 86.5,542.5C 84.7402,538.453 83.7402,534.12 83.5,529.5 Z"/></g>
<g><path style="opacity:1" fill="#74543e" d="M 129.5,592.5 C 130.802,593.807 132.135,593.807 133.5,592.5C 134.953,603.263 131.619,612.263 123.5,619.5C 120.083,620.586 118.083,622.919 117.5,626.5C 110.991,621.879 108.491,615.546 110,607.5C 114.587,600.088 121.087,595.088 129.5,592.5 Z"/></g>
<g><path style="opacity:1" fill="#553726" d="M 140.5,586.5 C 143.675,600.864 147.342,615.198 151.5,629.5C 149.918,630.876 148.085,631.876 146,632.5C 143.563,631.2 141.063,630.2 138.5,629.5C 137.508,629.672 136.842,629.338 136.5,628.5C 138.167,628.5 139.833,628.5 141.5,628.5C 141.657,627.127 141.49,625.793 141,624.5C 135.961,620.323 130.128,618.657 123.5,619.5C 131.619,612.263 134.953,603.263 133.5,592.5C 132.135,593.807 130.802,593.807 129.5,592.5C 132.668,591.556 136.001,591.556 139.5,592.5C 139.281,593.675 139.614,594.675 140.5,595.5C 141.089,593.519 140.755,591.519 139.5,589.5C 140.404,588.791 140.737,587.791 140.5,586.5 Z"/></g>
<g><path style="opacity:1" fill="#543726" d="M 682.5,595.5 C 683.514,596.674 684.847,597.34 686.5,597.5C 685.859,598.482 685.193,599.482 684.5,600.5C 689.802,601.329 695.136,601.829 700.5,602C 702.066,602.608 703.4,603.442 704.5,604.5C 704.372,606.09 703.705,607.423 702.5,608.5C 696.079,610.574 692.746,614.907 692.5,621.5C 687.419,618.599 682.586,618.932 678,622.5C 678.809,613.3 680.309,604.3 682.5,595.5 Z"/></g>
<g><path style="opacity:1" fill="#75543e" d="M 704.5,604.5 C 707.056,605.543 709.223,607.21 711,609.5C 712.803,613.709 713.803,618.042 714,622.5C 707.897,626.27 701.563,629.603 695,632.5C 694.894,628.61 694.061,624.943 692.5,621.5C 692.746,614.907 696.079,610.574 702.5,608.5C 703.705,607.423 704.372,606.09 704.5,604.5 Z"/></g>
<g><path style="opacity:0.044" fill="#000000" d="M 752.5,607.5 C 754.104,608.287 754.771,609.62 754.5,611.5C 752.073,611.477 749.74,610.977 747.5,610C 749.175,609.015 750.842,608.181 752.5,607.5 Z"/></g>
<g><path style="opacity:1" fill="#614634" d="M 106.5,596.5 C 107.172,601.148 107.172,605.981 106.5,611C 106.388,614.658 107.388,617.825 109.5,620.5C 108.885,625.083 107.718,625.416 106,621.5C 105.227,613.118 105.394,604.785 106.5,596.5 Z"/></g>
<g><path style="opacity:1" fill="#a1734c" d="M 427.5,636.5 C 404.815,641.21 382.481,639.71 360.5,632C 359.536,630.275 358.869,628.441 358.5,626.5C 358.215,624.712 358.548,623.045 359.5,621.5C 363.704,624.2 368.037,626.7 372.5,629C 390.834,632.415 409.168,634.915 427.5,636.5 Z"/></g>
<g><path style="opacity:0.034" fill="#000000" d="M 773.5,624.5 C 778.276,624.671 778.609,625.671 774.5,627.5C 772.197,627.124 771.863,626.124 773.5,624.5 Z"/></g>
<g><path style="opacity:1" fill="#beb29a" d="M 676.5,624.5 C 680.273,624.263 683.94,624.763 687.5,626C 690.197,637.724 685.53,642.557 673.5,640.5C 674.495,635.176 675.495,629.843 676.5,624.5 Z"/></g>
<g><path style="opacity:1" fill="#c8bfac" d="M 136.5,628.5 C 136.842,629.338 137.508,629.672 138.5,629.5C 138.5,630.833 138.5,632.167 138.5,633.5C 137.07,633.421 135.736,633.754 134.5,634.5C 133.594,636.386 132.594,638.22 131.5,640C 129.536,640.624 127.869,640.124 126.5,638.5C 126.709,637.914 127.043,637.414 127.5,637C 124.71,634.061 123.543,630.561 124,626.5C 126.068,627.342 128.235,627.342 130.5,626.5C 132.714,626.611 134.714,627.278 136.5,628.5 Z"/></g>
<g><path style="opacity:1" fill="#8c5d38" d="M 138.5,629.5 C 141.063,630.2 143.563,631.2 146,632.5C 148.085,631.876 149.918,630.876 151.5,629.5C 152.167,631.833 152.833,634.167 153.5,636.5C 151.94,636.519 150.44,636.852 149,637.5C 145.644,635.737 142.144,634.404 138.5,633.5C 138.5,632.167 138.5,630.833 138.5,629.5 Z"/></g>
<g><path style="opacity:1" fill="#8d6543" d="M 115.5,631.5 C 117.982,632.804 119.149,634.804 119,637.5C 117.558,635.609 116.391,633.609 115.5,631.5 Z"/></g>
<g><path style="opacity:0.013" fill="#000000" d="M 789.5,664.5 C 789.5,665.5 789.5,666.5 789.5,667.5C 787.015,666.74 787.015,665.74 789.5,664.5 Z"/></g>
<g><path style="opacity:1" fill="#2e2219" d="M 168.5,665.5 C 170.816,670.761 173.15,676.095 175.5,681.5C 174.957,681.56 174.624,681.893 174.5,682.5C 175.167,683.833 175.833,685.167 176.5,686.5C 176.154,687.696 175.654,687.696 175,686.5C 171.82,680.14 168.653,673.807 165.5,667.5C 166.496,667.414 167.329,667.748 168,668.5C 168.483,667.552 168.649,666.552 168.5,665.5 Z"/></g>
<g><path style="opacity:1" fill="#31241a" d="M 667.5,660.5 C 668.124,660.917 668.457,661.584 668.5,662.5C 667,668.5 665.5,674.5 664,680.5C 663.887,673.618 665.053,666.951 667.5,660.5 Z"/></g>
<g><path style="opacity:1" fill="#865531" d="M 241.5,684.5 C 236.531,688.637 232.031,693.304 228,698.5C 227.275,696.051 226.275,693.717 225,691.5C 222.295,688.964 219.795,686.297 217.5,683.5C 226.234,683.144 234.568,681.144 242.5,677.5C 242.833,678 243.167,678.5 243.5,679C 242.68,680.8 242.014,682.634 241.5,684.5 Z"/></g>
<g><path style="opacity:1" fill="#76553f" d="M 289.5,688.5 C 294.803,704.073 292.969,718.739 284,732.5C 281.984,734.684 279.817,736.684 277.5,738.5C 276.614,737.675 276.281,736.675 276.5,735.5C 276.167,719.143 268.167,713.976 252.5,720C 245.892,721.754 242.559,725.921 242.5,732.5C 242.631,733.239 242.464,733.906 242,734.5C 235.504,727.045 233.17,718.378 235,708.5C 236.596,703.582 237.763,698.582 238.5,693.5C 249.605,683.616 262.605,678.783 277.5,679C 282.62,680.975 286.62,684.142 289.5,688.5 Z"/></g>
<g><path style="opacity:1" fill="#875631" d="M 657.5,679.5 C 655.79,689.428 654.623,699.428 654,709.5C 652.71,711.792 651.043,713.792 649,715.5C 646.689,708.206 642.856,701.873 637.5,696.5C 641.054,696.85 644.388,696.184 647.5,694.5C 651.869,690.085 654.536,684.752 655.5,678.5C 656.183,678.863 656.85,679.196 657.5,679.5 Z"/></g>
<g><path style="opacity:1" fill="#865531" d="M 541.5,686.5 C 538.414,689.223 535.08,691.723 531.5,694C 528.658,697.672 525.658,701.172 522.5,704.5C 518.682,701.182 515.015,697.682 511.5,694C 505.234,689.516 498.234,687.683 490.5,688.5C 490.918,687.778 491.584,687.278 492.5,687C 491.376,686.751 490.376,686.251 489.5,685.5C 500.081,683.808 510.414,684.808 520.5,688.5C 525.042,685.813 529.875,683.813 535,682.5C 538.087,682.434 540.254,683.768 541.5,686.5 Z"/></g>
<g><path style="opacity:1" fill="#855531" d="M 612.5,694.5 C 605.04,697.294 599.04,701.961 594.5,708.5C 589.632,701.948 584.632,695.448 579.5,689C 576.067,686.289 572.4,684.123 568.5,682.5C 568.369,681.624 568.702,680.957 569.5,680.5C 575.329,682.911 580.662,686.078 585.5,690C 594.404,692.757 603.404,694.257 612.5,694.5 Z"/></g>
<g><path style="opacity:1" fill="#75543e" d="M 212.5,690.5 C 215.275,701.699 212.775,711.699 205,720.5C 204.809,718.292 204.309,716.292 203.5,714.5C 200.931,704.881 195.264,702.381 186.5,707C 183.296,709.869 180.463,713.035 178,716.5C 177.667,716.167 177.333,715.833 177,715.5C 175.455,710.953 175.121,706.287 176,701.5C 178.726,697.381 180.893,693.048 182.5,688.5C 192.798,685.377 202.798,686.043 212.5,690.5 Z"/></g>
<g><path style="opacity:1" fill="#865531" d="M 297.5,688.5 C 300.044,690.182 302.877,691.182 306,691.5C 311.155,690.216 316.322,689.383 321.5,689C 322.109,690.948 322.776,692.782 323.5,694.5C 316.257,697.408 310.923,702.408 307.5,709.5C 307.167,709.5 306.833,709.5 306.5,709.5C 304.076,702.22 301.076,695.22 297.5,688.5 Z"/></g>
<g><path style="opacity:1" fill="#553726" d="M 289.5,688.5 C 294.179,693.018 298.346,698.018 302,703.5C 304.275,709.045 306.775,714.378 309.5,719.5C 300.834,730.47 289.834,738.47 276.5,743.5C 275.2,740.691 275.2,738.024 276.5,735.5C 276.281,736.675 276.614,737.675 277.5,738.5C 279.817,736.684 281.984,734.684 284,732.5C 292.969,718.739 294.803,704.073 289.5,688.5 Z"/></g>
<g><path style="opacity:1" fill="#76553f" d="M 584.5,702.5 C 586.686,707.41 588.019,712.577 588.5,718C 588.609,725.056 586.609,731.389 582.5,737C 583.167,737.667 583.833,738.333 584.5,739C 581.5,739.667 578.5,739.667 575.5,739C 572.158,735.326 568.492,731.992 564.5,729C 561.113,727.855 560.113,728.688 561.5,731.5C 557.429,731.12 553.762,732.12 550.5,734.5C 550.586,732.323 551.253,730.323 552.5,728.5C 552.167,728.167 551.833,727.833 551.5,727.5C 548.5,729 545.5,730.5 542.5,732C 540.041,735.75 537.708,739.583 535.5,743.5C 530.118,740.118 525.785,735.785 522.5,730.5C 524.368,724.659 525.535,718.659 526,712.5C 528.666,706.491 532.833,701.658 538.5,698C 555.213,685.673 570.547,687.173 584.5,702.5 Z"/></g>
<g><path style="opacity:1" fill="#533625" d="M 212.5,690.5 C 217.724,693.894 222.058,698.06 225.5,703C 221.856,708.938 220.023,715.438 220,722.5C 218.667,721.167 217.333,721.167 216,722.5C 215.501,726.152 215.335,729.818 215.5,733.5C 211.901,733.738 211.567,732.738 214.5,730.5C 214.291,729.914 213.957,729.414 213.5,729C 210.066,728.442 206.733,727.609 203.5,726.5C 203.5,722.5 203.5,718.5 203.5,714.5C 204.309,716.292 204.809,718.292 205,720.5C 212.775,711.699 215.275,701.699 212.5,690.5 Z"/></g>
<g><path style="opacity:1" fill="#81522f" d="M 459.5,693.5 C 463.254,695.287 466.921,696.954 470.5,698.5C 466.166,703.671 462,709.005 458,714.5C 457.05,707.358 457.55,700.358 459.5,693.5 Z"/></g>
<g><path style="opacity:1" fill="#553827" d="M 238.5,693.5 C 237.763,698.582 236.596,703.582 235,708.5C 233.17,718.378 235.504,727.045 242,734.5C 242.464,733.906 242.631,733.239 242.5,732.5C 243.478,736.238 245.145,739.738 247.5,743C 239.736,742.113 232.069,740.446 224.5,738C 221.929,735.358 220.596,732.192 220.5,728.5C 221.997,724.316 223.164,719.316 224,713.5C 226.349,708.802 228.682,704.136 231,699.5C 233.086,696.906 235.586,694.906 238.5,693.5 Z"/></g>
<g><path style="opacity:1" fill="#76553f" d="M 516.5,711.5 C 515.4,716.833 514.233,722.166 513,727.5C 509.635,731.387 505.468,733.72 500.5,734.5C 496.448,725.964 490.115,723.298 481.5,726.5C 478.905,724.226 476.238,724.393 473.5,727C 468.306,728.242 463.64,727.242 459.5,724C 460.5,723.667 461.5,723.333 462.5,723C 461.663,721.989 461.33,720.822 461.5,719.5C 466.603,713.895 471.936,708.395 477.5,703C 493.324,692.705 506.324,695.538 516.5,711.5 Z"/></g>
<g><path style="opacity:0.004" fill="#000000" d="M 16.5,698.5 C 15.8333,699.167 15.8333,699.167 16.5,698.5 Z"/></g>
<g><path style="opacity:1" fill="#76553f" d="M 346.5,706.5 C 346.395,710.319 345.562,713.986 344,717.5C 341.462,720.512 338.629,723.179 335.5,725.5C 331.486,725.334 327.486,725.501 323.5,726C 321.944,726.72 320.944,727.887 320.5,729.5C 319.778,729.918 319.278,730.584 319,731.5C 313.472,725.583 311.139,718.583 312,710.5C 314.629,708.556 316.796,706.223 318.5,703.5C 320.148,702.073 322.148,701.24 324.5,701C 329.5,700.333 334.5,700.333 339.5,701C 342.266,702.371 344.599,704.204 346.5,706.5 Z"/></g>
<g><path style="opacity:1" fill="#75543e" d="M 632.5,703.5 C 635.65,713.401 635.15,723.068 631,732.5C 630.79,730.942 630.29,729.609 629.5,728.5C 627.412,718.21 621.412,714.377 611.5,717C 605.564,720.039 603.231,724.872 604.5,731.5C 602.278,731.822 600.444,731.155 599,729.5C 598.503,727.19 598.337,724.857 598.5,722.5C 598.212,719.134 598.046,715.8 598,712.5C 607.559,701.81 619.059,698.81 632.5,703.5 Z"/></g>
<g><path style="opacity:1" fill="#553726" d="M 584.5,702.5 C 585.794,703.29 586.961,704.29 588,705.5C 590.955,711.913 593.788,718.413 596.5,725C 592.762,731.707 590.095,738.874 588.5,746.5C 582.355,748.936 576.189,751.27 570,753.5C 569.821,750.853 569.988,748.186 570.5,745.5C 570.474,738.752 567.474,734.086 561.5,731.5C 560.113,728.688 561.113,727.855 564.5,729C 568.492,731.992 572.158,735.326 575.5,739C 578.5,739.667 581.5,739.667 584.5,739C 583.833,738.333 583.167,737.667 582.5,737C 586.609,731.389 588.609,725.056 588.5,718C 588.019,712.577 586.686,707.41 584.5,702.5 Z"/></g>
<g><path style="opacity:1" fill="#533625" d="M 632.5,703.5 C 635.366,705.546 637.533,708.213 639,711.5C 641.131,716.727 642.965,722.06 644.5,727.5C 640.789,732.698 635.956,736.698 630,739.5C 629.501,735.848 629.335,732.182 629.5,728.5C 630.29,729.609 630.79,730.942 631,732.5C 635.15,723.068 635.65,713.401 632.5,703.5 Z"/></g>
<g><path style="opacity:1" fill="#583a29" d="M 335.5,725.5 C 338.629,723.179 341.462,720.512 344,717.5C 345.562,713.986 346.395,710.319 346.5,706.5C 350.338,708.994 353.005,712.327 354.5,716.5C 356.124,716.64 357.29,715.973 358,714.5C 358.227,709.103 358.894,703.769 360,698.5C 360.032,704.158 359.699,709.825 359,715.5C 358.867,718.525 357.867,721.192 356,723.5C 352.179,726.743 348.179,729.743 344,732.5C 342.684,728.414 339.851,726.08 335.5,725.5 Z"/></g>
<g><path style="opacity:1" fill="#d1c7b4" d="M 190.5,711.5 C 195.35,711.519 197.683,714.019 197.5,719C 197.397,720.561 197.063,722.061 196.5,723.5C 194.58,726.039 192.246,728.039 189.5,729.5C 187.971,729.471 186.804,728.804 186,727.5C 185.853,724.89 185.019,722.556 183.5,720.5C 185.475,717.195 187.809,714.195 190.5,711.5 Z"/></g>
<g><path style="opacity:0.004" fill="#000000" d="M 781.5,714.5 C 781.897,713.475 782.563,713.308 783.5,714C 782.906,714.464 782.239,714.631 781.5,714.5 Z"/></g>
<g><path style="opacity:0.008" fill="#000000" d="M 781.5,714.5 C 781.103,715.525 780.437,715.692 779.5,715C 780.094,714.536 780.761,714.369 781.5,714.5 Z"/></g>
<g><path style="opacity:0.041" fill="#000000" d="M 766.5,715.5 C 769.523,715.105 770.523,716.105 769.5,718.5C 764.937,720.005 763.937,719.005 766.5,715.5 Z"/></g>
<g><path style="opacity:1" fill="#553726" d="M 516.5,711.5 C 517.458,711.953 518.292,712.619 519,713.5C 518.987,720.027 519.987,726.361 522,732.5C 522.464,731.906 522.631,731.239 522.5,730.5C 525.785,735.785 530.118,740.118 535.5,743.5C 537.708,739.583 540.041,735.75 542.5,732C 545.5,730.5 548.5,729 551.5,727.5C 551.833,727.833 552.167,728.167 552.5,728.5C 551.253,730.323 550.586,732.323 550.5,734.5C 545.011,739.787 542.678,746.12 543.5,753.5C 533.274,754.595 523.941,752.095 515.5,746C 516.579,745.044 517.745,744.211 519,743.5C 519.688,742.668 519.521,742.002 518.5,741.5C 513.351,743.29 508.018,744.624 502.5,745.5C 502.758,741.628 502.091,737.961 500.5,734.5C 505.468,733.72 509.635,731.387 513,727.5C 514.233,722.166 515.4,716.833 516.5,711.5 Z"/></g>
<g><path style="opacity:0.029" fill="#000000" d="M 776.5,717.5 C 777.849,716.203 779.182,716.37 780.5,718C 779.072,718.579 777.738,718.412 776.5,717.5 Z"/></g>
<g><path style="opacity:1" fill="#533626" d="M 318.5,703.5 C 316.796,706.223 314.629,708.556 312,710.5C 311.139,718.583 313.472,725.583 319,731.5C 319.278,730.584 319.778,729.918 320.5,729.5C 320.813,732.247 320.48,734.914 319.5,737.5C 314.818,736.328 310.318,734.662 306,732.5C 304.838,733.187 303.672,733.353 302.5,733C 305.123,729.588 307.623,726.088 310,722.5C 310.74,721.251 310.573,720.251 309.5,719.5C 309.08,715.993 308.08,712.659 306.5,709.5C 306.833,709.5 307.167,709.5 307.5,709.5C 307.435,709.938 307.601,710.272 308,710.5C 310.956,707.278 314.456,704.944 318.5,703.5 Z"/></g>
<g><path style="opacity:1" fill="#543726" d="M 461.5,719.5 C 461.33,720.822 461.663,721.989 462.5,723C 461.5,723.333 460.5,723.667 459.5,724C 463.64,727.242 468.306,728.242 473.5,727C 476.238,724.393 478.905,724.226 481.5,726.5C 481.217,727.289 480.717,727.956 480,728.5C 479.501,733.489 479.334,738.489 479.5,743.5C 472.903,742.112 467.403,738.779 463,733.5C 460.457,730.251 458.291,726.751 456.5,723C 457.846,721.331 459.513,720.164 461.5,719.5 Z"/></g>
<g><path style="opacity:1" fill="#cec5b1" d="M 258.5,724.5 C 261.518,724.335 264.518,724.502 267.5,725C 268.46,726.419 269.293,727.919 270,729.5C 270.93,737.229 269.097,744.063 264.5,750C 261.534,750.895 258.867,750.395 256.5,748.5C 254.444,743.274 251.944,738.274 249,733.5C 248.257,731.559 248.424,729.726 249.5,728C 252.459,726.396 255.459,725.229 258.5,724.5 Z"/></g>
<g><path style="opacity:1" fill="#503424" d="M 598.5,722.5 C 598.337,724.857 598.503,727.19 599,729.5C 600.444,731.155 602.278,731.822 604.5,731.5C 604.883,735.319 605.883,738.986 607.5,742.5C 604.572,743.484 601.572,743.817 598.5,743.5C 598.649,742.448 598.483,741.448 598,740.5C 597.581,741.672 596.915,742.672 596,743.5C 596.487,740.182 597.32,736.848 598.5,733.5C 597.281,729.68 597.281,726.013 598.5,722.5 Z"/></g>
<g><path style="opacity:1" fill="#b7aa94" d="M 325.5,730.5 C 331.028,730.206 336.361,731.039 341.5,733C 339.266,736.901 336.1,739.735 332,741.5C 330.014,739.185 327.514,737.852 324.5,737.5C 324.298,735.05 324.631,732.717 325.5,730.5 Z"/></g>
<g><path style="opacity:1" fill="#cdc3af" d="M 483.5,731.5 C 491.149,730.972 495.315,734.638 496,742.5C 496.535,748.469 493.702,751.469 487.5,751.5C 487.5,749.5 487.5,747.5 487.5,745.5C 486.5,745.5 485.5,745.5 484.5,745.5C 483.873,740.859 483.54,736.193 483.5,731.5 Z"/></g>
<g><path style="opacity:1" fill="#c9bea8" d="M 613.5,722.5 C 618.133,721.458 621.299,723.125 623,727.5C 624.538,734.857 622.871,741.19 618,746.5C 610.844,741.384 608.177,734.384 610,725.5C 611.145,724.364 612.312,723.364 613.5,722.5 Z"/></g>
<g><path style="opacity:1" fill="#cfc6b2" d="M 555.5,738.5 C 561.275,737.275 563.941,739.608 563.5,745.5C 564.257,751.923 561.591,755.923 555.5,757.5C 554.228,757.43 553.062,757.097 552,756.5C 547.957,749.531 549.123,743.531 555.5,738.5 Z"/></g>
<g><path style="opacity:1" fill="#835f3f" d="M 595.5,746.5 C 596.766,747.09 598.099,747.59 599.5,748C 596.962,748.545 594.629,749.212 592.5,750C 593.71,748.961 594.71,747.794 595.5,746.5 Z"/></g>
<g><path style="opacity:1" fill="#845a38" d="M 513.5,748.5 C 515.07,747.441 516.403,747.941 517.5,750C 515.934,750.3 514.601,749.8 513.5,748.5 Z"/></g>
<g><path style="opacity:0.012" fill="#000000" d="M 749.5,749.5 C 749.897,748.475 750.563,748.308 751.5,749C 750.906,749.464 750.239,749.631 749.5,749.5 Z"/></g>
<g><path style="opacity:1" fill="#5d442e" d="M 605.5,750.5 C 608.178,749.091 610.844,749.257 613.5,751C 610.843,751.175 608.176,751.008 605.5,750.5 Z"/></g>
<g><path style="opacity:0.655" fill="#856040" d="M 627.5,747.5 C 628.239,747.369 628.906,747.536 629.5,748C 627.246,749.377 625.08,750.877 623,752.5C 622.333,751.5 622.333,750.5 623,749.5C 624.622,748.901 626.122,748.234 627.5,747.5 Z"/></g>
<g><path style="opacity:1" fill="#8e6644" d="M 242.5,750.5 C 246.013,748.976 249.013,749.81 251.5,753C 248.577,752.224 245.577,751.391 242.5,750.5 Z"/></g>
<g><path style="opacity:0.993" fill="#825d3e" d="M 473.5,750.5 C 473.56,749.957 473.893,749.624 474.5,749.5C 476.979,751.076 479.646,752.076 482.5,752.5C 482.649,753.552 482.483,754.552 482,755.5C 479.386,753.444 476.553,751.777 473.5,750.5 Z"/></g>
<g><path style="opacity:0.978" fill="#8d6543" d="M 497.5,753.5 C 499.199,753.34 500.866,753.506 502.5,754C 500.156,755.028 497.823,755.694 495.5,756C 496.381,755.292 497.047,754.458 497.5,753.5 Z"/></g>
<g><path style="opacity:0.024" fill="#000000" d="M 93.5,757.5 C 95.9828,757.73 96.4828,758.397 95,759.5C 93.9701,759.164 93.4701,758.497 93.5,757.5 Z"/></g>
<g><path style="opacity:1" fill="#6e4b30" d="M 541.5,761.5 C 542.274,760.853 543.274,760.52 544.5,760.5C 547.5,761 550.5,761.5 553.5,762C 553,762.5 552.5,763 552,763.5C 548.636,762.261 545.136,761.594 541.5,761.5 Z"/></g>
<g><path style="opacity:0.005" fill="#000000" d="M 735.5,764.5 C 737.332,765.14 737.665,766.14 736.5,767.5C 735.614,766.675 735.281,765.675 735.5,764.5 Z"/></g>
<g><path style="opacity:0.014" fill="#000000" d="M 735.5,770.5 C 736.386,769.224 737.386,769.224 738.5,770.5C 737.575,771.562 736.575,771.562 735.5,770.5 Z"/></g>
<g><path style="opacity:0.008" fill="#000000" d="M 727.5,771.5 C 727.897,770.475 728.563,770.308 729.5,771C 728.906,771.464 728.239,771.631 727.5,771.5 Z"/></g>
<g><path style="opacity:0.018" fill="#000000" d="M 113.5,772.5 C 113.897,771.475 114.563,771.308 115.5,772C 114.906,772.464 114.239,772.631 113.5,772.5 Z"/></g>
<g><path style="opacity:0.016" fill="#000000" d="M 707.5,774.5 C 707.897,773.475 708.563,773.308 709.5,774C 708.906,774.464 708.239,774.631 707.5,774.5 Z"/></g>
<g><path style="opacity:0.004" fill="#000000" d="M 728.5,774.5 C 728.897,773.475 729.563,773.308 730.5,774C 729.906,774.464 729.239,774.631 728.5,774.5 Z"/></g>
<g><path style="opacity:0.008" fill="#000000" d="M 708.5,785.5 C 709.833,786.167 709.833,786.167 708.5,785.5 Z"/></g>
<g><path style="opacity:0.016" fill="#000000" d="M 696.5,786.5 C 699.275,786.834 699.941,788.167 698.5,790.5C 696.889,789.68 696.222,788.346 696.5,786.5 Z"/></g>
<g><path style="opacity:0.008" fill="#000000" d="M 702.5,787.5 C 702.897,786.475 703.563,786.308 704.5,787C 703.906,787.464 703.239,787.631 702.5,787.5 Z"/></g>
<g><path style="opacity:0.014" fill="#000000" d="M 687.5,789.5 C 688.575,788.438 689.575,788.438 690.5,789.5C 689.386,790.776 688.386,790.776 687.5,789.5 Z"/></g>
<g><path style="opacity:0.008" fill="#000000" d="M 692.5,788.5 C 693.773,789.077 693.773,789.743 692.5,790.5C 691.537,790.03 691.537,789.363 692.5,788.5 Z"/></g>
<g><path style="opacity:0.022" fill="#000000" d="M 501.5,821.5 C 502.978,821.238 504.311,821.571 505.5,822.5C 504.68,824.111 503.346,824.778 501.5,824.5C 501.5,823.5 501.5,822.5 501.5,821.5 Z"/></g>
</svg>
