<?xml version="1.0" encoding="UTF-8"?>
<!DOCTYPE svg PUBLIC "-//W3C//DTD SVG 1.1//EN" "http://www.w3.org/Graphics/SVG/1.1/DTD/svg11.dtd">
<svg xmlns="http://www.w3.org/2000/svg" version="1.1" width="1096px" height="1620px" style="shape-rendering:geometricPrecision; text-rendering:geometricPrecision; image-rendering:optimizeQuality; fill-rule:evenodd; clip-rule:evenodd" xmlns:xlink="http://www.w3.org/1999/xlink">
<g><path style="opacity:0.354" fill="#010101" d="M 412.5,29.5 C 411.954,31.3032 411.12,32.9698 410,34.5C 402.35,25.523 393.017,18.8563 382,14.5C 375.219,12.0955 368.385,11.9288 361.5,14C 329.457,27.8988 313.957,52.3988 315,87.5C 317.745,102.055 325.579,112.722 338.5,119.5C 348.608,124.266 359.274,126.099 370.5,125C 384.98,108.353 400.313,92.5201 416.5,77.5C 411.734,70.5638 406.4,64.0638 400.5,58C 399.833,57.3333 399.167,57.3333 398.5,58C 400.672,60.4927 401.506,63.3261 401,66.5C 400.275,67.0585 399.442,67.3918 398.5,67.5C 391.354,63.7567 384.688,59.2567 378.5,54C 364.261,46.8917 353.094,50.0584 345,63.5C 343.491,70.7935 344.824,77.4602 349,83.5C 349.667,84.5 349.667,85.5 349,86.5C 345.878,81.6036 343.045,76.6036 340.5,71.5C 338.554,57.2571 344.554,48.0904 358.5,44C 370.551,42.1289 381.051,45.2956 390,53.5C 393.257,50.5715 397.091,49.7382 401.5,51C 405,53.3342 408,56.1675 410.5,59.5C 414.559,64.0671 418.059,69.0671 421,74.5C 426.97,69.0181 433.303,64.0181 440,59.5C 440.667,58.5 440.667,57.5 440,56.5C 435.887,50.053 431.387,43.8863 426.5,38C 425.552,37.5172 424.552,37.3505 423.5,37.5C 422.078,37.2914 420.745,36.7914 419.5,36C 417.686,33.5205 416.019,31.0205 414.5,28.5C 414.542,21.1107 417.875,19.6107 424.5,24C 427.667,27.1667 430.833,30.3333 434,33.5C 438.615,40.4495 443.615,47.1162 449,53.5C 489.272,28.4737 533.105,17.307 580.5,20C 602.749,23.293 623.749,30.293 643.5,41C 655.266,47.7708 666.766,54.9374 678,62.5C 684.385,46.7868 693.219,32.6201 704.5,20C 706.134,19.5065 707.801,19.3398 709.5,19.5C 709.376,23.4124 708.376,27.0791 706.5,30.5C 705.542,30.9528 704.708,31.6195 704,32.5C 703.667,32.1667 703.333,31.8333 703,31.5C 695.031,41.9318 688.198,53.0985 682.5,65C 687.099,70.0654 692.266,74.5654 698,78.5C 701.061,71.3786 704.394,64.3786 708,57.5C 710.016,55.3918 712.183,55.0584 714.5,56.5C 715.137,59.456 715.637,62.456 716,65.5C 724.066,53.3725 734.566,50.5392 747.5,57C 757.496,67.1569 762.996,79.3236 764,93.5C 762.242,87.884 759.908,82.5506 757,77.5C 753.425,73.347 750.091,69.0137 747,64.5C 740.489,58.8309 733.322,57.9976 725.5,62C 719.497,67.1801 714.831,73.3467 711.5,80.5C 709.191,76.8879 708.024,72.8879 708,68.5C 705.14,72.8577 703.473,77.5243 703,82.5C 716.333,93.1667 728.333,105.167 739,118.5C 739.333,117.833 739.667,117.167 740,116.5C 746.554,123.853 754.721,126.353 764.5,124C 767.84,122.997 770.84,121.497 773.5,119.5C 786.918,109.679 794.418,96.3459 796,79.5C 797.796,61.2593 794.129,44.2593 785,28.5C 778.563,19.117 769.563,14.4503 758,14.5C 738.724,15.4731 722.39,22.8065 709,36.5C 708.4,33.9047 708.9,31.5713 710.5,29.5C 727.371,11.5989 748.037,4.76559 772.5,9C 786.066,14.8987 795.066,24.8987 799.5,39C 801.382,45.4104 802.882,51.9104 804,58.5C 844.556,35.9283 888.056,22.9283 934.5,19.5C 965.025,17.7666 990.025,28.5999 1009.5,52C 1013.46,51.2445 1017.46,50.2445 1021.5,49C 1024.17,48.3333 1026.83,48.3333 1029.5,49C 1043.23,60.3444 1054.73,73.511 1064,88.5C 1068.01,96.1847 1071.18,104.185 1073.5,112.5C 1076.13,124.039 1079.13,135.372 1082.5,146.5C 1108.09,286.621 1087.26,419.287 1020,544.5C 1005.45,570.724 987.454,594.39 966,615.5C 959.448,626.052 950.948,634.552 940.5,641C 956.458,672.755 968.625,705.921 977,740.5C 990.975,793.968 996.975,848.301 995,903.5C 992.483,938.419 985.483,972.419 974,1005.5C 973.833,1008 973.667,1010.5 973.5,1013C 977.589,1051.76 978.756,1090.59 977,1129.5C 974.612,1155.61 969.112,1180.95 960.5,1205.5C 955.614,1213.81 952.281,1222.81 950.5,1232.5C 934.688,1260.82 917.021,1287.99 897.5,1314C 897.747,1315.81 898.08,1317.65 898.5,1319.5C 899.478,1319.02 900.311,1318.36 901,1317.5C 902.786,1320.36 905.119,1321.03 908,1319.5C 911.922,1323.27 915.255,1322.6 918,1317.5C 920.437,1320.68 923.437,1321.68 927,1320.5C 927.24,1322.98 926.406,1325.14 924.5,1327C 924.833,1327.33 925.167,1327.67 925.5,1328C 923.842,1328.73 923.342,1329.89 924,1331.5C 925.402,1329.03 926.902,1329.03 928.5,1331.5C 929.452,1333.05 929.785,1334.71 929.5,1336.5C 931.806,1336.99 934.139,1337.33 936.5,1337.5C 936.779,1333.66 938.446,1330.5 941.5,1328C 947.253,1326.25 949.919,1328.41 949.5,1334.5C 952.873,1338.81 955.206,1338.31 956.5,1333C 958.157,1332.27 959.157,1332.77 959.5,1334.5C 958.167,1334.83 958.167,1335.17 959.5,1335.5C 962.261,1337.41 964.761,1339.74 967,1342.5C 969.333,1339.83 971.667,1339.83 974,1342.5C 974.667,1341.83 975.333,1341.17 976,1340.5C 976.7,1342.03 977.866,1343.03 979.5,1343.5C 979.833,1342.17 980.167,1340.83 980.5,1339.5C 981.833,1340.17 983.167,1340.83 984.5,1341.5C 985.425,1340.36 986.259,1340.36 987,1341.5C 987.333,1340.5 987.667,1339.5 988,1338.5C 990.212,1339.12 992.046,1340.29 993.5,1342C 992.728,1343.22 991.728,1344.22 990.5,1345C 994.162,1345.9 996.662,1348.07 998,1351.5C 998.308,1350.69 998.808,1350.03 999.5,1349.5C 1000.24,1350.99 1000.91,1352.49 1001.5,1354C 1004.74,1355.64 1008.08,1356.64 1011.5,1357C 1009.67,1355.89 1008.84,1354.39 1009,1352.5C 1012.69,1355.03 1015.86,1358.03 1018.5,1361.5C 1021.11,1361.28 1022.78,1362.44 1023.5,1365C 1021.35,1367.07 1021.02,1369.41 1022.5,1372C 1025.38,1372.72 1028.04,1372.22 1030.5,1370.5C 1034.89,1372.02 1039.05,1374.02 1043,1376.5C 1043.17,1376.83 1043.33,1377.17 1043.5,1377.5C 1041.58,1378.31 1039.58,1378.81 1037.5,1379C 1041.7,1381.62 1046.2,1382.45 1051,1381.5C 1052.58,1381.99 1053.75,1382.99 1054.5,1384.5C 1057.05,1384.05 1059.72,1384.05 1062.5,1384.5C 1062.64,1386.26 1062.31,1387.93 1061.5,1389.5C 1064.9,1391.29 1068.24,1392.95 1071.5,1394.5C 1072.07,1396.36 1072.07,1398.03 1071.5,1399.5C 1074.34,1400.42 1076.67,1402.09 1078.5,1404.5C 1082.7,1403.11 1084.7,1404.78 1084.5,1409.5C 1080.69,1409.6 1080.69,1410.26 1084.5,1411.5C 1081.5,1412.76 1080.5,1414.76 1081.5,1417.5C 1082.8,1416.91 1083.63,1415.91 1084,1414.5C 1084.87,1415.11 1085.37,1415.94 1085.5,1417C 1082.88,1420.53 1082.54,1424.03 1084.5,1427.5C 1083.56,1430.41 1084.23,1433.07 1086.5,1435.5C 1084.98,1435.88 1083.31,1436.05 1081.5,1436C 1082.55,1437.39 1082.72,1438.89 1082,1440.5C 1079.2,1444.94 1077.36,1449.78 1076.5,1455C 1077.16,1457.5 1078.49,1458 1080.5,1456.5C 1080.66,1458.53 1080.5,1460.53 1080,1462.5C 1079.29,1463.97 1078.12,1464.64 1076.5,1464.5C 1077.73,1464.97 1078.73,1466.31 1079.5,1468.5C 1077.31,1469.88 1075.98,1471.88 1075.5,1474.5C 1073.66,1474.17 1072,1474.17 1070.5,1474.5C 1068.52,1475.11 1068.19,1476.11 1069.5,1477.5C 1068.27,1478.28 1066.94,1478.78 1065.5,1479C 1066.7,1479.9 1067.53,1481.07 1068,1482.5C 1069.16,1481.01 1069.99,1481.17 1070.5,1483C 1070.05,1485.28 1068.72,1486.78 1066.5,1487.5C 1065.65,1489.89 1064.65,1492.23 1063.5,1494.5C 1062.73,1495.71 1061.89,1495.71 1061,1494.5C 1060.42,1501.17 1056.92,1505.34 1050.5,1507C 1048.66,1510.32 1046.66,1513.49 1044.5,1516.5C 1041.25,1517.92 1038.42,1519.92 1036,1522.5C 1032.05,1519.68 1030.88,1520.68 1032.5,1525.5C 1031.04,1528.53 1028.71,1530.53 1025.5,1531.5C 1024.91,1531.29 1024.41,1530.96 1024,1530.5C 1022.49,1533.86 1019.99,1535.86 1016.5,1536.5C 1016.5,1535.17 1016.5,1533.83 1016.5,1532.5C 1012.1,1532.08 1007.77,1531.58 1003.5,1531C 1002.19,1533.31 1000.52,1535.31 998.5,1537C 998.833,1538 999.167,1539 999.5,1540C 997.997,1541.92 997.331,1544.09 997.5,1546.5C 1001.09,1546.48 1001.26,1547.48 998,1549.5C 995.819,1547.64 993.985,1545.48 992.5,1543C 989.843,1542.83 987.176,1542.99 984.5,1543.5C 984.312,1545.1 984.812,1546.44 986,1547.5C 987.264,1545.39 989.097,1544.39 991.5,1544.5C 991.383,1546.48 992.05,1548.15 993.5,1549.5C 992.619,1550.97 991.286,1551.8 989.5,1552C 990.711,1552.89 990.711,1553.73 989.5,1554.5C 985.453,1555.4 981.286,1555.73 977,1555.5C 973.645,1552.84 971.645,1553.84 971,1558.5C 969.499,1556.63 967.999,1554.8 966.5,1553C 966.833,1552.67 967.167,1552.33 967.5,1552C 964.888,1551.36 962.554,1550.19 960.5,1548.5C 958.998,1549.08 957.665,1549.92 956.5,1551C 958.005,1554.88 956.671,1557.55 952.5,1559C 955.336,1560.92 957.003,1563.58 957.5,1567C 956.216,1567.68 955.049,1567.52 954,1566.5C 953.506,1564.87 953.34,1563.2 953.5,1561.5C 950.507,1560.87 947.507,1560.7 944.5,1561C 944.374,1562.97 944.208,1565.14 944,1567.5C 941.667,1569.5 939.333,1571.5 937,1573.5C 935.027,1572.36 933.193,1571.03 931.5,1569.5C 930.534,1571.4 930.201,1573.4 930.5,1575.5C 927.507,1576.13 924.507,1576.3 921.5,1576C 919.968,1570.54 918.635,1570.38 917.5,1575.5C 914.487,1575.63 911.987,1574.63 910,1572.5C 908.107,1573.2 906.274,1574.03 904.5,1575C 905.167,1576 905.833,1577 906.5,1578C 904.236,1578.24 902.069,1578.74 900,1579.5C 898.605,1576.83 896.605,1574.83 894,1573.5C 892.644,1574.38 891.144,1574.71 889.5,1574.5C 887.776,1576.91 886.442,1579.58 885.5,1582.5C 884.5,1582.5 883.5,1582.5 882.5,1582.5C 881.736,1579.21 879.903,1576.55 877,1574.5C 875.226,1576.65 873.726,1578.98 872.5,1581.5C 870.958,1582.75 869.458,1582.75 868,1581.5C 866.581,1582.46 865.081,1583.29 863.5,1584C 864.308,1584.31 864.975,1584.81 865.5,1585.5C 863.973,1587.19 862.64,1589.03 861.5,1591C 859.338,1590.59 857.172,1591.09 855,1592.5C 854.259,1591.36 853.425,1591.36 852.5,1592.5C 851.877,1590.03 851.043,1587.7 850,1585.5C 848.636,1586.7 847.136,1587.7 845.5,1588.5C 843.964,1587.75 842.631,1586.75 841.5,1585.5C 834.77,1587.87 828.27,1587.2 822,1583.5C 817.58,1584.41 816.413,1586.91 818.5,1591C 818.245,1592.33 817.578,1593.33 816.5,1594C 818.192,1595.4 818.859,1597.23 818.5,1599.5C 814.168,1600.06 810.002,1601.06 806,1602.5C 803.621,1602.52 801.454,1601.85 799.5,1600.5C 798.289,1599.73 798.289,1598.89 799.5,1598C 799,1597.83 798.5,1597.67 798,1597.5C 797.333,1598.17 796.667,1598.83 796,1599.5C 792.172,1597.82 791.339,1598.32 793.5,1601C 792.239,1604.02 790.905,1603.85 789.5,1600.5C 790.894,1599.31 790.727,1598.65 789,1598.5C 786.272,1599.95 785.106,1602.29 785.5,1605.5C 781.548,1606.27 777.548,1606.61 773.5,1606.5C 773.819,1604.25 773.319,1602.25 772,1600.5C 770.736,1602.61 768.903,1603.61 766.5,1603.5C 766.5,1602.5 766.5,1601.5 766.5,1600.5C 764.176,1600.66 762.509,1601.83 761.5,1604C 763.286,1604.2 764.619,1605.03 765.5,1606.5C 761.454,1606.49 757.621,1607.16 754,1608.5C 751.601,1607.55 749.268,1607.88 747,1609.5C 744.502,1610.12 742.168,1609.45 740,1607.5C 738.715,1607.95 737.548,1608.62 736.5,1609.5C 735.5,1608.17 734.5,1606.83 733.5,1605.5C 733.105,1610.01 730.771,1611.51 726.5,1610C 731.001,1607.18 731.834,1603.35 729,1598.5C 727.976,1604.22 724.81,1608.22 719.5,1610.5C 717.889,1609.68 717.222,1608.35 717.5,1606.5C 715.876,1606.36 714.71,1607.03 714,1608.5C 713.667,1608.17 713.333,1607.83 713,1607.5C 711.611,1609.23 709.944,1610.56 708,1611.5C 705.991,1611.01 703.824,1611.01 701.5,1611.5C 701.773,1609.04 700.773,1607.38 698.5,1606.5C 694.65,1610.59 689.983,1612.09 684.5,1611C 684,1610.5 683.5,1610 683,1609.5C 681.078,1612.09 678.911,1612.59 676.5,1611C 678.815,1609.63 678.815,1608.8 676.5,1608.5C 674.085,1608.72 673.085,1610.05 673.5,1612.5C 668.716,1613.16 664.382,1612.16 660.5,1609.5C 658.249,1610.86 656.249,1610.53 654.5,1608.5C 653.833,1608.83 653.167,1609.17 652.5,1609.5C 651.757,1608.09 650.923,1606.76 650,1605.5C 645.139,1607.6 640.305,1609.6 635.5,1611.5C 635.5,1609.83 635.5,1608.17 635.5,1606.5C 634.325,1606.28 633.325,1606.61 632.5,1607.5C 633.246,1608.74 633.579,1610.07 633.5,1611.5C 632.022,1611.76 630.689,1611.43 629.5,1610.5C 630.089,1608.63 629.422,1606.96 627.5,1605.5C 625.343,1607.41 623.009,1609.08 620.5,1610.5C 617.711,1607.94 614.711,1607.44 611.5,1609C 612.696,1609.65 612.696,1610.15 611.5,1610.5C 610.833,1610.17 610.167,1609.83 609.5,1609.5C 606.097,1612.2 602.93,1611.87 600,1608.5C 599.326,1609.58 598.326,1610.25 597,1610.5C 594.925,1609.69 593.258,1608.36 592,1606.5C 588.309,1606.78 584.975,1607.11 582,1607.5C 581.225,1605.78 579.892,1604.78 578,1604.5C 573.925,1606.14 570.592,1605.14 568,1601.5C 562.611,1604.88 559.444,1603.55 558.5,1597.5C 557.5,1597.5 556.5,1597.5 555.5,1597.5C 555.657,1598.87 555.49,1600.21 555,1601.5C 552.437,1602.74 549.937,1604.07 547.5,1605.5C 545.474,1604.63 544.141,1603.13 543.5,1601C 540.832,1600.43 538.166,1599.93 535.5,1599.5C 535.375,1593.53 533.708,1593.03 530.5,1598C 526.332,1599.41 522.165,1599.91 518,1599.5C 515.498,1597.73 514.164,1595.73 514,1593.5C 510.093,1596.29 505.759,1597.95 501,1598.5C 499.915,1596.63 498.582,1594.96 497,1593.5C 491.711,1600.04 485.544,1601.04 478.5,1596.5C 471.837,1599.22 465.837,1598.22 460.5,1593.5C 457.845,1595.44 455.179,1595.11 452.5,1592.5C 450.167,1593.17 447.833,1593.83 445.5,1594.5C 443.904,1591.54 442.404,1588.54 441,1585.5C 438.419,1586.83 436.252,1588.67 434.5,1591C 430.833,1591.67 427.167,1591.67 423.5,1591C 422.333,1589.83 421.167,1588.67 420,1587.5C 417.916,1589.71 415.582,1590.05 413,1588.5C 411.624,1588.68 410.791,1589.35 410.5,1590.5C 409.153,1591.03 407.819,1591.19 406.5,1591C 407.089,1589.13 406.422,1587.46 404.5,1586C 403.05,1585.88 401.55,1586.05 400,1586.5C 397.931,1585.73 396.265,1584.4 395,1582.5C 390.086,1586.57 385.586,1586.24 381.5,1581.5C 376.764,1582.68 372.098,1582.35 367.5,1580.5C 366.335,1581.49 365.168,1582.49 364,1583.5C 362.189,1582.58 362.355,1581.74 364.5,1581C 361.609,1577.66 357.943,1576.66 353.5,1578C 354.821,1579.54 354.488,1580.71 352.5,1581.5C 351.269,1580.35 351.269,1579.18 352.5,1578C 350.824,1578.43 349.157,1579.27 347.5,1580.5C 346.833,1579.83 346.167,1579.17 345.5,1578.5C 342.504,1579.83 340.837,1578.83 340.5,1575.5C 336.537,1576.44 332.537,1576.61 328.5,1576C 327.667,1575.17 326.833,1574.33 326,1573.5C 324.426,1574.85 322.593,1575.51 320.5,1575.5C 317.291,1573.81 313.958,1572.31 310.5,1571C 307.953,1570.34 305.453,1570.51 303,1571.5C 298.161,1568.81 293.327,1568.48 288.5,1570.5C 287.791,1569.6 286.791,1569.26 285.5,1569.5C 285.719,1570.68 285.386,1571.68 284.5,1572.5C 282.556,1571.81 280.556,1571.31 278.5,1571C 277.773,1569.6 277.273,1568.1 277,1566.5C 276.059,1568.06 274.892,1569.39 273.5,1570.5C 268.85,1569.67 264.183,1568.83 259.5,1568C 258.888,1566.7 258.554,1565.53 258.5,1564.5C 255.38,1566.75 252.047,1566.91 248.5,1565C 246.199,1561.87 243.199,1559.7 239.5,1558.5C 238.174,1559.99 236.674,1561.32 235,1562.5C 233.224,1561.46 231.391,1561.46 229.5,1562.5C 228.376,1561.19 226.876,1560.52 225,1560.5C 222.911,1561.45 220.911,1561.45 219,1560.5C 217.484,1563.05 216.651,1562.72 216.5,1559.5C 211.168,1560.07 205.834,1559.41 200.5,1557.5C 196.232,1558.1 191.898,1557.93 187.5,1557C 186.667,1556.17 185.833,1555.33 185,1554.5C 182.848,1555.89 180.515,1556.89 178,1557.5C 174.755,1554.08 171.255,1553.75 167.5,1556.5C 165.184,1554.53 163.351,1552.2 162,1549.5C 159.959,1550.75 157.625,1551.42 155,1551.5C 150.054,1552.55 146.554,1550.89 144.5,1546.5C 141.562,1547.57 138.562,1547.74 135.5,1547C 134.91,1545.49 134.244,1543.99 133.5,1542.5C 131.382,1543.95 129.049,1544.61 126.5,1544.5C 126.5,1543.5 126.5,1542.5 126.5,1541.5C 124.208,1541.24 122.041,1541.58 120,1542.5C 117.154,1540.71 116.988,1538.87 119.5,1537C 117.295,1534.46 114.795,1532.29 112,1530.5C 111.586,1530.96 111.086,1531.29 110.5,1531.5C 108.663,1530.16 106.997,1528.66 105.5,1527C 107.907,1524.91 107.907,1522.91 105.5,1521C 101.402,1518.63 97.0688,1517.3 92.5,1517C 92.9574,1517.41 93.2907,1517.91 93.5,1518.5C 92.635,1519.58 91.635,1519.75 90.5,1519C 88.3845,1515.05 85.7178,1511.55 82.5,1508.5C 81.2921,1509.23 79.9587,1509.57 78.5,1509.5C 78.2934,1506.76 77.2934,1504.43 75.5,1502.5C 75.5904,1500.57 76.5904,1499.41 78.5,1499C 74.8935,1497.84 71.2268,1496.67 67.5,1495.5C 65.6724,1497.81 64.0057,1497.47 62.5,1494.5C 62.9767,1493.52 63.6433,1492.69 64.5,1492C 61.4403,1488.99 61.107,1485.82 63.5,1482.5C 61.0163,1478.62 60.5163,1474.62 62,1470.5C 63.0674,1469.81 64.2341,1469.31 65.5,1469C 65.2855,1465.77 65.2855,1462.27 65.5,1458.5C 60.0052,1457.49 58.1719,1454.49 60,1449.5C 61.3561,1450.38 62.8561,1450.71 64.5,1450.5C 63.2537,1446.13 62.2537,1441.79 61.5,1437.5C 60.5745,1436.36 59.7412,1436.36 59,1437.5C 58.4415,1440.28 57.1082,1442.62 55,1444.5C 53.7581,1441.04 52.5914,1437.54 51.5,1434C 53.5292,1430.07 55.0292,1425.9 56,1421.5C 56.414,1421.96 56.914,1422.29 57.5,1422.5C 60.1305,1420.05 62.1305,1417.22 63.5,1414C 58.9805,1413.88 56.6472,1411.55 56.5,1407C 56.8333,1406.67 57.1667,1406.33 57.5,1406C 55.9386,1405.06 54.6053,1403.89 53.5,1402.5C 54.1667,1399.83 54.8333,1397.17 55.5,1394.5C 57.0072,1393.26 58.1739,1393.59 59,1395.5C 59.49,1394.21 59.6567,1392.87 59.5,1391.5C 62.394,1391.44 65.0607,1390.61 67.5,1389C 64.4315,1389.05 62.0982,1387.88 60.5,1385.5C 61.09,1384.2 62.09,1383.37 63.5,1383C 62.2161,1382.32 61.0495,1382.48 60,1383.5C 61.238,1380.4 63.0714,1377.4 65.5,1374.5C 66.4255,1373.36 67.2588,1373.36 68,1374.5C 68.2649,1372.35 69.2649,1370.68 71,1369.5C 71.9503,1370.02 72.7836,1370.69 73.5,1371.5C 73.6691,1370.6 74.0024,1369.6 74.5,1368.5C 75.6226,1369.54 76.9559,1370.21 78.5,1370.5C 80.7653,1369.66 82.932,1369.66 85,1370.5C 86.452,1369.09 86.2853,1367.59 84.5,1366C 87.5008,1366.09 89.5008,1364.76 90.5,1362C 92.9266,1360.41 95.5933,1359.58 98.5,1359.5C 98.5,1358.17 98.5,1356.83 98.5,1355.5C 101.322,1355.32 103.989,1354.66 106.5,1353.5C 108.374,1353.39 109.874,1354.06 111,1355.5C 111.161,1352.82 112.495,1351.16 115,1350.5C 117.088,1352.46 119.588,1353.8 122.5,1354.5C 123.243,1353.09 124.077,1351.76 125,1350.5C 126.749,1351.3 128.082,1350.63 129,1348.5C 130.667,1349.17 132.333,1349.83 134,1350.5C 138.302,1344.18 143.969,1342.52 151,1345.5C 152.285,1345.05 153.452,1344.38 154.5,1343.5C 158.516,1346.22 162.85,1348.22 167.5,1349.5C 169.535,1348.96 171.535,1348.29 173.5,1347.5C 174.515,1344.98 175.849,1342.64 177.5,1340.5C 175.219,1338.3 175.553,1336.3 178.5,1334.5C 180.993,1334.6 183.493,1334.93 186,1335.5C 189.683,1330.84 194.016,1330.17 199,1333.5C 204.882,1332.65 210.716,1332.32 216.5,1332.5C 221.217,1336.77 225.884,1336.93 230.5,1333C 232.167,1332.67 233.833,1332.33 235.5,1332C 240.639,1332.22 245.806,1332.39 251,1332.5C 255.071,1331.2 259.238,1330.37 263.5,1330C 265.329,1329.73 266.829,1328.89 268,1327.5C 268.333,1327.83 268.667,1328.17 269,1328.5C 270.119,1327.45 270.619,1326.28 270.5,1325C 276.461,1324.4 282.128,1322.9 287.5,1320.5C 287.502,1318.17 286.669,1316.17 285,1314.5C 264.868,1294.71 248.201,1272.37 235,1247.5C 229.264,1241.03 224.264,1234.03 220,1226.5C 190.284,1173.03 170.284,1116.03 160,1055.5C 159.127,1033.14 157.794,1010.81 156,988.5C 148.865,954.963 142.531,921.297 137,887.5C 136.696,878.936 135.863,870.436 134.5,862C 134.636,778.698 153.636,699.032 191.5,623C 171.078,612.591 153.578,598.425 139,580.5C 137.154,577.431 136.154,574.098 136,570.5C 132.3,568.446 131.8,565.946 134.5,563C 99.6072,532.45 73.1072,495.617 55,452.5C 38.1517,408.286 24.3184,363.12 13.5,317C 1.15376,264.344 0.320423,211.511 11,158.5C 15.2844,138.745 19.9511,119.078 25,99.5C 28.4578,91.4847 32.1245,83.4847 36,75.5C 40.3333,68.5 46,62.8333 53,58.5C 53.8854,56 55.0521,53.6667 56.5,51.5C 57.3567,52.7357 58.0234,54.069 58.5,55.5C 69.1459,57.166 79.8126,57.4994 90.5,56.5C 92,52.8333 93.5,49.1667 95,45.5C 95.7504,44.8742 96.5838,44.3742 97.5,44C 102.461,43.3913 107.295,43.8913 112,45.5C 164.279,40.3464 215.445,46.1798 265.5,63C 280.79,68.637 294.456,76.8037 306.5,87.5C 306.046,47.1865 324.38,19.6865 361.5,5C 383.852,2.51226 400.852,10.6789 412.5,29.5 Z M 575.5,1197.5 C 578.609,1197.26 581.609,1197.6 584.5,1198.5C 593.593,1199.8 600.426,1204.47 605,1212.5C 607.527,1216.9 610.027,1221.23 612.5,1225.5C 621.172,1249.19 627.506,1273.52 631.5,1298.5C 631.167,1299.5 630.833,1300.5 630.5,1301.5C 628.196,1301.31 625.862,1301.64 623.5,1302.5C 623.5,1303.5 623.5,1304.5 623.5,1305.5C 622.566,1304.43 622.232,1303.1 622.5,1301.5C 619.751,1301.73 617.084,1301.39 614.5,1300.5C 611.604,1303.09 608.771,1303.09 606,1300.5C 603.399,1301.76 601.066,1303.43 599,1305.5C 597.283,1304.01 596.116,1302.18 595.5,1300C 592.482,1299.5 589.482,1299.67 586.5,1300.5C 583.772,1298.7 580.939,1298.36 578,1299.5C 575.551,1298.36 573.051,1297.36 570.5,1296.5C 565.437,1297.22 560.104,1297.55 554.5,1297.5C 550.862,1296.82 547.195,1296.32 543.5,1296C 552.665,1262.67 563.331,1229.84 575.5,1197.5 Z M 623.5,1305.5 C 624.683,1306.5 626.016,1307.34 627.5,1308C 626.167,1308.67 626.167,1309.33 627.5,1310C 626.056,1310.78 624.723,1310.61 623.5,1309.5C 624.363,1308.27 624.363,1306.94 623.5,1305.5 Z M 896.5,1323.5 C 897.386,1322.22 898.386,1322.22 899.5,1323.5C 898.575,1324.56 897.575,1324.56 896.5,1323.5 Z M 907.5,1325.5 C 908.077,1324.23 908.743,1324.23 909.5,1325.5C 909.03,1326.46 908.363,1326.46 907.5,1325.5 Z M 949.5,1338.5 C 951.379,1338.39 951.712,1338.89 950.5,1340C 948.5,1340.67 946.5,1340.67 944.5,1340C 946.382,1339.8 948.048,1339.3 949.5,1338.5 Z M 1018.5,1361.5 C 1018.59,1364.6 1018.09,1364.93 1017,1362.5C 1016.09,1363.65 1015.25,1363.49 1014.5,1362C 1015.79,1361.51 1017.13,1361.34 1018.5,1361.5 Z M 1071.5,1399.5 C 1070.22,1401.91 1068.56,1402.08 1066.5,1400C 1067.67,1399.5 1068.5,1398.67 1069,1397.5C 1069.42,1398.76 1070.25,1399.42 1071.5,1399.5 Z M 1074.5,1404.5 C 1076.34,1404.64 1076.67,1405.31 1075.5,1406.5C 1074.7,1406.04 1074.37,1405.38 1074.5,1404.5 Z M 1076.5,1462.5 C 1076.51,1460 1077.18,1459.83 1078.5,1462C 1077.91,1462.46 1077.24,1462.63 1076.5,1462.5 Z M 1076.5,1462.5 C 1076.5,1463.17 1076.5,1463.83 1076.5,1464.5C 1073.83,1463.83 1073.83,1463.17 1076.5,1462.5 Z M 82.5,1505.5 C 84.9845,1506.26 84.9845,1507.26 82.5,1508.5C 82.5,1507.5 82.5,1506.5 82.5,1505.5 Z"/></g>
<g><path style="opacity:1" fill="#2a2a2a" d="M 412.5,29.5 C 413.167,29.1667 413.833,28.8333 414.5,28.5C 416.019,31.0205 417.686,33.5205 419.5,36C 420.745,36.7914 422.078,37.2914 423.5,37.5C 425.352,47.3968 422.852,56.0635 416,63.5C 414.549,61.5359 412.716,60.2026 410.5,59.5C 408,56.1675 405,53.3342 401.5,51C 397.091,49.7382 393.257,50.5715 390,53.5C 381.051,45.2956 370.551,42.1289 358.5,44C 344.554,48.0904 338.554,57.2571 340.5,71.5C 339.655,78.3934 341.155,84.7267 345,90.5C 349.9,96.7333 355.4,102.233 361.5,107C 356.403,114.882 349.07,118.549 339.5,118C 338.944,118.383 338.611,118.883 338.5,119.5C 325.579,112.722 317.745,102.055 315,87.5C 313.957,52.3988 329.457,27.8988 361.5,14C 368.385,11.9288 375.219,12.0955 382,14.5C 393.017,18.8563 402.35,25.523 410,34.5C 411.12,32.9698 411.954,31.3032 412.5,29.5 Z"/></g>
<g><path style="opacity:0.999" fill="#2a2a2a" d="M 773.5,119.5 C 765.278,117.719 759.278,113.052 755.5,105.5C 763.493,99.6731 770.326,92.6731 776,84.5C 779.177,71.3538 774.677,61.8538 762.5,56C 757.92,55.2894 753.587,53.956 749.5,52C 752.328,49.7519 755.328,47.7519 758.5,46C 752.339,44.3802 746.006,44.0468 739.5,45C 733.995,47.724 728.328,50.0574 722.5,52C 720.04,53.4578 717.873,55.2911 716,57.5C 715.617,56.944 715.117,56.6107 714.5,56.5C 712.183,55.0584 710.016,55.3918 708,57.5C 704.394,64.3786 701.061,71.3786 698,78.5C 692.266,74.5654 687.099,70.0654 682.5,65C 688.198,53.0985 695.031,41.9318 703,31.5C 703.333,31.8333 703.667,32.1667 704,32.5C 704.708,31.6195 705.542,30.9528 706.5,30.5C 707.959,30.5674 709.292,30.2341 710.5,29.5C 708.9,31.5713 708.4,33.9047 709,36.5C 722.39,22.8065 738.724,15.4731 758,14.5C 769.563,14.4503 778.563,19.117 785,28.5C 794.129,44.2593 797.796,61.2593 796,79.5C 794.418,96.3459 786.918,109.679 773.5,119.5 Z"/></g>
<g><path style="opacity:1" fill="#fefefe" d="M 786.5,217.5 C 790.555,234.837 794.721,252.17 799,269.5C 800.003,272.84 801.503,275.84 803.5,278.5C 803.5,278.833 803.5,279.167 803.5,279.5C 803.778,287.166 804.111,294.833 804.5,302.5C 802.193,319.063 801.027,335.73 801,352.5C 798.106,364.868 795.106,377.201 792,389.5C 790.265,396.371 787.932,403.037 785,409.5C 773.113,421.387 761.279,433.221 749.5,445C 740.263,450.901 731.596,457.568 723.5,465C 714.629,470.268 705.629,475.268 696.5,480C 691.833,481 687.167,482 682.5,483C 671.74,483.071 661.073,484.071 650.5,486C 640.167,486.667 629.833,486.667 619.5,486C 609.338,483.625 599.338,480.625 589.5,477C 582.874,475.695 576.208,475.362 569.5,476C 565.549,478.607 561.216,480.273 556.5,481C 551.833,481.333 547.167,481.667 542.5,482C 539.134,484.184 535.467,485.517 531.5,486C 525.336,486.528 519.169,487.028 513,487.5C 492.418,485.785 471.918,483.285 451.5,480C 442.222,475.596 432.556,472.262 422.5,470C 404.543,462.114 388.376,451.614 374,438.5C 363.083,421.668 352.416,404.668 342,387.5C 331.045,363.983 325.045,339.317 324,313.5C 323.623,312.058 322.79,311.058 321.5,310.5C 321.064,295.061 322.064,279.728 324.5,264.5C 329.087,249.914 332.42,234.914 334.5,219.5C 336.926,214.166 335.259,211.833 329.5,212.5C 336.167,193.166 345,174.832 356,157.5C 381.069,121.43 411.236,90.2638 446.5,64C 447.257,62.4878 448.257,61.1545 449.5,60C 489.389,38.0898 532.056,27.7565 577.5,29C 595.282,31.3619 612.282,36.3619 628.5,44C 661.284,60.7171 691.284,81.3838 718.5,106C 717.5,106.333 716.5,106.667 715.5,107C 731.033,117.868 743.866,131.368 754,147.5C 767.274,169.713 778.107,193.046 786.5,217.5 Z"/></g>
<g><path style="opacity:1" fill="#2a2a2a" d="M 1021.5,74.5 C 1023.71,80.5933 1026.21,86.5933 1029,92.5C 1030.08,94.3937 1031.41,94.727 1033,93.5C 1034.56,88.2825 1034.9,82.9491 1034,77.5C 1032.81,71.4021 1031.31,65.4021 1029.5,59.5C 1038.41,67.9097 1047.24,76.5764 1056,85.5C 1065.14,108.047 1071.81,131.381 1076,155.5C 1097.1,274.619 1082.27,388.953 1031.5,498.5C 1023.86,502.322 1016.19,506.156 1008.5,510C 963.218,521.929 921.551,514.262 883.5,487C 867.538,473.708 853.704,458.541 842,441.5C 826.964,415.028 820.964,386.695 824,356.5C 825.695,340.665 828.361,324.998 832,309.5C 838.202,289.894 844.202,270.227 850,250.5C 853.787,242.596 857.287,234.596 860.5,226.5C 862.401,224.204 864.734,222.371 867.5,221C 872.161,219.879 876.661,218.379 881,216.5C 881.45,213.936 880.284,212.436 877.5,212C 874.132,211.457 870.799,211.624 867.5,212.5C 866.675,210.875 867.008,209.208 868.5,207.5C 878.339,201.746 888.339,196.246 898.5,191C 913.634,181.834 912.634,180.167 895.5,186C 886.393,189.72 877.726,194.22 869.5,199.5C 868.614,198.675 868.281,197.675 868.5,196.5C 870.025,194.784 871.025,192.784 871.5,190.5C 881.368,176.789 892.202,163.789 904,151.5C 905.289,149.945 905.956,148.279 906,146.5C 896.567,151.464 887.733,157.297 879.5,164C 867.736,176.755 856.402,189.755 845.5,203C 829.93,206.954 815.43,204.454 802,195.5C 796.91,186.651 792.91,177.318 790,167.5C 789.232,157.976 789.399,148.476 790.5,139C 792.278,135.759 794.945,133.425 798.5,132C 817.797,114.107 824.63,92.2741 819,66.5C 817.668,64.34 816.168,62.34 814.5,60.5C 846.506,46.4462 879.839,36.2795 914.5,30C 947.61,24.6143 976.944,32.6143 1002.5,54C 1004.56,55.5325 1005.9,57.5325 1006.5,60C 1013.95,62.2827 1018.95,67.116 1021.5,74.5 Z"/></g>
<g><path style="opacity:1" fill="#1d1d1d" d="M 423.5,37.5 C 424.552,37.3505 425.552,37.5172 426.5,38C 431.387,43.8863 435.887,50.053 440,56.5C 440.667,57.5 440.667,58.5 440,59.5C 433.303,64.0181 426.97,69.0181 421,74.5C 418.059,69.0671 414.559,64.0671 410.5,59.5C 412.716,60.2026 414.549,61.5359 416,63.5C 422.852,56.0635 425.352,47.3968 423.5,37.5 Z"/></g>
<g><path style="opacity:1" fill="#1d1d1d" d="M 773.5,119.5 C 770.84,121.497 767.84,122.997 764.5,124C 754.721,126.353 746.554,123.853 740,116.5C 739.667,117.167 739.333,117.833 739,118.5C 728.333,105.167 716.333,93.1667 703,82.5C 703.473,77.5243 705.14,72.8577 708,68.5C 708.024,72.8879 709.191,76.8879 711.5,80.5C 714.831,73.3467 719.497,67.1801 725.5,62C 733.322,57.9976 740.489,58.8309 747,64.5C 750.091,69.0137 753.425,73.347 757,77.5C 759.908,82.5506 762.242,87.884 764,93.5C 762.996,79.3236 757.496,67.1569 747.5,57C 734.566,50.5392 724.066,53.3725 716,65.5C 715.637,62.456 715.137,59.456 714.5,56.5C 715.117,56.6107 715.617,56.944 716,57.5C 717.873,55.2911 720.04,53.4578 722.5,52C 728.328,50.0574 733.995,47.724 739.5,45C 746.006,44.0468 752.339,44.3802 758.5,46C 755.328,47.7519 752.328,49.7519 749.5,52C 753.587,53.956 757.92,55.2894 762.5,56C 774.677,61.8538 779.177,71.3538 776,84.5C 770.326,92.6731 763.493,99.6731 755.5,105.5C 759.278,113.052 765.278,117.719 773.5,119.5 Z"/></g>
<g><path style="opacity:1" fill="#2a2a2a" d="M 306.5,93.5 C 304.08,96.2926 303.08,99.6259 303.5,103.5C 306.069,121.045 311.903,137.378 321,152.5C 323.703,155.538 326.703,158.205 330,160.5C 327.586,170.332 323.252,179.332 317,187.5C 311.206,195.628 304.373,202.795 296.5,209C 289.863,212.656 282.863,215.323 275.5,217C 270.733,217.48 266.067,216.98 261.5,215.5C 254.937,210.058 248.604,204.391 242.5,198.5C 239.227,192.429 235.06,186.429 230,180.5C 227.667,176.5 225.333,172.5 223,168.5C 217.995,155.132 212.995,141.798 208,128.5C 207.355,149.901 213.188,169.401 225.5,187C 222.735,186.28 220.401,184.613 218.5,182C 217.5,181.667 216.5,181.333 215.5,181C 206.361,170.868 196.195,162.035 185,154.5C 184.308,155.025 183.808,155.692 183.5,156.5C 185.603,160.106 188.269,163.273 191.5,166C 200.004,172.084 208.67,177.918 217.5,183.5C 219.766,187.559 221.266,191.893 222,196.5C 228.176,206.85 233.843,217.516 239,228.5C 248.47,255.909 258.136,283.242 268,310.5C 269.884,321.038 272.551,331.371 276,341.5C 284.393,388.824 279.059,434.491 260,478.5C 253.836,486.825 248.169,495.492 243,504.5C 223.861,525.158 200.694,539.324 173.5,547C 157.686,551.286 142.019,550.786 126.5,545.5C 87.7573,503.718 60.5906,455.051 45,399.5C 32.6687,362.508 23.0021,324.841 16,286.5C 10,247.167 10,207.833 16,168.5C 20.1447,146.92 23.8113,125.253 27,103.5C 28.1544,105.957 29.4877,105.957 31,103.5C 34.6122,93.6089 39.2789,84.2756 45,75.5C 47.4162,72.5766 50.2496,70.2433 53.5,68.5C 55.8591,69.176 58.1924,70.0093 60.5,71C 69.9778,78.3102 79.3112,85.8102 88.5,93.5C 90.7102,83.9962 93.5435,74.6629 97,65.5C 97.4955,63.5273 97.6621,61.5273 97.5,59.5C 97.485,53.5068 100.152,50.8401 105.5,51.5C 112.7,49.9322 120.034,49.2655 127.5,49.5C 161.858,50.7115 195.858,54.8781 229.5,62C 256.839,68.678 282.506,79.178 306.5,93.5 Z"/></g>
<g><path style="opacity:1" fill="#1d1d1d" d="M 338.5,119.5 C 338.611,118.883 338.944,118.383 339.5,118C 349.07,118.549 356.403,114.882 361.5,107C 355.4,102.233 349.9,96.7333 345,90.5C 341.155,84.7267 339.655,78.3934 340.5,71.5C 343.045,76.6036 345.878,81.6036 349,86.5C 349.667,85.5 349.667,84.5 349,83.5C 344.824,77.4602 343.491,70.7935 345,63.5C 353.094,50.0584 364.261,46.8917 378.5,54C 384.688,59.2567 391.354,63.7567 398.5,67.5C 399.442,67.3918 400.275,67.0585 401,66.5C 401.506,63.3261 400.672,60.4927 398.5,58C 399.167,57.3333 399.833,57.3333 400.5,58C 406.4,64.0638 411.734,70.5638 416.5,77.5C 400.313,92.5201 384.98,108.353 370.5,125C 359.274,126.099 348.608,124.266 338.5,119.5 Z"/></g>
<g><path style="opacity:0.999" fill="#1e1e1e" d="M 1029.5,59.5 C 1031.31,65.4021 1032.81,71.4021 1034,77.5C 1034.9,82.9491 1034.56,88.2825 1033,93.5C 1031.41,94.727 1030.08,94.3937 1029,92.5C 1026.21,86.5933 1023.71,80.5933 1021.5,74.5C 1022.38,74.6309 1023.04,74.2975 1023.5,73.5C 1020.29,68.7891 1017.29,63.9557 1014.5,59C 1014.91,58.0546 1015.57,57.3879 1016.5,57C 1020.59,56.2327 1024.59,56.566 1028.5,58C 1029.06,58.3826 1029.39,58.8826 1029.5,59.5 Z"/></g>
<g><path style="opacity:1" fill="#1d1d1d" d="M 814.5,60.5 C 816.168,62.34 817.668,64.34 819,66.5C 824.63,92.2741 817.797,114.107 798.5,132C 794.945,133.425 792.278,135.759 790.5,139C 789.399,148.476 789.232,157.976 790,167.5C 792.91,177.318 796.91,186.651 802,195.5C 815.43,204.454 829.93,206.954 845.5,203C 856.402,189.755 867.736,176.755 879.5,164C 887.733,157.297 896.567,151.464 906,146.5C 905.956,148.279 905.289,149.945 904,151.5C 892.202,163.789 881.368,176.789 871.5,190.5C 868.786,189.137 866.119,189.304 863.5,191C 849.435,208.623 838.602,228.123 831,249.5C 824.316,258.544 818.983,268.211 815,278.5C 823.569,265.928 832.903,253.928 843,242.5C 848.424,236.569 854.258,231.236 860.5,226.5C 857.287,234.596 853.787,242.596 850,250.5C 844.202,270.227 838.202,289.894 832,309.5C 828.361,324.998 825.695,340.665 824,356.5C 820.964,386.695 826.964,415.028 842,441.5C 853.704,458.541 867.538,473.708 883.5,487C 921.551,514.262 963.218,521.929 1008.5,510C 1016.19,506.156 1023.86,502.322 1031.5,498.5C 1016.25,535.688 995.412,569.355 969,599.5C 957.887,610.623 946.721,621.623 935.5,632.5C 912.989,593.491 887.489,556.491 859,521.5C 842.91,496.068 825.243,471.735 806,448.5C 803.961,446.126 801.628,444.126 799,442.5C 797.121,440.473 795.954,438.14 795.5,435.5C 794.448,435.649 793.448,435.483 792.5,435C 799.103,422.86 803.936,410.027 807,396.5C 822.044,313.13 809.71,234.13 770,159.5C 763.95,148.788 757.117,138.621 749.5,129C 760.584,132.992 770.917,131.325 780.5,124C 797.316,109.406 805.316,90.9056 804.5,68.5C 807.086,64.8768 810.419,62.2102 814.5,60.5 Z"/></g>
<g><path style="opacity:1" fill="#1e1e1e" d="M 97.5,59.5 C 97.6621,61.5273 97.4955,63.5273 97,65.5C 93.5435,74.6629 90.7102,83.9962 88.5,93.5C 79.3112,85.8102 69.9778,78.3102 60.5,71C 58.1924,70.0093 55.8591,69.176 53.5,68.5C 57.1924,66.0668 61.3591,65.0668 66,65.5C 74.4635,66.8286 82.9635,67.3286 91.5,67C 92.9308,66.5348 94.0975,65.7014 95,64.5C 95.3736,62.5087 96.207,60.842 97.5,59.5 Z"/></g>
<g><path style="opacity:1" fill="#0a0909" d="M 763.5,235.5 C 757.089,249.737 746.422,259.903 731.5,266C 684.476,280.24 645.142,268.74 613.5,231.5C 605.067,244.435 593.567,253.435 579,258.5C 577.333,258.167 575.667,257.833 574,257.5C 569.944,258.945 565.777,259.945 561.5,260.5C 563.547,268.529 564.881,276.696 565.5,285C 565.709,289.027 565.042,292.86 563.5,296.5C 564.167,297.833 564.833,297.833 565.5,296.5C 566.052,294.667 566.885,293 568,291.5C 567.667,294.833 567.333,298.167 567,301.5C 578.866,314.37 592.7,324.536 608.5,332C 617.499,335.741 626.166,335.074 634.5,330C 645.474,322.529 654.141,313.029 660.5,301.5C 664.068,295.92 668.068,290.587 672.5,285.5C 673.298,285.957 673.631,286.624 673.5,287.5C 672.279,294.333 670.112,301 667,307.5C 659.923,319.245 650.757,329.078 639.5,337C 629.194,342.415 618.527,343.915 607.5,341.5C 609.021,365.282 599.021,382.449 577.5,393C 566.845,397.066 556.845,395.733 547.5,389C 533.016,379.541 525.683,366.041 525.5,348.5C 525.828,343.125 525.495,337.792 524.5,332.5C 523.893,332.624 523.56,332.957 523.5,333.5C 500.599,339.191 480.266,334.357 462.5,319C 455.565,312.571 449.232,305.738 443.5,298.5C 441.807,296.14 442.14,294.64 444.5,294C 453.106,301.784 462.106,308.951 471.5,315.5C 493.319,331.003 515.652,331.503 538.5,317C 546.146,312.026 553.146,306.359 559.5,300C 558.287,298.37 557.454,296.536 557,294.5C 556.992,283.063 556.158,271.73 554.5,260.5C 533.117,259.305 514.784,251.305 499.5,236.5C 468.527,271.875 430.193,283.375 384.5,271C 379.861,269.347 375.528,267.181 371.5,264.5C 364.681,260.186 358.847,254.852 354,248.5C 345.648,223.698 346.981,199.364 358,175.5C 364.169,162.483 371.836,150.483 381,139.5C 382.202,137.323 382.702,134.989 382.5,132.5C 383.873,132.657 385.207,132.49 386.5,132C 402.135,114.362 420.468,100.362 441.5,90C 479.357,76.5063 507.524,87.673 526,123.5C 529.886,132.429 532.053,141.762 532.5,151.5C 531.663,160.864 530.663,170.197 529.5,179.5C 543.086,177.523 556.753,177.023 570.5,178C 576.521,179.287 582.521,180.287 588.5,181C 574.883,146.413 581.883,116.746 609.5,92C 623.082,81.1418 638.416,77.4751 655.5,81C 671.759,84.7971 686.425,91.7971 699.5,102C 730.047,125.208 751.213,155.041 763,191.5C 766.166,206.139 766.332,220.805 763.5,235.5 Z"/></g>
<g><path style="opacity:1" fill="#2a2a2a" d="M 636.5,87.5 C 646.499,86.8664 656.165,88.3664 665.5,92C 706.043,111.877 734.877,142.71 752,184.5C 758.314,202.387 759.981,220.387 757,238.5C 744.765,253.369 728.932,261.536 709.5,263C 671.09,266.88 640.59,253.38 618,222.5C 617.703,217.309 617.203,212.143 616.5,207C 616.539,205.106 617.206,204.106 618.5,204C 616.981,201.422 616.148,198.589 616,195.5C 610.16,192.157 604.326,188.657 598.5,185C 585.636,157.257 588.136,131.09 606,106.5C 614.305,96.9995 624.472,90.6661 636.5,87.5 Z"/></g>
<g><path style="opacity:1" fill="#2a2a2a" d="M 463.5,91.5 C 484.956,90.8007 501.456,99.4674 513,117.5C 525.078,137.92 526.745,159.254 518,181.5C 509.392,185.391 500.559,188.558 491.5,191C 484.18,199.523 482.68,209.023 487,219.5C 488.547,223.436 490.713,226.936 493.5,230C 466.308,262.62 431.808,274.12 390,264.5C 376.557,260.705 365.557,253.372 357,242.5C 353.413,217.404 357.746,193.404 370,170.5C 386.458,141.377 408.958,118.21 437.5,101C 445.889,96.7073 454.556,93.5406 463.5,91.5 Z"/></g>
<g><path style="opacity:1" fill="#1d1d1d" d="M 306.5,93.5 C 307.721,94.0283 308.887,94.695 310,95.5C 320.667,121.74 339.834,132.74 367.5,128.5C 349.926,149.312 336.759,172.646 328,198.5C 326.939,203.104 326.273,207.771 326,212.5C 324.815,214.87 323.649,217.203 322.5,219.5C 323.277,221.447 324.277,223.28 325.5,225C 319.345,248.764 315.845,272.93 315,297.5C 302.406,266.619 284.573,239.285 261.5,215.5C 266.067,216.98 270.733,217.48 275.5,217C 282.863,215.323 289.863,212.656 296.5,209C 304.373,202.795 311.206,195.628 317,187.5C 323.252,179.332 327.586,170.332 330,160.5C 326.703,158.205 323.703,155.538 321,152.5C 311.903,137.378 306.069,121.045 303.5,103.5C 303.08,99.6259 304.08,96.2926 306.5,93.5 Z"/></g>
<g><path style="opacity:0.289" fill="#292929" d="M 1073.5,112.5 C 1079.27,122.994 1082.27,134.327 1082.5,146.5C 1079.13,135.372 1076.13,124.039 1073.5,112.5 Z"/></g>
<g><path style="opacity:1" fill="#1e1e1e" d="M 702.5,185.5 C 703.093,178.522 701.927,171.856 699,165.5C 694.973,158.779 691.473,151.779 688.5,144.5C 675.813,124.283 661.647,123.283 646,141.5C 635.244,155.764 630.577,171.764 632,189.5C 633.125,194.733 635.291,199.4 638.5,203.5C 634.419,202.6 630.919,200.6 628,197.5C 627.251,192.668 625.917,188.001 624,183.5C 623.333,178.833 623.333,174.167 624,169.5C 629.836,151.643 639.336,136.143 652.5,123C 656.35,119.973 660.684,118.973 665.5,120C 676.34,122.154 685.174,127.654 692,136.5C 699.876,147.244 704.043,159.244 704.5,172.5C 704.333,175.833 704.167,179.167 704,182.5C 703.768,183.737 703.268,184.737 702.5,185.5 Z"/></g>
<g><path style="opacity:1" fill="#1e1e1e" d="M 404.5,195.5 C 405.151,196.091 405.818,196.757 406.5,197.5C 425.926,191.987 445.759,189.32 466,189.5C 467.501,195.185 469.001,200.851 470.5,206.5C 472.148,201.728 473.481,196.895 474.5,192C 473.798,182.847 473.298,173.68 473,164.5C 471.732,153.666 467.232,144.499 459.5,137C 450.328,132.115 441.328,132.448 432.5,138C 427.966,142.199 423.799,146.699 420,151.5C 415.219,159.401 410.719,167.401 406.5,175.5C 411.243,153.264 423.91,137.431 444.5,128C 455.108,126.424 463.608,129.924 470,138.5C 476.735,146.976 480.402,156.642 481,167.5C 481.667,174.833 481.667,182.167 481,189.5C 477.333,197.833 473.667,206.167 470,214.5C 466.201,219.301 462.034,223.801 457.5,228C 443.854,236.656 429.521,243.99 414.5,250C 405.385,252.657 396.718,251.657 388.5,247C 383.204,241.753 382.038,235.587 385,228.5C 388.243,221.014 391.743,213.681 395.5,206.5C 391.53,204.938 387.53,203.438 383.5,202C 390.301,199.121 397.301,196.955 404.5,195.5 Z"/></g>
<g><path style="opacity:1" fill="#070707" d="M 702.5,185.5 C 702.5,186.167 702.5,186.833 702.5,187.5C 701.91,188.766 701.41,190.099 701,191.5C 694.421,188.632 687.587,186.466 680.5,185C 667.011,183.944 653.678,184.944 640.5,188C 639.941,188.725 639.608,189.558 639.5,190.5C 641.126,194.706 642.126,199.04 642.5,203.5C 641.5,203.5 640.5,203.5 639.5,203.5C 639.167,203.5 638.833,203.5 638.5,203.5C 635.291,199.4 633.125,194.733 632,189.5C 630.577,171.764 635.244,155.764 646,141.5C 661.647,123.283 675.813,124.283 688.5,144.5C 691.473,151.779 694.973,158.779 699,165.5C 701.927,171.856 703.093,178.522 702.5,185.5 Z"/></g>
<g><path style="opacity:1" fill="#070707" d="M 404.5,195.5 C 402.752,188.567 403.419,181.9 406.5,175.5C 410.719,167.401 415.219,159.401 420,151.5C 423.799,146.699 427.966,142.199 432.5,138C 441.328,132.448 450.328,132.115 459.5,137C 467.232,144.499 471.732,153.666 473,164.5C 473.298,173.68 473.798,182.847 474.5,192C 473.481,196.895 472.148,201.728 470.5,206.5C 469.001,200.851 467.501,195.185 466,189.5C 445.759,189.32 425.926,191.987 406.5,197.5C 405.818,196.757 405.151,196.091 404.5,195.5 Z"/></g>
<g><path style="opacity:1" fill="#f8f8f8" d="M 680.5,176.5 C 679.791,175.596 678.791,175.263 677.5,175.5C 677.795,173.265 677.461,171.265 676.5,169.5C 673.395,155.563 664.728,147.73 650.5,146C 664.402,130.606 675.569,132.439 684,151.5C 688.198,159.727 691.698,168.227 694.5,177C 694.167,177.833 693.833,178.667 693.5,179.5C 689.396,177.464 685.062,176.464 680.5,176.5 Z"/></g>
<g><path style="opacity:1" fill="#f6f6f6" d="M 442.5,140.5 C 449.253,139.746 454.586,142.079 458.5,147.5C 455.335,147.551 452.002,147.718 448.5,148C 432.946,154.996 425.613,166.83 426.5,183.5C 420.724,185.554 415.058,187.887 409.5,190.5C 408.544,189.135 407.878,187.635 407.5,186C 413.28,170.219 422.28,156.552 434.5,145C 437.391,143.726 440.058,142.226 442.5,140.5 Z"/></g>
<g><path style="opacity:1" fill="#f2f2f2" d="M 659.5,159.5 C 663.762,159.587 666.429,161.754 667.5,166C 663.386,169.824 658.886,170.324 654,167.5C 653.631,163.362 655.464,160.695 659.5,159.5 Z"/></g>
<g><path style="opacity:1" fill="#f4f4f4" d="M 457.5,163.5 C 464.182,162.825 466.682,165.825 465,172.5C 462.029,176.092 458.696,176.425 455,173.5C 453.861,169.579 454.695,166.246 457.5,163.5 Z"/></g>
<g><path style="opacity:1" fill="#6e6e6e" d="M 676.5,169.5 C 677.461,171.265 677.795,173.265 677.5,175.5C 678.791,175.263 679.791,175.596 680.5,176.5C 679.167,176.5 677.833,176.5 676.5,176.5C 676.5,174.167 676.5,171.833 676.5,169.5 Z"/></g>
<g><path style="opacity:1" fill="#1e1e1e" d="M 867.5,212.5 C 859.159,216.945 851.992,222.945 846,230.5C 852.405,218.566 859.905,207.233 868.5,196.5C 868.281,197.675 868.614,198.675 869.5,199.5C 877.726,194.22 886.393,189.72 895.5,186C 912.634,180.167 913.634,181.834 898.5,191C 888.339,196.246 878.339,201.746 868.5,207.5C 867.008,209.208 866.675,210.875 867.5,212.5 Z"/></g>
<g><path style="opacity:1" fill="#1d1d1d" d="M 242.5,198.5 C 237.723,195.94 233.056,193.107 228.5,190C 227.207,189.51 225.873,189.343 224.5,189.5C 224.351,190.552 224.517,191.552 225,192.5C 251.723,215.541 274.39,241.874 293,271.5C 300.442,285.83 307.108,300.497 313,315.5C 314.52,334.329 317.187,352.996 321,371.5C 324.131,384.894 328.465,397.894 334,410.5C 334.667,411.833 334.667,413.167 334,414.5C 302.848,453.316 272.848,492.982 244,533.5C 227.074,559.007 211.408,585.341 197,612.5C 196.086,611.346 195.253,611.513 194.5,613C 189.796,613.163 185.463,611.83 181.5,609C 166.259,599.751 153.759,587.918 144,573.5C 147.594,576.698 151.761,577.865 156.5,577C 158.978,575.062 159.145,572.895 157,570.5C 153.072,570.42 149.239,569.253 145.5,567C 138.12,560.728 131.787,553.562 126.5,545.5C 142.019,550.786 157.686,551.286 173.5,547C 200.694,539.324 223.861,525.158 243,504.5C 248.169,495.492 253.836,486.825 260,478.5C 279.059,434.491 284.393,388.824 276,341.5C 272.551,331.371 269.884,321.038 268,310.5C 258.136,283.242 248.47,255.909 239,228.5C 233.843,217.516 228.176,206.85 222,196.5C 221.266,191.893 219.766,187.559 217.5,183.5C 208.67,177.918 200.004,172.084 191.5,166C 188.269,163.273 185.603,160.106 183.5,156.5C 183.808,155.692 184.308,155.025 185,154.5C 196.195,162.035 206.361,170.868 215.5,181C 216.5,181.333 217.5,181.667 218.5,182C 220.401,184.613 222.735,186.28 225.5,187C 213.188,169.401 207.355,149.901 208,128.5C 212.995,141.798 217.995,155.132 223,168.5C 225.333,172.5 227.667,176.5 230,180.5C 235.06,186.429 239.227,192.429 242.5,198.5 Z"/></g>
<g><path style="opacity:1" fill="#1e1e1e" d="M 702.5,187.5 C 703.873,187.343 705.207,187.51 706.5,188C 710.704,193.734 716.371,196.068 723.5,195C 720.328,196.752 717.328,198.752 714.5,201C 720.293,208.571 721.126,216.738 717,225.5C 714.044,230.231 709.877,233.398 704.5,235C 695.257,237.411 686.257,236.745 677.5,233C 661.611,227.233 648.945,217.4 639.5,203.5C 640.5,203.5 641.5,203.5 642.5,203.5C 642.126,199.04 641.126,194.706 639.5,190.5C 639.608,189.558 639.941,188.725 640.5,188C 653.678,184.944 667.011,183.944 680.5,185C 687.587,186.466 694.421,188.632 701,191.5C 701.41,190.099 701.91,188.766 702.5,187.5 Z"/></g>
<g><path style="opacity:1" fill="#878787" d="M 556.5,188.5 C 565.358,187.402 573.692,188.902 581.5,193C 584.349,195.559 585.183,198.726 584,202.5C 581.592,204.956 578.759,206.789 575.5,208C 564.512,209.244 553.512,209.91 542.5,210C 537.913,205.772 536.413,200.606 538,194.5C 539.41,193.213 540.91,192.046 542.5,191C 546.5,190.667 550.5,190.333 554.5,190C 555.416,189.722 556.082,189.222 556.5,188.5 Z"/></g>
<g><path style="opacity:1" fill="#030303" d="M 871.5,190.5 C 871.025,192.784 870.025,194.784 868.5,196.5C 859.905,207.233 852.405,218.566 846,230.5C 851.992,222.945 859.159,216.945 867.5,212.5C 870.799,211.624 874.132,211.457 877.5,212C 880.284,212.436 881.45,213.936 881,216.5C 876.661,218.379 872.161,219.879 867.5,221C 864.734,222.371 862.401,224.204 860.5,226.5C 854.258,231.236 848.424,236.569 843,242.5C 832.903,253.928 823.569,265.928 815,278.5C 818.983,268.211 824.316,258.544 831,249.5C 838.602,228.123 849.435,208.623 863.5,191C 866.119,189.304 868.786,189.137 871.5,190.5 Z"/></g>
<g><path style="opacity:1" fill="#cccccc" d="M 334.5,219.5 C 332.42,234.914 329.087,249.914 324.5,264.5C 325.301,248.813 328.635,233.813 334.5,219.5 Z"/></g>
<g><path style="opacity:1" fill="#d5d5d5" d="M 786.5,217.5 C 794.368,237.119 800.034,257.452 803.5,278.5C 801.503,275.84 800.003,272.84 799,269.5C 794.721,252.17 790.555,234.837 786.5,217.5 Z"/></g>
<g><path style="opacity:1" fill="#dfdfdf" d="M 763.5,235.5 C 763.421,236.93 763.754,238.264 764.5,239.5C 761.007,249.495 755.007,257.662 746.5,264C 740.5,267.667 734.5,271.333 728.5,275C 721.626,277.736 714.626,280.069 707.5,282C 694.125,282.881 680.791,282.548 667.5,281C 657.59,278.048 648.923,273.048 641.5,266C 630.893,262.253 620.059,259.087 609,256.5C 600.993,264.316 592.66,271.649 584,278.5C 580.272,298.565 588.438,310.065 608.5,313C 617.125,314.419 625.792,314.752 634.5,314C 643.616,310.608 652.283,306.441 660.5,301.5C 654.141,313.029 645.474,322.529 634.5,330C 626.166,335.074 617.499,335.741 608.5,332C 592.7,324.536 578.866,314.37 567,301.5C 567.333,298.167 567.667,294.833 568,291.5C 566.885,293 566.052,294.667 565.5,296.5C 564.833,297.833 564.167,297.833 563.5,296.5C 565.042,292.86 565.709,289.027 565.5,285C 564.881,276.696 563.547,268.529 561.5,260.5C 565.777,259.945 569.944,258.945 574,257.5C 575.667,257.833 577.333,258.167 579,258.5C 593.567,253.435 605.067,244.435 613.5,231.5C 645.142,268.74 684.476,280.24 731.5,266C 746.422,259.903 757.089,249.737 763.5,235.5 Z"/></g>
<g><path style="opacity:1" fill="#e0dfdf" d="M 471.5,315.5 C 476.042,317.265 480.709,318.765 485.5,320C 499.485,320.172 512.818,317.172 525.5,311C 540.608,303.145 543.608,291.979 534.5,277.5C 520.031,271.861 508.365,262.694 499.5,250C 498.092,249.685 496.759,250.018 495.5,251C 492.167,253.667 488.833,256.333 485.5,259C 474.218,263.973 463.551,269.973 453.5,277C 423.827,288.667 396.16,285 370.5,266C 371.056,265.617 371.389,265.117 371.5,264.5C 375.528,267.181 379.861,269.347 384.5,271C 430.193,283.375 468.527,271.875 499.5,236.5C 514.784,251.305 533.117,259.305 554.5,260.5C 556.158,271.73 556.992,283.063 557,294.5C 557.454,296.536 558.287,298.37 559.5,300C 553.146,306.359 546.146,312.026 538.5,317C 515.652,331.503 493.319,331.003 471.5,315.5 Z"/></g>
<g><path style="opacity:1" fill="#e0e0e0" d="M 673.5,287.5 C 673.351,288.552 673.517,289.552 674,290.5C 672.105,313.607 660.605,331.774 639.5,345C 631.171,346.83 622.838,348.663 614.5,350.5C 612.499,367.168 607.999,383.168 601,398.5C 589.317,421.261 571.817,427.428 548.5,417C 543.748,414.252 539.581,410.752 536,406.5C 524.807,392.448 518.973,376.448 518.5,358.5C 514.064,358.79 509.73,358.29 505.5,357C 495.669,351.586 486.002,345.919 476.5,340C 463.094,326.598 450.427,312.598 438.5,298C 440.047,297.667 441.38,298.167 442.5,299.5C 443.107,299.376 443.44,299.043 443.5,298.5C 449.232,305.738 455.565,312.571 462.5,319C 480.266,334.357 500.599,339.191 523.5,333.5C 524.167,338.5 524.833,343.5 525.5,348.5C 525.683,366.041 533.016,379.541 547.5,389C 556.845,395.733 566.845,397.066 577.5,393C 599.021,382.449 609.021,365.282 607.5,341.5C 618.527,343.915 629.194,342.415 639.5,337C 650.757,329.078 659.923,319.245 667,307.5C 670.112,301 672.279,294.333 673.5,287.5 Z"/></g>
<g><path style="opacity:1" fill="#e1e1e1" d="M 803.5,279.5 C 812.652,331.66 807.152,382.327 787,431.5C 782.74,442.853 775.907,452.353 766.5,460C 736.064,488.374 699.897,502.208 658,501.5C 649.802,501.472 641.635,500.972 633.5,500C 616.94,496.624 600.607,492.624 584.5,488C 586.332,487.252 587.999,486.252 589.5,485C 585.052,486.214 580.719,488.048 576.5,490.5C 564.43,496.679 551.763,500.679 538.5,502.5C 462.822,520.875 402.656,498.541 358,435.5C 333.273,397.608 321.106,355.941 321.5,310.5C 322.79,311.058 323.623,312.058 324,313.5C 325.045,339.317 331.045,363.983 342,387.5C 352.416,404.668 363.083,421.668 374,438.5C 388.376,451.614 404.543,462.114 422.5,470C 432.556,472.262 442.222,475.596 451.5,480C 471.918,483.285 492.418,485.785 513,487.5C 519.169,487.028 525.336,486.528 531.5,486C 535.467,485.517 539.134,484.184 542.5,482C 547.167,481.667 551.833,481.333 556.5,481C 561.216,480.273 565.549,478.607 569.5,476C 576.208,475.362 582.874,475.695 589.5,477C 599.338,480.625 609.338,483.625 619.5,486C 629.833,486.667 640.167,486.667 650.5,486C 661.073,484.071 671.74,483.071 682.5,483C 687.167,482 691.833,481 696.5,480C 705.629,475.268 714.629,470.268 723.5,465C 731.596,457.568 740.263,450.901 749.5,445C 761.279,433.221 773.113,421.387 785,409.5C 787.932,403.037 790.265,396.371 792,389.5C 795.106,377.201 798.106,364.868 801,352.5C 801.027,335.73 802.193,319.063 804.5,302.5C 804.111,294.833 803.778,287.166 803.5,279.5 Z"/></g>
<g><path style="opacity:1" fill="#c43333" d="M 586.5,329.5 C 584.866,330.207 583.532,331.373 582.5,333C 573.347,332.074 566.68,335.574 562.5,343.5C 560.7,332.237 560.2,320.903 561,309.5C 561.424,307.385 562.591,306.552 564.5,307C 567.333,310.5 570.167,314 573,317.5C 577.694,321.365 582.194,325.365 586.5,329.5 Z"/></g>
<g><path style="opacity:1" fill="#c13333" d="M 553.5,316.5 C 554.167,321.5 554.833,326.5 555.5,331.5C 555.437,337.269 556.104,342.936 557.5,348.5C 554.109,344.072 550.942,339.406 548,334.5C 542.871,329.668 537.538,329.335 532,333.5C 531.503,336.146 531.336,338.813 531.5,341.5C 530.357,338.024 530.19,334.358 531,330.5C 539.287,326.948 546.787,322.281 553.5,316.5 Z"/></g>
<g><path style="opacity:1" fill="#591717" d="M 553.5,316.5 C 553.56,315.957 553.893,315.624 554.5,315.5C 555.495,320.792 555.828,326.125 555.5,331.5C 554.833,326.5 554.167,321.5 553.5,316.5 Z"/></g>
<g><path style="opacity:1" fill="#d24646" d="M 586.5,329.5 C 591.137,332.15 595.471,335.15 599.5,338.5C 601.314,361.522 591.647,377.688 570.5,387C 553.068,387.184 541.235,379.017 535,362.5C 532.709,355.674 531.542,348.674 531.5,341.5C 531.336,338.813 531.503,336.146 532,333.5C 537.538,329.335 542.871,329.668 548,334.5C 550.942,339.406 554.109,344.072 557.5,348.5C 559.032,354.181 562.365,358.015 567.5,360C 566.299,359.097 565.465,357.931 565,356.5C 564.1,352.166 563.266,347.832 562.5,343.5C 566.68,335.574 573.347,332.074 582.5,333C 583.532,331.373 584.866,330.207 586.5,329.5 Z"/></g>
<g><path style="opacity:1" fill="#757575" d="M 523.5,333.5 C 523.56,332.957 523.893,332.624 524.5,332.5C 525.495,337.792 525.828,343.125 525.5,348.5C 524.833,343.5 524.167,338.5 523.5,333.5 Z"/></g>
<g><path style="opacity:1" fill="#e1e1e1" d="M 552.5,503.5 C 561.02,499.739 569.353,495.739 577.5,491.5C 590.164,495.555 602.831,499.721 615.5,504C 644.725,510.969 674.058,511.302 703.5,505C 729.953,498.365 752.453,485.198 771,465.5C 775.454,460.372 779.121,454.705 782,448.5C 785.377,445.292 788.544,441.958 791.5,438.5C 796.417,446.67 801.584,454.67 807,462.5C 828.764,492.382 850.264,522.382 871.5,552.5C 862.921,545.423 855.588,537.256 849.5,528C 837.987,524.719 826.321,522.053 814.5,520C 807.5,519.333 800.5,519.333 793.5,520C 772.427,550.216 745.094,570.716 711.5,581.5C 681.712,564.963 649.712,555.463 615.5,553C 601.837,552.5 588.171,552.333 574.5,552.5C 566.929,552.157 559.596,552.823 552.5,554.5C 518.348,557.87 485.681,566.537 454.5,580.5C 427.587,570.707 402.587,557.207 379.5,540C 362.11,526.113 347.777,509.613 336.5,490.5C 324.199,489.948 312.199,491.782 300.5,496C 286.889,502.478 274.889,510.978 264.5,521.5C 269.743,513.355 275.243,505.355 281,497.5C 300.359,472.308 319.525,446.975 338.5,421.5C 355.762,451.265 378.762,475.765 407.5,495C 454.438,520.487 502.771,523.32 552.5,503.5 Z"/></g>
<g><path style="opacity:1" fill="#e0e0e0" d="M 586.5,432.5 C 587.282,439.549 586.115,446.216 583,452.5C 578.053,457.685 572.219,458.851 565.5,456C 560.483,451.163 556.483,445.663 553.5,439.5C 561.206,444.53 569.206,444.697 577.5,440C 580.101,436.888 583.101,434.388 586.5,432.5 Z"/></g>
<g><path style="opacity:1" fill="#121212" d="M 586.5,432.5 C 583.101,434.388 580.101,436.888 577.5,440C 569.206,444.697 561.206,444.53 553.5,439.5C 553.5,439.167 553.5,438.833 553.5,438.5C 557.167,437.833 560.833,437.167 564.5,436.5C 572.355,434.771 580.021,432.437 587.5,429.5C 587.833,429.667 588.167,429.833 588.5,430C 587.619,430.708 586.953,431.542 586.5,432.5 Z"/></g>
<g><path style="opacity:1" fill="#6c6c6c" d="M 564.5,436.5 C 560.833,437.167 557.167,437.833 553.5,438.5C 552.957,438.44 552.624,438.107 552.5,437.5C 556.445,436.509 560.445,436.176 564.5,436.5 Z"/></g>
<g><path style="opacity:1" fill="#fefefe" d="M 454.5,580.5 C 409.435,601.372 372.602,632.372 344,673.5C 325.964,699.997 311.797,728.331 301.5,758.5C 296.297,772.647 292.63,787.313 290.5,802.5C 289.12,805.905 288.454,809.572 288.5,813.5C 290.081,818.969 290.915,825.302 291,832.5C 293.494,823.018 297.16,814.018 302,805.5C 302.43,808.192 302.263,810.859 301.5,813.5C 296.021,828.731 292.521,844.398 291,860.5C 294.482,849.9 297.649,839.234 300.5,828.5C 301.117,828.389 301.617,828.056 302,827.5C 301.563,840.185 300.563,852.851 299,865.5C 298.333,870.833 298.333,876.167 299,881.5C 300.989,890.055 302.323,898.722 303,907.5C 303.911,911.23 305.411,914.563 307.5,917.5C 310.4,938.363 317.567,957.696 329,975.5C 342.74,998.622 359.573,1019.29 379.5,1037.5C 381.167,1039.5 382.833,1041.5 384.5,1043.5C 403.63,1067.23 427.296,1084.9 455.5,1096.5C 468.381,1103.28 481.715,1108.94 495.5,1113.5C 497.033,1115.25 499.033,1116.25 501.5,1116.5C 533.703,1126.47 566.703,1130.8 600.5,1129.5C 607.05,1129.55 613.383,1128.88 619.5,1127.5C 634.434,1125.74 649.1,1122.74 663.5,1118.5C 685.608,1115.94 705.608,1108.11 723.5,1095C 726.739,1093.26 729.073,1090.76 730.5,1087.5C 749.272,1074.58 766.772,1059.91 783,1043.5C 789.667,1035.5 796.333,1027.5 803,1019.5C 808.696,1010.77 813.863,1001.77 818.5,992.5C 829.138,974.187 836.805,954.52 841.5,933.5C 841.865,930.375 842.698,927.375 844,924.5C 846.049,931.012 847.216,937.679 847.5,944.5C 846.622,942.127 844.955,941.294 842.5,942C 843.288,945.076 843.788,948.242 844,951.5C 844.589,953.863 846.089,954.863 848.5,954.5C 849.117,954.611 849.617,954.944 850,955.5C 850.333,961.5 850.667,967.5 851,973.5C 856.567,960.565 860.9,947.232 864,933.5C 864.667,918.167 864.667,902.833 864,887.5C 863.844,875.963 863.01,864.63 861.5,853.5C 861.706,846.604 861.039,839.937 859.5,833.5C 858.927,826.823 858.26,820.157 857.5,813.5C 854.927,779.283 845.76,746.95 830,716.5C 826.25,709.998 822.25,703.665 818,697.5C 817.329,696.748 816.496,696.414 815.5,696.5C 796.696,661.175 772.363,630.008 742.5,603C 732.449,595.318 722.116,588.151 711.5,581.5C 745.094,570.716 772.427,550.216 793.5,520C 800.5,519.333 807.5,519.333 814.5,520C 826.321,522.053 837.987,524.719 849.5,528C 855.588,537.256 862.921,545.423 871.5,552.5C 899.929,587.091 923.429,624.425 942,664.5C 963.513,717.209 977.346,771.875 983.5,828.5C 984.074,838.053 982.908,847.386 980,856.5C 972.876,885.869 964.543,914.869 955,943.5C 943.295,969.923 929.295,994.923 913,1018.5C 898.243,1038.35 883.243,1058.01 868,1077.5C 849.526,1095.64 831.359,1114.14 813.5,1133C 802.375,1139.98 791.875,1147.81 782,1156.5C 785.405,1150.75 788.405,1144.75 791,1138.5C 778.457,1149.38 765.624,1159.88 752.5,1170C 750.859,1171.13 749.859,1172.63 749.5,1174.5C 746.554,1175.31 743.888,1176.64 741.5,1178.5C 740.475,1178.1 740.308,1177.44 741,1176.5C 743.833,1173.67 746.667,1170.83 749.5,1168C 749.167,1167.83 748.833,1167.67 748.5,1167.5C 739.251,1172.71 730.085,1178.04 721,1183.5C 720.023,1182.23 719.189,1182.23 718.5,1183.5C 703.695,1189.9 688.362,1194.57 672.5,1197.5C 671.957,1197.44 671.624,1197.11 671.5,1196.5C 672.167,1194.83 672.833,1193.17 673.5,1191.5C 672.975,1190.81 672.308,1190.31 671.5,1190C 660.659,1189.83 649.992,1189.33 639.5,1188.5C 649.641,1185.43 659.308,1181.26 668.5,1176C 648.818,1178.48 629.151,1181.82 609.5,1186C 597.035,1187.43 584.701,1188.26 572.5,1188.5C 560.464,1185.72 548.131,1184.39 535.5,1184.5C 533.265,1184.21 531.265,1184.54 529.5,1185.5C 521.841,1186.24 514.174,1186.4 506.5,1186C 504.833,1185.17 503.167,1184.33 501.5,1183.5C 500.686,1185.77 500.186,1188.1 500,1190.5C 490.24,1185.58 480.074,1182.08 469.5,1180C 471.647,1182.24 473.98,1184.24 476.5,1186C 475.552,1186.48 474.552,1186.65 473.5,1186.5C 454.737,1181.47 436.737,1174.47 419.5,1165.5C 385.906,1142.44 352.906,1118.28 320.5,1093C 310.337,1086.08 300.003,1079.42 289.5,1073C 283.625,1066.79 278.125,1060.29 273,1053.5C 272.605,1055.18 272.772,1056.85 273.5,1058.5C 273.267,1059.93 272.6,1060.43 271.5,1060C 257.927,1046.43 245.094,1032.26 233,1017.5C 217.161,993.154 200.828,969.154 184,945.5C 175.806,930.445 168.139,915.112 161,899.5C 156.326,884.191 151.16,869.191 145.5,854.5C 145.5,848.833 145.5,843.167 145.5,837.5C 145.5,835.5 145.5,833.5 145.5,831.5C 147.472,813.625 149.472,795.625 151.5,777.5C 151.5,776.5 151.5,775.5 151.5,774.5C 153.281,770.8 154.281,766.8 154.5,762.5C 154.833,760.5 155.167,758.5 155.5,756.5C 157.04,754.162 157.706,751.495 157.5,748.5C 159.204,739.018 161.537,729.685 164.5,720.5C 166.472,717.916 167.472,714.916 167.5,711.5C 168.5,708.167 169.5,704.833 170.5,701.5C 172.806,697.915 174.139,693.915 174.5,689.5C 183.008,664.812 193.175,640.812 205,617.5C 222.603,583.927 242.437,551.927 264.5,521.5C 274.889,510.978 286.889,502.478 300.5,496C 312.199,491.782 324.199,489.948 336.5,490.5C 347.777,509.613 362.11,526.113 379.5,540C 402.587,557.207 427.587,570.707 454.5,580.5 Z"/></g>
<g><path style="opacity:1" fill="#222222" d="M 576.5,490.5 C 576.5,491.167 576.833,491.5 577.5,491.5C 569.353,495.739 561.02,499.739 552.5,503.5C 552.881,502.069 553.881,501.236 555.5,501C 554.833,500.833 554.167,500.667 553.5,500.5C 548.595,501.905 543.595,502.571 538.5,502.5C 551.763,500.679 564.43,496.679 576.5,490.5 Z"/></g>
<g><path style="opacity:1" fill="#131313" d="M 574.5,552.5 C 588.171,552.333 601.837,552.5 615.5,553C 649.712,555.463 681.712,564.963 711.5,581.5C 722.116,588.151 732.449,595.318 742.5,603C 772.363,630.008 796.696,661.175 815.5,696.5C 825.34,716.515 834.507,736.849 843,757.5C 848.292,776.154 853.125,794.821 857.5,813.5C 858.26,820.157 858.927,826.823 859.5,833.5C 860.337,850.486 860.67,867.486 860.5,884.5C 859.851,897.841 859.018,911.174 858,924.5C 854.807,933.844 851.973,943.177 849.5,952.5C 848.167,952.5 846.833,952.5 845.5,952.5C 843.876,947.689 843.876,945.689 845.5,946.5C 847.179,946.715 848.179,946.048 848.5,944.5C 849.403,937.626 851.403,931.126 854.5,925C 853.833,924.333 853.167,923.667 852.5,923C 857.364,895.705 858.697,868.205 856.5,840.5C 856.375,832.586 855.375,824.919 853.5,817.5C 840.457,749.09 811.624,688.424 767,635.5C 734.624,598.405 694.458,574.905 646.5,565C 638.539,563.509 630.539,562.342 622.5,561.5C 613.556,559.945 604.389,559.278 595,559.5C 587.992,559.5 581.158,559.834 574.5,560.5C 571.167,560.5 567.833,560.5 564.5,560.5C 559.566,560.229 554.9,560.896 550.5,562.5C 536.018,564.371 521.685,567.037 507.5,570.5C 504.848,570.41 502.515,571.076 500.5,572.5C 489.339,574.997 478.673,578.664 468.5,583.5C 433.566,597.215 403.066,617.548 377,644.5C 345.873,679.077 321.04,717.744 302.5,760.5C 301.662,760.158 301.328,759.492 301.5,758.5C 311.797,728.331 325.964,699.997 344,673.5C 372.602,632.372 409.435,601.372 454.5,580.5C 485.681,566.537 518.348,557.87 552.5,554.5C 560.02,554.283 567.354,553.616 574.5,552.5 Z"/></g>
<g><path style="opacity:1" fill="#535353" d="M 574.5,552.5 C 567.354,553.616 560.02,554.283 552.5,554.5C 559.596,552.823 566.929,552.157 574.5,552.5 Z"/></g>
<g><path style="opacity:1" fill="#4f4f4f" d="M 574.5,560.5 C 581.158,559.834 587.992,559.5 595,559.5C 604.389,559.278 613.556,559.945 622.5,561.5C 606.517,560.634 590.517,560.3 574.5,560.5 Z"/></g>
<g><path style="opacity:1" fill="#484848" d="M 564.5,560.5 C 560.057,561.801 555.391,562.468 550.5,562.5C 554.9,560.896 559.566,560.229 564.5,560.5 Z"/></g>
<g><path style="opacity:1" fill="#e2e2e2" d="M 564.5,560.5 C 567.833,560.5 571.167,560.5 574.5,560.5C 590.517,560.3 606.517,560.634 622.5,561.5C 630.539,562.342 638.539,563.509 646.5,565C 694.458,574.905 734.624,598.405 767,635.5C 811.624,688.424 840.457,749.09 853.5,817.5C 853.885,825.381 854.885,833.047 856.5,840.5C 858.697,868.205 857.364,895.705 852.5,923C 853.167,923.667 853.833,924.333 854.5,925C 851.403,931.126 849.403,937.626 848.5,944.5C 848.167,944.5 847.833,944.5 847.5,944.5C 847.216,937.679 846.049,931.012 844,924.5C 842.698,927.375 841.865,930.375 841.5,933.5C 840.503,933.47 839.836,933.97 839.5,935C 833.892,954.655 826.225,973.489 816.5,991.5C 774.441,1057.56 715.108,1099.56 638.5,1117.5C 630.615,1118.31 622.949,1119.65 615.5,1121.5C 610.819,1121.67 606.152,1122 601.5,1122.5C 587.816,1122.67 574.149,1122.34 560.5,1121.5C 530.283,1119.2 501.283,1112.03 473.5,1100C 439.036,1083.78 408.036,1062.61 380.5,1036.5C 361.561,1018.07 345.061,997.736 331,975.5C 317.277,951.273 309.443,925.273 307.5,897.5C 307.5,884.167 307.5,870.833 307.5,857.5C 308.758,847.026 310.758,836.693 313.5,826.5C 313.263,823.937 312.763,823.937 312,826.5C 309.771,833.352 308.271,840.352 307.5,847.5C 305.75,851.183 305.083,855.183 305.5,859.5C 303.777,878.921 304.444,898.254 307.5,917.5C 305.411,914.563 303.911,911.23 303,907.5C 302.323,898.722 300.989,890.055 299,881.5C 298.333,876.167 298.333,870.833 299,865.5C 300.563,852.851 301.563,840.185 302,827.5C 301.617,828.056 301.117,828.389 300.5,828.5C 304.664,811.177 310.664,794.511 318.5,778.5C 317.833,777.167 317.167,777.167 316.5,778.5C 315.253,781.329 313.753,783.995 312,786.5C 308.116,795.481 304.616,804.481 301.5,813.5C 302.263,810.859 302.43,808.192 302,805.5C 297.16,814.018 293.494,823.018 291,832.5C 290.915,825.302 290.081,818.969 288.5,813.5C 288.454,809.572 289.12,805.905 290.5,802.5C 290.34,804.199 290.506,805.866 291,807.5C 293.507,791.455 297.34,775.788 302.5,760.5C 321.04,717.744 345.873,679.077 377,644.5C 403.066,617.548 433.566,597.215 468.5,583.5C 479.362,580.213 490.028,576.547 500.5,572.5C 503.152,572.59 505.485,571.924 507.5,570.5C 521.685,567.037 536.018,564.371 550.5,562.5C 555.391,562.468 560.057,561.801 564.5,560.5 Z"/></g>
<g><path style="opacity:1" fill="#797979" d="M 507.5,570.5 C 505.485,571.924 503.152,572.59 500.5,572.5C 502.515,571.076 504.848,570.41 507.5,570.5 Z"/></g>
<g><path style="opacity:1" fill="#a6a6a6" d="M 500.5,572.5 C 490.028,576.547 479.362,580.213 468.5,583.5C 478.673,578.664 489.339,574.997 500.5,572.5 Z"/></g>
<g><path style="opacity:1" fill="#979797" d="M 174.5,689.5 C 174.139,693.915 172.806,697.915 170.5,701.5C 171.261,697.216 172.595,693.216 174.5,689.5 Z"/></g>
<g><path style="opacity:1" fill="#d2d2d2" d="M 815.5,696.5 C 816.496,696.414 817.329,696.748 818,697.5C 822.25,703.665 826.25,709.998 830,716.5C 845.76,746.95 854.927,779.283 857.5,813.5C 853.125,794.821 848.292,776.154 843,757.5C 834.507,736.849 825.34,716.515 815.5,696.5 Z"/></g>
<g><path style="opacity:1" fill="#979797" d="M 167.5,711.5 C 167.472,714.916 166.472,717.916 164.5,720.5C 164.928,717.215 165.928,714.215 167.5,711.5 Z"/></g>
<g><path style="opacity:1" fill="#919191" d="M 157.5,748.5 C 157.706,751.495 157.04,754.162 155.5,756.5C 155.565,753.572 156.232,750.905 157.5,748.5 Z"/></g>
<g><path style="opacity:1" fill="#6e6e6e" d="M 154.5,762.5 C 154.281,766.8 153.281,770.8 151.5,774.5C 151.584,770.163 152.584,766.163 154.5,762.5 Z"/></g>
<g><path style="opacity:1" fill="#4a4a4a" d="M 301.5,758.5 C 301.328,759.492 301.662,760.158 302.5,760.5C 297.34,775.788 293.507,791.455 291,807.5C 290.506,805.866 290.34,804.199 290.5,802.5C 292.63,787.313 296.297,772.647 301.5,758.5 Z"/></g>
<g><path style="opacity:1" fill="#aaaaaa" d="M 151.5,777.5 C 149.472,795.625 147.472,813.625 145.5,831.5C 145.846,813.17 147.846,795.17 151.5,777.5 Z"/></g>
<g><path style="opacity:1" fill="#272727" d="M 300.5,828.5 C 297.649,839.234 294.482,849.9 291,860.5C 292.521,844.398 296.021,828.731 301.5,813.5C 304.616,804.481 308.116,795.481 312,786.5C 313.753,783.995 315.253,781.329 316.5,778.5C 317.167,777.167 317.833,777.167 318.5,778.5C 310.664,794.511 304.664,811.177 300.5,828.5 Z"/></g>
<g><path style="opacity:1" fill="#4e4e4e" d="M 853.5,817.5 C 855.375,824.919 856.375,832.586 856.5,840.5C 854.885,833.047 853.885,825.381 853.5,817.5 Z"/></g>
<g><path style="opacity:1" fill="#393939" d="M 307.5,857.5 C 306.556,854.332 306.556,850.999 307.5,847.5C 308.271,840.352 309.771,833.352 312,826.5C 312.763,823.937 313.263,823.937 313.5,826.5C 310.758,836.693 308.758,847.026 307.5,857.5 Z"/></g>
<g><path style="opacity:1" fill="#e1e1e1" d="M 983.5,828.5 C 985.148,839.296 986.148,850.296 986.5,861.5C 986.805,880.541 986.139,899.541 984.5,918.5C 979.986,953.887 972.319,988.553 961.5,1022.5C 960.206,1023.29 959.039,1024.29 958,1025.5C 953.399,1034.43 948.399,1043.09 943,1051.5C 936.618,1058.88 930.618,1066.55 925,1074.5C 922.5,1076.33 920,1078.17 917.5,1080C 909.232,1087.62 901.232,1095.45 893.5,1103.5C 890.129,1105.85 886.796,1108.18 883.5,1110.5C 879.372,1111.22 876.372,1113.39 874.5,1117C 857.901,1131.8 838.901,1142.13 817.5,1148C 821.975,1141.51 825.642,1135.01 828.5,1128.5C 808.274,1142.78 787.274,1155.78 765.5,1167.5C 760.167,1169.83 754.833,1172.17 749.5,1174.5C 749.859,1172.63 750.859,1171.13 752.5,1170C 765.624,1159.88 778.457,1149.38 791,1138.5C 788.405,1144.75 785.405,1150.75 782,1156.5C 791.875,1147.81 802.375,1139.98 813.5,1133C 831.359,1114.14 849.526,1095.64 868,1077.5C 883.243,1058.01 898.243,1038.35 913,1018.5C 929.295,994.923 943.295,969.923 955,943.5C 964.543,914.869 972.876,885.869 980,856.5C 982.908,847.386 984.074,838.053 983.5,828.5 Z"/></g>
<g><path style="opacity:1" fill="#606060" d="M 145.5,837.5 C 145.5,843.167 145.5,848.833 145.5,854.5C 145.976,862.826 146.309,871.16 146.5,879.5C 145.014,871.217 144.348,862.717 144.5,854C 144.501,848.323 144.834,842.823 145.5,837.5 Z"/></g>
<g><path style="opacity:1" fill="#e1e1e1" d="M 145.5,854.5 C 151.16,869.191 156.326,884.191 161,899.5C 168.139,915.112 175.806,930.445 184,945.5C 200.828,969.154 217.161,993.154 233,1017.5C 245.094,1032.26 257.927,1046.43 271.5,1060C 272.6,1060.43 273.267,1059.93 273.5,1058.5C 272.772,1056.85 272.605,1055.18 273,1053.5C 278.125,1060.29 283.625,1066.79 289.5,1073C 300.003,1079.42 310.337,1086.08 320.5,1093C 352.906,1118.28 385.906,1142.44 419.5,1165.5C 407.971,1159.07 395.971,1153.73 383.5,1149.5C 370.539,1142.85 357.206,1137.02 343.5,1132C 338.003,1129.75 333.003,1126.75 328.5,1123C 326.608,1122.03 324.608,1121.36 322.5,1121C 310.132,1110.3 298.799,1098.63 288.5,1086C 284.644,1082.64 280.644,1079.48 276.5,1076.5C 274.554,1078.04 274.054,1080.04 275,1082.5C 277.855,1092.73 281.688,1102.57 286.5,1112C 282.694,1110.59 279.027,1108.59 275.5,1106C 268.669,1100.67 262.002,1095.17 255.5,1089.5C 249.806,1084.47 244.473,1079.14 239.5,1073.5C 235.169,1065.99 229.836,1059.16 223.5,1053C 222.101,1052.41 220.768,1052.57 219.5,1053.5C 218.712,1052.23 217.712,1051.23 216.5,1050.5C 200.354,1032.52 185.521,1013.52 172,993.5C 166.316,975.952 161.149,958.285 156.5,940.5C 156.741,938.102 156.074,936.102 154.5,934.5C 152.336,922.541 150.17,910.541 148,898.5C 147.235,892.183 146.735,885.849 146.5,879.5C 146.309,871.16 145.976,862.826 145.5,854.5 Z"/></g>
<g><path style="opacity:1" fill="#dedede" d="M 861.5,853.5 C 863.01,864.63 863.844,875.963 864,887.5C 864.667,902.833 864.667,918.167 864,933.5C 860.9,947.232 856.567,960.565 851,973.5C 850.667,967.5 850.333,961.5 850,955.5C 849.617,954.944 849.117,954.611 848.5,954.5C 848.833,953.833 849.167,953.167 849.5,952.5C 851.973,943.177 854.807,933.844 858,924.5C 859.018,911.174 859.851,897.841 860.5,884.5C 861.494,874.347 861.828,864.014 861.5,853.5 Z"/></g>
<g><path style="opacity:1" fill="#8a8a8a" d="M 307.5,847.5 C 306.556,850.999 306.556,854.332 307.5,857.5C 307.5,870.833 307.5,884.167 307.5,897.5C 306.833,884.833 306.167,872.167 305.5,859.5C 305.083,855.183 305.75,851.183 307.5,847.5 Z"/></g>
<g><path style="opacity:1" fill="#949494" d="M 859.5,833.5 C 861.039,839.937 861.706,846.604 861.5,853.5C 861.828,864.014 861.494,874.347 860.5,884.5C 860.67,867.486 860.337,850.486 859.5,833.5 Z"/></g>
<g><path style="opacity:1" fill="#232323" d="M 986.5,861.5 C 987.661,876.995 987.828,892.661 987,908.5C 986.115,911.952 985.282,915.286 984.5,918.5C 986.139,899.541 986.805,880.541 986.5,861.5 Z"/></g>
<g><path style="opacity:1" fill="#6a6a6a" d="M 154.5,934.5 C 156.074,936.102 156.741,938.102 156.5,940.5C 154.926,938.898 154.259,936.898 154.5,934.5 Z"/></g>
<g><path style="opacity:1" fill="#555555" d="M 847.5,944.5 C 847.833,944.5 848.167,944.5 848.5,944.5C 848.179,946.048 847.179,946.715 845.5,946.5C 843.876,945.689 843.876,947.689 845.5,952.5C 846.833,952.5 848.167,952.5 849.5,952.5C 849.167,953.167 848.833,953.833 848.5,954.5C 846.089,954.863 844.589,953.863 844,951.5C 843.788,948.242 843.288,945.076 842.5,942C 844.955,941.294 846.622,942.127 847.5,944.5 Z"/></g>
<g><path style="opacity:1" fill="#353535" d="M 305.5,859.5 C 306.167,872.167 306.833,884.833 307.5,897.5C 309.443,925.273 317.277,951.273 331,975.5C 345.061,997.736 361.561,1018.07 380.5,1036.5C 379.833,1036.5 379.5,1036.83 379.5,1037.5C 359.573,1019.29 342.74,998.622 329,975.5C 317.567,957.696 310.4,938.363 307.5,917.5C 304.444,898.254 303.777,878.921 305.5,859.5 Z"/></g>
<g><path style="opacity:1" fill="#2d2d2d" d="M 841.5,933.5 C 836.805,954.52 829.138,974.187 818.5,992.5C 818.158,991.662 817.492,991.328 816.5,991.5C 826.225,973.489 833.892,954.655 839.5,935C 839.836,933.97 840.503,933.47 841.5,933.5 Z"/></g>
<g><path style="opacity:1" fill="#151515" d="M 816.5,991.5 C 817.492,991.328 818.158,991.662 818.5,992.5C 813.863,1001.77 808.696,1010.77 803,1019.5C 796.333,1027.5 789.667,1035.5 783,1043.5C 766.772,1059.91 749.272,1074.58 730.5,1087.5C 720.221,1093.31 709.888,1099.14 699.5,1105C 687.434,1109.41 675.434,1113.91 663.5,1118.5C 649.1,1122.74 634.434,1125.74 619.5,1127.5C 612.95,1127.45 606.617,1128.12 600.5,1129.5C 566.703,1130.8 533.703,1126.47 501.5,1116.5C 499.967,1114.75 497.967,1113.75 495.5,1113.5C 481.715,1108.94 468.381,1103.28 455.5,1096.5C 443.232,1088.36 430.899,1080.19 418.5,1072C 407.001,1062.67 395.668,1053.17 384.5,1043.5C 382.833,1041.5 381.167,1039.5 379.5,1037.5C 379.5,1036.83 379.833,1036.5 380.5,1036.5C 408.036,1062.61 439.036,1083.78 473.5,1100C 501.283,1112.03 530.283,1119.2 560.5,1121.5C 561.952,1122.3 563.618,1122.8 565.5,1123C 577.674,1123.83 589.674,1123.66 601.5,1122.5C 606.152,1122 610.819,1121.67 615.5,1121.5C 623.501,1121.33 631.168,1120 638.5,1117.5C 715.108,1099.56 774.441,1057.56 816.5,991.5 Z"/></g>
<g><path style="opacity:1" fill="#1e1e1e" d="M 187.5,1028.5 C 188.833,1029.5 190.167,1030.5 191.5,1031.5C 204.523,1045.7 217.857,1059.86 231.5,1074C 238.801,1080.65 246.468,1086.81 254.5,1092.5C 255.386,1091.68 255.719,1090.68 255.5,1089.5C 262.002,1095.17 268.669,1100.67 275.5,1106C 279.027,1108.59 282.694,1110.59 286.5,1112C 281.688,1102.57 277.855,1092.73 275,1082.5C 274.054,1080.04 274.554,1078.04 276.5,1076.5C 280.644,1079.48 284.644,1082.64 288.5,1086C 298.799,1098.63 310.132,1110.3 322.5,1121C 324.608,1121.36 326.608,1122.03 328.5,1123C 333.003,1126.75 338.003,1129.75 343.5,1132C 357.206,1137.02 370.539,1142.85 383.5,1149.5C 383.389,1150.12 383.056,1150.62 382.5,1151C 392.446,1155.15 401.446,1160.65 409.5,1167.5C 409.167,1167.83 408.833,1168.17 408.5,1168.5C 403.651,1170.04 398.651,1170.71 393.5,1170.5C 382.942,1170.12 372.442,1169.12 362,1167.5C 355.201,1168.61 348.368,1169.44 341.5,1170C 346.167,1173.33 350.833,1176.67 355.5,1180C 358.183,1181.84 359.85,1184.34 360.5,1187.5C 360.182,1188.65 359.516,1189.48 358.5,1190C 347.369,1191.31 336.702,1189.64 326.5,1185C 312.172,1178.51 298.839,1170.51 286.5,1161C 266.051,1154.11 247.384,1144.11 230.5,1131C 222.851,1125.35 215.851,1119.02 209.5,1112C 208.552,1111.52 207.552,1111.35 206.5,1111.5C 207.168,1128.18 207.168,1144.85 206.5,1161.5C 201.839,1153.51 197.672,1145.18 194,1136.5C 194.164,1142.17 194.664,1147.83 195.5,1153.5C 187.345,1135.48 180.512,1116.82 175,1097.5C 171.922,1065.81 168.755,1034.14 165.5,1002.5C 164.362,999.696 164.195,996.696 165,993.5C 166.147,992.542 167.147,992.875 168,994.5C 173.727,1003.96 178.394,1013.96 182,1024.5C 183.667,1026.5 185.333,1028.5 187,1030.5C 187.464,1029.91 187.631,1029.24 187.5,1028.5 Z"/></g>
<g><path style="opacity:1" fill="#a7a7a7" d="M 165.5,1002.5 C 165.262,996.084 166.262,995.917 168.5,1002C 167.824,1003.68 166.824,1003.85 165.5,1002.5 Z"/></g>
<g><path style="opacity:1" fill="#242424" d="M 961.5,1022.5 C 959.5,1029.67 957,1036.67 954,1043.5C 942.341,1060.5 929.174,1076.33 914.5,1091C 907.775,1095.69 900.775,1099.86 893.5,1103.5C 901.232,1095.45 909.232,1087.62 917.5,1080C 920,1078.17 922.5,1076.33 925,1074.5C 930.618,1066.55 936.618,1058.88 943,1051.5C 948.399,1043.09 953.399,1034.43 958,1025.5C 959.039,1024.29 960.206,1023.29 961.5,1022.5 Z"/></g>
<g><path style="opacity:1" fill="#979797" d="M 191.5,1031.5 C 190.167,1030.5 188.833,1029.5 187.5,1028.5C 185.805,1026.79 184.972,1024.79 185,1022.5C 187.41,1025.4 189.577,1028.4 191.5,1031.5 Z"/></g>
<g><path style="opacity:1" fill="#1e1e1e" d="M 925.5,1256.5 C 927.635,1248.92 929.468,1241.26 931,1233.5C 931.667,1230.17 931.667,1226.83 931,1223.5C 926.651,1229 922.151,1233.67 917.5,1237.5C 922.407,1223.54 925.907,1209.2 928,1194.5C 931.153,1176.61 933.32,1158.61 934.5,1140.5C 932.801,1140.34 931.134,1140.51 929.5,1141C 899.201,1161.99 865.535,1170.66 828.5,1167C 818.141,1175.69 806.974,1183.19 795,1189.5C 793.274,1189.05 791.774,1188.22 790.5,1187C 793.39,1183.05 795.557,1178.88 797,1174.5C 789.12,1186.71 778.954,1196.55 766.5,1204C 762.538,1206.57 758.205,1208.07 753.5,1208.5C 751.519,1208.56 749.852,1207.9 748.5,1206.5C 756.375,1193.92 764.375,1181.42 772.5,1169C 769.867,1169.25 767.2,1169.25 764.5,1169C 765.056,1168.62 765.389,1168.12 765.5,1167.5C 787.274,1155.78 808.274,1142.78 828.5,1128.5C 825.642,1135.01 821.975,1141.51 817.5,1148C 838.901,1142.13 857.901,1131.8 874.5,1117C 876.372,1113.39 879.372,1111.22 883.5,1110.5C 884.117,1110.61 884.617,1110.94 885,1111.5C 922.016,1094.15 949.683,1066.82 968,1029.5C 969.404,1057.82 969.738,1086.15 969,1114.5C 967.029,1149.02 959.696,1182.36 947,1214.5C 946.667,1217.5 946.333,1220.5 946,1223.5C 939.643,1234.9 932.809,1245.9 925.5,1256.5 Z"/></g>
<g><path style="opacity:1" fill="#242424" d="M 216.5,1050.5 C 217.712,1051.23 218.712,1052.23 219.5,1053.5C 220.768,1052.57 222.101,1052.41 223.5,1053C 229.836,1059.16 235.169,1065.99 239.5,1073.5C 231.466,1066.13 223.799,1058.47 216.5,1050.5 Z"/></g>
<g><path style="opacity:1" fill="#d7d7d7" d="M 384.5,1043.5 C 395.668,1053.17 407.001,1062.67 418.5,1072C 430.899,1080.19 443.232,1088.36 455.5,1096.5C 427.296,1084.9 403.63,1067.23 384.5,1043.5 Z"/></g>
<g><path style="opacity:1" fill="#cccccc" d="M 730.5,1087.5 C 729.073,1090.76 726.739,1093.26 723.5,1095C 705.608,1108.11 685.608,1115.94 663.5,1118.5C 675.434,1113.91 687.434,1109.41 699.5,1105C 709.888,1099.14 720.221,1093.31 730.5,1087.5 Z"/></g>
<g><path style="opacity:1" fill="#2a2a2a" d="M 383.5,1149.5 C 395.971,1153.73 407.971,1159.07 419.5,1165.5C 436.737,1174.47 454.737,1181.47 473.5,1186.5C 475.812,1187.34 478.145,1188.34 480.5,1189.5C 481.29,1190.79 482.29,1191.96 483.5,1193C 490.086,1196.21 496.253,1200.04 502,1204.5C 505.327,1226.6 508.16,1248.77 510.5,1271C 510.042,1278.21 509.208,1285.37 508,1292.5C 499.269,1309.81 487.769,1324.98 473.5,1338C 461.833,1345.67 450.167,1353.33 438.5,1361C 429.278,1365.85 419.612,1369.52 409.5,1372C 412.014,1373.45 414.68,1374.62 417.5,1375.5C 416.564,1376.97 415.23,1377.97 413.5,1378.5C 408.727,1373.8 404.061,1368.97 399.5,1364C 397.33,1362.41 394.996,1361.08 392.5,1360C 378.213,1358.76 363.879,1358.09 349.5,1358C 345.42,1357.31 341.42,1356.31 337.5,1355C 335.167,1354 333.5,1352.33 332.5,1350C 331.552,1349.52 330.552,1349.35 329.5,1349.5C 313.565,1332.4 297.399,1315.4 281,1298.5C 273,1288.5 265,1278.5 257,1268.5C 237.602,1239.41 220.269,1209.08 205,1177.5C 201.543,1169.59 198.377,1161.59 195.5,1153.5C 194.664,1147.83 194.164,1142.17 194,1136.5C 197.672,1145.18 201.839,1153.51 206.5,1161.5C 207.168,1144.85 207.168,1128.18 206.5,1111.5C 207.552,1111.35 208.552,1111.52 209.5,1112C 215.851,1119.02 222.851,1125.35 230.5,1131C 247.384,1144.11 266.051,1154.11 286.5,1161C 298.839,1170.51 312.172,1178.51 326.5,1185C 336.702,1189.64 347.369,1191.31 358.5,1190C 359.516,1189.48 360.182,1188.65 360.5,1187.5C 359.85,1184.34 358.183,1181.84 355.5,1180C 350.833,1176.67 346.167,1173.33 341.5,1170C 348.368,1169.44 355.201,1168.61 362,1167.5C 372.442,1169.12 382.942,1170.12 393.5,1170.5C 398.651,1170.71 403.651,1170.04 408.5,1168.5C 408.833,1168.17 409.167,1167.83 409.5,1167.5C 401.446,1160.65 392.446,1155.15 382.5,1151C 383.056,1150.62 383.389,1150.12 383.5,1149.5 Z"/></g>
<g><path style="opacity:1" fill="#7e7e7e" d="M 495.5,1113.5 C 497.967,1113.75 499.967,1114.75 501.5,1116.5C 499.033,1116.25 497.033,1115.25 495.5,1113.5 Z"/></g>
<g><path style="opacity:1" fill="#555555" d="M 638.5,1117.5 C 631.168,1120 623.501,1121.33 615.5,1121.5C 622.949,1119.65 630.615,1118.31 638.5,1117.5 Z"/></g>
<g><path style="opacity:1" fill="#575757" d="M 560.5,1121.5 C 574.149,1122.34 587.816,1122.67 601.5,1122.5C 589.674,1123.66 577.674,1123.83 565.5,1123C 563.618,1122.8 561.952,1122.3 560.5,1121.5 Z"/></g>
<g><path style="opacity:1" fill="#a7a7a7" d="M 619.5,1127.5 C 613.383,1128.88 607.05,1129.55 600.5,1129.5C 606.617,1128.12 612.95,1127.45 619.5,1127.5 Z"/></g>
<g><path style="opacity:1" fill="#2a2a2a" d="M 925.5,1256.5 C 896.859,1305.01 861.525,1348.35 819.5,1386.5C 817.654,1380.32 813.987,1375.48 808.5,1372C 805.5,1371.33 802.5,1371.33 799.5,1372C 793.407,1374.7 787.074,1375.7 780.5,1375C 774.977,1371.24 768.977,1368.57 762.5,1367C 748.747,1366.19 735.08,1366.52 721.5,1368C 707.628,1357.13 695.461,1344.63 685,1330.5C 683,1327.17 681,1323.83 679,1320.5C 681.105,1333.09 683.938,1345.59 687.5,1358C 687.389,1359.72 686.889,1359.89 686,1358.5C 670.085,1333.84 661.752,1306.84 661,1277.5C 664.886,1290.6 669.886,1303.27 676,1315.5C 671.245,1293.64 666.078,1271.81 660.5,1250C 663.901,1233.09 667.567,1216.26 671.5,1199.5C 670.167,1199.5 668.833,1199.5 667.5,1199.5C 669.167,1198.83 670.833,1198.17 672.5,1197.5C 688.362,1194.57 703.695,1189.9 718.5,1183.5C 718.938,1183.43 719.272,1183.6 719.5,1184C 717.088,1186.93 716.088,1190.09 716.5,1193.5C 725.693,1189.74 734.027,1184.74 741.5,1178.5C 743.888,1176.64 746.554,1175.31 749.5,1174.5C 754.833,1172.17 760.167,1169.83 765.5,1167.5C 765.389,1168.12 765.056,1168.62 764.5,1169C 767.2,1169.25 769.867,1169.25 772.5,1169C 764.375,1181.42 756.375,1193.92 748.5,1206.5C 749.852,1207.9 751.519,1208.56 753.5,1208.5C 758.205,1208.07 762.538,1206.57 766.5,1204C 778.954,1196.55 789.12,1186.71 797,1174.5C 795.557,1178.88 793.39,1183.05 790.5,1187C 791.774,1188.22 793.274,1189.05 795,1189.5C 806.974,1183.19 818.141,1175.69 828.5,1167C 865.535,1170.66 899.201,1161.99 929.5,1141C 931.134,1140.51 932.801,1140.34 934.5,1140.5C 933.32,1158.61 931.153,1176.61 928,1194.5C 925.907,1209.2 922.407,1223.54 917.5,1237.5C 922.151,1233.67 926.651,1229 931,1223.5C 931.667,1226.83 931.667,1230.17 931,1233.5C 929.468,1241.26 927.635,1248.92 925.5,1256.5 Z"/></g>
<g><path style="opacity:1" fill="#dfdfdf" d="M 741.5,1178.5 C 734.027,1184.74 725.693,1189.74 716.5,1193.5C 716.088,1190.09 717.088,1186.93 719.5,1184C 719.272,1183.6 718.938,1183.43 718.5,1183.5C 719.189,1182.23 720.023,1182.23 721,1183.5C 730.085,1178.04 739.251,1172.71 748.5,1167.5C 748.833,1167.67 749.167,1167.83 749.5,1168C 746.667,1170.83 743.833,1173.67 741,1176.5C 740.308,1177.44 740.475,1178.1 741.5,1178.5 Z"/></g>
<g><path style="opacity:1" fill="#dedede" d="M 529.5,1185.5 C 542.36,1191.8 556.027,1195.47 570.5,1196.5C 567.878,1197.37 567.878,1199.21 570.5,1202C 569.944,1202.38 569.611,1202.88 569.5,1203.5C 549.041,1202.87 528.708,1201.03 508.5,1198C 499.782,1193.22 490.449,1190.39 480.5,1189.5C 478.145,1188.34 475.812,1187.34 473.5,1186.5C 474.552,1186.65 475.552,1186.48 476.5,1186C 473.98,1184.24 471.647,1182.24 469.5,1180C 480.074,1182.08 490.24,1185.58 500,1190.5C 500.186,1188.1 500.686,1185.77 501.5,1183.5C 503.167,1184.33 504.833,1185.17 506.5,1186C 514.174,1186.4 521.841,1186.24 529.5,1185.5 Z"/></g>
<g><path style="opacity:1" fill="#d4d4d4" d="M 535.5,1184.5 C 548.131,1184.39 560.464,1185.72 572.5,1188.5C 559.863,1188.71 547.53,1187.38 535.5,1184.5 Z"/></g>
<g><path style="opacity:1" fill="#1e1e1e" d="M 480.5,1189.5 C 490.449,1190.39 499.782,1193.22 508.5,1198C 528.708,1201.03 549.041,1202.87 569.5,1203.5C 561.573,1216.42 555.073,1230.09 550,1244.5C 538.09,1280.8 527.424,1317.47 518,1354.5C 514.852,1368.66 513.352,1383 513.5,1397.5C 507.989,1397.2 502.656,1398.04 497.5,1400C 491.281,1403.95 485.614,1408.62 480.5,1414C 483.852,1413.17 487.185,1412 490.5,1410.5C 489.504,1415.46 489.337,1420.46 490,1425.5C 492.782,1427.77 494.949,1430.44 496.5,1433.5C 488.004,1424.23 479.004,1415.4 469.5,1407C 452.485,1393.4 435.151,1393.07 417.5,1406C 401.905,1421.17 395.571,1439.67 398.5,1461.5C 394.311,1461.57 390.311,1460.74 386.5,1459C 382.167,1458.83 377.833,1458.67 373.5,1458.5C 365.311,1458.28 357.311,1459.12 349.5,1461C 347.025,1454.53 346.358,1448.03 347.5,1441.5C 346.822,1445.27 348.156,1448.11 351.5,1450C 355.867,1451.85 360.2,1452.35 364.5,1451.5C 365.261,1452.39 366.261,1453.06 367.5,1453.5C 368.713,1453.25 369.38,1452.59 369.5,1451.5C 371.379,1450.66 373.379,1450.33 375.5,1450.5C 369.845,1457.37 371.512,1459.2 380.5,1456C 384.658,1451.69 386.324,1446.53 385.5,1440.5C 392.788,1433.28 398.621,1424.95 403,1415.5C 403.498,1412.52 403.665,1409.52 403.5,1406.5C 405.798,1408.46 408.465,1409.46 411.5,1409.5C 411.215,1407.71 411.548,1406.05 412.5,1404.5C 413.451,1405.33 414.451,1405.49 415.5,1405C 410.541,1400.17 404.541,1398.17 397.5,1399C 391.827,1396.65 386.16,1394.32 380.5,1392C 376.364,1391.33 372.364,1391.83 368.5,1393.5C 355.023,1379.18 342.023,1364.51 329.5,1349.5C 330.552,1349.35 331.552,1349.52 332.5,1350C 333.5,1352.33 335.167,1354 337.5,1355C 341.42,1356.31 345.42,1357.31 349.5,1358C 363.879,1358.09 378.213,1358.76 392.5,1360C 394.996,1361.08 397.33,1362.41 399.5,1364C 404.061,1368.97 408.727,1373.8 413.5,1378.5C 415.23,1377.97 416.564,1376.97 417.5,1375.5C 414.68,1374.62 412.014,1373.45 409.5,1372C 419.612,1369.52 429.278,1365.85 438.5,1361C 450.167,1353.33 461.833,1345.67 473.5,1338C 487.769,1324.98 499.269,1309.81 508,1292.5C 509.208,1285.37 510.042,1278.21 510.5,1271C 508.16,1248.77 505.327,1226.6 502,1204.5C 496.253,1200.04 490.086,1196.21 483.5,1193C 482.29,1191.96 481.29,1190.79 480.5,1189.5 Z"/></g>
<g><path style="opacity:1" fill="#dcdcdc" d="M 639.5,1188.5 C 649.992,1189.33 660.659,1189.83 671.5,1190C 672.308,1190.31 672.975,1190.81 673.5,1191.5C 672.833,1193.17 672.167,1194.83 671.5,1196.5C 671.624,1197.11 671.957,1197.44 672.5,1197.5C 670.833,1198.17 669.167,1198.83 667.5,1199.5C 649.292,1202.2 630.958,1203.2 612.5,1202.5C 609.854,1200.52 607.521,1198.19 605.5,1195.5C 616.905,1193.48 628.239,1191.15 639.5,1188.5 Z"/></g>
<g><path style="opacity:1" fill="#f7f7f7" d="M 575.5,1197.5 C 575.842,1196.66 576.508,1196.33 577.5,1196.5C 580.388,1195.99 582.721,1196.66 584.5,1198.5C 581.609,1197.6 578.609,1197.26 575.5,1197.5 Z"/></g>
<g><path style="opacity:0.725" fill="#2b2b2b" d="M 577.5,1196.5 C 585.284,1195.08 592.617,1196.58 599.5,1201C 605.264,1208.36 609.598,1216.53 612.5,1225.5C 610.027,1221.23 607.527,1216.9 605,1212.5C 600.426,1204.47 593.593,1199.8 584.5,1198.5C 582.721,1196.66 580.388,1195.99 577.5,1196.5 Z"/></g>
<g><path style="opacity:1" fill="#1e1e1e" d="M 667.5,1199.5 C 668.833,1199.5 670.167,1199.5 671.5,1199.5C 667.567,1216.26 663.901,1233.09 660.5,1250C 666.078,1271.81 671.245,1293.64 676,1315.5C 669.886,1303.27 664.886,1290.6 661,1277.5C 661.752,1306.84 670.085,1333.84 686,1358.5C 686.889,1359.89 687.389,1359.72 687.5,1358C 683.938,1345.59 681.105,1333.09 679,1320.5C 681,1323.83 683,1327.17 685,1330.5C 695.461,1344.63 707.628,1357.13 721.5,1368C 735.08,1366.52 748.747,1366.19 762.5,1367C 768.977,1368.57 774.977,1371.24 780.5,1375C 787.074,1375.7 793.407,1374.7 799.5,1372C 802.5,1371.33 805.5,1371.33 808.5,1372C 813.987,1375.48 817.654,1380.32 819.5,1386.5C 813.728,1392.44 808.061,1398.61 802.5,1405C 786.583,1403.8 773.249,1408.97 762.5,1420.5C 750.517,1410.17 736.85,1403.01 721.5,1399C 707.679,1396.05 696.179,1399.88 687,1410.5C 679.508,1419.82 673.841,1430.15 670,1441.5C 669.707,1447.59 669.54,1453.59 669.5,1459.5C 669.818,1460.65 670.484,1461.48 671.5,1462C 662.577,1463.75 653.577,1464.42 644.5,1464C 649.28,1460.71 652.28,1456.21 653.5,1450.5C 658.787,1449.94 662.62,1447.27 665,1442.5C 667.333,1437.5 669.667,1432.5 672,1427.5C 672.579,1426.07 672.412,1424.74 671.5,1423.5C 673.167,1423.5 674.833,1423.5 676.5,1423.5C 675.634,1419.11 673.301,1415.61 669.5,1413C 663.526,1408.18 656.859,1404.68 649.5,1402.5C 651.975,1332.64 639.642,1265.97 612.5,1202.5C 630.958,1203.2 649.292,1202.2 667.5,1199.5 Z"/></g>
<g><path style="opacity:0.418" fill="#292929" d="M 960.5,1205.5 C 959.993,1215.34 956.659,1224.34 950.5,1232.5C 952.281,1222.81 955.614,1213.81 960.5,1205.5 Z"/></g>
<g><path style="opacity:0.011" fill="#000000" d="M 922.5,1316.5 C 925.076,1316.72 925.91,1318.06 925,1320.5C 923.519,1319.53 922.685,1318.2 922.5,1316.5 Z"/></g>
<g><path style="opacity:0.018" fill="#000000" d="M 947.5,1321.5 C 949.838,1322.65 949.671,1323.98 947,1325.5C 946.5,1325.17 946,1324.83 945.5,1324.5C 946.612,1323.73 947.279,1322.73 947.5,1321.5 Z"/></g>
<g><path style="opacity:0.004" fill="#000000" d="M 959.5,1334.5 C 960.833,1335.17 960.833,1335.17 959.5,1334.5 Z"/></g>
<g><path style="opacity:0.009" fill="#000000" d="M 964.5,1334.5 C 967.012,1335.22 967.012,1336.22 964.5,1337.5C 963.438,1336.58 963.438,1335.58 964.5,1334.5 Z"/></g>
<g><path style="opacity:0.007" fill="#000000" d="M 1038.5,1368.5 C 1039.68,1368.28 1040.68,1368.61 1041.5,1369.5C 1039.95,1370.8 1038.95,1370.46 1038.5,1368.5 Z"/></g>
<g><path style="opacity:1" fill="#2a2a2a" d="M 403.5,1406.5 C 403.665,1409.52 403.498,1412.52 403,1415.5C 398.621,1424.95 392.788,1433.28 385.5,1440.5C 385.03,1435.98 383.863,1431.65 382,1427.5C 379.166,1423.58 375.666,1422.75 371.5,1425C 364.867,1432.7 362.534,1441.53 364.5,1451.5C 360.2,1452.35 355.867,1451.85 351.5,1450C 348.156,1448.11 346.822,1445.27 347.5,1441.5C 349.343,1426.08 356.343,1413.25 368.5,1403C 375.911,1398.87 383.577,1398.54 391.5,1402C 395.798,1402.9 399.798,1404.4 403.5,1406.5 Z"/></g>
<g><path style="opacity:1" fill="#2a2a2a" d="M 477.5,1425.5 C 479.745,1431.12 479.912,1436.78 478,1442.5C 473.272,1448.73 467.772,1454.06 461.5,1458.5C 463.749,1456.16 464.749,1453.32 464.5,1450C 464.474,1440.29 461.141,1431.96 454.5,1425C 448.273,1422.52 443.107,1424.02 439,1429.5C 433.452,1439.74 433.285,1450.07 438.5,1460.5C 429.152,1460.03 422.985,1455.03 420,1445.5C 418.216,1434.51 418.05,1423.51 419.5,1412.5C 433.912,1400.75 448.578,1400.58 463.5,1412C 468.669,1416 473.336,1420.5 477.5,1425.5 Z"/></g>
<g><path style="opacity:1" fill="#2a2a2a" d="M 520.5,1442.5 C 513.666,1442.94 506.999,1442.27 500.5,1440.5C 498.412,1438.66 497.079,1436.33 496.5,1433.5C 494.949,1430.44 492.782,1427.77 490,1425.5C 489.337,1420.46 489.504,1415.46 490.5,1410.5C 501.073,1402.94 511.739,1402.77 522.5,1410C 526.667,1414.17 530.833,1418.33 535,1422.5C 538.446,1426.72 540.779,1431.39 542,1436.5C 538.51,1432.95 534.343,1431.79 529.5,1433C 525.592,1435.41 522.592,1438.57 520.5,1442.5 Z"/></g>
<g><path style="opacity:1" fill="#2a2a2a" d="M 755.5,1423.5 C 759.469,1435.76 755.469,1444.26 743.5,1449C 740.24,1449.97 737.073,1451.14 734,1452.5C 733.601,1452.27 733.435,1451.94 733.5,1451.5C 737.211,1442.43 735.877,1434.27 729.5,1427C 725.33,1424.21 720.997,1423.88 716.5,1426C 708.323,1432.19 704.99,1440.35 706.5,1450.5C 695.983,1450.48 687.817,1445.81 682,1436.5C 681.506,1434.87 681.34,1433.2 681.5,1431.5C 696.414,1404.15 717.414,1398.65 744.5,1415C 748.597,1417.37 752.264,1420.2 755.5,1423.5 Z"/></g>
<g><path style="opacity:1" fill="#282828" d="M 671.5,1423.5 C 672.412,1424.74 672.579,1426.07 672,1427.5C 669.667,1432.5 667.333,1437.5 665,1442.5C 662.62,1447.27 658.787,1449.94 653.5,1450.5C 654.451,1440.57 651.117,1432.4 643.5,1426C 636.34,1425.13 631.84,1428.3 630,1435.5C 629.333,1441.5 629.333,1447.5 630,1453.5C 630.516,1456.03 631.683,1458.2 633.5,1460C 627.78,1459.14 622.78,1456.64 618.5,1452.5C 624.969,1438.87 632.469,1425.87 641,1413.5C 642.389,1411.77 644.056,1410.44 646,1409.5C 654.755,1413.79 663.255,1418.46 671.5,1423.5 Z"/></g>
<g><path style="opacity:1" fill="#1d1d1d" d="M 795.5,1412.5 C 785.904,1421.78 781.737,1433.12 783,1446.5C 790.438,1454.75 799.271,1456.75 809.5,1452.5C 811.505,1453.25 812.172,1454.42 811.5,1456C 798.332,1459.8 784.999,1460.46 771.5,1458C 772.91,1457.63 773.91,1456.8 774.5,1455.5C 772.997,1455.17 771.664,1455.17 770.5,1455.5C 772.378,1449.97 772.878,1444.3 772,1438.5C 770.473,1432.82 768.473,1427.48 766,1422.5C 774.643,1415.73 784.476,1412.4 795.5,1412.5 Z"/></g>
<g><path style="opacity:1" fill="#2a2a2a" d="M 795.5,1412.5 C 805.762,1411.88 813.762,1415.71 819.5,1424C 814.074,1423.75 810.574,1426.25 809,1431.5C 806.844,1438.62 807.011,1445.62 809.5,1452.5C 799.271,1456.75 790.438,1454.75 783,1446.5C 781.737,1433.12 785.904,1421.78 795.5,1412.5 Z"/></g>
<g><path style="opacity:1" fill="#1d1d1d" d="M 419.5,1412.5 C 418.05,1423.51 418.216,1434.51 420,1445.5C 422.985,1455.03 429.152,1460.03 438.5,1460.5C 446.52,1463.6 454.186,1462.93 461.5,1458.5C 467.772,1454.06 473.272,1448.73 478,1442.5C 479.912,1436.78 479.745,1431.12 477.5,1425.5C 484.203,1431.04 490.037,1437.37 495,1444.5C 496.167,1449.17 497.333,1453.83 498.5,1458.5C 497.717,1463.22 495.05,1465.72 490.5,1466C 492.576,1464.12 492.91,1461.95 491.5,1459.5C 485.085,1462.55 478.419,1464.71 471.5,1466C 453.508,1465.9 435.508,1465.57 417.5,1465C 412.588,1463.76 408.421,1461.26 405,1457.5C 404.875,1446.42 405.875,1435.42 408,1424.5C 411.336,1420 415.169,1416 419.5,1412.5 Z"/></g>
<g><path style="opacity:1" fill="#1d1d1d" d="M 755.5,1423.5 C 760.675,1426.85 764.175,1431.52 766,1437.5C 766.916,1443.83 767.75,1450.17 768.5,1456.5C 754.879,1458.96 741.212,1461.29 727.5,1463.5C 726.5,1463.33 725.5,1463.17 724.5,1463C 729.995,1461.02 732.995,1457.18 733.5,1451.5C 733.435,1451.94 733.601,1452.27 734,1452.5C 737.073,1451.14 740.24,1449.97 743.5,1449C 755.469,1444.26 759.469,1435.76 755.5,1423.5 Z"/></g>
<g><path style="opacity:1" fill="#060606" d="M 385.5,1440.5 C 386.324,1446.53 384.658,1451.69 380.5,1456C 371.512,1459.2 369.845,1457.37 375.5,1450.5C 376.497,1450.53 377.164,1450.03 377.5,1449C 379.059,1442.87 378.393,1437.03 375.5,1431.5C 372.434,1433.29 370.6,1435.96 370,1439.5C 369.501,1443.49 369.334,1447.49 369.5,1451.5C 369.38,1452.59 368.713,1453.25 367.5,1453.5C 366.261,1453.06 365.261,1452.39 364.5,1451.5C 362.534,1441.53 364.867,1432.7 371.5,1425C 375.666,1422.75 379.166,1423.58 382,1427.5C 383.863,1431.65 385.03,1435.98 385.5,1440.5 Z"/></g>
<g><path style="opacity:1" fill="#070707" d="M 461.5,1458.5 C 454.186,1462.93 446.52,1463.6 438.5,1460.5C 433.285,1450.07 433.452,1439.74 439,1429.5C 443.107,1424.02 448.273,1422.52 454.5,1425C 461.141,1431.96 464.474,1440.29 464.5,1450C 464.749,1453.32 463.749,1456.16 461.5,1458.5 Z"/></g>
<g><path style="opacity:1" fill="#8a8a8a" d="M 719.5,1430.5 C 726.199,1430.04 729.532,1433.2 729.5,1440C 728.417,1445.25 726.917,1450.42 725,1455.5C 721.545,1456.79 718.045,1456.79 714.5,1455.5C 709.291,1445.61 710.957,1437.28 719.5,1430.5 Z"/></g>
<g><path style="opacity:1" fill="#8a8a8a" d="M 816.5,1429.5 C 818.017,1429.51 819.184,1430.18 820,1431.5C 820.93,1434.36 822.597,1436.69 825,1438.5C 829.006,1450.84 825.34,1454.17 814,1448.5C 812.759,1441.81 813.592,1435.47 816.5,1429.5 Z"/></g>
<g><path style="opacity:1" fill="#898989" d="M 446.5,1430.5 C 452.205,1430.69 455.705,1433.69 457,1439.5C 461.574,1452.54 457.074,1458.04 443.5,1456C 442.299,1455.1 441.465,1453.93 441,1452.5C 440.333,1447.83 440.333,1443.17 441,1438.5C 442.129,1435.21 443.962,1432.54 446.5,1430.5 Z"/></g>
<g><path style="opacity:1" fill="#1d1d1d" d="M 681.5,1431.5 C 681.34,1433.2 681.506,1434.87 682,1436.5C 687.817,1445.81 695.983,1450.48 706.5,1450.5C 707.975,1455.6 710.641,1460.1 714.5,1464C 701.34,1463.9 688.34,1462.23 675.5,1459C 674.355,1449.23 676.355,1440.07 681.5,1431.5 Z"/></g>
<g><path style="opacity:1" fill="#868686" d="M 375.5,1450.5 C 373.379,1450.33 371.379,1450.66 369.5,1451.5C 369.334,1447.49 369.501,1443.49 370,1439.5C 370.6,1435.96 372.434,1433.29 375.5,1431.5C 378.393,1437.03 379.059,1442.87 377.5,1449C 377.164,1450.03 376.497,1450.53 375.5,1450.5 Z"/></g>
<g><path style="opacity:1" fill="#878787" d="M 638.5,1431.5 C 643.056,1432.89 646.222,1435.89 648,1440.5C 649.225,1446.27 648.225,1451.6 645,1456.5C 640.256,1459.8 637.589,1458.46 637,1452.5C 636.333,1453.83 635.667,1453.83 635,1452.5C 634.333,1447.5 634.333,1442.5 635,1437.5C 635.926,1435.31 637.093,1433.31 638.5,1431.5 Z"/></g>
<g><path style="opacity:1" fill="#737373" d="M 530.5,1438.5 C 534.594,1437.7 537.761,1439.04 540,1442.5C 540.499,1446.49 540.666,1450.49 540.5,1454.5C 535.5,1454.5 530.5,1454.5 525.5,1454.5C 524.442,1448.24 526.109,1442.91 530.5,1438.5 Z"/></g>
<g><path style="opacity:1" fill="#1d1d1d" d="M 500.5,1440.5 C 506.999,1442.27 513.666,1442.94 520.5,1442.5C 519.705,1446.79 519.372,1451.12 519.5,1455.5C 513.206,1456.62 507.039,1458.28 501,1460.5C 500.5,1460.17 500,1459.83 499.5,1459.5C 501.703,1453.27 502.036,1446.93 500.5,1440.5 Z"/></g>
<g><path style="opacity:0.007" fill="#000000" d="M 1080.5,1456.5 C 1081.08,1455.23 1081.74,1455.23 1082.5,1456.5C 1082.03,1457.46 1081.36,1457.46 1080.5,1456.5 Z"/></g>
<g><path style="opacity:0.008" fill="#000000" d="M 75.5,1507.5 C 77.337,1507.64 77.6704,1508.31 76.5,1509.5C 75.7025,1509.04 75.3691,1508.38 75.5,1507.5 Z"/></g>
<g><path style="opacity:0.011" fill="#000000" d="M 100.5,1529.5 C 103.674,1529.95 104.007,1530.95 101.5,1532.5C 99.4807,1531.87 99.1474,1530.87 100.5,1529.5 Z"/></g>
<g><path style="opacity:0.034" fill="#000000" d="M 105.5,1532.5 C 108.833,1532.5 110.5,1534.17 110.5,1537.5C 105.973,1538.14 104.306,1536.47 105.5,1532.5 Z"/></g>
<g><path style="opacity:0.016" fill="#000000" d="M 114.5,1535.5 C 117.14,1536.79 117.14,1538.13 114.5,1539.5C 111.875,1538.14 111.875,1536.8 114.5,1535.5 Z"/></g>
<g><path style="opacity:0.013" fill="#000000" d="M 126.5,1544.5 C 126.577,1545.75 127.244,1546.58 128.5,1547C 127.667,1547.83 126.833,1548.67 126,1549.5C 125.22,1547.61 125.387,1545.95 126.5,1544.5 Z"/></g>
<g><path style="opacity:0.007" fill="#000000" d="M 229.5,1562.5 C 229.483,1564.03 228.816,1564.53 227.5,1564C 228.044,1563.28 228.711,1562.78 229.5,1562.5 Z"/></g>
<g><path style="opacity:0.005" fill="#000000" d="M 946.5,1562.5 C 947.289,1562.78 947.956,1563.28 948.5,1564C 947.184,1564.53 946.517,1564.03 946.5,1562.5 Z"/></g>
<g><path style="opacity:0.009" fill="#000000" d="M 288.5,1570.5 C 288.361,1572.34 287.694,1572.67 286.5,1571.5C 286.957,1570.7 287.624,1570.37 288.5,1570.5 Z"/></g>
<g><path style="opacity:0.004" fill="#000000" d="M 292.5,1571.5 C 294.337,1571.64 294.67,1572.31 293.5,1573.5C 292.702,1573.04 292.369,1572.38 292.5,1571.5 Z"/></g>
<g><path style="opacity:0.012" fill="#000000" d="M 895.5,1579.5 C 899.297,1580.91 899.297,1581.91 895.5,1582.5C 895.5,1581.5 895.5,1580.5 895.5,1579.5 Z"/></g>
<g><path style="opacity:0.011" fill="#000000" d="M 367.5,1582.5 C 369.337,1582.64 369.67,1583.31 368.5,1584.5C 367.702,1584.04 367.369,1583.38 367.5,1582.5 Z"/></g>
<g><path style="opacity:0.008" fill="#000000" d="M 410.5,1590.5 C 411.675,1590.28 412.675,1590.61 413.5,1591.5C 412.14,1592.67 411.14,1592.33 410.5,1590.5 Z"/></g>
</svg>
