<?xml version="1.0" encoding="UTF-8"?>
<!DOCTYPE svg PUBLIC "-//W3C//DTD SVG 1.1//EN" "http://www.w3.org/Graphics/SVG/1.1/DTD/svg11.dtd">
<svg xmlns="http://www.w3.org/2000/svg" version="1.1" width="988px" height="1077px" style="shape-rendering:geometricPrecision; text-rendering:geometricPrecision; image-rendering:optimizeQuality; fill-rule:evenodd; clip-rule:evenodd" xmlns:xlink="http://www.w3.org/1999/xlink">
<g><path style="opacity:0.298" fill="#f4f4f4" d="M 475.5,9.5 C 473.901,9.76781 472.568,9.43448 471.5,8.5C 471.519,1.46937 472.019,1.13603 473,7.5C 473.995,8.06594 474.828,8.73261 475.5,9.5 Z"/></g>
<g><path style="opacity:0.537" fill="#5e5e5e" d="M 505.5,31.5 C 509.21,35.2079 512.543,39.2079 515.5,43.5C 515.565,43.9382 515.399,44.2716 515,44.5C 512.036,40.5342 508.703,36.8675 505,33.5C 504.308,32.5632 504.475,31.8966 505.5,31.5 Z"/></g>
<g><path style="opacity:0.675" fill="#ececec" d="M 384.5,36.5 C 380.977,42.323 377.643,47.6563 374.5,52.5C 375.008,49.6114 375.675,46.7781 376.5,44C 371.258,42.1888 371.592,41.1888 377.5,41C 380.202,39.9879 382.535,38.4879 384.5,36.5 Z"/></g>
<g><path style="opacity:0.795" fill="#313131" d="M 634.5,49.5 C 619.835,49.5349 605.168,49.5349 590.5,49.5C 605.302,47.0106 619.969,47.0106 634.5,49.5 Z"/></g>
<g><path style="opacity:1" fill="#fefefe" d="M 646.5,60.5 C 649.505,62.2766 652.838,63.2766 656.5,63.5C 657.568,64.4345 658.901,64.7678 660.5,64.5C 662.515,65.9238 664.848,66.5905 667.5,66.5C 686.658,74.4153 704.324,84.9153 720.5,98C 741.534,115.86 759.867,136.026 775.5,158.5C 777.289,165.75 781.289,171.416 787.5,175.5C 805.274,200.721 817.94,228.388 825.5,258.5C 826.004,265.862 826.838,273.196 828,280.5C 828.278,281.416 828.778,282.082 829.5,282.5C 829.5,291.167 829.5,299.833 829.5,308.5C 828.839,310.134 828.506,311.967 828.5,314C 828.421,317.451 829.087,320.618 830.5,323.5C 830.604,329.23 831.271,334.897 832.5,340.5C 832.333,341.167 832.167,341.833 832,342.5C 830.348,341.601 828.848,340.601 827.5,339.5C 825.967,335.094 824.967,330.427 824.5,325.5C 815.453,361.586 800.953,395.252 781,426.5C 763.968,447.538 745.468,467.371 725.5,486C 714.961,494.774 703.295,501.774 690.5,507C 680.156,510.67 669.822,514.337 659.5,518C 635.241,519.443 611.074,521.276 587,523.5C 578.258,524.029 569.758,522.862 561.5,520C 550.976,514.795 540.976,508.795 531.5,502C 529.323,500.798 526.989,500.298 524.5,500.5C 454.71,483.276 403.877,441.943 372,376.5C 369.131,367.559 366.464,358.559 364,349.5C 362.937,322.839 362.603,296.172 363,269.5C 363.079,259.731 364.079,250.064 366,240.5C 368.667,229.828 371.334,219.162 374,208.5C 375.043,204.085 376.876,200.085 379.5,196.5C 383.538,187.605 389.038,179.605 396,172.5C 409.63,157.873 423.463,143.707 437.5,130C 438.094,129.536 438.761,129.369 439.5,129.5C 441.783,129.392 443.783,128.559 445.5,127C 450.916,122.813 455.583,117.979 459.5,112.5C 499.451,78.9982 545.785,60.8315 598.5,58C 614.593,57.117 630.593,57.9503 646.5,60.5 Z"/></g>
<g><path style="opacity:0.58" fill="#242424" d="M 661.5,54.5 C 670.868,57.3534 679.868,61.02 688.5,65.5C 678.654,62.6016 668.654,59.1016 658.5,55C 659.448,54.5172 660.448,54.3505 661.5,54.5 Z"/></g>
<g><path style="opacity:0.03" fill="#2a2b2a" d="M 367.5,93.5 C 368.573,94.2506 368.74,95.2506 368,96.5C 367.517,95.552 367.351,94.552 367.5,93.5 Z"/></g>
<g><path style="opacity:0.992" fill="#4c4c4c" d="M 368.5,85.5 C 370.898,92.9823 372.732,100.649 374,108.5C 372.704,105.429 371.538,102.429 370.5,99.5C 369.446,94.8935 368.779,90.2268 368.5,85.5 Z"/></g>
<g><path style="opacity:0.996" fill="#232323" d="M 718.5,84.5 C 736.854,98.1878 752.854,114.188 766.5,132.5C 757.7,123.531 749.033,114.365 740.5,105C 733.416,97.9118 725.749,91.5785 717.5,86C 716.288,84.8932 716.621,84.3932 718.5,84.5 Z"/></g>
<g><path style="opacity:0.941" fill="#c8c8c8" d="M 408.5,145.5 C 409.239,145.369 409.906,145.536 410.5,146C 408.451,148.593 406.285,151.093 404,153.5C 403.601,153.272 403.435,152.938 403.5,152.5C 405.412,150.343 407.079,148.009 408.5,145.5 Z"/></g>
<g><path style="opacity:0.995" fill="#090909" d="M 471.5,8.5 C 472.568,9.43448 473.901,9.76781 475.5,9.5C 479.658,10.4983 483.658,11.9983 487.5,14C 494.057,19.3924 500.057,25.2257 505.5,31.5C 504.475,31.8966 504.308,32.5632 505,33.5C 508.703,36.8675 512.036,40.5342 515,44.5C 515.399,44.2716 515.565,43.9382 515.5,43.5C 520.68,48.8603 524.014,55.1937 525.5,62.5C 523.84,64.2484 521.84,64.7484 519.5,64C 517.124,60.0813 514.624,56.248 512,52.5C 506.623,46.7921 501.623,40.7921 497,34.5C 490.22,26.7137 482.553,20.047 474,14.5C 473.333,15.1667 473.333,15.8333 474,16.5C 480.586,19.4182 485.586,24.0848 489,30.5C 489.497,32.8098 489.663,35.1432 489.5,37.5C 488.5,37.5 487.5,37.5 486.5,37.5C 472.244,19.5483 453.577,11.715 430.5,14C 419.878,15.6457 410.544,19.9791 402.5,27C 403.167,27.3333 403.833,27.6667 404.5,28C 399.699,31.799 395.199,35.9657 391,40.5C 388.651,45.1978 386.318,49.8644 384,54.5C 383.667,53.1667 383.333,51.8333 383,50.5C 372.951,71.5563 373.118,92.5563 383.5,113.5C 390.266,128.477 401.433,137.477 417,140.5C 426.349,131.43 435.516,122.264 444.5,113C 456.452,103.199 468.786,94.0326 481.5,85.5C 484.76,84.2262 487.76,82.5595 490.5,80.5C 501.361,74.4025 512.694,69.4025 524.5,65.5C 534.028,62.7912 543.362,59.7912 552.5,56.5C 552.611,55.8826 552.944,55.3826 553.5,55C 565.713,52.2976 578.047,50.4643 590.5,49.5C 605.168,49.5349 619.835,49.5349 634.5,49.5C 643.831,50.0345 652.831,51.7011 661.5,54.5C 660.448,54.3505 659.448,54.5172 658.5,55C 668.654,59.1016 678.654,62.6016 688.5,65.5C 699.466,70.3693 709.466,76.7027 718.5,84.5C 716.621,84.3932 716.288,84.8932 717.5,86C 725.749,91.5785 733.416,97.9118 740.5,105C 749.033,114.365 757.7,123.531 766.5,132.5C 773.288,139.388 779.622,146.722 785.5,154.5C 797.451,139.723 812.785,130.556 831.5,127C 837.891,126.242 844.224,126.576 850.5,128C 854.51,130.325 855.51,133.659 853.5,138C 873.121,136.231 888.954,143.064 901,158.5C 905.101,164.933 908.768,171.599 912,178.5C 921.284,201.437 918.618,222.77 904,242.5C 894.168,255.012 881.668,263.512 866.5,268C 857.949,268.938 849.449,270.104 841,271.5C 838.906,271.464 836.906,271.131 835,270.5C 836.052,282.098 836.552,293.765 836.5,305.5C 835.672,299.347 835.172,293.013 835,286.5C 834.197,301.195 834.53,315.861 836,330.5C 836.495,328.527 836.662,326.527 836.5,324.5C 838.8,333.236 839.634,342.236 839,351.5C 837.887,352.305 836.721,352.972 835.5,353.5C 835.5,353.167 835.5,352.833 835.5,352.5C 834.432,351.566 833.099,351.232 831.5,351.5C 831.364,354.551 831.698,357.551 832.5,360.5C 831.813,362.177 831.146,363.844 830.5,365.5C 830.819,367.75 830.319,369.75 829,371.5C 828.502,368.183 828.335,364.85 828.5,361.5C 827.504,354.199 826.837,346.866 826.5,339.5C 826.833,339.5 827.167,339.5 827.5,339.5C 828.848,340.601 830.348,341.601 832,342.5C 832.167,341.833 832.333,341.167 832.5,340.5C 831.271,334.897 830.604,329.23 830.5,323.5C 830.249,318.493 829.916,313.493 829.5,308.5C 829.5,299.833 829.5,291.167 829.5,282.5C 828.617,274.295 827.283,266.295 825.5,258.5C 817.94,228.388 805.274,200.721 787.5,175.5C 784.235,169.299 780.235,163.632 775.5,158.5C 759.867,136.026 741.534,115.86 720.5,98C 704.324,84.9153 686.658,74.4153 667.5,66.5C 665.485,65.0762 663.152,64.4095 660.5,64.5C 658.901,64.7678 657.568,64.4345 656.5,63.5C 653.548,61.5902 650.214,60.5902 646.5,60.5C 630.593,57.9503 614.593,57.117 598.5,58C 545.785,60.8315 499.451,78.9982 459.5,112.5C 457.068,113.75 454.734,115.25 452.5,117C 447.708,120.722 443.375,124.889 439.5,129.5C 438.761,129.369 438.094,129.536 437.5,130C 423.463,143.707 409.63,157.873 396,172.5C 389.038,179.605 383.538,187.605 379.5,196.5C 376.702,197.706 374.535,199.706 373,202.5C 369.213,209.738 365.713,217.072 362.5,224.5C 359.932,229.525 357.932,234.859 356.5,240.5C 353.845,249.122 351.845,257.788 350.5,266.5C 348.948,275.277 348.281,284.277 348.5,293.5C 348.5,300.342 348.834,307.009 349.5,313.5C 351.237,331.26 354.904,348.593 360.5,365.5C 360.41,368.152 361.076,370.485 362.5,372.5C 371.489,396.48 382.656,419.48 396,441.5C 409.827,461.829 427.327,478.162 448.5,490.5C 458.63,495.316 468.963,499.316 479.5,502.5C 482.505,504.277 485.838,505.277 489.5,505.5C 496.647,507.789 503.981,509.789 511.5,511.5C 511.611,512.117 511.944,512.617 512.5,513C 511.207,513.49 509.873,513.657 508.5,513.5C 500.051,513.34 491.718,512.34 483.5,510.5C 479.239,510.102 475.239,509.102 471.5,507.5C 467.498,505.39 463.165,504.057 458.5,503.5C 438.862,496.05 421.695,484.716 407,469.5C 389.478,449.146 375.478,426.479 365,401.5C 364.157,418.523 360.657,434.856 354.5,450.5C 353.624,450.631 352.957,450.298 352.5,449.5C 356.474,429.708 358.64,409.708 359,389.5C 354.008,372.193 349.341,354.859 345,337.5C 343.796,336.141 342.296,335.141 340.5,334.5C 341.381,333.029 342.714,332.196 344.5,332C 343.289,326.272 342.623,320.438 342.5,314.5C 334.79,314.792 327.457,316.625 320.5,320C 305.762,327.022 292.095,335.522 279.5,345.5C 257.069,362.226 234.403,378.726 211.5,395C 207.5,397 203.5,399 199.5,401C 171.982,409.261 144.982,418.927 118.5,430C 106.31,435.203 95.4767,442.37 86,451.5C 84.1667,454.5 82.3333,457.5 80.5,460.5C 84.3135,461.46 85.8135,463.793 85,467.5C 76.6389,467.347 69.9723,470.68 65,477.5C 46.529,506.857 47.029,535.857 66.5,564.5C 72.2413,574.41 79.908,582.577 89.5,589C 97.1991,592.3 104.866,592.133 112.5,588.5C 113.793,579.12 116.959,570.453 122,562.5C 125.092,559.27 127.925,555.936 130.5,552.5C 126.804,541.125 123.138,529.792 119.5,518.5C 120.314,516.727 121.648,516.227 123.5,517C 124.883,518.271 125.883,519.771 126.5,521.5C 130.566,530.472 134.233,539.639 137.5,549C 138.697,550.52 140.197,551.687 142,552.5C 142.483,553.448 142.649,554.448 142.5,555.5C 141.993,556.859 140.993,557.859 139.5,558.5C 139.833,559.167 140.167,559.833 140.5,560.5C 139.469,561.7 138.635,563.034 138,564.5C 137.804,562.714 136.971,561.381 135.5,560.5C 122.98,571.902 118.813,585.902 123,602.5C 127.126,615.3 135.626,623.134 148.5,626C 155.498,622.503 162.165,618.503 168.5,614C 175.162,610.168 182.162,607.168 189.5,605C 195.744,597.965 199.91,589.798 202,580.5C 204.534,569.295 206.201,557.962 207,546.5C 206.927,535.38 207.76,524.38 209.5,513.5C 207.833,508.193 207.499,502.859 208.5,497.5C 197.186,483.351 183.186,472.851 166.5,466C 158.212,464.238 149.879,462.738 141.5,461.5C 142.364,459.803 143.697,458.637 145.5,458C 152.856,457.364 160.189,457.531 167.5,458.5C 183.598,464.739 197.431,474.405 209,487.5C 212.303,492.441 214.803,497.774 216.5,503.5C 215.559,503.489 214.892,503.989 214.5,505C 215.729,509.912 215.396,514.745 213.5,519.5C 217.678,545.881 215.011,571.547 205.5,596.5C 214.871,597.331 224.204,596.831 233.5,595C 301.504,575.664 339.004,530.83 346,460.5C 346.471,462.246 347.138,463.913 348,465.5C 348.848,462.44 349.848,459.44 351,456.5C 351.464,457.094 351.631,457.761 351.5,458.5C 351.709,512.587 329.043,554.087 283.5,583C 275.746,587.294 267.913,591.461 260,595.5C 257.669,606.488 255.336,617.488 253,628.5C 249.5,645.254 251.5,661.254 259,676.5C 278.964,675.616 297.464,680.283 314.5,690.5C 320.309,696.319 324.976,702.985 328.5,710.5C 329.676,713.153 330.509,715.819 331,718.5C 328.897,715.941 327.064,713.274 325.5,710.5C 308.949,693.55 288.949,684.884 265.5,684.5C 262.117,683.024 259.783,684.024 258.5,687.5C 258.88,685.302 258.213,683.635 256.5,682.5C 254.629,682.141 253.129,681.141 252,679.5C 246.795,673.087 243.795,665.753 243,657.5C 242.179,650.321 242.345,643.321 243.5,636.5C 244.889,631.731 245.556,626.731 245.5,621.5C 245.216,619.585 245.549,617.919 246.5,616.5C 247.768,614.095 248.435,611.428 248.5,608.5C 248.548,605.687 249.215,603.021 250.5,600.5C 250.167,600.167 249.833,599.833 249.5,599.5C 240.366,602.293 231.033,604.127 221.5,605C 214.946,610.117 208.446,610.284 202,605.5C 197.096,611.872 190.596,615.539 182.5,616.5C 178.74,615.774 176.073,617.107 174.5,620.5C 163.958,628.64 151.958,632.474 138.5,632C 136.14,630.82 133.807,629.653 131.5,628.5C 129.694,625.662 128.694,625.995 128.5,629.5C 126.284,632.444 123.284,634.111 119.5,634.5C 118.292,633.218 116.958,633.218 115.5,634.5C 115.624,635.107 115.957,635.44 116.5,635.5C 115.013,636.804 113.346,637.97 111.5,639C 96.3963,644.48 80.8963,648.313 65,650.5C 52.8019,647.992 41.6352,643.158 31.5,636C 30.1175,634.729 29.1175,633.229 28.5,631.5C 26.8248,628.755 25.1581,626.088 23.5,623.5C 22.4207,617.551 22.254,611.551 23,605.5C 24.0033,602.16 25.5033,599.16 27.5,596.5C 28.8528,594.872 28.5195,593.538 26.5,592.5C 22.7191,588.376 19.7191,583.709 17.5,578.5C 16.9579,575.088 15.6246,572.088 13.5,569.5C 7.09362,558.426 4.26028,546.426 5,533.5C 11.5485,518.279 22.8818,508.946 39,505.5C 40.2559,505.648 41.4226,505.982 42.5,506.5C 43.209,507.404 44.209,507.737 45.5,507.5C 45.5,506.167 45.5,504.833 45.5,503.5C 48.332,486.498 56.332,472.498 69.5,461.5C 72.9464,460.388 74.9464,458.055 75.5,454.5C 81.0054,444.162 89.0054,436.328 99.5,431C 127.027,417.561 155.361,406.395 184.5,397.5C 187.748,398.541 190.748,397.874 193.5,395.5C 195.483,395.843 196.817,395.176 197.5,393.5C 198.514,392.326 199.847,391.66 201.5,391.5C 203.027,391.573 204.027,390.906 204.5,389.5C 226.217,373.965 247.55,357.798 268.5,341C 282.703,330.479 297.703,321.145 313.5,313C 318.607,310.464 323.94,308.631 329.5,307.5C 333.384,306.207 337.384,305.541 341.5,305.5C 342.019,287.48 344.019,269.48 347.5,251.5C 347.457,250.584 347.124,249.917 346.5,249.5C 348.305,238.251 351.805,227.585 357,217.5C 360.998,209.208 365.331,201.208 370,193.5C 371.039,192.29 372.206,191.29 373.5,190.5C 371.81,194.187 372.31,194.854 375,192.5C 375.5,191.5 376,190.5 376.5,189.5C 376.043,188.702 375.376,188.369 374.5,188.5C 374.337,186.143 374.503,183.81 375,181.5C 385.432,178.448 392.432,171.782 396,161.5C 398.364,158.31 400.864,155.31 403.5,152.5C 403.435,152.938 403.601,153.272 404,153.5C 406.285,151.093 408.451,148.593 410.5,146C 409.906,145.536 409.239,145.369 408.5,145.5C 399.66,143.494 392.16,139.161 386,132.5C 381.75,126.335 377.75,120.002 374,113.5C 372.107,108.993 370.941,104.327 370.5,99.5C 371.538,102.429 372.704,105.429 374,108.5C 372.732,100.649 370.898,92.9823 368.5,85.5C 367.438,73.821 369.438,62.821 374.5,52.5C 377.643,47.6563 380.977,42.323 384.5,36.5C 400.079,11.0123 422.746,0.8456 452.5,6C 457.01,7.00319 461.343,8.50319 465.5,10.5C 467.173,8.91374 469.173,8.24707 471.5,8.5 Z"/></g>
<g><path style="opacity:1" fill="#2a2a2a" d="M 747.5,357.5 C 747.389,356.883 747.056,356.383 746.5,356C 767.337,349.207 777.504,334.707 777,312.5C 777.5,304.841 777.666,297.174 777.5,289.5C 778.67,275.812 777.17,262.479 773,249.5C 769.087,244.426 765.92,238.926 763.5,233C 739.05,214.096 714.384,213.762 689.5,232C 685.555,235.946 682.389,240.446 680,245.5C 678.93,250.887 678.596,256.221 679,261.5C 677.248,258.588 675.082,256.255 672.5,254.5C 673.268,253.737 673.768,252.737 674,251.5C 674.333,246.5 674.667,241.5 675,236.5C 675.383,235.944 675.883,235.611 676.5,235.5C 676.383,237.484 677.05,239.15 678.5,240.5C 679.274,241.711 680.107,241.711 681,240.5C 682.724,223.714 688.89,208.881 699.5,196C 705.278,192.874 710.445,189.041 715,184.5C 715.333,184.833 715.667,185.167 716,185.5C 727.582,179.55 739.415,179.05 751.5,184C 765.23,191.404 775.73,201.571 783,214.5C 786.125,222.502 789.625,230.335 793.5,238C 793.167,238.333 792.833,238.667 792.5,239C 801.478,270.528 800.312,301.695 789,332.5C 784.957,340.539 779.457,347.372 772.5,353C 764.56,356.621 756.227,358.121 747.5,357.5 Z"/></g>
<g><path style="opacity:1" fill="#1d1d1d" d="M 842.5,175.5 C 848.134,179.433 853.634,183.766 859,188.5C 868.358,202.938 870.025,218.272 864,234.5C 861.963,236.706 859.797,238.706 857.5,240.5C 858.96,237.296 859.46,233.962 859,230.5C 858.115,233 856.948,235.333 855.5,237.5C 850.953,239.87 846.286,242.037 841.5,244C 837.514,244.499 833.514,244.666 829.5,244.5C 824.143,224.271 816.143,205.104 805.5,187C 805.759,185.739 806.426,184.739 807.5,184C 812.632,181.2 817.965,178.867 823.5,177C 829.849,176.594 836.183,176.094 842.5,175.5 Z"/></g>
<g><path style="opacity:1" fill="#868686" d="M 594.5,171.5 C 594.59,174.152 593.924,176.485 592.5,178.5C 592.41,175.848 593.076,173.515 594.5,171.5 Z"/></g>
<g><path style="opacity:1" fill="#1e1e1e" d="M 460.5,176.5 C 445.394,200.107 449.061,220.274 471.5,237C 496.56,250.564 520.894,249.397 544.5,233.5C 545.509,235.518 546.509,237.518 547.5,239.5C 543.843,240.22 543.176,241.72 545.5,244C 543.271,246.4 540.937,248.567 538.5,250.5C 536.668,251.248 535.001,252.248 533.5,253.5C 521.761,254.849 510.094,257.683 498.5,262C 473.287,269.302 453.62,262.135 439.5,240.5C 439.733,227.823 441.233,215.157 444,202.5C 448.537,191.759 453.871,181.426 460,171.5C 459.904,173.381 460.071,175.047 460.5,176.5 Z"/></g>
<g><path style="opacity:1" fill="#0c0c0c" d="M 800.5,237.5 C 800.259,239.898 800.926,241.898 802.5,243.5C 803.451,244.919 803.784,246.585 803.5,248.5C 803.258,255.483 804.258,262.149 806.5,268.5C 808.954,294.508 804.787,319.508 794,343.5C 791.585,346.014 789.419,348.681 787.5,351.5C 785.5,352.833 783.833,354.5 782.5,356.5C 781.128,357.512 779.795,358.512 778.5,359.5C 775.053,360.083 772.053,361.416 769.5,363.5C 766.518,363.963 763.518,364.296 760.5,364.5C 752.821,364.404 745.154,364.07 737.5,363.5C 735.898,361.926 733.898,361.259 731.5,361.5C 723.578,358.732 716.244,354.899 709.5,350C 691.569,334.637 679.902,315.47 674.5,292.5C 674.813,288.958 674.479,285.625 673.5,282.5C 675.568,279.908 676.901,276.908 677.5,273.5C 678.086,273.709 678.586,274.043 679,274.5C 677.017,282.979 678.683,290.646 684,297.5C 686.294,300.473 688.794,303.14 691.5,305.5C 688.548,306.399 687.381,308.399 688,311.5C 695.319,323.494 704.153,334.327 714.5,344C 724.082,351.701 735.082,356.201 747.5,357.5C 756.227,358.121 764.56,356.621 772.5,353C 779.457,347.372 784.957,340.539 789,332.5C 800.312,301.695 801.478,270.528 792.5,239C 792.833,238.667 793.167,238.333 793.5,238C 789.625,230.335 786.125,222.502 783,214.5C 775.73,201.571 765.23,191.404 751.5,184C 739.415,179.05 727.582,179.55 716,185.5C 715.667,185.167 715.333,184.833 715,184.5C 710.445,189.041 705.278,192.874 699.5,196C 688.89,208.881 682.724,223.714 681,240.5C 680.107,241.711 679.274,241.711 678.5,240.5C 677.05,239.15 676.383,237.484 676.5,235.5C 677.216,229.087 678.383,222.754 680,216.5C 682.822,210.185 685.489,203.851 688,197.5C 689.039,196.29 690.206,195.29 691.5,194.5C 693.833,192.833 695.833,190.833 697.5,188.5C 713.507,173.666 732.174,169.166 753.5,175C 778.215,188.889 793.882,209.722 800.5,237.5 Z"/></g>
<g><path style="opacity:1" fill="#cdcdcd" d="M 775.5,158.5 C 780.235,163.632 784.235,169.299 787.5,175.5C 781.289,171.416 777.289,165.75 775.5,158.5 Z"/></g>
<g><path style="opacity:1" fill="#838383" d="M 592.5,140.5 C 593.924,142.515 594.59,144.848 594.5,147.5C 593.076,145.485 592.41,143.152 592.5,140.5 Z"/></g>
<g><path style="opacity:1" fill="#060606" d="M 591.5,218.5 C 597.208,218.84 602.875,219.507 608.5,220.5C 632.087,227.626 653.42,238.96 672.5,254.5C 675.082,256.255 677.248,258.588 679,261.5C 678.596,256.221 678.93,250.887 680,245.5C 682.389,240.446 685.555,235.946 689.5,232C 714.384,213.762 739.05,214.096 763.5,233C 765.92,238.926 769.087,244.426 773,249.5C 777.17,262.479 778.67,275.812 777.5,289.5C 771.006,314.629 754.673,326.296 728.5,324.5C 723.947,323.707 719.78,322.04 716,319.5C 713.853,320.476 711.686,320.309 709.5,319C 704.866,316.012 700.2,313.012 695.5,310C 693.959,308.629 692.625,307.129 691.5,305.5C 688.794,303.14 686.294,300.473 684,297.5C 678.683,290.646 677.017,282.979 679,274.5C 678.586,274.043 678.086,273.709 677.5,273.5C 676.901,276.908 675.568,279.908 673.5,282.5C 669.997,288.169 665.33,292.669 659.5,296C 639.444,309.504 618.111,312.004 595.5,303.5C 595.5,302.833 595.167,302.5 594.5,302.5C 592.434,300.801 590.1,299.468 587.5,298.5C 578.934,292.772 571.434,285.772 565,277.5C 557.327,265.635 551.494,252.968 547.5,239.5C 546.509,237.518 545.509,235.518 544.5,233.5C 520.894,249.397 496.56,250.564 471.5,237C 449.061,220.274 445.394,200.107 460.5,176.5C 466.982,165.518 475.649,156.684 486.5,150C 512.302,137.764 534.802,142.597 554,164.5C 564.925,180.975 566.425,198.308 558.5,216.5C 560.766,217.314 563.1,217.814 565.5,218C 574.16,218.5 582.827,218.666 591.5,218.5 Z"/></g>
<g><path style="opacity:1" fill="#f3f3f3" d="M 489.5,155.5 C 493.371,155.185 497.038,155.518 500.5,156.5C 490.448,158.712 483.615,164.712 480,174.5C 471.035,195.496 474.869,213.996 491.5,230C 495.158,232.831 499.158,234.998 503.5,236.5C 502.081,237.451 500.415,237.784 498.5,237.5C 478.343,237.156 465.176,227.49 459,208.5C 457.827,184.165 467.994,166.498 489.5,155.5 Z"/></g>
<g><path style="opacity:1" fill="#2a2a2a" d="M 878.5,252.5 C 872.624,253.43 866.791,254.43 861,255.5C 855.857,255.014 851.023,253.68 846.5,251.5C 851.855,249.478 855.522,245.811 857.5,240.5C 859.797,238.706 861.963,236.706 864,234.5C 870.025,218.272 868.358,202.938 859,188.5C 853.634,183.766 848.134,179.433 842.5,175.5C 837.08,169.851 830.414,168.018 822.5,170C 814.39,171.796 807.89,175.963 803,182.5C 797.987,175.801 793.487,168.801 789.5,161.5C 790.897,158.594 792.897,156.094 795.5,154C 807.933,144.357 821.933,138.524 837.5,136.5C 839.5,136.833 841.5,137.167 843.5,137.5C 840.135,139.677 836.468,141.177 832.5,142C 831,143.5 829.5,145 828,146.5C 827.251,147.635 827.417,148.635 828.5,149.5C 834.555,143.843 841.721,140.176 850,138.5C 851.811,139.078 853.645,139.578 855.5,140C 851.196,141.106 846.863,142.106 842.5,143C 839.924,143.782 837.924,145.282 836.5,147.5C 837.667,147.833 838.833,148.167 840,148.5C 866.75,141.38 886.417,150.047 899,174.5C 914.972,206.616 908.139,232.616 878.5,252.5 Z"/></g>
<g><path style="opacity:1" fill="#d1d1d1" d="M 459.5,112.5 C 455.583,117.979 450.916,122.813 445.5,127C 443.783,128.559 441.783,129.392 439.5,129.5C 443.375,124.889 447.708,120.722 452.5,117C 454.734,115.25 457.068,113.75 459.5,112.5 Z"/></g>
<g><path style="opacity:1" fill="#2a2a2a" d="M 570.5,211.5 C 569.797,213.716 568.464,215.549 566.5,217C 574.827,217.5 583.16,217.666 591.5,217.5C 591.5,217.833 591.5,218.167 591.5,218.5C 582.827,218.666 574.16,218.5 565.5,218C 563.1,217.814 560.766,217.314 558.5,216.5C 566.425,198.308 564.925,180.975 554,164.5C 534.802,142.597 512.302,137.764 486.5,150C 475.649,156.684 466.982,165.518 460.5,176.5C 460.071,175.047 459.904,173.381 460,171.5C 453.871,181.426 448.537,191.759 444,202.5C 441.233,215.157 439.733,227.823 439.5,240.5C 437.326,236.818 435.826,232.818 435,228.5C 434.333,222.167 434.333,215.833 435,209.5C 446.958,162.55 475.458,130.383 520.5,113C 540.324,107.301 558.324,110.635 574.5,123C 588.433,141.03 591.599,160.864 584,182.5C 579.838,190.828 575.171,198.828 570,206.5C 569.22,208.387 569.387,210.054 570.5,211.5 Z"/></g>
<g><path style="opacity:1" fill="#0b0b0b" d="M 557.5,104.5 C 575.902,109.902 587.568,121.902 592.5,140.5C 592.41,143.152 593.076,145.485 594.5,147.5C 595.833,155.5 595.833,163.5 594.5,171.5C 593.076,173.515 592.41,175.848 592.5,178.5C 587.759,189.089 581.926,199.089 575,208.5C 573.729,209.883 572.229,210.883 570.5,211.5C 569.387,210.054 569.22,208.387 570,206.5C 575.171,198.828 579.838,190.828 584,182.5C 591.599,160.864 588.433,141.03 574.5,123C 558.324,110.635 540.324,107.301 520.5,113C 475.458,130.383 446.958,162.55 435,209.5C 434.333,215.833 434.333,222.167 435,228.5C 435.826,232.818 437.326,236.818 439.5,240.5C 453.62,262.135 473.287,269.302 498.5,262C 510.094,257.683 521.761,254.849 533.5,253.5C 532.167,254.167 531.167,255.167 530.5,256.5C 518.172,264.16 504.839,269.327 490.5,272C 482.655,272.822 474.989,272.656 467.5,271.5C 465.485,270.076 463.152,269.41 460.5,269.5C 456.673,267.754 453.007,265.754 449.5,263.5C 430.393,249.712 422.893,231.045 427,207.5C 437.267,166.135 460.767,134.635 497.5,113C 505.47,109.066 513.804,106.232 522.5,104.5C 534.171,101.88 545.838,101.88 557.5,104.5 Z"/></g>
<g><path style="opacity:1" fill="#f2f2f2" d="M 533.5,181.5 C 543.958,182.804 547.958,188.638 545.5,199C 537.034,201.878 532.034,198.878 530.5,190C 530.801,186.903 531.801,184.07 533.5,181.5 Z"/></g>
<g><path style="opacity:1" fill="#838383" d="M 542.5,165.5 C 544.446,166.254 545.279,167.588 545,169.5C 543.482,168.837 542.315,167.837 541.5,166.5C 542.167,166.5 542.5,166.167 542.5,165.5 Z"/></g>
<g><path style="opacity:1" fill="#7c7c7c" d="M 500.5,153.5 C 504.38,155.023 508.38,156.023 512.5,156.5C 508.5,156.5 504.5,156.5 500.5,156.5C 497.038,155.518 493.371,155.185 489.5,155.5C 493.167,154.833 496.833,154.167 500.5,153.5 Z"/></g>
<g><path style="opacity:1" fill="#ebebeb" d="M 516.5,151.5 C 526.595,153.547 535.262,158.214 542.5,165.5C 542.5,166.167 542.167,166.5 541.5,166.5C 532.738,160.623 523.072,157.29 512.5,156.5C 508.38,156.023 504.38,155.023 500.5,153.5C 500.167,153.5 499.833,153.5 499.5,153.5C 499.389,152.883 499.056,152.383 498.5,152C 504.491,151.501 510.491,151.334 516.5,151.5 Z"/></g>
<g><path style="opacity:1" fill="#a6a6a6" d="M 516.5,151.5 C 510.491,151.334 504.491,151.501 498.5,152C 499.056,152.383 499.389,152.883 499.5,153.5C 497.952,153.179 497.285,152.179 497.5,150.5C 504.022,150.177 510.355,150.51 516.5,151.5 Z"/></g>
<g><path style="opacity:1" fill="#929292" d="M 557.5,104.5 C 545.838,101.88 534.171,101.88 522.5,104.5C 527.778,102.07 533.444,101.07 539.5,101.5C 542.833,101.667 546.167,101.833 549.5,102C 552.522,102.098 555.189,102.932 557.5,104.5 Z"/></g>
<g><path style="opacity:1" fill="#606060" d="M 660.5,64.5 C 663.152,64.4095 665.485,65.0762 667.5,66.5C 664.848,66.5905 662.515,65.9238 660.5,64.5 Z"/></g>
<g><path style="opacity:1" fill="#5f5f5f" d="M 646.5,60.5 C 650.214,60.5902 653.548,61.5902 656.5,63.5C 652.838,63.2766 649.505,62.2766 646.5,60.5 Z"/></g>
<g><path style="opacity:0.251" fill="#484848" d="M 552.5,56.5 C 543.362,59.7912 534.028,62.7912 524.5,65.5C 524.833,64.8333 525.167,64.1667 525.5,63.5C 534.339,60.5538 543.339,58.2205 552.5,56.5 Z"/></g>
<g><path style="opacity:1" fill="#1e1e1e" d="M 472.5,67.5 C 473.222,71.3908 474.056,75.3908 475,79.5C 476.406,82.4086 478.572,84.4086 481.5,85.5C 468.786,94.0326 456.452,103.199 444.5,113C 435.516,122.264 426.349,131.43 417,140.5C 401.433,137.477 390.266,128.477 383.5,113.5C 387.481,116.287 391.148,119.454 394.5,123C 396.853,124.964 399.353,125.464 402,124.5C 403.864,127.207 406.364,128.041 409.5,127C 413.405,126.392 417.072,125.225 420.5,123.5C 407.992,113.485 400.992,100.485 399.5,84.5C 399.549,78.5338 400.549,72.8672 402.5,67.5C 403.185,71.7259 404.185,75.8925 405.5,80C 403.654,83.599 403.154,87.4323 404,91.5C 407.956,100.455 414.29,107.122 423,111.5C 424.543,110.423 424.543,109.089 423,107.5C 415.432,101.311 410.432,93.6448 408,84.5C 410.333,86.8333 412.667,89.1667 415,91.5C 415.167,91 415.333,90.5 415.5,90C 413.394,84.2909 410.894,78.7909 408,73.5C 407.333,69.5 407.333,65.5 408,61.5C 413.031,57.263 418.864,54.763 425.5,54C 437.581,51.9501 448.748,54.1167 459,60.5C 462.639,66.7721 466.639,72.7721 471,78.5C 472.415,75.0418 472.915,71.3751 472.5,67.5 Z"/></g>
<g><path style="opacity:1" fill="#040404" d="M 472.5,67.5 C 472.915,71.3751 472.415,75.0418 471,78.5C 466.639,72.7721 462.639,66.7721 459,60.5C 448.748,54.1167 437.581,51.9501 425.5,54C 418.864,54.763 413.031,57.263 408,61.5C 407.333,65.5 407.333,69.5 408,73.5C 410.894,78.7909 413.394,84.2909 415.5,90C 415.333,90.5 415.167,91 415,91.5C 412.667,89.1667 410.333,86.8333 408,84.5C 410.432,93.6448 415.432,101.311 423,107.5C 424.543,109.089 424.543,110.423 423,111.5C 414.29,107.122 407.956,100.455 404,91.5C 403.154,87.4323 403.654,83.599 405.5,80C 404.185,75.8925 403.185,71.7259 402.5,67.5C 402.464,61.8 404.464,56.9666 408.5,53C 416.658,46.4638 425.992,43.6305 436.5,44.5C 449.006,43.4982 459.506,47.4982 468,56.5C 470.616,59.7294 472.116,63.3961 472.5,67.5 Z"/></g>
<g><path style="opacity:1" fill="#1e1e1e" d="M 525.5,62.5 C 525.5,62.8333 525.5,63.1667 525.5,63.5C 525.167,64.1667 524.833,64.8333 524.5,65.5C 512.694,69.4025 501.361,74.4025 490.5,80.5C 492.26,77.3832 493.593,74.0499 494.5,70.5C 493.382,63.5096 492.215,56.5096 491,49.5C 490.094,45.1568 488.594,41.1568 486.5,37.5C 487.5,37.5 488.5,37.5 489.5,37.5C 489.663,35.1432 489.497,32.8098 489,30.5C 485.586,24.0848 480.586,19.4182 474,16.5C 473.333,15.8333 473.333,15.1667 474,14.5C 482.553,20.047 490.22,26.7137 497,34.5C 501.623,40.7921 506.623,46.7921 512,52.5C 514.624,56.248 517.124,60.0813 519.5,64C 521.84,64.7484 523.84,64.2484 525.5,62.5 Z"/></g>
<g><path style="opacity:1" fill="#2a2a2a" d="M 486.5,37.5 C 488.594,41.1568 490.094,45.1568 491,49.5C 492.215,56.5096 493.382,63.5096 494.5,70.5C 493.593,74.0499 492.26,77.3832 490.5,80.5C 487.76,82.5595 484.76,84.2262 481.5,85.5C 478.572,84.4086 476.406,82.4086 475,79.5C 474.056,75.3908 473.222,71.3908 472.5,67.5C 472.116,63.3961 470.616,59.7294 468,56.5C 459.506,47.4982 449.006,43.4982 436.5,44.5C 425.992,43.6305 416.658,46.4638 408.5,53C 404.464,56.9666 402.464,61.8 402.5,67.5C 400.549,72.8672 399.549,78.5338 399.5,84.5C 400.992,100.485 407.992,113.485 420.5,123.5C 417.072,125.225 413.405,126.392 409.5,127C 406.364,128.041 403.864,127.207 402,124.5C 399.353,125.464 396.853,124.964 394.5,123C 391.148,119.454 387.481,116.287 383.5,113.5C 373.118,92.5563 372.951,71.5563 383,50.5C 383.333,51.8333 383.667,53.1667 384,54.5C 386.318,49.8644 388.651,45.1978 391,40.5C 395.199,35.9657 399.699,31.799 404.5,28C 403.833,27.6667 403.167,27.3333 402.5,27C 410.544,19.9791 419.878,15.6457 430.5,14C 453.577,11.715 472.244,19.5483 486.5,37.5 Z"/></g>
<g><path style="opacity:1" fill="#9d9d9d" d="M 374.5,188.5 C 375.376,188.369 376.043,188.702 376.5,189.5C 376,190.5 375.5,191.5 375,192.5C 372.31,194.854 371.81,194.187 373.5,190.5C 373.833,189.833 374.167,189.167 374.5,188.5 Z"/></g>
<g><path style="opacity:1" fill="#616161" d="M 697.5,188.5 C 695.833,190.833 693.833,192.833 691.5,194.5C 692.5,191.5 694.5,189.5 697.5,188.5 Z"/></g>
<g><path style="opacity:1" fill="#e0e0e0" d="M 379.5,196.5 C 376.876,200.085 375.043,204.085 374,208.5C 371.334,219.162 368.667,229.828 366,240.5C 364.079,250.064 363.079,259.731 363,269.5C 362.603,296.172 362.937,322.839 364,349.5C 366.464,358.559 369.131,367.559 372,376.5C 403.877,441.943 454.71,483.276 524.5,500.5C 526.989,500.298 529.323,500.798 531.5,502C 540.976,508.795 550.976,514.795 561.5,520C 569.758,522.862 578.258,524.029 587,523.5C 611.074,521.276 635.241,519.443 659.5,518C 669.822,514.337 680.156,510.67 690.5,507C 703.295,501.774 714.961,494.774 725.5,486C 745.468,467.371 763.968,447.538 781,426.5C 800.953,395.252 815.453,361.586 824.5,325.5C 824.967,330.427 825.967,335.094 827.5,339.5C 827.167,339.5 826.833,339.5 826.5,339.5C 825.357,342.976 825.19,346.642 826,350.5C 826.333,353.5 826.667,356.5 827,359.5C 827.278,360.416 827.778,361.082 828.5,361.5C 828.335,364.85 828.502,368.183 829,371.5C 830.319,369.75 830.819,367.75 830.5,365.5C 830.833,365.5 831.167,365.5 831.5,365.5C 831.4,377.239 829.733,388.739 826.5,400C 822.43,407.2 818.93,414.7 816,422.5C 807.47,439.034 795.97,453.201 781.5,465C 770.276,473.433 758.943,481.6 747.5,489.5C 724.994,503.993 701.327,516.327 676.5,526.5C 672.064,527.414 668.064,529.081 664.5,531.5C 654.771,534.087 645.104,536.421 635.5,538.5C 630.269,538.444 625.269,539.111 620.5,540.5C 591.052,541.612 563.718,534.612 538.5,519.5C 537.614,518.675 537.281,517.675 537.5,516.5C 535.801,516.66 534.134,516.494 532.5,516C 527.167,512 521.833,508 516.5,504C 515.552,503.517 514.552,503.351 513.5,503.5C 515.541,506.733 517.874,509.9 520.5,513C 517.406,513.251 514.406,512.751 511.5,511.5C 503.981,509.789 496.647,507.789 489.5,505.5C 486.495,503.723 483.162,502.723 479.5,502.5C 468.963,499.316 458.63,495.316 448.5,490.5C 427.327,478.162 409.827,461.829 396,441.5C 382.656,419.48 371.489,396.48 362.5,372.5C 362.59,369.848 361.924,367.515 360.5,365.5C 354.904,348.593 351.237,331.26 349.5,313.5C 349.304,297.816 349.637,282.149 350.5,266.5C 351.845,257.788 353.845,249.122 356.5,240.5C 357.117,240.389 357.617,240.056 358,239.5C 359.816,234.554 361.316,229.554 362.5,224.5C 365.713,217.072 369.213,209.738 373,202.5C 374.535,199.706 376.702,197.706 379.5,196.5 Z"/></g>
<g><path style="opacity:1" fill="#a5a5a5" d="M 591.5,218.5 C 591.5,218.167 591.5,217.833 591.5,217.5C 595.182,217.335 598.848,217.501 602.5,218C 604.852,218.24 606.852,219.073 608.5,220.5C 602.875,219.507 597.208,218.84 591.5,218.5 Z"/></g>
<g><path style="opacity:1" fill="#939393" d="M 362.5,224.5 C 361.316,229.554 359.816,234.554 358,239.5C 357.617,240.056 357.117,240.389 356.5,240.5C 357.932,234.859 359.932,229.525 362.5,224.5 Z"/></g>
<g><path style="opacity:1" fill="#bcbcbc" d="M 740.5,229.5 C 743.786,231.451 746.786,233.785 749.5,236.5C 748.833,236.5 748.5,236.833 748.5,237.5C 743.631,234.131 738.631,230.965 733.5,228C 734,227.833 734.5,227.667 735,227.5C 736.8,228.32 738.634,228.986 740.5,229.5 Z"/></g>
<g><path style="opacity:1" fill="#2f2f2f" d="M 740.5,229.5 C 741.873,229.343 743.207,229.51 744.5,230C 746.576,232.584 749.243,234.251 752.5,235C 755.739,236.736 758.073,239.236 759.5,242.5C 756.411,240.075 753.078,238.075 749.5,236.5C 746.786,233.785 743.786,231.451 740.5,229.5 Z"/></g>
<g><path style="opacity:1" fill="#f5f5f5" d="M 749.5,236.5 C 753.078,238.075 756.411,240.075 759.5,242.5C 762.041,246.904 764.875,251.237 768,255.5C 775.857,273.439 773.524,289.772 761,304.5C 759.99,308.843 757.49,312.01 753.5,314C 738.828,319.479 724.828,318.313 711.5,310.5C 714.167,309.833 716.833,309.167 719.5,308.5C 728.512,306.996 737.179,304.163 745.5,300C 749.673,295.494 754.173,291.327 759,287.5C 759.232,286.263 759.732,285.263 760.5,284.5C 762.118,281.829 762.785,278.829 762.5,275.5C 762.5,271.5 762.5,267.5 762.5,263.5C 762.323,259.292 760.99,255.626 758.5,252.5C 756.417,246.669 753.084,241.669 748.5,237.5C 748.5,236.833 748.833,236.5 749.5,236.5 Z"/></g>
<g><path style="opacity:1" fill="#6a6a6a" d="M 503.5,236.5 C 504.756,236.461 505.756,236.961 506.5,238C 503.633,238.801 500.966,238.634 498.5,237.5C 500.415,237.784 502.081,237.451 503.5,236.5 Z"/></g>
<g><path style="opacity:1" fill="#717171" d="M 607.5,236.5 C 624.99,235.606 638.823,242.273 649,256.5C 649.667,258.167 649.667,259.833 649,261.5C 647.471,265.031 644.804,267.031 641,267.5C 627.476,262.64 615.476,255.306 605,245.5C 603.927,241.9 604.76,238.9 607.5,236.5 Z"/></g>
<g><path style="opacity:1" fill="#616161" d="M 800.5,237.5 C 802.074,239.102 802.741,241.102 802.5,243.5C 800.926,241.898 800.259,239.898 800.5,237.5 Z"/></g>
<g><path style="opacity:1" fill="#dfdfdf" d="M 547.5,239.5 C 551.494,252.968 557.327,265.635 565,277.5C 571.434,285.772 578.934,292.772 587.5,298.5C 585.703,306.653 583.369,314.987 580.5,323.5C 570.908,329.463 560.908,334.629 550.5,339C 543.648,340.562 537.981,338.729 533.5,333.5C 551.28,333.074 562.28,324.074 566.5,306.5C 559.464,298.961 552.964,290.961 547,282.5C 543.016,272.011 540.183,261.344 538.5,250.5C 540.937,248.567 543.271,246.4 545.5,244C 543.176,241.72 543.843,240.22 547.5,239.5 Z"/></g>
<g><path style="opacity:1" fill="#f5f5f5" d="M 730.5,248.5 C 739.24,249.06 742.907,253.56 741.5,262C 732.005,266.287 727.172,263.453 727,253.5C 727.997,251.677 729.164,250.01 730.5,248.5 Z"/></g>
<g><path style="opacity:1" fill="#1d1d1d" d="M 846.5,251.5 C 851.023,253.68 855.857,255.014 861,255.5C 866.791,254.43 872.624,253.43 878.5,252.5C 872.934,255.775 866.934,258.275 860.5,260C 851.223,261.92 841.889,263.42 832.5,264.5C 832.29,259.802 832.124,255.136 832,250.5C 836.657,252.781 841.491,253.115 846.5,251.5 Z"/></g>
<g><path style="opacity:1" fill="#8e8e8e" d="M 758.5,252.5 C 760.99,255.626 762.323,259.292 762.5,263.5C 760.796,260.061 759.462,256.395 758.5,252.5 Z"/></g>
<g><path style="opacity:1" fill="#3d3d3d" d="M 803.5,248.5 C 805.561,254.879 806.561,261.546 806.5,268.5C 804.258,262.149 803.258,255.483 803.5,248.5 Z"/></g>
<g><path style="opacity:1" fill="#dddddd" d="M 530.5,256.5 C 515.854,279.445 495.188,287.612 468.5,281C 459.355,278.015 453.022,272.182 449.5,263.5C 453.007,265.754 456.673,267.754 460.5,269.5C 462.515,270.924 464.848,271.59 467.5,271.5C 474.989,272.656 482.655,272.822 490.5,272C 504.839,269.327 518.172,264.16 530.5,256.5 Z"/></g>
<g><path style="opacity:0.953" fill="#272727" d="M 346.5,249.5 C 347.124,249.917 347.457,250.584 347.5,251.5C 344.019,269.48 342.019,287.48 341.5,305.5C 341.821,299.974 341.488,294.64 340.5,289.5C 340.931,275.788 342.931,262.455 346.5,249.5 Z"/></g>
<g><path style="opacity:1" fill="#9d9d9d" d="M 825.5,258.5 C 827.283,266.295 828.617,274.295 829.5,282.5C 828.778,282.082 828.278,281.416 828,280.5C 826.838,273.196 826.004,265.862 825.5,258.5 Z"/></g>
<g><path style="opacity:1" fill="#6c6c6c" d="M 460.5,269.5 C 463.152,269.41 465.485,270.076 467.5,271.5C 464.848,271.59 462.515,270.924 460.5,269.5 Z"/></g>
<g><path style="opacity:1" fill="#767676" d="M 762.5,275.5 C 762.785,278.829 762.118,281.829 760.5,284.5C 760.676,281.273 761.343,278.273 762.5,275.5 Z"/></g>
<g><path style="opacity:1" fill="#686868" d="M 350.5,266.5 C 349.637,282.149 349.304,297.816 349.5,313.5C 348.834,307.009 348.5,300.342 348.5,293.5C 348.281,284.277 348.948,275.277 350.5,266.5 Z"/></g>
<g><path style="opacity:1" fill="#dedede" d="M 673.5,282.5 C 674.479,285.625 674.813,288.958 674.5,292.5C 673.732,291.737 673.232,290.737 673,289.5C 659.239,314.631 638.072,325.298 609.5,321.5C 610.846,332.349 615.512,341.516 623.5,349C 630.568,351.743 637.568,354.576 644.5,357.5C 644.376,358.107 644.043,358.44 643.5,358.5C 637.665,357.561 631.665,357.561 625.5,358.5C 611.362,353.869 599.862,345.536 591,333.5C 589.596,331.361 588.763,329.028 588.5,326.5C 589.681,322.108 591.014,317.775 592.5,313.5C 593.865,310.264 594.865,306.931 595.5,303.5C 618.111,312.004 639.444,309.504 659.5,296C 665.33,292.669 669.997,288.169 673.5,282.5 Z"/></g>
<g><path style="opacity:1" fill="#1d1d1d" d="M 777.5,289.5 C 777.666,297.174 777.5,304.841 777,312.5C 777.504,334.707 767.337,349.207 746.5,356C 747.056,356.383 747.389,356.883 747.5,357.5C 735.082,356.201 724.082,351.701 714.5,344C 704.153,334.327 695.319,323.494 688,311.5C 687.381,308.399 688.548,306.399 691.5,305.5C 692.625,307.129 693.959,308.629 695.5,310C 700.2,313.012 704.866,316.012 709.5,319C 711.686,320.309 713.853,320.476 716,319.5C 719.78,322.04 723.947,323.707 728.5,324.5C 754.673,326.296 771.006,314.629 777.5,289.5 Z"/></g>
<g><path style="opacity:0.747" fill="#f2f2f2" d="M 340.5,289.5 C 341.488,294.64 341.821,299.974 341.5,305.5C 337.384,305.541 333.384,306.207 329.5,307.5C 332.521,306.033 335.521,304.367 338.5,302.5C 340.065,298.313 340.732,293.98 340.5,289.5 Z"/></g>
<g><path style="opacity:1" fill="#0f0f0f" d="M 587.5,298.5 C 590.1,299.468 592.434,300.801 594.5,302.5C 593.475,305.974 592.808,309.64 592.5,313.5C 591.014,317.775 589.681,322.108 588.5,326.5C 588.763,329.028 589.596,331.361 591,333.5C 599.862,345.536 611.362,353.869 625.5,358.5C 630.838,358.979 636.171,359.312 641.5,359.5C 637.618,363.277 632.951,365.777 627.5,367C 610.246,369.457 596.08,363.957 585,350.5C 583.569,347.96 581.902,345.627 580,343.5C 573.342,348.246 566.176,352.079 558.5,355C 552.153,356.098 546.153,355.098 540.5,352C 535.032,345.531 529.199,339.364 523,333.5C 520.636,329.781 519.136,325.781 518.5,321.5C 520.167,321.5 521.833,321.5 523.5,321.5C 526.367,325.909 529.701,329.909 533.5,333.5C 537.981,338.729 543.648,340.562 550.5,339C 560.908,334.629 570.908,329.463 580.5,323.5C 583.369,314.987 585.703,306.653 587.5,298.5 Z"/></g>
<g><path style="opacity:1" fill="#7a7a7a" d="M 594.5,302.5 C 595.167,302.5 595.5,302.833 595.5,303.5C 594.865,306.931 593.865,310.264 592.5,313.5C 592.808,309.64 593.475,305.974 594.5,302.5 Z"/></g>
<g><path style="opacity:0.154" fill="#5b5b5b" d="M 836.5,305.5 C 836.5,311.833 836.5,318.167 836.5,324.5C 836.662,326.527 836.495,328.527 836,330.5C 834.53,315.861 834.197,301.195 835,286.5C 835.172,293.013 835.672,299.347 836.5,305.5 Z"/></g>
<g><path style="opacity:1" fill="#797979" d="M 719.5,308.5 C 716.833,309.167 714.167,309.833 711.5,310.5C 709.577,310.205 707.91,309.372 706.5,308C 710.774,308.291 715.107,308.457 719.5,308.5 Z"/></g>
<g><path style="opacity:1" fill="#1d1d1d" d="M 354.5,450.5 C 354.02,453.443 353.02,456.11 351.5,458.5C 351.631,457.761 351.464,457.094 351,456.5C 349.848,459.44 348.848,462.44 348,465.5C 347.138,463.913 346.471,462.246 346,460.5C 339.004,530.83 301.504,575.664 233.5,595C 224.204,596.831 214.871,597.331 205.5,596.5C 215.011,571.547 217.678,545.881 213.5,519.5C 215.396,514.745 215.729,509.912 214.5,505C 214.892,503.989 215.559,503.489 216.5,503.5C 214.803,497.774 212.303,492.441 209,487.5C 197.431,474.405 183.598,464.739 167.5,458.5C 174.977,459.703 182.31,461.536 189.5,464C 210.269,476.107 224.436,493.607 232,516.5C 241.193,522.673 251.36,525.173 262.5,524C 275.852,515.651 288.352,506.151 300,495.5C 314.658,476.855 325.658,456.188 333,433.5C 331.537,420.24 330.537,406.907 330,393.5C 327.179,385.214 324.512,376.881 322,368.5C 320.878,366.376 319.378,364.543 317.5,363C 313.167,360 308.833,357 304.5,354C 295.683,352.222 287.35,349.389 279.5,345.5C 292.095,335.522 305.762,327.022 320.5,320C 327.457,316.625 334.79,314.792 342.5,314.5C 342.623,320.438 343.289,326.272 344.5,332C 342.714,332.196 341.381,333.029 340.5,334.5C 342.296,335.141 343.796,336.141 345,337.5C 349.341,354.859 354.008,372.193 359,389.5C 358.64,409.708 356.474,429.708 352.5,449.5C 352.957,450.298 353.624,450.631 354.5,450.5 Z"/></g>
<g><path style="opacity:1" fill="#6c6c6c" d="M 829.5,308.5 C 829.916,313.493 830.249,318.493 830.5,323.5C 829.087,320.618 828.421,317.451 828.5,314C 828.506,311.967 828.839,310.134 829.5,308.5 Z"/></g>
<g><path style="opacity:1" fill="#5d5d5d" d="M 523.5,321.5 C 521.833,321.5 520.167,321.5 518.5,321.5C 520.167,318.833 521.833,318.833 523.5,321.5 Z"/></g>
<g><path style="opacity:1" fill="#2a2a2a" d="M 279.5,345.5 C 287.35,349.389 295.683,352.222 304.5,354C 308.833,357 313.167,360 317.5,363C 319.378,364.543 320.878,366.376 322,368.5C 324.512,376.881 327.179,385.214 330,393.5C 330.537,406.907 331.537,420.24 333,433.5C 325.658,456.188 314.658,476.855 300,495.5C 288.352,506.151 275.852,515.651 262.5,524C 251.36,525.173 241.193,522.673 232,516.5C 224.436,493.607 210.269,476.107 189.5,464C 182.31,461.536 174.977,459.703 167.5,458.5C 160.189,457.531 152.856,457.364 145.5,458C 143.697,458.637 142.364,459.803 141.5,461.5C 149.879,462.738 158.212,464.238 166.5,466C 183.186,472.851 197.186,483.351 208.5,497.5C 207.499,502.859 207.833,508.193 209.5,513.5C 207.76,524.38 206.927,535.38 207,546.5C 206.201,557.962 204.534,569.295 202,580.5C 199.91,589.798 195.744,597.965 189.5,605C 182.162,607.168 175.162,610.168 168.5,614C 162.165,618.503 155.498,622.503 148.5,626C 135.626,623.134 127.126,615.3 123,602.5C 118.813,585.902 122.98,571.902 135.5,560.5C 136.971,561.381 137.804,562.714 138,564.5C 138.635,563.034 139.469,561.7 140.5,560.5C 140.167,559.833 139.833,559.167 139.5,558.5C 140.993,557.859 141.993,556.859 142.5,555.5C 149.804,546.461 149.138,537.961 140.5,530C 135.944,526.893 131.277,524.06 126.5,521.5C 125.883,519.771 124.883,518.271 123.5,517C 121.648,516.227 120.314,516.727 119.5,518.5C 118.162,516.887 116.495,516.387 114.5,517C 110.759,518.738 107.592,521.238 105,524.5C 100.936,530.236 97.2698,536.236 94,542.5C 92.3068,548.608 90.3068,554.608 88,560.5C 82.0266,568.226 74.86,569.559 66.5,564.5C 47.029,535.857 46.529,506.857 65,477.5C 69.9723,470.68 76.6389,467.347 85,467.5C 85.8135,463.793 84.3135,461.46 80.5,460.5C 82.3333,457.5 84.1667,454.5 86,451.5C 95.4767,442.37 106.31,435.203 118.5,430C 144.982,418.927 171.982,409.261 199.5,401C 203.5,399 207.5,397 211.5,395C 234.403,378.726 257.069,362.226 279.5,345.5 Z"/></g>
<g><path style="opacity:1" fill="#8c8c8c" d="M 826.5,339.5 C 826.837,346.866 827.504,354.199 828.5,361.5C 827.778,361.082 827.278,360.416 827,359.5C 826.667,356.5 826.333,353.5 826,350.5C 825.19,346.642 825.357,342.976 826.5,339.5 Z"/></g>
<g><path style="opacity:1" fill="#929292" d="M 787.5,351.5 C 786.833,354.167 785.167,355.833 782.5,356.5C 783.833,354.5 785.5,352.833 787.5,351.5 Z"/></g>
<g><path style="opacity:0.745" fill="#f1f1f1" d="M 835.5,352.5 C 835.5,352.833 835.5,353.167 835.5,353.5C 834.735,356.096 834.401,358.763 834.5,361.5C 833.746,358.977 833.08,356.311 832.5,353.5C 833.325,352.614 834.325,352.281 835.5,352.5 Z"/></g>
<g><path style="opacity:1" fill="#444444" d="M 643.5,358.5 C 642.833,358.833 642.167,359.167 641.5,359.5C 636.171,359.312 630.838,358.979 625.5,358.5C 631.665,357.561 637.665,357.561 643.5,358.5 Z"/></g>
<g><path style="opacity:1" fill="#3d3d3d" d="M 835.5,352.5 C 834.325,352.281 833.325,352.614 832.5,353.5C 833.08,356.311 833.746,358.977 834.5,361.5C 834.5,361.833 834.5,362.167 834.5,362.5C 833.686,364.631 833.186,366.964 833,369.5C 832.921,367.264 832.421,365.93 831.5,365.5C 831.167,365.5 830.833,365.5 830.5,365.5C 831.146,363.844 831.813,362.177 832.5,360.5C 831.698,357.551 831.364,354.551 831.5,351.5C 833.099,351.232 834.432,351.566 835.5,352.5 Z"/></g>
<g><path style="opacity:1" fill="#999999" d="M 778.5,359.5 C 777.097,360.931 775.431,362.098 773.5,363C 772.207,363.49 770.873,363.657 769.5,363.5C 772.053,361.416 775.053,360.083 778.5,359.5 Z"/></g>
<g><path style="opacity:1" fill="#606060" d="M 731.5,361.5 C 733.898,361.259 735.898,361.926 737.5,363.5C 735.102,363.741 733.102,363.074 731.5,361.5 Z"/></g>
<g><path style="opacity:1" fill="#434343" d="M 737.5,363.5 C 745.154,364.07 752.821,364.404 760.5,364.5C 757.686,365.165 754.686,365.498 751.5,365.5C 746.576,365.646 741.909,364.979 737.5,363.5 Z"/></g>
<g><path style="opacity:1" fill="#5e5e5e" d="M 360.5,365.5 C 361.924,367.515 362.59,369.848 362.5,372.5C 361.076,370.485 360.41,368.152 360.5,365.5 Z"/></g>
<g><path style="opacity:0.263" fill="#010101" d="M 834.5,362.5 C 833.665,377.188 832.499,391.855 831,406.5C 829.61,413.671 827.61,420.671 825,427.5C 816.287,444.048 804.787,458.382 790.5,470.5C 793.446,475.395 796.113,480.395 798.5,485.5C 798.833,486.833 799.167,488.167 799.5,489.5C 799.649,490.552 799.483,491.552 799,492.5C 793.567,486.909 788.734,480.909 784.5,474.5C 781.216,476.117 778.549,478.45 776.5,481.5C 778.086,483.67 779.42,486.004 780.5,488.5C 775.33,490.859 772.663,489.192 772.5,483.5C 767.833,486.833 763.167,490.167 758.5,493.5C 779.544,534.793 797.378,577.46 812,621.5C 815.788,634.318 818.788,647.318 821,660.5C 823.197,662.949 824.697,662.783 825.5,660C 823.79,654.604 822.957,649.104 823,643.5C 823.816,644.823 824.983,645.489 826.5,645.5C 827.992,646.607 828.992,648.107 829.5,650C 832.617,666.271 839.117,681.438 849,695.5C 850.777,697.79 852.944,699.457 855.5,700.5C 864.625,703.854 874.292,705.854 884.5,706.5C 899.846,705.481 908.846,697.481 911.5,682.5C 908.251,669.008 903.084,656.341 896,644.5C 895.173,640.459 895.34,636.459 896.5,632.5C 897.891,633.645 899.224,633.645 900.5,632.5C 904.764,627.74 909.764,623.907 915.5,621C 918.217,619.075 919.717,616.909 920,614.5C 924.206,615.593 925.539,618.26 924,622.5C 921.937,624.734 919.771,626.734 917.5,628.5C 913.385,630.775 909.385,633.275 905.5,636C 903.951,638.098 902.951,640.432 902.5,643C 908.038,652.229 913.205,661.729 918,671.5C 918.87,675.824 919.703,680.158 920.5,684.5C 939.719,673.116 955.552,658.116 968,639.5C 969.799,635.93 971.299,632.263 972.5,628.5C 974.408,623.689 974.908,618.689 974,613.5C 958.975,590.144 939.142,571.978 914.5,559C 888.776,546.138 863.109,533.304 837.5,520.5C 826.192,514.179 815.192,507.345 804.5,500C 801.856,497.915 801.189,495.415 802.5,492.5C 803.833,492.833 805.167,493.167 806.5,493.5C 807.262,495.262 808.596,496.262 810.5,496.5C 811.492,496.328 812.158,496.662 812.5,497.5C 813.733,499.796 815.733,501.13 818.5,501.5C 821.331,502.079 823.664,503.412 825.5,505.5C 825.973,506.906 826.973,507.573 828.5,507.5C 862.327,524.177 895.994,541.344 929.5,559C 944.335,570.002 957.335,582.835 968.5,597.5C 969.5,600.5 971.5,602.5 974.5,603.5C 978.508,605.342 981.341,608.342 983,612.5C 983.542,618.198 983.875,623.864 984,629.5C 983.667,629.167 983.333,628.833 983,628.5C 982.722,629.416 982.222,630.082 981.5,630.5C 979.942,633.292 978.609,636.292 977.5,639.5C 978.275,641.396 979.275,643.063 980.5,644.5C 981.606,653.864 980.106,662.864 976,671.5C 966.132,692.362 950.299,706.695 928.5,714.5C 925.194,713.837 921.861,713.337 918.5,713C 915.472,711.156 912.472,709.322 909.5,707.5C 910.058,706.21 911.058,705.377 912.5,705C 910.212,704.582 908.212,705.249 906.5,707C 905.262,707.69 905.262,708.19 906.5,708.5C 900.06,713.201 892.727,715.534 884.5,715.5C 880.483,715.14 876.483,714.64 872.5,714C 863.881,711.283 855.548,707.95 847.5,704C 845.667,702.167 843.833,700.333 842,698.5C 836.631,689.76 831.797,680.76 827.5,671.5C 828.738,671.19 828.738,670.69 827.5,670C 825.179,669.163 822.845,668.83 820.5,669C 820.728,669.399 821.062,669.565 821.5,669.5C 822.325,695.857 814.825,719.524 799,740.5C 801.234,762.623 798.068,783.956 789.5,804.5C 790.833,807.833 790.833,811.167 789.5,814.5C 790,815.5 790.5,816.5 791,817.5C 793.739,812.773 797.572,809.107 802.5,806.5C 805.701,808.576 807.035,811.576 806.5,815.5C 805.448,815.351 804.448,815.517 803.5,816C 804.406,817.699 804.739,819.533 804.5,821.5C 806.465,820.871 808.465,820.204 810.5,819.5C 812.985,819.796 814.652,821.129 815.5,823.5C 818.056,820.497 820.056,817.163 821.5,813.5C 825.318,813.145 829.318,813.812 833.5,815.5C 833.822,817.722 833.155,819.556 831.5,821C 832.5,822 833.5,823 834.5,824C 837.183,824.177 839.85,824.011 842.5,823.5C 842.286,821.856 842.62,820.356 843.5,819C 847.067,818.558 850.733,818.392 854.5,818.5C 856.146,820.392 856.48,822.392 855.5,824.5C 855.977,825.478 856.643,826.311 857.5,827C 860.428,826.544 863.428,826.544 866.5,827C 867.653,829.616 868.653,832.282 869.5,835C 871.536,835.454 873.37,836.287 875,837.5C 876.301,837.361 877.134,836.695 877.5,835.5C 879.547,835.489 881.547,835.156 883.5,834.5C 885.646,835.894 887.979,836.56 890.5,836.5C 890.5,837.833 890.5,839.167 890.5,840.5C 891.833,840.5 893.167,840.5 894.5,840.5C 894.785,842.288 894.452,843.955 893.5,845.5C 892.05,846.655 891.05,848.155 890.5,850C 894.175,848.667 896.841,849.834 898.5,853.5C 898.167,854.167 897.833,854.833 897.5,855.5C 900.342,856.004 901.675,857.671 901.5,860.5C 904.539,859.629 907.539,860.129 910.5,862C 911.618,863.074 912.618,864.24 913.5,865.5C 913.192,871.954 913.525,878.287 914.5,884.5C 916.347,885.83 917.847,885.497 919,883.5C 920.637,888.534 922.97,889.201 926,885.5C 931.182,882.091 933.182,883.424 932,889.5C 929.079,891.064 926.579,893.064 924.5,895.5C 924.865,896.902 925.699,897.902 927,898.5C 928.162,897.813 929.328,897.647 930.5,898C 931.099,899.622 931.766,901.122 932.5,902.5C 932.993,897.55 934.327,897.55 936.5,902.5C 936.642,907.11 936.309,911.777 935.5,916.5C 935.667,917.167 935.833,917.833 936,918.5C 936.998,915.972 937.831,915.972 938.5,918.5C 938.32,919.554 937.987,920.554 937.5,921.5C 939.415,923.071 940.415,925.071 940.5,927.5C 937.689,928.431 934.856,928.097 932,926.5C 931.5,926.833 931,927.167 930.5,927.5C 931.246,928.736 931.579,930.07 931.5,931.5C 933.201,931.034 934.701,931.034 936,931.5C 936.853,929.875 937.853,929.542 939,930.5C 939.333,929.833 939.667,929.167 940,928.5C 940.71,929.973 941.876,930.64 943.5,930.5C 943.5,932.5 943.5,934.5 943.5,936.5C 941.365,936.147 940.032,936.98 939.5,939C 941.573,942.33 941.906,945.83 940.5,949.5C 938.267,949.864 936.434,950.864 935,952.5C 933.48,950.165 931.98,950.332 930.5,953C 931.61,955.737 931.777,958.571 931,961.5C 929.17,963.158 927.836,965.158 927,967.5C 926.51,968.793 926.343,970.127 926.5,971.5C 921.984,971.256 918.984,973.256 917.5,977.5C 924.649,980.671 926.982,986.004 924.5,993.5C 919.968,992.998 915.801,991.665 912,989.5C 910.051,991.984 909.384,994.65 910,997.5C 908.301,998.406 906.467,998.739 904.5,998.5C 905.035,1001.97 906.202,1004.97 908,1007.5C 906.534,1009.32 904.701,1009.82 902.5,1009C 901.167,1008 901.167,1007 902.5,1006C 900.697,1005.36 899.364,1004.2 898.5,1002.5C 896.76,1005.98 895.593,1009.65 895,1013.5C 893.626,1011.18 893.293,1008.84 894,1006.5C 892.5,1005.67 891.333,1004.5 890.5,1003C 888.866,1002.51 887.199,1002.34 885.5,1002.5C 885.167,1005.5 886.5,1006.83 889.5,1006.5C 890.833,1009.17 890.833,1011.83 889.5,1014.5C 885.944,1014.27 885.61,1015.11 888.5,1017C 888.339,1018.96 888.006,1020.96 887.5,1023C 884.943,1024.12 882.443,1024.29 880,1023.5C 880.003,1020.33 880.17,1017.17 880.5,1014C 879.667,1013.17 878.833,1012.33 878,1011.5C 877.727,1013.1 877.227,1014.6 876.5,1016C 873.548,1017.19 870.881,1018.69 868.5,1020.5C 867.588,1017.47 867.588,1014.47 868.5,1011.5C 866.828,1003.07 863.662,1002.4 859,1009.5C 856.191,1009.75 854.191,1011.09 853,1013.5C 851.026,1010.88 849.193,1011.05 847.5,1014C 845.098,1014.81 842.765,1014.65 840.5,1013.5C 841.609,1012.04 841.109,1011.04 839,1010.5C 838.517,1009.55 838.351,1008.55 838.5,1007.5C 836.04,1007.3 833.707,1006.63 831.5,1005.5C 830.833,1003.5 829.5,1002.17 827.5,1001.5C 826.534,1004.13 824.868,1006.13 822.5,1007.5C 822.931,1008.29 823.265,1009.13 823.5,1010C 822.862,1013.4 821.695,1016.57 820,1019.5C 817.936,1017.87 816.769,1015.71 816.5,1013C 817.609,1010.95 818.276,1008.79 818.5,1006.5C 816.5,1006.83 814.5,1007.17 812.5,1007.5C 812.358,1011.45 810.858,1014.78 808,1017.5C 805.495,1015.8 803.995,1013.47 803.5,1010.5C 803.55,1011.85 803.217,1013.35 802.5,1015C 800.191,1015.76 798.191,1015.26 796.5,1013.5C 793.826,1014.17 792.159,1015.84 791.5,1018.5C 788.968,1018.09 786.468,1017.75 784,1017.5C 783.908,1020.55 784.408,1023.55 785.5,1026.5C 783.364,1027.47 782.197,1029.14 782,1031.5C 781.411,1029.14 779.911,1028.14 777.5,1028.5C 777.649,1029.55 777.483,1030.55 777,1031.5C 774.438,1032.36 772.605,1034.03 771.5,1036.5C 766.813,1039.01 761.813,1040.67 756.5,1041.5C 755.197,1040.28 754.197,1040.62 753.5,1042.5C 752.313,1041.35 751.313,1041.35 750.5,1042.5C 748.988,1044.32 746.988,1045.32 744.5,1045.5C 744.367,1042.1 743.367,1041.77 741.5,1044.5C 740.749,1043.62 740.249,1042.62 740,1041.5C 739.74,1043.62 738.74,1045.28 737,1046.5C 735.66,1045.13 734.326,1043.8 733,1042.5C 731.37,1043.71 729.536,1044.55 727.5,1045C 728.563,1046.19 729.897,1046.69 731.5,1046.5C 730.805,1052.25 727.638,1055.58 722,1056.5C 720.77,1055.72 720.437,1054.72 721,1053.5C 723.179,1052.88 725.012,1051.72 726.5,1050C 724.888,1049.28 723.388,1049.45 722,1050.5C 720.991,1048.98 720.491,1047.31 720.5,1045.5C 718.42,1046.04 716.42,1046.88 714.5,1048C 716.497,1049.15 716.83,1050.65 715.5,1052.5C 714.757,1051.09 713.923,1049.76 713,1048.5C 713.046,1050.31 712.88,1051.98 712.5,1053.5C 711.268,1052.86 709.935,1052.69 708.5,1053C 707,1049.99 706.166,1050.49 706,1054.5C 703.333,1053.83 700.667,1053.17 698,1052.5C 696.915,1053.29 695.748,1053.96 694.5,1054.5C 691.673,1052.84 688.839,1051.17 686,1049.5C 685.535,1050.93 684.701,1052.1 683.5,1053C 681.048,1053.29 678.715,1053.96 676.5,1055C 677.517,1056.05 677.684,1057.22 677,1058.5C 676.333,1059.83 675.667,1059.83 675,1058.5C 674.804,1060.9 673.638,1062.57 671.5,1063.5C 669.918,1059.99 670.584,1056.99 673.5,1054.5C 674.466,1052.6 674.799,1050.6 674.5,1048.5C 672.088,1048.67 669.921,1048 668,1046.5C 666.669,1048 665.169,1049.33 663.5,1050.5C 662.232,1049.57 660.899,1049.41 659.5,1050C 660.444,1052.72 660.777,1055.55 660.5,1058.5C 658.459,1058.85 656.626,1058.85 655,1058.5C 653.8,1060.41 652.133,1061.74 650,1062.5C 649.648,1064.25 649.148,1065.91 648.5,1067.5C 647.833,1067.5 647.167,1067.5 646.5,1067.5C 646.542,1064.46 646.042,1061.46 645,1058.5C 644.524,1061.98 643.19,1064.98 641,1067.5C 639.4,1066.13 637.567,1065.13 635.5,1064.5C 634.299,1062.09 632.633,1060.09 630.5,1058.5C 629.753,1062.21 627.753,1063.21 624.5,1061.5C 623.353,1061.82 622.519,1062.48 622,1063.5C 621.439,1062.98 620.772,1062.64 620,1062.5C 616.839,1067.48 613.173,1067.81 609,1063.5C 608.873,1064.78 609.373,1065.94 610.5,1067C 609.872,1070.79 608.872,1071.12 607.5,1068C 606.234,1067.69 605.067,1067.19 604,1066.5C 604.57,1063.55 604.904,1060.55 605,1057.5C 602.838,1059.65 600.504,1059.65 598,1057.5C 597,1058.17 596,1058.83 595,1059.5C 594.764,1061.76 594.264,1063.93 593.5,1066C 586.512,1069.35 584.012,1067.19 586,1059.5C 592.133,1056.81 591.966,1054.81 585.5,1053.5C 582.293,1054.71 578.959,1055.71 575.5,1056.5C 574.917,1058 574.084,1059.33 573,1060.5C 572.586,1060.04 572.086,1059.71 571.5,1059.5C 570.197,1061.97 568.363,1063.97 566,1065.5C 563.709,1064.88 562.543,1063.38 562.5,1061C 563.267,1058.12 563.767,1055.29 564,1052.5C 560.773,1054.94 557.44,1054.94 554,1052.5C 552.579,1056.98 550.912,1061.31 549,1065.5C 545.936,1064.1 543.936,1061.77 543,1058.5C 539.965,1063.62 535.798,1065.12 530.5,1063C 527.919,1060.84 527.919,1058.67 530.5,1056.5C 528.792,1054.31 526.792,1053.98 524.5,1055.5C 523.353,1055.18 522.519,1054.52 522,1053.5C 519.878,1056.14 518.545,1059.14 518,1062.5C 516.318,1062.81 514.652,1063.14 513,1063.5C 509.822,1062.62 508.989,1060.78 510.5,1058C 509.382,1056.93 508.382,1055.76 507.5,1054.5C 506.749,1055.38 506.249,1056.38 506,1057.5C 504.934,1055.9 503.434,1054.9 501.5,1054.5C 500.702,1052.92 500.202,1051.26 500,1049.5C 499.784,1051.38 499.117,1053.05 498,1054.5C 495.012,1053.26 492.845,1054.26 491.5,1057.5C 490.719,1056.26 489.719,1055.26 488.5,1054.5C 488.167,1053.17 487.833,1051.83 487.5,1050.5C 488.405,1047.12 488.405,1043.78 487.5,1040.5C 485.625,1046.37 483.291,1052.04 480.5,1057.5C 478.778,1054.72 477.611,1051.72 477,1048.5C 476.333,1047.17 475.667,1047.17 475,1048.5C 474.581,1047.33 473.915,1046.33 473,1045.5C 472.002,1048.23 470.168,1049.9 467.5,1050.5C 467.906,1048.89 467.906,1047.56 467.5,1046.5C 465.926,1050.08 463.926,1053.41 461.5,1056.5C 459.187,1057.27 456.854,1057.94 454.5,1058.5C 453.864,1060.79 452.531,1062.46 450.5,1063.5C 449.522,1063.02 448.689,1062.36 448,1061.5C 446.562,1062.9 445.729,1064.57 445.5,1066.5C 442.722,1066.98 440.722,1065.98 439.5,1063.5C 435.847,1066.42 433.18,1065.58 431.5,1061C 433.07,1059.3 432.737,1058.46 430.5,1058.5C 428.222,1058.78 427.055,1060.11 427,1062.5C 425.812,1061.44 425.312,1060.1 425.5,1058.5C 420.58,1056.41 418.58,1058.08 419.5,1063.5C 418.178,1063.67 417.011,1063.34 416,1062.5C 416.201,1056.63 413.368,1054.3 407.5,1055.5C 408.557,1060.11 407.057,1063.44 403,1065.5C 401.78,1064.61 400.447,1063.95 399,1063.5C 396.123,1064.3 393.456,1064.3 391,1063.5C 390.785,1060.14 390.785,1056.81 391,1053.5C 388.546,1052.8 386.213,1051.8 384,1050.5C 383.086,1054.19 382.419,1053.85 382,1049.5C 377.113,1053.03 373.446,1057.37 371,1062.5C 368.833,1064 367.333,1063.5 366.5,1061C 366.903,1059.53 367.57,1058.19 368.5,1057C 367.646,1055.12 367.979,1053.29 369.5,1051.5C 368.752,1049.58 368.752,1047.58 369.5,1045.5C 367.876,1045.64 366.71,1044.97 366,1043.5C 363.867,1045.14 361.367,1045.97 358.5,1046C 361.411,1048.61 361.077,1050.78 357.5,1052.5C 355.854,1050.61 355.52,1048.61 356.5,1046.5C 355.675,1045.61 354.675,1045.28 353.5,1045.5C 354.87,1050.52 353.537,1054.68 349.5,1058C 350.517,1059.05 350.684,1060.22 350,1061.5C 349.333,1062.83 348.667,1062.83 348,1061.5C 347.417,1063 346.584,1064.33 345.5,1065.5C 343.87,1064.1 342.036,1063.1 340,1062.5C 339.289,1060.63 339.789,1059.13 341.5,1058C 339.888,1057.28 338.388,1057.45 337,1058.5C 335.681,1056.51 333.848,1055.35 331.5,1055C 330.809,1053.93 330.309,1052.77 330,1051.5C 329.009,1052.94 327.676,1053.94 326,1054.5C 324.992,1054.02 323.825,1053.85 322.5,1054C 321.783,1046.27 317.45,1041.94 309.5,1041C 308.784,1036.53 307.451,1036.37 305.5,1040.5C 306.463,1044.8 306.463,1049.13 305.5,1053.5C 302.956,1053.9 300.789,1053.23 299,1051.5C 297.806,1052.43 296.473,1053.1 295,1053.5C 292.192,1056.71 289.525,1060.04 287,1063.5C 285.477,1061.38 283.644,1061.05 281.5,1062.5C 280.813,1060.73 279.98,1059.06 279,1057.5C 277.062,1058.86 275.396,1058.53 274,1056.5C 273.517,1057.45 273.351,1058.45 273.5,1059.5C 271.857,1059.48 270.524,1060.15 269.5,1061.5C 268.614,1060.68 268.281,1059.68 268.5,1058.5C 267.07,1058.42 265.736,1058.75 264.5,1059.5C 263.571,1058.31 263.238,1056.98 263.5,1055.5C 258.684,1055.6 256.351,1053.27 256.5,1048.5C 255.5,1048.5 254.5,1048.5 253.5,1048.5C 253.762,1049.98 253.429,1051.31 252.5,1052.5C 250.195,1053.97 248.029,1055.64 246,1057.5C 244.118,1056.91 243.118,1055.57 243,1053.5C 241.173,1054.66 239.506,1054.33 238,1052.5C 235.106,1053.7 232.273,1055.03 229.5,1056.5C 228.086,1055.38 226.586,1054.38 225,1053.5C 222.315,1053.83 219.482,1053.83 216.5,1053.5C 216.5,1052.5 216.5,1051.5 216.5,1050.5C 214.8,1050.63 213.3,1051.29 212,1052.5C 209.735,1051.19 207.235,1050.52 204.5,1050.5C 204.649,1049.45 204.483,1048.45 204,1047.5C 203.558,1049.68 202.558,1050.35 201,1049.5C 199.498,1047.21 199.332,1044.87 200.5,1042.5C 199.809,1040.11 198.809,1040.11 197.5,1042.5C 194.856,1038.88 193.023,1034.88 192,1030.5C 188.804,1031.51 185.637,1032.68 182.5,1034C 183.902,1035.34 183.569,1036.18 181.5,1036.5C 180.833,1036.33 180.167,1036.17 179.5,1036C 178.221,1034.35 176.555,1033.19 174.5,1032.5C 175.734,1030.6 175.401,1028.94 173.5,1027.5C 175.31,1027.58 176.644,1026.41 177.5,1024C 174.031,1022.27 170.364,1021.1 166.5,1020.5C 166.5,1018.5 166.5,1016.5 166.5,1014.5C 164.533,1014.26 162.699,1014.59 161,1015.5C 160.535,1016.93 159.701,1018.1 158.5,1019C 159.337,1020.01 159.67,1021.18 159.5,1022.5C 155.788,1021.69 152.121,1020.69 148.5,1019.5C 143.766,1016.02 138.599,1013.36 133,1011.5C 128.839,1011.5 128.339,1012.83 131.5,1015.5C 129.394,1019.46 128.061,1019.13 127.5,1014.5C 128.501,1010.85 129.001,1007.18 129,1003.5C 126.959,1002.58 124.792,1002.24 122.5,1002.5C 121.925,1006.47 119.758,1007.47 116,1005.5C 115.572,1002.93 115.906,1000.59 117,998.5C 116.333,999.833 115.667,999.833 115,998.5C 114.517,999.448 114.351,1000.45 114.5,1001.5C 111.262,1000.61 108.095,1000.61 105,1001.5C 104.261,999.779 103.427,998.113 102.5,996.5C 101.833,997.167 101.167,997.833 100.5,998.5C 98.8233,993.826 95.49,991.493 90.5,991.5C 89.5485,987.404 88.3818,983.404 87,979.5C 85.951,981.107 84.451,981.773 82.5,981.5C 82.4042,985.311 81.7376,985.311 80.5,981.5C 76.7462,986.939 75.2462,986.272 76,979.5C 76.8333,978.667 77.6667,977.833 78.5,977C 76.0807,975.491 75.0807,973.325 75.5,970.5C 72.1909,970.308 69.6909,971.641 68,974.5C 67.7216,973.584 67.2216,972.918 66.5,972.5C 66.0629,970.926 65.0629,969.759 63.5,969C 62.5509,968.383 61.7175,968.549 61,969.5C 58.8566,966.788 56.19,964.788 53,963.5C 51.1082,966.39 50.2749,966.056 50.5,962.5C 49.5,962.5 48.5,962.5 47.5,962.5C 47.0847,960.253 46.4181,958.086 45.5,956C 45.7065,954.634 46.0398,953.301 46.5,952C 45.2026,949.275 44.2026,946.441 43.5,943.5C 43.9186,942.328 44.5853,941.328 45.5,940.5C 43.8953,937.42 44.562,934.92 47.5,933C 46.8627,929.865 47.5294,926.865 49.5,924C 48.8333,923 48.1667,922 47.5,921C 47.8679,918.967 47.8679,916.8 47.5,914.5C 48.0402,913.252 48.7069,912.085 49.5,911C 45.9838,907.838 45.8171,904.672 49,901.5C 49.2492,902.624 49.7492,903.624 50.5,904.5C 51.355,902.392 52.0216,900.226 52.5,898C 50.6068,895.046 49.1068,891.879 48,888.5C 46.9505,889.517 45.7839,889.684 44.5,889C 42.9808,887.782 41.8141,886.282 41,884.5C 40.3333,885.833 39.6667,885.833 39,884.5C 39.9044,881.974 40.2377,879.308 40,876.5C 38.8647,876.273 37.698,875.94 36.5,875.5C 38.4899,874.127 40.6566,873.127 43,872.5C 44.1332,874.211 45.6332,874.711 47.5,874C 46.1667,871.667 46.1667,869.333 47.5,867C 52.636,864.545 57.9694,862.545 63.5,861C 64.3757,859.415 65.7091,858.415 67.5,858C 62.8376,854.018 62.5043,849.518 66.5,844.5C 63.3158,840.412 63.9824,837.245 68.5,835C 67.4464,833.612 67.2797,832.112 68,830.5C 68.7412,829.359 69.5745,829.359 70.5,830.5C 71.2978,828.922 71.7978,827.256 72,825.5C 73.8994,824.962 76.066,824.295 78.5,823.5C 77.6885,827.55 79.1885,830.216 83,831.5C 83.3603,829.579 84.1936,827.912 85.5,826.5C 89.8364,830.002 94.5031,833.002 99.5,835.5C 101.833,832.5 104.5,829.833 107.5,827.5C 108.396,824.856 109.229,822.19 110,819.5C 114.274,816.558 117.441,817.558 119.5,822.5C 118.391,823.965 118.891,824.965 121,825.5C 122.96,822.382 124.627,819.049 126,815.5C 126.308,816.308 126.808,816.975 127.5,817.5C 128.823,815.318 130.49,814.651 132.5,815.5C 134.605,814.101 136.438,812.434 138,810.5C 138.324,812.569 139.158,812.902 140.5,811.5C 141.167,810.5 141.833,809.5 142.5,808.5C 144.396,811.336 146.896,813.336 150,814.5C 151.922,809.527 154.589,809.193 158,813.5C 159.059,807.709 161.892,803.043 166.5,799.5C 167.442,799.608 168.275,799.941 169,800.5C 169.626,802.713 169.459,804.88 168.5,807C 169.098,808.301 170.098,809.135 171.5,809.5C 173.371,808.233 175.204,808.233 177,809.5C 178.588,803.224 180.922,802.891 184,808.5C 184.687,805.574 186.52,804.241 189.5,804.5C 190.342,808.327 190.342,811.994 189.5,815.5C 191.47,814.557 192.97,815.224 194,817.5C 194.465,816.069 195.299,814.903 196.5,814C 193.198,810.932 192.864,807.432 195.5,803.5C 194.04,800.712 194.707,798.545 197.5,797C 196.663,795.989 196.33,794.822 196.5,793.5C 200.888,793.305 204.888,791.972 208.5,789.5C 209.333,790.5 210.167,791.5 211,792.5C 212,791.167 213,791.167 214,792.5C 214.323,795.141 215.323,797.475 217,799.5C 219.072,796.906 221.239,796.906 223.5,799.5C 223.833,799.167 224.167,798.833 224.5,798.5C 221.693,794.664 221.86,790.997 225,787.5C 228.866,789.76 229.366,792.594 226.5,796C 227.025,796.692 227.692,797.192 228.5,797.5C 230.167,796.667 231.833,795.833 233.5,795C 231.637,793.582 231.137,791.749 232,789.5C 234.148,788.023 235.482,786.023 236,783.5C 236.956,784.579 237.789,785.745 238.5,787C 239.332,787.688 239.998,787.521 240.5,786.5C 240.735,757.282 244.735,728.615 252.5,700.5C 254.472,697.916 255.472,694.916 255.5,691.5C 256.5,690.167 257.5,688.833 258.5,687.5C 259.783,684.024 262.117,683.024 265.5,684.5C 257.342,708.139 252.509,732.473 251,757.5C 248.751,785.201 249.084,812.868 252,840.5C 252.615,846.412 253.782,852.079 255.5,857.5C 255.874,862.325 256.874,866.992 258.5,871.5C 260.361,878.583 262.528,885.583 265,892.5C 279.259,905.046 295.759,912.88 314.5,916C 339.241,919.985 364.075,923.152 389,925.5C 391.98,922.525 395.48,920.359 399.5,919C 426.353,916.87 452.02,910.203 476.5,899C 483.465,895.348 490.465,892.015 497.5,889C 504.256,882.248 510.256,874.914 515.5,867C 518.695,866.819 521.695,866.319 524.5,865.5C 526.379,864.659 528.379,864.325 530.5,864.5C 541.042,864.736 551.376,864.07 561.5,862.5C 564.833,862.5 568.167,862.5 571.5,862.5C 577.176,862.666 582.843,862.499 588.5,862C 592.465,861.892 596.132,861.059 599.5,859.5C 631.395,853.035 662.062,842.868 691.5,829C 695.647,826.02 699.314,822.52 702.5,818.5C 702.911,819.262 703.077,820.262 703,821.5C 714.858,810.495 727.358,800.328 740.5,791C 755.755,777.414 769.921,762.914 783,747.5C 790.12,737.549 796.62,727.216 802.5,716.5C 810.613,699.764 813.78,682.098 812,663.5C 807.106,632.321 798.273,602.321 785.5,573.5C 775.091,546.023 763.091,519.357 749.5,493.5C 748.391,492.71 747.058,492.21 745.5,492C 746.381,491.292 747.047,490.458 747.5,489.5C 758.943,481.6 770.276,473.433 781.5,465C 795.97,453.201 807.47,439.034 816,422.5C 818.93,414.7 822.43,407.2 826.5,400C 829.733,388.739 831.4,377.239 831.5,365.5C 832.421,365.93 832.921,367.264 833,369.5C 833.186,366.964 833.686,364.631 834.5,362.5 Z M 176.5,815.5 C 177.251,814.427 178.251,814.26 179.5,815C 178.648,816.728 177.648,816.895 176.5,815.5 Z M 75.5,827.5 C 78.1247,828.466 78.1247,829.466 75.5,830.5C 74.4376,829.575 74.4376,828.575 75.5,827.5 Z M 48.5,885.5 C 51.0009,885.511 51.1676,886.178 49,887.5C 48.5357,886.906 48.369,886.239 48.5,885.5 Z M 932.5,902.5 C 934.465,902.948 934.798,903.948 933.5,905.5C 932.614,904.675 932.281,903.675 932.5,902.5 Z M 778.5,1019.5 C 780.337,1019.64 780.67,1020.31 779.5,1021.5C 778.702,1021.04 778.369,1020.38 778.5,1019.5 Z M 450.5,1052.5 C 450.517,1050.97 451.184,1050.47 452.5,1051C 451.956,1051.72 451.289,1052.22 450.5,1052.5 Z M 631.5,1055.5 C 632.077,1054.23 632.743,1054.23 633.5,1055.5C 633.03,1056.46 632.363,1056.46 631.5,1055.5 Z M 401.5,1055.5 C 403.973,1055.95 404.14,1056.95 402,1058.5C 401.517,1057.55 401.351,1056.55 401.5,1055.5 Z"/></g>
<g><path style="opacity:0.894" fill="#979797" d="M 204.5,389.5 C 204.027,390.906 203.027,391.573 201.5,391.5C 201.973,390.094 202.973,389.427 204.5,389.5 Z"/></g>
<g><path style="opacity:1" fill="#828282" d="M 197.5,393.5 C 196.817,395.176 195.483,395.843 193.5,395.5C 194.514,394.326 195.847,393.66 197.5,393.5 Z"/></g>
<g><path style="opacity:0.98" fill="#c0c0c0" d="M 193.5,395.5 C 190.748,397.874 187.748,398.541 184.5,397.5C 187.5,396.833 190.5,396.167 193.5,395.5 Z"/></g>
<g><path style="opacity:1" fill="#e2e2e2" d="M 458.5,503.5 C 462.502,505.61 466.835,506.943 471.5,507.5C 475.239,509.102 479.239,510.102 483.5,510.5C 483.611,511.117 483.944,511.617 484.5,512C 492.422,513.632 500.422,514.465 508.5,514.5C 513.957,514.245 519.29,514.912 524.5,516.5C 561.022,547.543 602.688,557.043 649.5,545C 679.32,536.168 707.654,523.835 734.5,508C 738.57,503.862 741.903,499.195 744.5,494C 746.134,493.506 747.801,493.34 749.5,493.5C 763.091,519.357 775.091,546.023 785.5,573.5C 784.504,573.586 783.671,573.252 783,572.5C 779.546,564.806 775.713,557.306 771.5,550C 764.704,547.778 757.704,546.945 750.5,547.5C 739.239,570.925 721.572,587.759 697.5,598C 685.372,609.228 671.039,615.895 654.5,618C 636.838,618.929 619.171,619.262 601.5,619C 585.121,616.828 569.121,613.161 553.5,608C 537.679,601.002 523.846,591.169 512,578.5C 507.5,572 503,565.5 498.5,559C 492.252,559.842 485.919,560.508 479.5,561C 475.681,562.718 471.681,564.051 467.5,565C 451.152,567.79 435.819,565.123 421.5,557C 416.031,553.697 410.698,550.197 405.5,546.5C 395.917,549.972 386.25,553.139 376.5,556C 369.105,558.531 362.105,561.864 355.5,566C 352.333,569.833 349.167,573.667 346,577.5C 333.925,598.318 324.592,620.318 318,643.5C 317.333,646.167 317.333,648.833 318,651.5C 324.677,668.649 332.844,684.982 342.5,700.5C 333.156,697.16 323.823,693.826 314.5,690.5C 297.464,680.283 278.964,675.616 259,676.5C 251.5,661.254 249.5,645.254 253,628.5C 255.336,617.488 257.669,606.488 260,595.5C 267.913,591.461 275.746,587.294 283.5,583C 329.043,554.087 351.709,512.587 351.5,458.5C 353.02,456.11 354.02,453.443 354.5,450.5C 360.657,434.856 364.157,418.523 365,401.5C 375.478,426.479 389.478,449.146 407,469.5C 421.695,484.716 438.862,496.05 458.5,503.5 Z"/></g>
<g><path style="opacity:1" fill="#e0e0e0" d="M 528.5,454.5 C 526.656,455.204 526.156,456.537 527,458.5C 534.845,472.178 546.345,477.178 561.5,473.5C 559.479,475.032 557.979,477.032 557,479.5C 557.018,486.454 554.518,492.288 549.5,497C 545.097,501.148 540.431,501.481 535.5,498C 522.429,485.231 516.929,469.731 519,451.5C 519.739,450.426 520.739,449.759 522,449.5C 523.768,451.726 525.935,453.393 528.5,454.5 Z"/></g>
<g><path style="opacity:0.501" fill="#f4f4f4" d="M 75.5,454.5 C 74.9464,458.055 72.9464,460.388 69.5,461.5C 71.5293,459.142 73.5293,456.808 75.5,454.5 Z"/></g>
<g><path style="opacity:1" fill="#121212" d="M 528.5,454.5 C 534.387,459.197 540.72,463.363 547.5,467C 552.833,467.667 558.167,467.667 563.5,467C 564.424,465.511 565.424,465.344 566.5,466.5C 564.42,468.573 562.754,470.907 561.5,473.5C 546.345,477.178 534.845,472.178 527,458.5C 526.156,456.537 526.656,455.204 528.5,454.5 Z"/></g>
<g><path style="opacity:1" fill="#1e1e1e" d="M 799.5,489.5 C 800.1,490.9 801.1,491.9 802.5,492.5C 801.189,495.415 801.856,497.915 804.5,500C 815.192,507.345 826.192,514.179 837.5,520.5C 828.749,521.961 821.249,525.961 815,532.5C 814.459,536.662 813.959,540.828 813.5,545C 814.668,575.202 816.501,605.369 819,635.5C 820.947,639.276 823.447,642.61 826.5,645.5C 824.983,645.489 823.816,644.823 823,643.5C 822.957,649.104 823.79,654.604 825.5,660C 824.697,662.783 823.197,662.949 821,660.5C 818.788,647.318 815.788,634.318 812,621.5C 797.378,577.46 779.544,534.793 758.5,493.5C 763.167,490.167 767.833,486.833 772.5,483.5C 772.663,489.192 775.33,490.859 780.5,488.5C 779.42,486.004 778.086,483.67 776.5,481.5C 778.549,478.45 781.216,476.117 784.5,474.5C 788.734,480.909 793.567,486.909 799,492.5C 799.483,491.552 799.649,490.552 799.5,489.5 Z"/></g>
<g><path style="opacity:0.5" fill="#e5e5e5" d="M 798.5,485.5 C 801.5,487.833 804.167,490.5 806.5,493.5C 805.167,493.167 803.833,492.833 802.5,492.5C 801.1,491.9 800.1,490.9 799.5,489.5C 799.167,488.167 798.833,486.833 798.5,485.5 Z"/></g>
<g><path style="opacity:1" fill="#111111" d="M 747.5,489.5 C 747.047,490.458 746.381,491.292 745.5,492C 747.058,492.21 748.391,492.71 749.5,493.5C 747.801,493.34 746.134,493.506 744.5,494C 741.903,499.195 738.57,503.862 734.5,508C 707.654,523.835 679.32,536.168 649.5,545C 602.688,557.043 561.022,547.543 524.5,516.5C 519.29,514.912 513.957,514.245 508.5,514.5C 508.5,514.167 508.5,513.833 508.5,513.5C 509.873,513.657 511.207,513.49 512.5,513C 511.944,512.617 511.611,512.117 511.5,511.5C 514.406,512.751 517.406,513.251 520.5,513C 517.874,509.9 515.541,506.733 513.5,503.5C 514.552,503.351 515.552,503.517 516.5,504C 521.833,508 527.167,512 532.5,516C 534.134,516.494 535.801,516.66 537.5,516.5C 537.281,517.675 537.614,518.675 538.5,519.5C 563.718,534.612 591.052,541.612 620.5,540.5C 625.731,540.556 630.731,539.889 635.5,538.5C 645.104,536.421 654.771,534.087 664.5,531.5C 668.936,530.586 672.936,528.919 676.5,526.5C 701.327,516.327 724.994,503.993 747.5,489.5 Z"/></g>
<g><path style="opacity:0.012" fill="#cecece" d="M 806.5,493.5 C 808.404,493.738 809.738,494.738 810.5,496.5C 808.596,496.262 807.262,495.262 806.5,493.5 Z"/></g>
<g><path style="opacity:1" fill="#6a6a6a" d="M 812.5,497.5 C 814.882,498.351 816.882,499.684 818.5,501.5C 815.733,501.13 813.733,499.796 812.5,497.5 Z"/></g>
<g><path style="opacity:1" fill="#838383" d="M 479.5,502.5 C 483.162,502.723 486.495,503.723 489.5,505.5C 485.838,505.277 482.505,504.277 479.5,502.5 Z"/></g>
<g><path style="opacity:1" fill="#565656" d="M 458.5,503.5 C 463.165,504.057 467.498,505.39 471.5,507.5C 466.835,506.943 462.502,505.61 458.5,503.5 Z"/></g>
<g><path style="opacity:0.914" fill="#c0c0c0" d="M 45.5,503.5 C 45.5,504.833 45.5,506.167 45.5,507.5C 44.209,507.737 43.209,507.404 42.5,506.5C 43.8999,505.9 44.8999,504.9 45.5,503.5 Z"/></g>
<g><path style="opacity:0.424" fill="#777777" d="M 825.5,505.5 C 827.027,505.427 828.027,506.094 828.5,507.5C 826.973,507.573 825.973,506.906 825.5,505.5 Z"/></g>
<g><path style="opacity:1" fill="#a3a3a3" d="M 483.5,510.5 C 491.718,512.34 500.051,513.34 508.5,513.5C 508.5,513.833 508.5,514.167 508.5,514.5C 500.422,514.465 492.422,513.632 484.5,512C 483.944,511.617 483.611,511.117 483.5,510.5 Z"/></g>
<g><path style="opacity:1" fill="#1e1e1e" d="M 113.5,597.5 C 96.1593,606.961 78.826,606.794 61.5,597C 40.5057,575.921 31.6723,550.421 35,520.5C 35.662,518.187 36.162,515.854 36.5,513.5C 38.8862,512.702 41.2195,511.702 43.5,510.5C 43.3772,543.082 55.3772,570.249 79.5,592C 87.1033,598.2 95.7699,600.533 105.5,599C 108.249,597.877 110.749,596.377 113,594.5C 113.483,595.448 113.649,596.448 113.5,597.5 Z"/></g>
<g><path style="opacity:1" fill="#2a2a2a" d="M 36.5,513.5 C 36.162,515.854 35.662,518.187 35,520.5C 31.6723,550.421 40.5057,575.921 61.5,597C 78.826,606.794 96.1593,606.961 113.5,597.5C 114.378,600.761 115.044,604.094 115.5,607.5C 84.4313,618.658 57.2647,612.324 34,588.5C 22.8941,573.781 15.7275,557.281 12.5,539C 13.0364,535.093 14.5364,531.593 17,528.5C 22.2587,521.724 28.7587,516.724 36.5,513.5 Z"/></g>
<g><path style="opacity:1" fill="#1d1d1d" d="M 119.5,518.5 C 123.138,529.792 126.804,541.125 130.5,552.5C 127.925,555.936 125.092,559.27 122,562.5C 116.959,570.453 113.793,579.12 112.5,588.5C 104.866,592.133 97.1991,592.3 89.5,589C 79.908,582.577 72.2413,574.41 66.5,564.5C 74.86,569.559 82.0266,568.226 88,560.5C 90.3068,554.608 92.3068,548.608 94,542.5C 97.2698,536.236 100.936,530.236 105,524.5C 107.592,521.238 110.759,518.738 114.5,517C 116.495,516.387 118.162,516.887 119.5,518.5 Z"/></g>
<g><path style="opacity:1" fill="#2a2a2a" d="M 837.5,520.5 C 863.109,533.304 888.776,546.138 914.5,559C 939.142,571.978 958.975,590.144 974,613.5C 974.908,618.689 974.408,623.689 972.5,628.5C 966.039,633.791 959.705,639.291 953.5,645C 944.231,648.896 934.564,650.563 924.5,650C 920.479,648.132 918.313,644.965 918,640.5C 917.501,636.514 917.334,632.514 917.5,628.5C 919.771,626.734 921.937,624.734 924,622.5C 925.539,618.26 924.206,615.593 920,614.5C 919.717,616.909 918.217,619.075 915.5,621C 909.764,623.907 904.764,627.74 900.5,632.5C 899.224,633.645 897.891,633.645 896.5,632.5C 895.34,636.459 895.173,640.459 896,644.5C 903.084,656.341 908.251,669.008 911.5,682.5C 908.846,697.481 899.846,705.481 884.5,706.5C 874.292,705.854 864.625,703.854 855.5,700.5C 856.833,700.5 858.167,700.5 859.5,700.5C 859.509,698.692 859.009,697.025 858,695.5C 852.42,688.008 847.087,680.341 842,672.5C 838.471,664.246 835.138,655.913 832,647.5C 830.416,646.139 828.582,645.472 826.5,645.5C 823.447,642.61 820.947,639.276 819,635.5C 816.501,605.369 814.668,575.202 813.5,545C 813.959,540.828 814.459,536.662 815,532.5C 821.249,525.961 828.749,521.961 837.5,520.5 Z"/></g>
<g><path style="opacity:1" fill="#1e1e1e" d="M 126.5,521.5 C 131.277,524.06 135.944,526.893 140.5,530C 149.138,537.961 149.804,546.461 142.5,555.5C 142.649,554.448 142.483,553.448 142,552.5C 140.197,551.687 138.697,550.52 137.5,549C 134.233,539.639 130.566,530.472 126.5,521.5 Z"/></g>
<g><path style="opacity:1" fill="#565656" d="M 676.5,526.5 C 672.936,528.919 668.936,530.586 664.5,531.5C 668.064,529.081 672.064,527.414 676.5,526.5 Z"/></g>
<g><path style="opacity:1" fill="#5d5d5d" d="M 635.5,538.5 C 630.731,539.889 625.731,540.556 620.5,540.5C 625.269,539.111 630.269,538.444 635.5,538.5 Z"/></g>
<g><path style="opacity:1" fill="#fefefe" d="M 785.5,573.5 C 798.273,602.321 807.106,632.321 812,663.5C 813.78,682.098 810.613,699.764 802.5,716.5C 791.049,727.789 780.049,739.623 769.5,752C 762.206,757.626 755.206,763.626 748.5,770C 728.844,783.83 708.844,797.163 688.5,810C 662.201,822.824 634.534,830.824 605.5,834C 591.018,839.685 576.018,841.685 560.5,840C 544.981,835.801 529.314,832.134 513.5,829C 510.209,827.403 506.875,825.903 503.5,824.5C 490.208,807.874 474.542,794.04 456.5,783C 455.552,782.517 454.552,782.351 453.5,782.5C 450.167,779.5 446.833,776.5 443.5,773.5C 417.542,751.382 390.542,730.549 362.5,711C 359.022,709.76 355.689,708.26 352.5,706.5C 349.131,704.485 345.798,702.485 342.5,700.5C 332.844,684.982 324.677,668.649 318,651.5C 317.333,648.833 317.333,646.167 318,643.5C 324.592,620.318 333.925,598.318 346,577.5C 349.167,573.667 352.333,569.833 355.5,566C 362.105,561.864 369.105,558.531 376.5,556C 386.25,553.139 395.917,549.972 405.5,546.5C 410.698,550.197 416.031,553.697 421.5,557C 435.819,565.123 451.152,567.79 467.5,565C 471.681,564.051 475.681,562.718 479.5,561C 485.919,560.508 492.252,559.842 498.5,559C 503,565.5 507.5,572 512,578.5C 523.846,591.169 537.679,601.002 553.5,608C 569.121,613.161 585.121,616.828 601.5,619C 619.171,619.262 636.838,618.929 654.5,618C 671.039,615.895 685.372,609.228 697.5,598C 721.572,587.759 739.239,570.925 750.5,547.5C 757.704,546.945 764.704,547.778 771.5,550C 775.713,557.306 779.546,564.806 783,572.5C 783.671,573.252 784.504,573.586 785.5,573.5 Z"/></g>
<g><path style="opacity:0.035" fill="#595959" d="M 13.5,569.5 C 15.6246,572.088 16.9579,575.088 17.5,578.5C 15.3754,575.912 14.0421,572.912 13.5,569.5 Z"/></g>
<g><path style="opacity:0.094" fill="#c6c6c6" d="M 26.5,592.5 C 28.5195,593.538 28.8528,594.872 27.5,596.5C 27.1667,595.167 26.8333,593.833 26.5,592.5 Z"/></g>
<g><path style="opacity:1" fill="#1d1d1d" d="M 84.5,637.5 C 84.1614,634.331 82.4948,632.164 79.5,631C 72.5,630 65.5,629 58.5,628C 46.9604,625.01 37.627,618.843 30.5,609.5C 30.7837,606.148 31.9504,603.148 34,600.5C 53.1211,616.873 75.2878,624.04 100.5,622C 105.28,620.444 109.613,618.111 113.5,615C 118.731,614.332 122.064,616.665 123.5,622C 122.047,625.784 119.547,628.618 116,630.5C 113.88,629.541 111.713,629.374 109.5,630C 101.086,632.352 92.7526,634.852 84.5,637.5 Z"/></g>
<g><path style="opacity:0.776" fill="#b3b3b3" d="M 968.5,597.5 C 970.833,599.167 972.833,601.167 974.5,603.5C 971.5,602.5 969.5,600.5 968.5,597.5 Z"/></g>
<g><path style="opacity:1" fill="#2a2a2a" d="M 30.5,609.5 C 37.627,618.843 46.9604,625.01 58.5,628C 65.5,629 72.5,630 79.5,631C 82.4948,632.164 84.1614,634.331 84.5,637.5C 65.4272,644.086 48.5939,640.42 34,626.5C 30.5534,621.098 29.3867,615.431 30.5,609.5 Z"/></g>
<g><path style="opacity:0.969" fill="#8d8d8d" d="M 248.5,608.5 C 248.435,611.428 247.768,614.095 246.5,616.5C 246.294,613.505 246.96,610.838 248.5,608.5 Z"/></g>
<g><path style="opacity:0.325" fill="#e0e0e0" d="M 182.5,616.5 C 180.151,618.341 177.485,619.674 174.5,620.5C 176.073,617.107 178.74,615.774 182.5,616.5 Z"/></g>
<g><path style="opacity:0.451" fill="#e9e9e9" d="M 23.5,623.5 C 25.1581,626.088 26.8248,628.755 28.5,631.5C 24.4273,630.413 22.7606,627.746 23.5,623.5 Z"/></g>
<g><path style="opacity:0.749" fill="#e6e6e6" d="M 131.5,628.5 C 130.391,628.557 129.391,628.89 128.5,629.5C 128.694,625.995 129.694,625.662 131.5,628.5 Z"/></g>
<g><path style="opacity:1" fill="#787878" d="M 245.5,621.5 C 245.556,626.731 244.889,631.731 243.5,636.5C 243.302,631.25 243.969,626.25 245.5,621.5 Z"/></g>
<g><path style="opacity:1" fill="#1d1d1d" d="M 917.5,628.5 C 917.334,632.514 917.501,636.514 918,640.5C 918.313,644.965 920.479,648.132 924.5,650C 934.564,650.563 944.231,648.896 953.5,645C 959.705,639.291 966.039,633.791 972.5,628.5C 971.299,632.263 969.799,635.93 968,639.5C 955.552,658.116 939.719,673.116 920.5,684.5C 919.703,680.158 918.87,675.824 918,671.5C 913.205,661.729 908.038,652.229 902.5,643C 902.951,640.432 903.951,638.098 905.5,636C 909.385,633.275 913.385,630.775 917.5,628.5 Z"/></g>
<g><path style="opacity:0.624" fill="#bebebe" d="M 119.5,634.5 C 118.391,634.557 117.391,634.89 116.5,635.5C 115.957,635.44 115.624,635.107 115.5,634.5C 116.958,633.218 118.292,633.218 119.5,634.5 Z"/></g>
<g><path style="opacity:0.502" fill="#e7e7e7" d="M 981.5,630.5 C 980.771,635.13 980.437,639.797 980.5,644.5C 979.275,643.063 978.275,641.396 977.5,639.5C 978.609,636.292 979.942,633.292 981.5,630.5 Z"/></g>
<g><path style="opacity:1" fill="#1d1d1d" d="M 826.5,645.5 C 828.582,645.472 830.416,646.139 832,647.5C 835.138,655.913 838.471,664.246 842,672.5C 847.087,680.341 852.42,688.008 858,695.5C 859.009,697.025 859.509,698.692 859.5,700.5C 858.167,700.5 856.833,700.5 855.5,700.5C 852.944,699.457 850.777,697.79 849,695.5C 839.117,681.438 832.617,666.271 829.5,650C 828.992,648.107 827.992,646.607 826.5,645.5 Z"/></g>
<g><path style="opacity:1" fill="#292929" d="M 958.5,682.5 C 957.849,681.909 957.182,681.243 956.5,680.5C 950.785,682.609 944.952,684.276 939,685.5C 936.123,685.563 935.289,684.563 936.5,682.5C 951.027,674.476 962.86,663.476 972,649.5C 970.834,661.836 966.334,672.836 958.5,682.5 Z"/></g>
<g><path style="opacity:0.194" fill="#cacaca" d="M 827.5,671.5 C 825.5,670.833 823.5,670.167 821.5,669.5C 821.062,669.565 820.728,669.399 820.5,669C 822.845,668.83 825.179,669.163 827.5,670C 828.738,670.69 828.738,671.19 827.5,671.5 Z"/></g>
<g><path style="opacity:1" fill="#1d1d1d" d="M 958.5,682.5 C 953.296,688.871 947.296,694.371 940.5,699C 933.096,702.675 925.429,703.341 917.5,701C 916.09,700.632 915.09,699.799 914.5,698.5C 916.42,695.661 918.087,692.661 919.5,689.5C 925.314,687.423 930.98,685.09 936.5,682.5C 935.289,684.563 936.123,685.563 939,685.5C 944.952,684.276 950.785,682.609 956.5,680.5C 957.182,681.243 957.849,681.909 958.5,682.5 Z"/></g>
<g><path style="opacity:1" fill="#1e1e1e" d="M 325.5,710.5 C 313.428,711.01 301.428,712.51 289.5,715C 280.206,717.22 272.706,722.053 267,729.5C 255.629,760.497 250.962,792.497 253,825.5C 253.424,836.206 254.257,846.873 255.5,857.5C 253.782,852.079 252.615,846.412 252,840.5C 249.084,812.868 248.751,785.201 251,757.5C 252.509,732.473 257.342,708.139 265.5,684.5C 288.949,684.884 308.949,693.55 325.5,710.5 Z"/></g>
<g><path style="opacity:0.315" fill="#e9e9e9" d="M 256.5,682.5 C 258.213,683.635 258.88,685.302 258.5,687.5C 257.5,688.833 256.5,690.167 255.5,691.5C 255.704,688.482 256.037,685.482 256.5,682.5 Z"/></g>
<g><path style="opacity:1" fill="#1f1f1f" d="M 314.5,690.5 C 323.823,693.826 333.156,697.16 342.5,700.5C 345.798,702.485 349.131,704.485 352.5,706.5C 351.993,707.859 350.993,708.859 349.5,709.5C 351.316,711.817 353.316,713.984 355.5,716C 354.234,716.309 353.067,716.809 352,717.5C 346.541,716.02 341.374,713.853 336.5,711C 333.854,710.503 331.187,710.336 328.5,710.5C 324.976,702.985 320.309,696.319 314.5,690.5 Z"/></g>
<g><path style="opacity:0.671" fill="#5b5b5b" d="M 255.5,691.5 C 255.472,694.916 254.472,697.916 252.5,700.5C 252.928,697.215 253.928,694.215 255.5,691.5 Z"/></g>
<g><path style="opacity:0.29" fill="#6e6e6e" d="M 909.5,707.5 C 908.391,707.557 907.391,707.89 906.5,708.5C 905.262,708.19 905.262,707.69 906.5,707C 908.212,705.249 910.212,704.582 912.5,705C 911.058,705.377 910.058,706.21 909.5,707.5 Z"/></g>
<g><path style="opacity:1" fill="#2b2b2b" d="M 352.5,706.5 C 355.689,708.26 359.022,709.76 362.5,711C 390.542,730.549 417.542,751.382 443.5,773.5C 442.233,772.913 441.233,772.913 440.5,773.5C 446.375,781.254 451.209,789.587 455,798.5C 462.696,822.776 462.696,847.109 455,871.5C 451.438,880.131 446.271,887.631 439.5,894C 437.913,894.862 436.246,895.529 434.5,896C 435.833,896.333 437.167,896.667 438.5,897C 431.184,901.159 423.517,904.492 415.5,907C 409.167,907.086 402.834,908.086 396.5,910C 388.417,910.345 380.417,911.345 372.5,913C 356.823,912.523 341.157,911.523 325.5,910C 312.717,907.296 300.717,902.629 289.5,896C 278.717,888.381 268.383,880.214 258.5,871.5C 256.874,866.992 255.874,862.325 255.5,857.5C 254.257,846.873 253.424,836.206 253,825.5C 250.962,792.497 255.629,760.497 267,729.5C 272.706,722.053 280.206,717.22 289.5,715C 301.428,712.51 313.428,711.01 325.5,710.5C 327.064,713.274 328.897,715.941 331,718.5C 330.509,715.819 329.676,713.153 328.5,710.5C 331.187,710.336 333.854,710.503 336.5,711C 341.374,713.853 346.541,716.02 352,717.5C 353.067,716.809 354.234,716.309 355.5,716C 353.316,713.984 351.316,711.817 349.5,709.5C 350.993,708.859 351.993,707.859 352.5,706.5 Z"/></g>
<g><path style="opacity:1" fill="#e1e1e1" d="M 802.5,716.5 C 796.62,727.216 790.12,737.549 783,747.5C 769.921,762.914 755.755,777.414 740.5,791C 727.358,800.328 714.858,810.495 703,821.5C 703.077,820.262 702.911,819.262 702.5,818.5C 699.314,822.52 695.647,826.02 691.5,829C 662.062,842.868 631.395,853.035 599.5,859.5C 590.042,860.668 580.709,861.668 571.5,862.5C 568.167,862.5 564.833,862.5 561.5,862.5C 550.958,862.264 540.624,862.93 530.5,864.5C 528.379,864.325 526.379,864.659 524.5,865.5C 522.448,864.29 520.282,863.29 518,862.5C 516.635,862.844 515.468,863.511 514.5,864.5C 513.92,861.553 512.92,858.886 511.5,856.5C 507.199,842.697 499.199,831.53 487.5,823C 486.207,822.51 484.873,822.343 483.5,822.5C 474.654,808.318 464.654,794.985 453.5,782.5C 454.552,782.351 455.552,782.517 456.5,783C 474.542,794.04 490.208,807.874 503.5,824.5C 506.875,825.903 510.209,827.403 513.5,829C 529.314,832.134 544.981,835.801 560.5,840C 576.018,841.685 591.018,839.685 605.5,834C 634.534,830.824 662.201,822.824 688.5,810C 708.844,797.163 728.844,783.83 748.5,770C 755.206,763.626 762.206,757.626 769.5,752C 780.049,739.623 791.049,727.789 802.5,716.5 Z"/></g>
<g><path style="opacity:1" fill="#1d1d1d" d="M 722.5,892.5 C 721.811,890.169 722.644,888.169 725,886.5C 736.992,865.483 730.992,853.15 707,849.5C 683.51,855.107 660.343,861.94 637.5,870C 623.896,871.895 614.063,879.061 608,891.5C 607.506,893.134 607.34,894.801 607.5,896.5C 601.382,888.169 597.382,878.836 595.5,868.5C 625.805,864.454 654.471,855.287 681.5,841C 694.321,831.084 707.988,822.418 722.5,815C 748.228,797.272 770.728,776.105 790,751.5C 790.553,772.285 786.219,791.952 777,810.5C 763.029,840.821 744.862,868.154 722.5,892.5 Z"/></g>
<g><path style="opacity:1" fill="#1e1e1e" d="M 443.5,773.5 C 446.833,776.5 450.167,779.5 453.5,782.5C 464.654,794.985 474.654,808.318 483.5,822.5C 483.351,823.552 483.517,824.552 484,825.5C 497.077,836.667 506.41,850.334 512,866.5C 512.388,863.151 512.221,859.817 511.5,856.5C 512.92,858.886 513.92,861.553 514.5,864.5C 515.468,863.511 516.635,862.844 518,862.5C 520.282,863.29 522.448,864.29 524.5,865.5C 521.695,866.319 518.695,866.819 515.5,867C 510.256,874.914 504.256,882.248 497.5,889C 490.465,892.015 483.465,895.348 476.5,899C 452.02,910.203 426.353,916.87 399.5,919C 395.48,920.359 391.98,922.525 389,925.5C 364.075,923.152 339.241,919.985 314.5,916C 295.759,912.88 279.259,905.046 265,892.5C 262.528,885.583 260.361,878.583 258.5,871.5C 268.383,880.214 278.717,888.381 289.5,896C 300.717,902.629 312.717,907.296 325.5,910C 341.157,911.523 356.823,912.523 372.5,913C 380.417,911.345 388.417,910.345 396.5,910C 402.834,908.086 409.167,907.086 415.5,907C 423.517,904.492 431.184,901.159 438.5,897C 437.167,896.667 435.833,896.333 434.5,896C 436.246,895.529 437.913,894.862 439.5,894C 446.271,887.631 451.438,880.131 455,871.5C 462.696,847.109 462.696,822.776 455,798.5C 451.209,789.587 446.375,781.254 440.5,773.5C 441.233,772.913 442.233,772.913 443.5,773.5 Z"/></g>
<g><path style="opacity:1" fill="#0d0d0d" d="M 483.5,822.5 C 484.873,822.343 486.207,822.51 487.5,823C 499.199,831.53 507.199,842.697 511.5,856.5C 512.221,859.817 512.388,863.151 512,866.5C 506.41,850.334 497.077,836.667 484,825.5C 483.517,824.552 483.351,823.552 483.5,822.5 Z"/></g>
<g><path style="opacity:0.612" fill="#484848" d="M 242.5,808.5 C 243.222,813.711 244.055,819.044 245,824.5C 245.667,829.5 245.667,834.5 245,839.5C 243.588,829.208 242.755,818.875 242.5,808.5 Z"/></g>
<g><path style="opacity:0.004" fill="#000000" d="M 877.5,835.5 C 876.833,834.167 876.833,834.167 877.5,835.5 Z"/></g>
<g><path style="opacity:1" fill="#2a2a2a" d="M 722.5,892.5 C 716.337,899.345 711.337,907.012 707.5,915.5C 704.517,913.794 702.184,914.294 700.5,917C 703.016,920.495 705.849,923.661 709,926.5C 710.147,925.542 711.147,925.875 712,927.5C 712.791,928.745 713.291,930.078 713.5,931.5C 713.5,932.5 713.5,933.5 713.5,934.5C 710.916,934.569 708.916,935.735 707.5,938C 703.833,938.667 700.167,938.667 696.5,938C 693.821,933.135 691.821,927.968 690.5,922.5C 696.227,921.092 696.894,918.259 692.5,914C 685.919,910.051 680.086,910.884 675,916.5C 674.202,918.259 674.369,919.926 675.5,921.5C 679.932,918.894 684.265,918.894 688.5,921.5C 688.348,925.262 687.681,928.928 686.5,932.5C 681.5,935.333 676.5,938.167 671.5,941C 667.909,941.789 664.409,941.622 661,940.5C 659.358,935.523 659.191,930.523 660.5,925.5C 661.23,924.288 662.23,923.288 663.5,922.5C 652.703,911.064 639.37,906.231 623.5,908C 618.573,908.214 614.739,910.381 612,914.5C 611.667,911.167 611.333,907.833 611,904.5C 609.546,901.929 608.38,899.262 607.5,896.5C 607.34,894.801 607.506,893.134 608,891.5C 614.063,879.061 623.896,871.895 637.5,870C 660.343,861.94 683.51,855.107 707,849.5C 730.992,853.15 736.992,865.483 725,886.5C 722.644,888.169 721.811,890.169 722.5,892.5 Z"/></g>
<g><path style="opacity:0.38" fill="#8c8c8c" d="M 247.5,853.5 C 249.203,855.851 249.703,858.518 249,861.5C 247.921,858.937 247.421,856.271 247.5,853.5 Z"/></g>
<g><path style="opacity:1" fill="#363636" d="M 599.5,859.5 C 596.132,861.059 592.465,861.892 588.5,862C 582.843,862.499 577.176,862.666 571.5,862.5C 580.709,861.668 590.042,860.668 599.5,859.5 Z"/></g>
<g><path style="opacity:1" fill="#2b2b2b" d="M 561.5,862.5 C 551.376,864.07 541.042,864.736 530.5,864.5C 540.624,862.93 550.958,862.264 561.5,862.5 Z"/></g>
<g><path style="opacity:1" fill="#d4d4d4" d="M 522.5,869.5 C 526.514,869.334 530.514,869.501 534.5,870C 528.102,870.05 522.936,872.55 519,877.5C 519.826,874.833 520.992,872.166 522.5,869.5 Z"/></g>
<g><path style="opacity:1" fill="#1d1d1d" d="M 267.5,944.5 C 267.19,943.262 266.69,943.262 266,944.5C 265,940.5 264,936.5 263,932.5C 262.131,929.606 260.298,928.439 257.5,929C 255.804,930.176 254.138,931.343 252.5,932.5C 254.957,922.587 259.29,913.587 265.5,905.5C 267.331,904.071 269.331,903.571 271.5,904C 276.301,908.125 281.635,911.458 287.5,914C 285.203,915.16 285.536,916.16 288.5,917C 278.434,924.029 271.434,933.196 267.5,944.5 Z"/></g>
<g><path style="opacity:1" fill="#040404" d="M 690.5,922.5 C 689.833,922.167 689.167,921.833 688.5,921.5C 684.265,918.894 679.932,918.894 675.5,921.5C 674.369,919.926 674.202,918.259 675,916.5C 680.086,910.884 685.919,910.051 692.5,914C 696.894,918.259 696.227,921.092 690.5,922.5 Z"/></g>
<g><path style="opacity:1" fill="#2a2a2a" d="M 656.5,924.5 C 656.496,926.842 655.663,928.842 654,930.5C 653.586,930.043 653.086,929.709 652.5,929.5C 638.712,933.376 624.712,934.709 610.5,933.5C 612.836,927.329 615.836,921.495 619.5,916C 626.548,915.27 633.548,915.603 640.5,917C 646.006,919.255 651.34,921.755 656.5,924.5 Z"/></g>
<g><path style="opacity:0.902" fill="#9a9a9a" d="M 713.5,918.5 C 715.496,917.312 716.329,917.979 716,920.5C 715.292,919.619 714.458,918.953 713.5,918.5 Z"/></g>
<g><path style="opacity:1" fill="#1e1e1e" d="M 380.5,939.5 C 374.336,940.75 368.169,940.75 362,939.5C 355.436,939.062 351.436,942.062 350,948.5C 347.923,954.234 345.757,959.901 343.5,965.5C 342.5,965.5 341.5,965.5 340.5,965.5C 340.801,957.053 339.968,948.72 338,940.5C 337.155,936.837 335.322,933.837 332.5,931.5C 332.167,931.667 331.833,931.833 331.5,932C 333.002,935.005 334.002,938.171 334.5,941.5C 333.127,941.657 331.793,941.49 330.5,941C 326.582,938.123 322.415,935.623 318,933.5C 317.295,935.986 316.462,935.986 315.5,933.5C 316.573,932.749 316.74,931.749 316,930.5C 313.971,927.971 312.138,925.304 310.5,922.5C 311,922.167 311.5,921.833 312,921.5C 325.757,924.376 339.59,926.876 353.5,929C 362.833,929.667 372.167,929.667 381.5,929C 383.754,927.85 386.087,927.516 388.5,928C 387.107,929.171 386.273,930.671 386,932.5C 383.711,931.978 381.544,932.645 379.5,934.5C 378.096,936.547 378.429,938.213 380.5,939.5 Z"/></g>
<g><path style="opacity:1" fill="#1e1e1e" d="M 688.5,921.5 C 689.167,921.833 689.833,922.167 690.5,922.5C 691.821,927.968 693.821,933.135 696.5,938C 700.167,938.667 703.833,938.667 707.5,938C 708.916,935.735 710.916,934.569 713.5,934.5C 713.5,933.5 713.5,932.5 713.5,931.5C 714.887,933.489 714.553,935.322 712.5,937C 705.954,940.444 698.954,942.11 691.5,942C 688.368,943.03 686.702,945.197 686.5,948.5C 686.167,948.5 685.833,948.5 685.5,948.5C 685.986,946.193 685.986,944.027 685.5,942C 682.404,941.073 680.07,942.073 678.5,945C 672.833,945.667 667.167,945.667 661.5,945C 660.514,942.672 658.514,940.672 655.5,939C 654.333,938.833 653.167,938.667 652,938.5C 647.281,940.435 642.447,942.268 637.5,944C 627.031,946.923 617.865,944.757 610,937.5C 609.421,936.072 609.588,934.738 610.5,933.5C 624.712,934.709 638.712,933.376 652.5,929.5C 653.086,929.709 653.586,930.043 654,930.5C 655.663,928.842 656.496,926.842 656.5,924.5C 657.708,925.234 659.041,925.567 660.5,925.5C 659.191,930.523 659.358,935.523 661,940.5C 664.409,941.622 667.909,941.789 671.5,941C 676.5,938.167 681.5,935.333 686.5,932.5C 687.681,928.928 688.348,925.262 688.5,921.5 Z"/></g>
<g><path style="opacity:0.025" fill="#000000" d="M 942.5,924.5 C 943.598,925.601 943.765,926.934 943,928.5C 942.51,927.207 942.343,925.873 942.5,924.5 Z"/></g>
<g><path style="opacity:1" fill="#292929" d="M 315.5,933.5 C 316.462,935.986 317.295,935.986 318,933.5C 322.415,935.623 326.582,938.123 330.5,941C 331.793,941.49 333.127,941.657 334.5,941.5C 335.347,946.62 336.014,951.786 336.5,957C 336.371,958.981 335.704,960.647 334.5,962C 327.229,963.523 319.896,964.69 312.5,965.5C 302.089,964.709 291.756,963.376 281.5,961.5C 279.109,961.559 276.775,961.893 274.5,962.5C 271.695,959.815 272.362,958.148 276.5,957.5C 274.009,951.25 273.842,944.917 276,938.5C 278.942,929.903 285.109,924.07 294.5,921C 299.858,920.837 304.858,922.17 309.5,925C 311.879,927.599 313.879,930.433 315.5,933.5 Z"/></g>
<g><path style="opacity:0.686" fill="#aaaaaa" d="M 401.5,925.5 C 402.873,925.343 404.207,925.51 405.5,926C 402.304,927.63 398.97,928.63 395.5,929C 397.432,927.541 399.432,926.375 401.5,925.5 Z"/></g>
<g><path style="opacity:1" fill="#2a2a2a" d="M 267.5,944.5 C 267.799,946.604 267.466,948.604 266.5,950.5C 262.558,948.738 258.558,948.238 254.5,949C 253.107,947.829 252.273,946.329 252,944.5C 251.238,940.413 251.404,936.413 252.5,932.5C 254.138,931.343 255.804,930.176 257.5,929C 260.298,928.439 262.131,929.606 263,932.5C 264,936.5 265,940.5 266,944.5C 266.69,943.262 267.19,943.262 267.5,944.5 Z"/></g>
<g><path style="opacity:0.975" fill="#e7e7e7" d="M 243.5,935.5 C 243.795,937.735 243.461,939.735 242.5,941.5C 241.154,939.208 241.488,937.208 243.5,935.5 Z"/></g>
<g><path style="opacity:1" fill="#6d6d6d" d="M 242.5,941.5 C 243.461,939.735 243.795,937.735 243.5,935.5C 244.795,935.89 244.961,938.557 244,943.5C 243.283,942.956 242.783,942.289 242.5,941.5 Z"/></g>
<g><path style="opacity:1" fill="#2a2a2a" d="M 380.5,939.5 C 381.283,941.343 381.95,943.343 382.5,945.5C 381.205,949.542 379.538,953.375 377.5,957C 366.95,962.971 355.616,965.804 343.5,965.5C 345.757,959.901 347.923,954.234 350,948.5C 351.436,942.062 355.436,939.062 362,939.5C 368.169,940.75 374.336,940.75 380.5,939.5 Z"/></g>
<g><path style="opacity:0.902" fill="#a0a0a0" d="M 603.5,939.5 C 604.267,940.172 604.934,941.005 605.5,942C 603.939,942.188 603.272,941.355 603.5,939.5 Z"/></g>
<g><path style="opacity:0.937" fill="#bcbcbc" d="M 685.5,948.5 C 685.833,948.5 686.167,948.5 686.5,948.5C 688.746,949.21 691.08,949.71 693.5,950C 690.102,950.51 686.769,950.843 683.5,951C 684.381,950.292 685.047,949.458 685.5,948.5 Z"/></g>
<g><path style="opacity:0.016" fill="#000000" d="M 42.5,957.5 C 44.337,957.639 44.6704,958.306 43.5,959.5C 42.7025,959.043 42.3691,958.376 42.5,957.5 Z"/></g>
<g><path style="opacity:0.999" fill="#f4f4f4" d="M 268.5,965.5 C 268.178,964.142 268.178,962.475 268.5,960.5C 270.101,959.357 270.767,960.024 270.5,962.5C 270.36,964.03 269.693,965.03 268.5,965.5 Z"/></g>
<g><path style="opacity:1" fill="#949494" d="M 268.5,965.5 C 269.693,965.03 270.36,964.03 270.5,962.5C 270.767,960.024 270.101,959.357 268.5,960.5C 268.119,958.058 268.786,957.391 270.5,958.5C 271.214,961.027 271.88,963.527 272.5,966C 270.934,966.765 269.601,966.598 268.5,965.5 Z"/></g>
<g><path style="opacity:0.012" fill="#000000" d="M 60.5,970.5 C 61.5983,971.601 61.765,972.934 61,974.5C 60.51,973.207 60.3433,971.873 60.5,970.5 Z"/></g>
<g><path style="opacity:0.034" fill="#000000" d="M 66.5,972.5 C 66.8426,979.095 65.5093,979.761 62.5,974.5C 63.2616,972.114 64.595,971.448 66.5,972.5 Z"/></g>
<g><path style="opacity:0.488" fill="#5c5c5c" d="M 321.5,972.5 C 324.44,971.17 327.44,971.337 330.5,973C 327.408,973.736 324.408,973.569 321.5,972.5 Z"/></g>
<g><path style="opacity:0.949" fill="#565656" d="M 355.5,972.5 C 357.199,972.34 358.866,972.506 360.5,973C 356.903,974.277 353.236,974.61 349.5,974C 351.708,973.809 353.708,973.309 355.5,972.5 Z"/></g>
<g><path style="opacity:0.01" fill="#000000" d="M 920.5,975.5 C 921.525,975.897 921.692,976.563 921,977.5C 920.536,976.906 920.369,976.239 920.5,975.5 Z"/></g>
<g><path style="opacity:0.041" fill="#000000" d="M 72.5,988.5 C 73.9405,990.42 73.6071,992.087 71.5,993.5C 70.7992,991.808 71.1325,990.142 72.5,988.5 Z"/></g>
<g><path style="opacity:0.01" fill="#000000" d="M 924.5,998.5 C 926.446,999.254 927.279,1000.59 927,1002.5C 925.294,1001.69 924.461,1000.36 924.5,998.5 Z"/></g>
<g><path style="opacity:0.012" fill="#000000" d="M 104.5,1002.5 C 105.782,1003.71 105.782,1005.04 104.5,1006.5C 103.708,1005.3 103.708,1003.97 104.5,1002.5 Z"/></g>
<g><path style="opacity:0.015" fill="#000000" d="M 114.5,1006.5 C 118.165,1008.37 118.165,1009.71 114.5,1010.5C 114.5,1009.17 114.5,1007.83 114.5,1006.5 Z"/></g>
<g><path style="opacity:0.017" fill="#000000" d="M 137.5,1015.5 C 138.586,1015.62 139.253,1016.29 139.5,1017.5C 139.167,1018.17 138.833,1018.83 138.5,1019.5C 137.571,1018.31 137.238,1016.98 137.5,1015.5 Z"/></g>
<g><path style="opacity:0.044" fill="#000000" d="M 148.5,1019.5 C 149.67,1021.28 151.336,1022.28 153.5,1022.5C 153.5,1023.83 153.5,1025.17 153.5,1026.5C 151.516,1026.62 149.85,1025.95 148.5,1024.5C 147.808,1025.03 147.308,1025.69 147,1026.5C 146.626,1025.58 146.126,1024.75 145.5,1024C 140.782,1023.9 139.449,1021.74 141.5,1017.5C 143.618,1018.95 145.951,1019.61 148.5,1019.5 Z"/></g>
<g><path style="opacity:0.004" fill="#000000" d="M 750.5,1042.5 C 751.833,1043.17 751.833,1043.17 750.5,1042.5 Z"/></g>
<g><path style="opacity:0.047" fill="#000000" d="M 646.5,1067.5 C 647.548,1069.93 648.214,1069.93 648.5,1067.5C 650.111,1070.33 649.278,1072.33 646,1073.5C 642.567,1071.33 642.733,1069.33 646.5,1067.5 Z M 646.5,1067.5 C 647.167,1067.5 647.833,1067.5 648.5,1067.5C 648.214,1069.93 647.548,1069.93 646.5,1067.5 Z"/></g>
</svg>
