<?xml version="1.0" encoding="UTF-8"?>
<!DOCTYPE svg PUBLIC "-//W3C//DTD SVG 1.1//EN" "http://www.w3.org/Graphics/SVG/1.1/DTD/svg11.dtd">
<svg xmlns="http://www.w3.org/2000/svg" version="1.1" width="829px" height="856px" style="shape-rendering:geometricPrecision; text-rendering:geometricPrecision; image-rendering:optimizeQuality; fill-rule:evenodd; clip-rule:evenodd" xmlns:xlink="http://www.w3.org/1999/xlink">
<g><path style="opacity:0.422" fill="#030303" d="M 709.5,384.5 C 709.115,389.418 711.115,392.751 715.5,394.5C 720.394,400.601 724.56,407.268 728,414.5C 731.755,422.221 729.589,426.888 721.5,428.5C 719.395,427.181 717.395,427.514 715.5,429.5C 716.425,430.562 717.425,430.562 718.5,429.5C 720.143,431.708 719.81,433.541 717.5,435C 740.041,497.966 756.875,562.466 768,628.5C 768.414,628.043 768.914,627.709 769.5,627.5C 771.115,628.154 772.782,628.654 774.5,629C 775.022,629.561 775.355,630.228 775.5,631C 774.388,633.602 773.054,636.102 771.5,638.5C 773.143,641.495 775.477,642.161 778.5,640.5C 780.4,642.948 782.067,645.281 783.5,647.5C 787.429,646.567 791.429,646.234 795.5,646.5C 795.67,647.822 795.337,648.989 794.5,650C 792.167,650.333 789.833,650.667 787.5,651C 788.973,651.71 789.64,652.876 789.5,654.5C 792.5,654.167 793.833,655.5 793.5,658.5C 794.93,658.421 796.264,658.754 797.5,659.5C 799.271,658.965 799.604,658.131 798.5,657C 801.026,655.741 803.359,655.741 805.5,657C 804.5,657.833 803.5,658.667 802.5,659.5C 805.06,660.747 807.727,661.747 810.5,662.5C 809.833,663.5 809.167,664.5 808.5,665.5C 809.645,666.891 809.645,668.224 808.5,669.5C 807.914,669.291 807.414,668.957 807,668.5C 805.829,669.893 804.329,670.727 802.5,671C 804.895,673.798 807.728,674.964 811,674.5C 811.346,676.218 811.846,677.885 812.5,679.5C 811.34,679.437 810.006,679.77 808.5,680.5C 807.571,681.689 807.238,683.022 807.5,684.5C 812.367,683.203 814.033,685.037 812.5,690C 813.833,692.667 815.167,695.333 816.5,698C 815.809,699.067 815.309,700.234 815,701.5C 811.453,700.803 807.953,701.303 804.5,703C 806.414,706.133 808.581,706.3 811,703.5C 812.62,705.241 814.12,707.075 815.5,709C 813.205,709.984 813.539,710.817 816.5,711.5C 817.086,711.291 817.586,710.957 818,710.5C 819.667,711.5 821,712.833 822,714.5C 823.073,713.72 824.24,713.887 825.5,715C 826.869,716.719 827.869,718.552 828.5,720.5C 828.5,720.833 828.5,721.167 828.5,721.5C 825.054,723.109 821.721,724.943 818.5,727C 819.308,727.308 819.975,727.808 820.5,728.5C 819.5,729.333 818.5,730.167 817.5,731C 821.654,734.548 820.988,736.881 815.5,738C 818.432,740.347 817.765,741.847 813.5,742.5C 814.048,745.386 815.715,747.386 818.5,748.5C 816.833,749.167 815.167,749.833 813.5,750.5C 814.357,751.425 815.357,752.092 816.5,752.5C 817.29,753.794 818.29,754.961 819.5,756C 815.5,757.333 815.5,758.667 819.5,760C 814.01,763.049 808.343,765.049 802.5,766C 802.167,766.333 801.833,766.667 801.5,767C 804.629,767.117 805.795,768.617 805,771.5C 803.732,771.384 802.398,771.051 801,770.5C 798.782,773.483 799.616,775.15 803.5,775.5C 804.949,773.751 806.282,773.584 807.5,775C 805.343,776.085 805.176,777.251 807,778.5C 808.356,777.62 809.856,777.286 811.5,777.5C 811.5,778.833 811.5,780.167 811.5,781.5C 808.5,781.167 807.167,782.5 807.5,785.5C 804.995,785.02 802.662,784.02 800.5,782.5C 798.096,783.008 797.429,784.175 798.5,786C 797.756,787.039 796.756,787.539 795.5,787.5C 796.263,788.268 797.263,788.768 798.5,789C 796.069,789.295 794.236,790.462 793,792.5C 792.163,790.993 790.996,790.493 789.5,791C 788.594,792.699 788.261,794.533 788.5,796.5C 785.689,796.826 783.022,797.659 780.5,799C 781.337,800.011 781.67,801.178 781.5,802.5C 778.777,801.587 776.277,800.92 774,800.5C 773.667,801.833 773.333,803.167 773,804.5C 770.959,801.139 769.626,797.806 769,794.5C 766.457,795.876 766.291,797.043 768.5,798C 767.639,800.868 765.972,803.202 763.5,805C 755.093,808.773 746.427,809.773 737.5,808C 734.571,803.4 730.738,799.9 726,797.5C 724.596,797.509 723.43,798.009 722.5,799C 725.847,802.347 726.181,806.18 723.5,810.5C 722.155,811.347 721.155,812.513 720.5,814C 717.422,813.872 714.255,814.372 711,815.5C 710.517,814.552 710.351,813.552 710.5,812.5C 707.832,812.166 705.832,810.833 704.5,808.5C 704.446,809.53 704.112,810.697 703.5,812C 702.207,812.49 700.873,812.657 699.5,812.5C 699.649,811.448 699.483,810.448 699,809.5C 697.025,809.508 695.191,810.508 693.5,812.5C 693.869,816.275 693.036,819.942 691,823.5C 689.92,820.517 688.087,819.183 685.5,819.5C 687.865,818.915 689.865,817.748 691.5,816C 688.756,816.019 686.089,816.686 683.5,818C 684.731,819.183 684.731,820.349 683.5,821.5C 682.614,820.675 682.281,819.675 682.5,818.5C 680.801,818.34 679.134,818.506 677.5,819C 676.696,820.771 675.529,822.271 674,823.5C 672.413,822.273 671.079,822.606 670,824.5C 669.026,822.122 668.359,822.456 668,825.5C 666.582,822.999 665.582,823.332 665,826.5C 664.361,823.888 663.194,821.554 661.5,819.5C 659.211,821.592 656.711,821.926 654,820.5C 651.888,821.223 649.888,822.223 648,823.5C 645.385,821.049 642.885,818.382 640.5,815.5C 638.553,818.971 637.219,822.971 636.5,827.5C 635.448,827.649 634.448,827.483 633.5,827C 632.244,824.372 630.244,823.372 627.5,824C 626.966,827.506 625.633,830.672 623.5,833.5C 621.792,831.638 619.792,830.138 617.5,829C 617.957,828.586 618.291,828.086 618.5,827.5C 617.273,826.41 616.44,825.076 616,823.5C 615.667,824.5 615.333,825.5 615,826.5C 611.521,830.596 608.521,830.263 606,825.5C 605.072,828.035 603.238,829.035 600.5,828.5C 600.5,826.5 600.5,824.5 600.5,822.5C 598.8,822.374 597.3,821.707 596,820.5C 592.767,825.02 588.767,825.686 584,822.5C 583.316,823.784 583.483,824.951 584.5,826C 583.481,830.128 581.314,833.628 578,836.5C 576.684,833.972 575.517,833.972 574.5,836.5C 569.645,833.373 565.812,834.373 563,839.5C 562,835.833 560.333,835.5 558,838.5C 556.667,836.5 555.333,834.5 554,832.5C 553.261,833.574 552.261,834.241 551,834.5C 548.023,831.666 544.523,829.666 540.5,828.5C 536.656,829.148 533.656,830.981 531.5,834C 531.957,834.414 532.291,834.914 532.5,835.5C 530.051,837.67 528.551,840.004 528,842.5C 526.989,841.663 525.822,841.33 524.5,841.5C 525.881,836.775 525.048,836.442 522,840.5C 520.513,839.747 520.346,838.914 521.5,838C 519.531,835.155 517.031,834.321 514,835.5C 513,834.833 512,834.167 511,833.5C 508.901,834.398 506.734,834.398 504.5,833.5C 501.806,831.751 498.973,830.085 496,828.5C 491.797,830.839 487.297,831.839 482.5,831.5C 482.5,832.5 482.5,833.5 482.5,834.5C 480.856,834.286 479.356,834.62 478,835.5C 477.28,833.888 477.446,832.388 478.5,831C 478,830.5 477.5,830 477,829.5C 474.521,832.093 472.021,832.093 469.5,829.5C 466.366,831.162 463.533,832.495 461,833.5C 460.127,833.265 459.293,832.931 458.5,832.5C 456.21,835.645 453.21,837.812 449.5,839C 450.167,839.333 450.833,839.667 451.5,840C 448.8,841.19 446.633,843.023 445,845.5C 443.98,844.109 443.147,842.609 442.5,841C 444.332,840.252 445.999,839.252 447.5,838C 444.983,837.743 442.65,838.41 440.5,840C 439.569,842.907 438.569,845.74 437.5,848.5C 435.304,848.59 433.137,848.923 431,849.5C 429.289,849.561 427.956,848.894 427,847.5C 426,848.167 425,848.833 424,849.5C 422.648,847.406 422.148,845.073 422.5,842.5C 421.178,842.33 420.011,842.663 419,843.5C 416.924,852.76 415.091,852.76 413.5,843.5C 411.674,843.92 409.674,843.92 407.5,843.5C 406.947,847.456 406.114,847.456 405,843.5C 403.23,844.276 401.397,844.11 399.5,843C 399.018,841.992 398.852,840.825 399,839.5C 397.691,841.891 396.691,841.891 396,839.5C 394.108,840.13 392.441,841.13 391,842.5C 390.479,845.874 389.146,848.874 387,851.5C 386.308,850.975 385.808,850.308 385.5,849.5C 388.474,845.401 388.14,841.734 384.5,838.5C 382.889,839.32 382.222,840.654 382.5,842.5C 380.089,842.863 378.589,841.863 378,839.5C 377.333,840.167 376.667,840.833 376,841.5C 375.261,839.779 374.427,838.113 373.5,836.5C 371.377,840.027 369.043,843.694 366.5,847.5C 365.148,845.364 363.482,845.03 361.5,846.5C 358.847,845.715 358.18,844.215 359.5,842C 358.584,841.626 357.75,841.126 357,840.5C 355.806,842.525 354.306,842.859 352.5,841.5C 350.806,839.446 349.639,837.112 349,834.5C 347.951,833.483 346.784,833.316 345.5,834C 346.818,837.246 347.818,840.58 348.5,844C 346.293,845.632 343.96,845.632 341.5,844C 342.28,842.927 342.113,841.76 341,840.5C 339.916,841.665 339.083,842.998 338.5,844.5C 336.994,845.747 335.494,845.747 334,844.5C 333.508,845.549 333.674,846.549 334.5,847.5C 333.675,848.386 332.675,848.719 331.5,848.5C 331.646,846.058 330.813,845.391 329,846.5C 326.537,843.804 324.037,843.471 321.5,845.5C 321.833,846.167 322.167,846.833 322.5,847.5C 321.147,848.524 320.48,849.857 320.5,851.5C 319.5,851.5 318.5,851.5 317.5,851.5C 317.084,848.64 318.084,846.474 320.5,845C 319.88,842.016 318.88,839.182 317.5,836.5C 316.833,836.167 316.167,835.833 315.5,835.5C 313.291,838.498 313.291,841.331 315.5,844C 312.956,845.092 310.289,845.759 307.5,846C 308.793,846.49 310.127,846.657 311.5,846.5C 311.688,848.103 311.188,849.437 310,850.5C 308.667,849.167 307.333,849.167 306,850.5C 304.256,849.351 304.089,848.017 305.5,846.5C 300.357,843.642 296.524,844.975 294,850.5C 292.691,848.109 291.691,848.109 291,850.5C 289.482,850.943 288.315,850.276 287.5,848.5C 285.291,849.106 283.124,849.773 281,850.5C 280.396,847.397 279.063,844.73 277,842.5C 274.224,843.685 271.39,843.685 268.5,842.5C 267.833,842.667 267.167,842.833 266.5,843C 268.679,843.442 269.345,844.442 268.5,846C 265.179,846.209 262.012,846.376 259,846.5C 258.228,846.355 257.561,846.022 257,845.5C 256.706,840.441 255.539,840.274 253.5,845C 251.426,844.773 249.426,844.939 247.5,845.5C 245.862,844.295 245.529,842.962 246.5,841.5C 245.24,840.618 244.074,839.618 243,838.5C 238.821,839.063 234.654,839.396 230.5,839.5C 230.719,838.325 230.386,837.325 229.5,836.5C 228.738,837.628 228.071,838.795 227.5,840C 224.667,840.167 221.833,840.333 219,840.5C 217.898,836.269 215.065,834.269 210.5,834.5C 210.5,832.833 210.5,831.167 210.5,829.5C 208.599,829.567 206.766,829.233 205,828.5C 202.699,829.8 200.699,831.467 199,833.5C 198.228,833.355 197.561,833.022 197,832.5C 196.612,833.428 195.945,834.095 195,834.5C 190.537,833.25 186.204,831.584 182,829.5C 181.692,830.308 181.192,830.975 180.5,831.5C 180.587,828.077 180.421,824.744 180,821.5C 178.062,823.978 175.895,824.145 173.5,822C 174.833,821 174.833,820 173.5,819C 174.167,818.333 174.833,817.667 175.5,817C 174.109,815.98 172.609,815.147 171,814.5C 168.627,817.302 165.793,817.969 162.5,816.5C 161.252,817.04 160.085,817.707 159,818.5C 158.667,818.167 158.333,817.833 158,817.5C 155.931,818.264 153.764,818.764 151.5,819C 150.167,819.667 150.167,820.333 151.5,821C 148.615,821.982 146.115,823.482 144,825.5C 142.72,825.387 141.887,824.72 141.5,823.5C 142.246,822.264 142.579,820.93 142.5,819.5C 146.852,818.823 147.852,816.989 145.5,814C 146.684,812.855 146.684,811.688 145.5,810.5C 140.869,813.358 136.702,812.691 133,808.5C 131.295,809.763 129.628,810.097 128,809.5C 127.003,811.166 125.503,812.666 123.5,814C 123.833,814.333 124.167,814.667 124.5,815C 123.207,815.49 121.873,815.657 120.5,815.5C 120.967,812.96 121.967,810.627 123.5,808.5C 122.359,804.013 119.692,802.68 115.5,804.5C 111.859,802.293 108.192,800.959 104.5,800.5C 102.469,801.539 101.136,803.205 100.5,805.5C 99.914,805.291 99.414,804.957 99,804.5C 96.5041,807.312 94.3374,807.479 92.5,805C 90.0588,804.964 88.0588,804.131 86.5,802.5C 89.1711,801.495 92.1711,801.162 95.5,801.5C 94.0186,800.52 92.6853,799.353 91.5,798C 92.1667,797.667 92.8333,797.333 93.5,797C 91.9651,796.504 90.4651,796.67 89,797.5C 87.7387,797.241 86.7387,796.574 86,795.5C 85.6667,795.833 85.3333,796.167 85,796.5C 84.3162,795.216 84.4829,794.049 85.5,793C 83.481,792.55 81.6477,791.717 80,790.5C 79.5439,789.256 80.0439,788.423 81.5,788C 80.6753,786.312 79.6753,786.145 78.5,787.5C 77.2519,786.96 76.0852,786.293 75,785.5C 73.3883,788.079 71.8883,788.079 70.5,785.5C 72.1128,784.573 73.7795,783.739 75.5,783C 74.1667,782.333 74.1667,781.667 75.5,781C 72.1071,780.606 69.9404,778.773 69,775.5C 68.586,775.957 68.086,776.291 67.5,776.5C 63.6577,775.957 59.991,774.957 56.5,773.5C 53.1567,774.695 49.8234,775.529 46.5,776C 45.33,773.32 44.33,770.653 43.5,768C 37.7503,767.978 34.0836,765.311 32.5,760C 35.9464,759.296 35.9464,757.963 32.5,756C 32.8333,755.667 33.1667,755.333 33.5,755C 31.0632,753.625 28.3965,753.125 25.5,753.5C 23.4319,752.625 21.4319,751.459 19.5,750C 20.0968,748.938 20.4302,747.772 20.5,746.5C 18.3452,742.584 17.1785,738.25 17,733.5C 13.3885,733.14 9.55514,732.473 5.5,731.5C 6.83333,729.833 8.16667,728.167 9.5,726.5C 8.51608,724.52 7.18275,722.853 5.5,721.5C 6.09826,720.205 6.59826,718.872 7,717.5C 11.663,714.268 15.163,710.601 17.5,706.5C 16.0202,705.887 14.6869,705.554 13.5,705.5C 13.9767,704.522 14.6433,703.689 15.5,703C 13.771,701.211 13.1043,699.044 13.5,696.5C 18.4439,697.003 19.7772,695.503 17.5,692C 17.6448,691.228 17.9781,690.561 18.5,690C 17.0632,687.783 15.3965,685.783 13.5,684C 13.8312,677.421 16.6645,671.921 22,667.5C 22.414,667.957 22.914,668.291 23.5,668.5C 27.0221,668.146 30.0221,666.813 32.5,664.5C 36.667,664.974 40.8336,664.307 45,662.5C 46.876,661.381 47.7093,659.714 47.5,657.5C 50.6767,656.363 53.8433,656.363 57,657.5C 58.9246,655.915 61.0913,654.748 63.5,654C 66.148,648.525 69.148,643.358 72.5,638.5C 75.7939,636.044 76.1272,633.377 73.5,630.5C 73.5855,569.902 83.9188,511.068 104.5,454C 102.745,451.07 101.578,447.903 101,444.5C 95.9,439.403 91.5667,433.736 88,427.5C 85.5283,421.409 86.1949,415.742 90,410.5C 94.7387,405.256 99.9054,400.59 105.5,396.5C 111.622,392.922 114.622,387.589 114.5,380.5C 118.133,341.095 130.966,305.095 153,272.5C 157.683,261.11 163.849,250.777 171.5,241.5C 173.504,240.327 175.004,238.66 176,236.5C 176.307,231.643 176.807,226.81 177.5,222C 177.167,221.167 176.833,220.333 176.5,219.5C 175.548,221.045 175.215,222.712 175.5,224.5C 157.351,230.786 139.684,229.62 122.5,221C 110.031,210.9 103.198,197.734 102,181.5C 100.654,169.185 101.821,157.185 105.5,145.5C 106.674,144.486 107.34,143.153 107.5,141.5C 111.902,135.554 117.568,134.054 124.5,137C 130.997,140.414 137.33,144.081 143.5,148C 157.08,158.747 171.08,168.914 185.5,178.5C 200.303,135.939 229.969,117.606 274.5,123.5C 278.985,123.462 283.319,122.629 287.5,121C 304.625,111.117 320.625,99.7841 335.5,87C 357.839,74.0675 381.839,69.7341 407.5,74C 415.754,76.14 423.754,78.9734 431.5,82.5C 437.28,65.3886 442.446,48.0552 447,30.5C 449.71,21.2467 453.877,12.7467 459.5,5C 461.762,4.35812 463.929,3.52479 466,2.5C 473.608,4.81639 479.941,9.14972 485,15.5C 499.668,32.6766 507.168,51.5099 507.5,72C 506.011,85.6602 499.677,96.3269 488.5,104C 482.384,105.374 476.051,107.04 469.5,109C 476.554,114.721 482.888,121.054 488.5,128C 499.778,131.331 511.112,134.664 522.5,138C 532.66,142.91 542.326,148.577 551.5,155C 588.922,182.422 621.755,214.588 650,251.5C 677.394,292.301 697.227,336.634 709.5,384.5 Z M 768.5,629.5 C 769.606,630.149 770.606,630.483 771.5,630.5C 769.948,631.798 768.948,631.465 768.5,629.5 Z M 813.5,742.5 C 811.801,742.66 810.134,742.494 808.5,742C 810.147,740.686 811.814,740.853 813.5,742.5 Z M 812.5,753.5 C 813.473,753.987 814.473,754.487 815.5,755C 813.843,755.725 812.843,755.225 812.5,753.5 Z M 795.5,787.5 C 793.148,786.457 792.981,785.124 795,783.5C 795.49,784.793 795.657,786.127 795.5,787.5 Z M 775.5,793.5 C 777.103,793.312 778.437,793.812 779.5,795C 777.537,795.844 776.204,795.344 775.5,793.5 Z M 145.5,810.5 C 144.064,807.43 145.064,806.263 148.5,807C 147.186,807.985 146.186,809.152 145.5,810.5 Z M 710.5,812.5 C 711.527,811.152 712.86,810.652 714.5,811C 713.437,812.188 712.103,812.688 710.5,812.5 Z M 225.5,828.5 C 231.969,829.948 231.969,830.948 225.5,831.5C 225.5,830.5 225.5,829.5 225.5,828.5 Z M 233.5,834.5 C 231.647,835.614 231.147,834.948 232,832.5C 232.717,833.044 233.217,833.711 233.5,834.5 Z M 233.5,834.5 C 234.289,834.783 234.956,835.283 235.5,836C 234.184,836.528 233.517,836.028 233.5,834.5 Z M 327.5,841.5 C 328.376,841.369 329.043,841.702 329.5,842.5C 327.192,843.873 326.525,843.54 327.5,841.5 Z M 282.5,847.5 C 283.251,846.427 284.251,846.26 285.5,847C 284.648,848.728 283.648,848.895 282.5,847.5 Z"/></g>
<g><path style="opacity:1" fill="#8e9199" d="M 493.5,42.5 C 490.471,53.7425 485.971,64.4092 480,74.5C 471.767,83.1013 461.933,85.9347 450.5,83C 445.523,78.2084 443.523,72.375 444.5,65.5C 448.431,48.441 453.598,31.7743 460,15.5C 462.339,10.7435 465.839,9.57686 470.5,12C 480.959,20.094 488.625,30.2607 493.5,42.5 Z"/></g>
<g><path style="opacity:1" fill="#646770" d="M 493.5,42.5 C 500.431,56.349 501.265,70.6824 496,85.5C 494.667,87.5 493.333,89.5 492,91.5C 489.876,92.6217 488.043,94.1217 486.5,96C 477.387,98.2824 468.22,100.116 459,101.5C 453.051,96.22 446.551,91.72 439.5,88C 438.196,87.196 437.529,86.0293 437.5,84.5C 439.39,77.894 441.723,71.5607 444.5,65.5C 443.523,72.375 445.523,78.2084 450.5,83C 461.933,85.9347 471.767,83.1013 480,74.5C 485.971,64.4092 490.471,53.7425 493.5,42.5 Z"/></g>
<g><path style="opacity:1" fill="#8f929a" d="M 460.5,112.5 C 473.798,128.607 481.798,147.107 484.5,168C 484.234,173.56 483.567,179.06 482.5,184.5C 485.157,184.838 487.49,184.171 489.5,182.5C 490.183,182.863 490.85,183.196 491.5,183.5C 491.833,183.5 492.167,183.5 492.5,183.5C 497.537,182.85 502.537,182.35 507.5,182C 511.443,183.61 514.443,186.277 516.5,190C 515.944,190.383 515.611,190.883 515.5,191.5C 501.855,190.175 490.189,194.175 480.5,203.5C 475.547,203.362 471.713,205.362 469,209.5C 463.142,221.575 458.809,234.242 456,247.5C 452.823,267.44 457.99,284.773 471.5,299.5C 476.801,304.83 483.134,307.83 490.5,308.5C 490.263,309.791 490.596,310.791 491.5,311.5C 505.559,299.132 521.226,289.132 538.5,281.5C 559.71,276.32 579.71,279.154 598.5,290C 606.086,297.582 612.919,305.748 619,314.5C 620.858,320.95 622.858,327.283 625,333.5C 625.206,346.17 624.873,358.837 624,371.5C 620.338,387.493 615.672,403.159 610,418.5C 601.171,434.828 591.838,450.828 582,466.5C 575.295,474.872 567.629,482.205 559,488.5C 558.626,489.416 558.126,490.25 557.5,491C 559.791,491.225 561.791,491.392 563.5,491.5C 560.126,495.876 556.126,499.542 551.5,502.5C 548.213,503.264 545.546,505.097 543.5,508C 540.754,509.243 538.088,510.243 535.5,511C 538.07,504.41 538.903,497.577 538,490.5C 523.638,506.693 508.804,522.36 493.5,537.5C 479.663,544.634 464.997,549.634 449.5,552.5C 444.118,550.705 438.784,548.705 433.5,546.5C 433.295,548.552 433.295,550.886 433.5,553.5C 424.161,553.334 414.827,553.5 405.5,554C 404.062,554.219 402.729,554.719 401.5,555.5C 403.762,560.26 407.429,563.427 412.5,565C 416.665,565.705 420.665,566.539 424.5,567.5C 379.615,576.245 335.948,572.245 293.5,555.5C 287.595,550.202 281.262,545.369 274.5,541C 263.333,529.167 252.167,517.333 241,505.5C 235.333,497.167 229.667,488.833 224,480.5C 219.091,471.604 215.257,462.271 212.5,452.5C 212.338,441.113 215.838,431.113 223,422.5C 230.12,413.371 238.953,406.538 249.5,402C 253.597,399.63 257.264,396.797 260.5,393.5C 263.461,392.677 266.461,392.01 269.5,391.5C 274.526,392.395 279.526,392.395 284.5,391.5C 287.942,390.455 290.608,388.455 292.5,385.5C 293.391,384.89 294.391,384.557 295.5,384.5C 299.155,360.021 293.988,337.354 280,316.5C 277.131,313.296 273.965,310.463 270.5,308C 262.244,304.036 253.91,300.369 245.5,297C 239.5,296.333 233.5,296.333 227.5,297C 224.67,298.728 222.337,300.895 220.5,303.5C 210.211,304.645 201.544,308.978 194.5,316.5C 193.178,316.67 192.011,316.337 191,315.5C 190.39,312.173 189.89,308.839 189.5,305.5C 190.167,304.5 190.833,303.5 191.5,302.5C 194.787,301.839 198.12,301.339 201.5,301C 207.529,297.1 213.863,293.767 220.5,291C 204.987,285.477 193.153,275.644 185,261.5C 182.265,255.797 181.098,249.797 181.5,243.5C 182.087,221.63 185.753,200.63 192.5,180.5C 198.414,162.141 209.081,147.308 224.5,136C 238.104,130.67 252.104,129.17 266.5,131.5C 269.616,133.987 273.282,135.32 277.5,135.5C 286.132,133.622 294.799,131.789 303.5,130C 307.873,128.287 311.707,125.787 315,122.5C 318.462,116.573 321.628,110.573 324.5,104.5C 352.951,78.4221 385.284,72.5888 421.5,87C 435.896,93.5204 448.896,102.02 460.5,112.5 Z"/></g>
<g><path style="opacity:1" fill="#63666f" d="M 324.5,104.5 C 321.628,110.573 318.462,116.573 315,122.5C 311.707,125.787 307.873,128.287 303.5,130C 294.799,131.789 286.132,133.622 277.5,135.5C 273.282,135.32 269.616,133.987 266.5,131.5C 279.037,132.091 291.37,130.925 303.5,128C 298.167,127.667 292.833,127.333 287.5,127C 300.725,120.937 313.058,113.437 324.5,104.5 Z"/></g>
<g><path style="opacity:1" fill="#656871" d="M 460.5,112.5 C 481.996,130.496 501.663,150.33 519.5,172C 509.199,171.452 500.033,174.285 492,180.5C 491.517,181.448 491.351,182.448 491.5,183.5C 490.85,183.196 490.183,182.863 489.5,182.5C 487.49,184.171 485.157,184.838 482.5,184.5C 483.567,179.06 484.234,173.56 484.5,168C 481.798,147.107 473.798,128.607 460.5,112.5 Z"/></g>
<g><path style="opacity:1" fill="#656870" d="M 573.5,183.5 C 570.063,184.134 566.896,185.467 564,187.5C 565.957,206.308 572.623,223.308 584,238.5C 590.576,243.887 595.743,250.22 599.5,257.5C 602.059,257.198 604.393,257.532 606.5,258.5C 600.489,258.199 594.489,257.699 588.5,257C 584.423,251.423 579.09,247.59 572.5,245.5C 570.944,246.547 569.277,247.214 567.5,247.5C 567.5,246.833 567.5,246.167 567.5,245.5C 568.09,233.362 564.59,222.362 557,212.5C 551.229,209.565 547.062,205.232 544.5,199.5C 540.889,192.719 537.056,186.052 533,179.5C 528.706,176.93 524.873,173.763 521.5,170C 522.554,168.612 522.72,167.112 522,165.5C 520.333,162.833 518.667,160.167 517,157.5C 509.917,150.872 503.417,143.705 497.5,136C 526.1,146.474 551.433,162.307 573.5,183.5 Z"/></g>
<g><path style="opacity:0.616" fill="#83858d" d="M 107.5,141.5 C 107.34,143.153 106.674,144.486 105.5,145.5C 104.209,143.41 104.876,142.076 107.5,141.5 Z"/></g>
<g><path style="opacity:1" fill="#8f929a" d="M 165.5,172.5 C 167.14,176.441 169.306,180.108 172,183.5C 172.667,186.833 172.667,190.167 172,193.5C 169.408,196.762 166.241,199.262 162.5,201C 157.155,202.669 151.822,204.335 146.5,206C 133.2,208.378 121.866,204.878 112.5,195.5C 107.493,179.536 107.327,163.536 112,147.5C 113.483,143.335 116.316,141.835 120.5,143C 124.286,144.393 127.952,146.059 131.5,148C 142.991,155.998 154.324,164.164 165.5,172.5 Z"/></g>
<g><path style="opacity:1" fill="#656871" d="M 165.5,172.5 C 171.969,176.471 178.303,180.638 184.5,185C 181.794,193.742 179.46,202.575 177.5,211.5C 173.601,215.569 169.267,219.069 164.5,222C 153.008,224.287 141.674,223.621 130.5,220C 126.335,215.615 122.168,211.115 118,206.5C 115.628,203.09 113.795,199.423 112.5,195.5C 121.866,204.878 133.2,208.378 146.5,206C 151.822,204.335 157.155,202.669 162.5,201C 166.241,199.262 169.408,196.762 172,193.5C 172.667,190.167 172.667,186.833 172,183.5C 169.306,180.108 167.14,176.441 165.5,172.5 Z"/></g>
<g><path style="opacity:1" fill="#62656e" d="M 543.5,200.5 C 543.565,200.938 543.399,201.272 543,201.5C 534.384,196.558 525.217,193.224 515.5,191.5C 515.611,190.883 515.944,190.383 516.5,190C 514.443,186.277 511.443,183.61 507.5,182C 502.537,182.35 497.537,182.85 492.5,183.5C 501.857,180.754 511.524,179.92 521.5,181C 530.564,185.566 537.898,192.066 543.5,200.5 Z"/></g>
<g><path style="opacity:1" fill="#8e9199" d="M 573.5,183.5 C 620.523,220.216 656.023,265.882 680,320.5C 687.735,339.539 694.568,358.873 700.5,378.5C 696.412,377.079 692.412,377.245 688.5,379C 684.602,382.729 680.935,386.562 677.5,390.5C 676.89,389.609 676.557,388.609 676.5,387.5C 678.061,385.509 679.061,383.176 679.5,380.5C 676.821,362.499 666.821,351.165 649.5,346.5C 650.343,350.522 652.01,354.188 654.5,357.5C 654.291,358.086 653.957,358.586 653.5,359C 655.05,362.604 657.217,365.771 660,368.5C 660.58,371.547 660.247,371.881 659,369.5C 658.833,370 658.667,370.5 658.5,371C 666.261,384.803 670.095,399.636 670,415.5C 672.043,429.931 670.21,443.764 664.5,457C 648.073,463.71 633.073,472.71 619.5,484C 618.668,484.688 618.002,484.521 617.5,483.5C 634.44,453.405 642.774,421.072 642.5,386.5C 651.536,349.797 648.536,314.131 633.5,279.5C 630.454,276.615 627.954,273.282 626,269.5C 620.98,263.076 614.48,259.41 606.5,258.5C 604.393,257.532 602.059,257.198 599.5,257.5C 595.743,250.22 590.576,243.887 584,238.5C 572.623,223.308 565.957,206.308 564,187.5C 566.896,185.467 570.063,184.134 573.5,183.5 Z"/></g>
<g><path style="opacity:1" fill="#060607" d="M 515.5,191.5 C 525.217,193.224 534.384,196.558 543,201.5C 543.399,201.272 543.565,200.938 543.5,200.5C 544.167,200.5 544.5,200.167 544.5,199.5C 547.062,205.232 551.229,209.565 557,212.5C 564.59,222.362 568.09,233.362 567.5,245.5C 560.825,222.658 546.158,207.491 523.5,200C 501.993,193.513 486.826,200.346 478,220.5C 477.333,221.5 477.333,222.5 478,223.5C 487.064,212.685 498.564,208.852 512.5,212C 533.46,216.713 544.46,229.879 545.5,251.5C 549.864,250.526 554.198,249.359 558.5,248C 561.482,247.502 564.482,247.335 567.5,247.5C 569.277,247.214 570.944,246.547 572.5,245.5C 579.09,247.59 584.423,251.423 588.5,257C 594.489,257.699 600.489,258.199 606.5,258.5C 614.48,259.41 620.98,263.076 626,269.5C 627.954,273.282 630.454,276.615 633.5,279.5C 648.536,314.131 651.536,349.797 642.5,386.5C 635.881,407.737 626.048,427.404 613,445.5C 598.639,465.531 582.472,484.031 564.5,501C 552.388,510.393 539.055,517.726 524.5,523C 512.065,538.063 496.398,548.396 477.5,554C 470.25,556.313 462.916,558.313 455.5,560C 448.469,563.685 441.135,566.518 433.5,568.5C 432.432,567.566 431.099,567.232 429.5,567.5C 435.469,566.001 441.469,564.168 447.5,562C 438.833,561.667 430.167,561.333 421.5,561C 418.736,560.468 416.07,559.634 413.5,558.5C 412.289,557.726 412.289,556.893 413.5,556C 420.833,555.667 428.167,555.333 435.5,555C 440.389,554.646 445.056,553.813 449.5,552.5C 464.997,549.634 479.663,544.634 493.5,537.5C 505.213,531.892 516.046,524.892 526,516.5C 527.528,513.583 528.861,510.583 530,507.5C 530.667,509.167 530.667,510.833 530,512.5C 528.374,515.058 527.374,517.725 527,520.5C 536.171,515.824 544.337,509.824 551.5,502.5C 556.126,499.542 560.126,495.876 563.5,491.5C 583.735,471.769 601.569,450.102 617,426.5C 637.31,394.282 644.31,359.282 638,321.5C 636.542,300.76 628.708,282.927 614.5,268C 587.536,263.828 562.203,268.328 538.5,281.5C 521.226,289.132 505.559,299.132 491.5,311.5C 492.881,307.951 494.881,304.784 497.5,302C 487.474,297.975 479.974,291.142 475,281.5C 466.8,259.29 466.466,236.957 474,214.5C 475.71,210.5 477.877,206.833 480.5,203.5C 490.189,194.175 501.855,190.175 515.5,191.5 Z"/></g>
<g><path style="opacity:1" fill="#f7f7f7" d="M 567.5,245.5 C 567.5,246.167 567.5,246.833 567.5,247.5C 564.482,247.335 561.482,247.502 558.5,248C 554.198,249.359 549.864,250.526 545.5,251.5C 544.46,229.879 533.46,216.713 512.5,212C 498.564,208.852 487.064,212.685 478,223.5C 477.333,222.5 477.333,221.5 478,220.5C 486.826,200.346 501.993,193.513 523.5,200C 546.158,207.491 560.825,222.658 567.5,245.5 Z"/></g>
<g><path style="opacity:1" fill="#656871" d="M 480.5,203.5 C 477.877,206.833 475.71,210.5 474,214.5C 466.466,236.957 466.8,259.29 475,281.5C 479.974,291.142 487.474,297.975 497.5,302C 494.881,304.784 492.881,307.951 491.5,311.5C 490.596,310.791 490.263,309.791 490.5,308.5C 483.134,307.83 476.801,304.83 471.5,299.5C 457.99,284.773 452.823,267.44 456,247.5C 458.809,234.242 463.142,221.575 469,209.5C 471.713,205.362 475.547,203.362 480.5,203.5 Z"/></g>
<g><path style="opacity:1" fill="#f7f7f7" d="M 515.5,224.5 C 519.232,224.95 522.398,226.617 525,229.5C 526.958,233.663 528.458,237.996 529.5,242.5C 522.862,252.187 515.362,252.854 507,244.5C 505.466,240.289 505.133,235.956 506,231.5C 507.887,229.114 510.387,227.947 513.5,228C 514.823,227.184 515.489,226.017 515.5,224.5 Z"/></g>
<g><path style="opacity:0.176" fill="#6a6c72" d="M 171.5,241.5 C 174.102,236.163 175.435,230.496 175.5,224.5C 175.215,222.712 175.548,221.045 176.5,219.5C 176.833,220.333 177.167,221.167 177.5,222C 176.807,226.81 176.307,231.643 176,236.5C 175.004,238.66 173.504,240.327 171.5,241.5 Z"/></g>
<g><path style="opacity:1" fill="#62656e" d="M 567.5,250.5 C 574.166,249.965 579.499,252.465 583.5,258C 552.403,263.883 525.069,277.217 501.5,298C 500.275,298.563 499.275,298.23 498.5,297C 500.407,293.09 503.073,289.756 506.5,287C 516.116,280.385 525.45,273.385 534.5,266C 544.841,259.16 555.841,253.993 567.5,250.5 Z"/></g>
<g><path style="opacity:1" fill="#63666f" d="M 181.5,243.5 C 181.098,249.797 182.265,255.797 185,261.5C 193.153,275.644 204.987,285.477 220.5,291C 213.863,293.767 207.529,297.1 201.5,301C 198.12,301.339 194.787,301.839 191.5,302.5C 193.647,300.53 195.98,298.697 198.5,297C 203.416,295.194 208.416,293.694 213.5,292.5C 198.834,286.995 188.334,291.328 182,305.5C 181.429,290.502 180.929,275.502 180.5,260.5C 180.501,254.657 180.834,248.99 181.5,243.5 Z"/></g>
<g><path style="opacity:1" fill="#656871" d="M 196.5,395.5 C 197.167,395.833 197.833,396.167 198.5,396.5C 197.21,397.935 195.544,398.935 193.5,399.5C 189.95,406.166 189.617,413 192.5,420C 186.919,424.91 182.086,430.41 178,436.5C 174.897,456.537 179.23,474.871 191,491.5C 244.489,553.651 312.322,582.484 394.5,578C 407.902,576.363 420.902,573.197 433.5,568.5C 441.135,566.518 448.469,563.685 455.5,560C 462.916,558.313 470.25,556.313 477.5,554C 496.398,548.396 512.065,538.063 524.5,523C 539.055,517.726 552.388,510.393 564.5,501C 582.472,484.031 598.639,465.531 613,445.5C 626.048,427.404 635.881,407.737 642.5,386.5C 642.774,421.072 634.44,453.405 617.5,483.5C 618.002,484.521 618.668,484.688 619.5,484C 633.073,472.71 648.073,463.71 664.5,457C 670.21,443.764 672.043,429.931 670,415.5C 670.095,399.636 666.261,384.803 658.5,371C 658.667,370.5 658.833,370 659,369.5C 660.247,371.881 660.58,371.547 660,368.5C 657.217,365.771 655.05,362.604 653.5,359C 653.957,358.586 654.291,358.086 654.5,357.5C 652.01,354.188 650.343,350.522 649.5,346.5C 666.821,351.165 676.821,362.499 679.5,380.5C 679.061,383.176 678.061,385.509 676.5,387.5C 672.885,379.607 668.718,371.941 664,364.5C 663.333,368.167 663.333,371.833 664,375.5C 677.431,402.945 686.264,431.611 690.5,461.5C 686.999,459.329 683.165,457.996 679,457.5C 676.849,457.643 675.182,458.643 674,460.5C 672.274,459.424 670.441,459.257 668.5,460C 660.747,462.768 653.747,466.768 647.5,472C 630.316,486.218 614.816,502.051 601,519.5C 597.655,523.531 594.821,527.864 592.5,532.5C 592.899,534.197 593.399,535.863 594,537.5C 595.049,535.382 596.549,533.716 598.5,532.5C 594.741,541.757 588.408,548.591 579.5,553C 576.854,553.497 574.187,553.664 571.5,553.5C 571.737,554.791 571.404,555.791 570.5,556.5C 570.44,555.957 570.107,555.624 569.5,555.5C 554.729,572.382 546.562,592.049 545,614.5C 546.013,605.742 548.846,597.742 553.5,590.5C 552.838,594.157 552.171,597.824 551.5,601.5C 551.833,602.833 552.167,604.167 552.5,605.5C 555.237,599.457 558.07,593.457 561,587.5C 563.564,585.273 566.397,583.439 569.5,582C 571.979,578.353 574.979,575.187 578.5,572.5C 579.647,574.765 579.814,577.098 579,579.5C 577.206,587.216 575.206,594.882 573,602.5C 572.219,605.834 571.886,609.167 572,612.5C 576.437,601.623 581.437,590.956 587,580.5C 593.507,570.157 599.507,559.49 605,548.5C 613.968,535.863 625.135,525.696 638.5,518C 639.448,517.517 640.448,517.351 641.5,517.5C 607.085,551.629 583.419,592.296 570.5,639.5C 569.178,639.33 568.011,639.663 567,640.5C 565.803,643.089 564.803,645.756 564,648.5C 558.411,635.042 558.077,621.375 563,607.5C 579.476,570.231 577.809,569.231 558,604.5C 554.44,615.344 553.773,626.344 556,637.5C 559.459,642.583 561.959,648.083 563.5,654C 561.882,663.444 560.715,672.944 560,682.5C 546.116,691.025 531.616,698.359 516.5,704.5C 515.957,703.258 515.623,701.925 515.5,700.5C 516.789,695.263 518.623,690.263 521,685.5C 523.618,677.88 521.118,673.046 513.5,671C 509.864,669.732 506.197,668.566 502.5,667.5C 495.226,670.47 488.226,673.97 481.5,678C 478.226,679.202 474.893,680.202 471.5,681C 455.541,682.267 439.541,683.1 423.5,683.5C 388.011,680.724 352.844,675.724 318,668.5C 314.134,668.336 311.634,670.003 310.5,673.5C 311.633,677.761 313.3,681.761 315.5,685.5C 305.657,680.416 296.324,674.582 287.5,668C 284.753,664.838 283.086,661.171 282.5,657C 285.414,653.67 284.747,651.503 280.5,650.5C 272.89,627.607 261.39,606.941 246,588.5C 236.202,577.034 226.036,565.867 215.5,555C 205.269,545.927 194.936,537.094 184.5,528.5C 187.516,528.841 190.182,530.007 192.5,532C 203.885,541.052 215.551,549.719 227.5,558C 236.685,567.55 245.518,577.384 254,587.5C 266.689,604.552 275.356,623.552 280,644.5C 281.617,638.674 281.95,632.674 281,626.5C 277.142,618.456 274.142,610.123 272,601.5C 264.615,592.45 257.615,583.116 251,573.5C 251,574.833 251,576.167 251,577.5C 249.961,576.756 249.461,575.756 249.5,574.5C 230.082,539.96 201.749,515.96 164.5,502.5C 164.01,500.052 164.843,498.385 167,497.5C 175.501,499.611 183.668,502.611 191.5,506.5C 191.833,506.167 192.167,505.833 192.5,505.5C 188.317,498.141 183.151,491.474 177,485.5C 172.16,475.58 168.326,465.413 165.5,455C 158.86,453.156 154.193,455.322 151.5,461.5C 154.677,467.837 158.844,473.504 164,478.5C 165.329,483.303 163.829,485.303 159.5,484.5C 158.013,483.196 156.346,482.03 154.5,481C 147.963,480.776 141.463,480.276 135,479.5C 132.419,480.417 130.086,481.751 128,483.5C 132.45,434.678 145.117,388.345 166,344.5C 157.06,356.709 149.393,369.709 143,383.5C 133.621,410.572 127.787,438.238 125.5,466.5C 124.833,466.5 124.5,466.167 124.5,465.5C 126.835,458.251 124.502,452.751 117.5,449C 113.932,447.382 110.265,446.049 106.5,445C 104.95,441.402 103.284,437.902 101.5,434.5C 109.856,435.238 116.023,431.905 120,424.5C 123.999,417.407 124.833,410.074 122.5,402.5C 123.79,403.058 124.623,404.058 125,405.5C 126.376,398.688 123.543,394.688 116.5,393.5C 115.224,392.386 115.224,391.386 116.5,390.5C 118.259,390.954 120.259,390.954 122.5,390.5C 122.343,389.127 122.51,387.793 123,386.5C 125.333,382.833 127.667,379.167 130,375.5C 135.271,358.352 140.938,341.352 147,324.5C 148.488,316.555 148.822,308.555 148,300.5C 147.583,299.244 146.75,298.577 145.5,298.5C 154.713,282.451 164.547,266.785 175,251.5C 175.785,272.588 177.285,293.588 179.5,314.5C 177.65,320.714 177.15,327.047 178,333.5C 178.763,336.47 180.263,338.97 182.5,341C 177.638,355.644 178.805,369.811 186,383.5C 189.575,387.653 192.909,391.986 196,396.5C 196.399,396.272 196.565,395.938 196.5,395.5 Z"/></g>
<g><path style="opacity:1" fill="#656871" d="M 563.5,491.5 C 561.791,491.392 559.791,491.225 557.5,491C 558.126,490.25 558.626,489.416 559,488.5C 567.629,482.205 575.295,474.872 582,466.5C 591.838,450.828 601.171,434.828 610,418.5C 615.672,403.159 620.338,387.493 624,371.5C 624.873,358.837 625.206,346.17 625,333.5C 622.858,327.283 620.858,320.95 619,314.5C 612.919,305.748 606.086,297.582 598.5,290C 579.71,279.154 559.71,276.32 538.5,281.5C 562.203,268.328 587.536,263.828 614.5,268C 628.708,282.927 636.542,300.76 638,321.5C 644.31,359.282 637.31,394.282 617,426.5C 601.569,450.102 583.735,471.769 563.5,491.5 Z"/></g>
<g><path style="opacity:1" fill="#0e0e0e" d="M 386.5,303.5 C 385.127,303.657 383.793,303.49 382.5,303C 375.245,294.907 367.245,287.74 358.5,281.5C 358.235,292.12 358.235,302.787 358.5,313.5C 364.478,314.409 370.478,314.575 376.5,314C 380.993,312.104 384.659,309.271 387.5,305.5C 388.167,305.5 388.833,305.5 389.5,305.5C 389.383,312.622 386.049,317.622 379.5,320.5C 376.843,320.83 374.176,321.163 371.5,321.5C 367.12,320.53 362.787,319.697 358.5,319C 356.864,323.571 358.198,327.071 362.5,329.5C 377.23,334.052 387.397,329.052 393,314.5C 393.556,312.115 393.39,309.782 392.5,307.5C 393.75,307.577 394.583,308.244 395,309.5C 396.849,322.308 391.682,330.808 379.5,335C 374.167,335.667 368.833,335.667 363.5,335C 355.652,332.16 352.485,326.66 354,318.5C 355.067,317.809 356.234,317.309 357.5,317C 356.956,316.283 356.289,315.783 355.5,315.5C 354.253,305.373 353.253,295.206 352.5,285C 352.079,278.419 355.079,275.752 361.5,277C 365.336,279.084 369.003,281.417 372.5,284C 376.967,289.468 381.8,294.635 387,299.5C 387.579,300.928 387.412,302.262 386.5,303.5 Z"/></g>
<g><path style="opacity:1" fill="#d5d3cd" d="M 386.5,303.5 C 387.167,303.5 387.5,303.833 387.5,304.5C 387.5,304.833 387.5,305.167 387.5,305.5C 384.659,309.271 380.993,312.104 376.5,314C 370.478,314.575 364.478,314.409 358.5,313.5C 358.235,302.787 358.235,292.12 358.5,281.5C 367.245,287.74 375.245,294.907 382.5,303C 383.793,303.49 385.127,303.657 386.5,303.5 Z"/></g>
<g><path style="opacity:1" fill="#666972" d="M 295.5,384.5 C 292.311,383.834 288.977,383.167 285.5,382.5C 290.021,369.845 289.188,357.512 283,345.5C 271.731,326.558 255.898,313.058 235.5,305C 230.566,303.84 225.566,303.34 220.5,303.5C 222.337,300.895 224.67,298.728 227.5,297C 233.5,296.333 239.5,296.333 245.5,297C 253.91,300.369 262.244,304.036 270.5,308C 273.965,310.463 277.131,313.296 280,316.5C 293.988,337.354 299.155,360.021 295.5,384.5 Z"/></g>
<g><path style="opacity:1" fill="#8d9098" d="M 145.5,298.5 C 146.75,298.577 147.583,299.244 148,300.5C 148.822,308.555 148.488,316.555 147,324.5C 140.938,341.352 135.271,358.352 130,375.5C 127.667,379.167 125.333,382.833 123,386.5C 122.51,387.793 122.343,389.127 122.5,390.5C 120.259,390.954 118.259,390.954 116.5,390.5C 120.125,357.956 129.792,327.289 145.5,298.5 Z"/></g>
<g><path style="opacity:1" fill="#656871" d="M 389.5,339.5 C 385.871,340.1 382.204,340.767 378.5,341.5C 382.867,346.363 387.534,346.696 392.5,342.5C 394.249,344.928 395.582,347.594 396.5,350.5C 396.06,353.214 394.726,355.38 392.5,357C 388.001,357.501 383.668,356.834 379.5,355C 375.678,351.897 374.678,348.064 376.5,343.5C 367.564,343.914 360.064,340.914 354,334.5C 350.332,329.156 349.666,323.489 352,317.5C 352.816,316.177 353.983,315.511 355.5,315.5C 356.289,315.783 356.956,316.283 357.5,317C 356.234,317.309 355.067,317.809 354,318.5C 352.485,326.66 355.652,332.16 363.5,335C 368.833,335.667 374.167,335.667 379.5,335C 391.682,330.808 396.849,322.308 395,309.5C 394.583,308.244 393.75,307.577 392.5,307.5C 391.5,306.833 390.5,306.167 389.5,305.5C 388.833,305.5 388.167,305.5 387.5,305.5C 387.5,305.167 387.5,304.833 387.5,304.5C 388.812,304.176 389.645,303.509 390,302.5C 397.376,304.25 401.209,308.916 401.5,316.5C 401.451,325.273 397.784,331.94 390.5,336.5C 389.614,337.325 389.281,338.325 389.5,339.5 Z"/></g>
<g><path style="opacity:1" fill="#080809" d="M 487.5,318.5 C 490.474,329.631 489.974,340.631 486,351.5C 484.668,353.66 483.168,355.66 481.5,357.5C 478.166,359.084 475.166,358.584 472.5,356C 475.232,355.602 477.065,354.102 478,351.5C 483.685,340.403 483.685,329.403 478,318.5C 468.77,308.475 458.937,307.975 448.5,317C 443.014,320.811 439.681,325.978 438.5,332.5C 439.33,336.149 439.996,339.815 440.5,343.5C 439.167,343.5 437.833,343.5 436.5,343.5C 432.283,335.211 432.616,327.211 437.5,319.5C 443.211,309.311 451.878,303.645 463.5,302.5C 474.867,302.846 482.867,308.18 487.5,318.5 Z"/></g>
<g><path style="opacity:1" fill="#8a8d95" d="M 389.5,305.5 C 390.5,306.167 391.5,306.833 392.5,307.5C 393.39,309.782 393.556,312.115 393,314.5C 387.397,329.052 377.23,334.052 362.5,329.5C 362.5,327.833 362.5,326.167 362.5,324.5C 368.8,325.319 374.467,323.985 379.5,320.5C 386.049,317.622 389.383,312.622 389.5,305.5 Z"/></g>
<g><path style="opacity:1" fill="#62656d" d="M 189.5,305.5 C 189.89,308.839 190.39,312.173 191,315.5C 192.011,316.337 193.178,316.67 194.5,316.5C 189.658,322.869 185.825,329.869 183,337.5C 180.391,325.927 182.557,315.26 189.5,305.5 Z"/></g>
<g><path style="opacity:1" fill="#fafafa" d="M 238.5,312.5 C 237.167,313.167 235.833,313.833 234.5,314.5C 216.898,317.937 206.398,328.603 203,346.5C 201.361,361.251 205.861,373.751 216.5,384C 209.598,386.944 203.598,391.111 198.5,396.5C 197.833,396.167 197.167,395.833 196.5,395.5C 183.928,373.124 183.428,350.457 195,327.5C 205.27,310.465 219.77,305.465 238.5,312.5 Z"/></g>
<g><path style="opacity:1" fill="#7e7e7e" d="M 238.5,312.5 C 239.473,312.987 240.473,313.487 241.5,314C 239.19,314.497 236.857,314.663 234.5,314.5C 235.833,313.833 237.167,313.167 238.5,312.5 Z"/></g>
<g><path style="opacity:1" fill="#656871" d="M 379.5,320.5 C 374.467,323.985 368.8,325.319 362.5,324.5C 362.5,326.167 362.5,327.833 362.5,329.5C 358.198,327.071 356.864,323.571 358.5,319C 362.787,319.697 367.12,320.53 371.5,321.5C 374.176,321.163 376.843,320.83 379.5,320.5 Z"/></g>
<g><path style="opacity:1" fill="#63666f" d="M 487.5,318.5 C 490.889,320.725 493.389,323.725 495,327.5C 495.667,333.167 495.667,338.833 495,344.5C 493.249,351.752 488.749,356.085 481.5,357.5C 483.168,355.66 484.668,353.66 486,351.5C 489.974,340.631 490.474,329.631 487.5,318.5 Z"/></g>
<g><path style="opacity:1" fill="#656871" d="M 437.5,319.5 C 432.616,327.211 432.283,335.211 436.5,343.5C 434.606,342.952 432.94,341.952 431.5,340.5C 427.482,331.591 429.482,324.591 437.5,319.5 Z"/></g>
<g><path style="opacity:1" fill="#0a0a0b" d="M 462.5,351.5 C 461.957,351.44 461.624,351.107 461.5,350.5C 462.325,349.614 463.325,349.281 464.5,349.5C 465.583,345.915 466.249,342.249 466.5,338.5C 465.371,333.522 462.371,331.022 457.5,331C 454.606,333.909 453.773,337.409 455,341.5C 456.049,343.107 457.549,343.773 459.5,343.5C 458.206,348.916 455.206,349.916 450.5,346.5C 445.516,337.872 446.849,330.372 454.5,324C 465.926,323.081 472.259,328.414 473.5,340C 473.617,347.714 469.95,351.547 462.5,351.5 Z"/></g>
<g><path style="opacity:1" fill="#f6f6f6" d="M 254.5,329.5 C 257.315,330.126 259.815,331.46 262,333.5C 265.622,336.911 267.789,341.078 268.5,346C 268.646,348.034 267.98,349.701 266.5,351C 253.923,358.328 247.257,354.495 246.5,339.5C 246.667,337.833 246.833,336.167 247,334.5C 249.273,332.372 251.773,330.705 254.5,329.5 Z"/></g>
<g><path style="opacity:1" fill="#3d4048" d="M 466.5,338.5 C 464.833,338.5 463.167,338.5 461.5,338.5C 461.88,340.698 461.213,342.365 459.5,343.5C 457.549,343.773 456.049,343.107 455,341.5C 453.773,337.409 454.606,333.909 457.5,331C 462.371,331.022 465.371,333.522 466.5,338.5 Z"/></g>
<g><path style="opacity:1" fill="#63666f" d="M 466.5,338.5 C 466.249,342.249 465.583,345.915 464.5,349.5C 463.325,349.281 462.325,349.614 461.5,350.5C 461.624,351.107 461.957,351.44 462.5,351.5C 461.903,352.139 461.07,352.472 460,352.5C 456.671,351.778 453.504,350.778 450.5,349.5C 450.5,348.5 450.5,347.5 450.5,346.5C 455.206,349.916 458.206,348.916 459.5,343.5C 461.213,342.365 461.88,340.698 461.5,338.5C 463.167,338.5 464.833,338.5 466.5,338.5 Z"/></g>
<g><path style="opacity:1" fill="#0f0f10" d="M 392.5,342.5 C 387.534,346.696 382.867,346.363 378.5,341.5C 382.204,340.767 385.871,340.1 389.5,339.5C 390.735,339.279 391.735,338.612 392.5,337.5C 393.052,339.003 393.052,340.669 392.5,342.5 Z"/></g>
<g><path style="opacity:1" fill="#0b0b0c" d="M 360.5,382.5 C 358.626,376.738 355.293,372.072 350.5,368.5C 338.731,358.283 328.231,359.617 319,372.5C 316.148,376.204 313.815,380.204 312,384.5C 310.993,389.111 311.66,393.445 314,397.5C 320.512,405.148 328.012,411.482 336.5,416.5C 322.539,414.06 312.373,406.393 306,393.5C 305.502,390.518 305.335,387.518 305.5,384.5C 308.368,373.258 314.368,364.092 323.5,357C 334.246,350.241 343.746,351.741 352,361.5C 355.185,367.377 358.185,373.377 361,379.5C 361.779,381.514 361.612,382.514 360.5,382.5 Z"/></g>
<g><path style="opacity:1" fill="#09090a" d="M 676.5,387.5 C 676.557,388.609 676.89,389.609 677.5,390.5C 679.329,394.856 680.996,399.189 682.5,403.5C 684.029,407.421 685.363,411.421 686.5,415.5C 691.821,431.747 695.321,448.414 697,465.5C 701.772,469.073 705.605,473.406 708.5,478.5C 710.243,482.661 711.41,486.994 712,491.5C 713,492.5 714,493.5 715,494.5C 715.499,498.821 715.666,503.154 715.5,507.5C 713.108,511.278 710.941,515.278 709,519.5C 707.667,520.833 706.333,520.833 705,519.5C 704.333,517.833 704.333,516.167 705,514.5C 709.883,508.739 711.716,502.072 710.5,494.5C 708.61,494.703 707.11,494.037 706,492.5C 701.157,477.656 691.49,467.323 677,461.5C 676.51,462.793 676.343,464.127 676.5,465.5C 674.952,465.179 674.285,464.179 674.5,462.5C 669.285,464.441 664.285,466.941 659.5,470C 635.897,487.768 615.564,508.601 598.5,532.5C 596.549,533.716 595.049,535.382 594,537.5C 593.399,535.863 592.899,534.197 592.5,532.5C 594.821,527.864 597.655,523.531 601,519.5C 614.816,502.051 630.316,486.218 647.5,472C 653.747,466.768 660.747,462.768 668.5,460C 670.441,459.257 672.274,459.424 674,460.5C 675.182,458.643 676.849,457.643 679,457.5C 683.165,457.996 686.999,459.329 690.5,461.5C 686.264,431.611 677.431,402.945 664,375.5C 663.333,371.833 663.333,368.167 664,364.5C 668.718,371.941 672.885,379.607 676.5,387.5 Z"/></g>
<g><path style="opacity:1" fill="#62656d" d="M 350.5,368.5 C 355.293,372.072 358.626,376.738 360.5,382.5C 358.629,382.141 357.129,381.141 356,379.5C 353.607,376.048 351.774,372.381 350.5,368.5 Z"/></g>
<g><path style="opacity:1" fill="#0a0b0b" d="M 348.5,396.5 C 347.539,394.735 347.205,392.735 347.5,390.5C 344.896,378.441 339.062,376.441 330,384.5C 326.298,389.456 326.798,393.789 331.5,397.5C 335.248,398.379 338.915,398.712 342.5,398.5C 340.578,400.582 338.245,401.916 335.5,402.5C 327.059,403.224 322.392,399.39 321.5,391C 323.295,379.455 329.962,373.455 341.5,373C 347.468,375.266 350.468,379.599 350.5,386C 350.226,389.592 349.559,393.092 348.5,396.5 Z"/></g>
<g><path style="opacity:1" fill="#63666e" d="M 264.5,378.5 C 270.112,378.953 275.446,380.286 280.5,382.5C 248.416,384.966 220.249,396.633 196,417.5C 195.333,413.167 195.333,408.833 196,404.5C 205.444,395.358 216.61,389.192 229.5,386C 241.206,383.055 252.873,380.555 264.5,378.5 Z"/></g>
<g><path style="opacity:1" fill="#646770" d="M 700.5,378.5 C 701.867,381.268 702.867,384.268 703.5,387.5C 696.75,389.2 691.417,392.867 687.5,398.5C 687.565,398.062 687.399,397.728 687,397.5C 684.873,399.114 683.373,401.114 682.5,403.5C 680.996,399.189 679.329,394.856 677.5,390.5C 680.935,386.562 684.602,382.729 688.5,379C 692.412,377.245 696.412,377.079 700.5,378.5 Z"/></g>
<g><path style="opacity:1" fill="#3d4048" d="M 347.5,390.5 C 343.369,391.958 339.036,392.958 334.5,393.5C 333.476,394.852 332.476,396.185 331.5,397.5C 326.798,393.789 326.298,389.456 330,384.5C 339.062,376.441 344.896,378.441 347.5,390.5 Z"/></g>
<g><path style="opacity:0.522" fill="#858890" d="M 114.5,380.5 C 114.622,387.589 111.622,392.922 105.5,396.5C 109.375,391.634 112.375,386.3 114.5,380.5 Z"/></g>
<g><path style="opacity:1" fill="#656871" d="M 292.5,385.5 C 290.608,388.455 287.942,390.455 284.5,391.5C 279.526,392.395 274.526,392.395 269.5,391.5C 276.873,388.715 284.539,386.715 292.5,385.5 Z"/></g>
<g><path style="opacity:1" fill="#090708" d="M 483.5,389.5 C 481.897,388.404 480.397,387.07 479,385.5C 476.346,390.633 472.846,395.133 468.5,399C 471.433,401.264 473.6,404.098 475,407.5C 480.97,421.579 485.804,435.913 489.5,450.5C 489.666,459.506 489.5,468.506 489,477.5C 486.284,498.564 474.45,508.064 453.5,506C 449.284,505.28 445.284,503.947 441.5,502C 427.801,493.469 415.801,482.969 405.5,470.5C 398.151,459.808 391.817,448.475 386.5,436.5C 381.208,435.505 375.875,435.172 370.5,435.5C 370.5,437.167 370.5,438.833 370.5,440.5C 369.955,442.593 369.122,444.593 368,446.5C 364.139,441.276 363.472,435.609 366,429.5C 367.11,427.963 368.61,427.297 370.5,427.5C 370.5,428.5 370.5,429.5 370.5,430.5C 390.818,428.421 410.151,422.921 428.5,414C 444.162,405.504 459.496,396.504 474.5,387C 477.361,384.106 479.861,380.939 482,377.5C 481.954,379.313 482.12,380.979 482.5,382.5C 486.384,384.126 490.051,386.126 493.5,388.5C 490.338,390.667 487.005,391 483.5,389.5 Z"/></g>
<g><path style="opacity:1" fill="#656871" d="M 483.5,389.5 C 482.876,389.917 482.543,390.584 482.5,391.5C 486.071,402.26 488.571,413.26 490,424.5C 490.416,433.174 490.25,441.841 489.5,450.5C 485.804,435.913 480.97,421.579 475,407.5C 473.6,404.098 471.433,401.264 468.5,399C 472.846,395.133 476.346,390.633 479,385.5C 480.397,387.07 481.897,388.404 483.5,389.5 Z"/></g>
<g><path style="opacity:0.497" fill="#83858d" d="M 709.5,384.5 C 711.485,387.798 713.485,391.131 715.5,394.5C 711.115,392.751 709.115,389.418 709.5,384.5 Z"/></g>
<g><path style="opacity:1" fill="#646770" d="M 305.5,384.5 C 305.335,387.518 305.502,390.518 306,393.5C 312.373,406.393 322.539,414.06 336.5,416.5C 336.389,417.117 336.056,417.617 335.5,418C 307.956,422.296 297.956,411.129 305.5,384.5 Z"/></g>
<g><path style="opacity:1" fill="#63666e" d="M 347.5,390.5 C 347.205,392.735 347.539,394.735 348.5,396.5C 347.811,397.774 346.977,397.774 346,396.5C 344.946,403.085 341.446,405.085 335.5,402.5C 338.245,401.916 340.578,400.582 342.5,398.5C 338.915,398.712 335.248,398.379 331.5,397.5C 332.476,396.185 333.476,394.852 334.5,393.5C 339.036,392.958 343.369,391.958 347.5,390.5 Z"/></g>
<g><path style="opacity:1" fill="#8d9098" d="M 717.5,410.5 C 713.096,413.206 708.43,415.706 703.5,418C 697.461,419.196 691.795,418.362 686.5,415.5C 685.363,411.421 684.029,407.421 682.5,403.5C 683.373,401.114 684.873,399.114 687,397.5C 687.399,397.728 687.565,398.062 687.5,398.5C 686.2,399.601 685.7,400.934 686,402.5C 691.955,396.673 698.955,394.34 707,395.5C 710.18,397.686 712.18,400.686 713,404.5C 713.333,403.5 713.667,402.5 714,401.5C 716.05,404.148 717.216,407.148 717.5,410.5 Z"/></g>
<g><path style="opacity:1" fill="#656871" d="M 260.5,393.5 C 257.264,396.797 253.597,399.63 249.5,402C 238.953,406.538 230.12,413.371 223,422.5C 215.838,431.113 212.338,441.113 212.5,452.5C 215.257,462.271 219.091,471.604 224,480.5C 229.667,488.833 235.333,497.167 241,505.5C 252.167,517.333 263.333,529.167 274.5,541C 281.262,545.369 287.595,550.202 293.5,555.5C 254.773,540.944 221.939,517.944 195,486.5C 189.135,479.102 185.135,470.768 183,461.5C 180.264,448.252 183.764,437.085 193.5,428C 213.609,412.278 235.942,400.778 260.5,393.5 Z"/></g>
<g><path style="opacity:1" fill="#8e9199" d="M 122.5,402.5 C 124.833,410.074 123.999,417.407 120,424.5C 116.023,431.905 109.856,435.238 101.5,434.5C 98.5285,431.246 96.0285,427.58 94,423.5C 93.245,420.697 93.5783,418.03 95,415.5C 99.5226,409.98 104.356,404.813 109.5,400C 114.084,399.471 118.417,400.304 122.5,402.5 Z"/></g>
<g><path style="opacity:1" fill="#272727" d="M 465.5,400.5 C 467.942,400.119 468.609,400.786 467.5,402.5C 471.359,416.912 475.526,431.245 480,445.5C 481.498,455.455 481.831,465.455 481,475.5C 480.555,469.433 477.722,464.933 472.5,462C 469.503,461.245 467.003,462.078 465,464.5C 462.575,468.349 460.408,472.349 458.5,476.5C 450.984,470.672 444.151,471.338 438,478.5C 436.534,481.732 435.367,485.065 434.5,488.5C 414.771,474.635 400.604,456.635 392,434.5C 394.461,433.782 396.961,433.115 399.5,432.5C 401.363,443.752 407.696,447.919 418.5,445C 424.951,439.65 426.951,432.983 424.5,425C 429.19,423.215 433.69,421.049 438,418.5C 443.036,429.429 450.203,431.262 459.5,424C 465.964,418.249 466.964,411.749 462.5,404.5C 463.524,403.148 464.524,401.815 465.5,400.5 Z"/></g>
<g><path style="opacity:1" fill="#ded7cd" d="M 457.5,406.5 C 459.439,407.014 460.439,408.347 460.5,410.5C 458.887,415.292 456.22,419.459 452.5,423C 448.077,422.782 444.743,420.615 442.5,416.5C 447.738,413.391 452.738,410.058 457.5,406.5 Z"/></g>
<g><path style="opacity:1" fill="#dfd9ce" d="M 415.5,427.5 C 417.144,427.286 418.644,427.62 420,428.5C 420.787,433.885 418.954,438.052 414.5,441C 408.624,441.548 404.958,438.882 403.5,433C 407.36,430.868 411.36,429.034 415.5,427.5 Z"/></g>
<g><path style="opacity:0.608" fill="#525357" d="M 721.5,428.5 C 720.391,428.557 719.391,428.89 718.5,429.5C 717.425,430.562 716.425,430.562 715.5,429.5C 717.395,427.514 719.395,427.181 721.5,428.5 Z"/></g>
<g><path style="opacity:1" fill="#63666f" d="M 717.5,410.5 C 719.38,413.597 720.713,416.93 721.5,420.5C 709.003,422.782 700.336,430.282 695.5,443C 695.833,443.833 696.167,444.667 696.5,445.5C 700.851,440.315 705.684,435.649 711,431.5C 713.955,442.968 717.122,454.635 720.5,466.5C 715.989,468.018 712.823,471.018 711,475.5C 710.667,473.167 710.333,470.833 710,468.5C 708.684,471.688 708.184,475.022 708.5,478.5C 705.605,473.406 701.772,469.073 697,465.5C 695.321,448.414 691.821,431.747 686.5,415.5C 691.795,418.362 697.461,419.196 703.5,418C 708.43,415.706 713.096,413.206 717.5,410.5 Z"/></g>
<g><path style="opacity:1" fill="#656871" d="M 405.5,470.5 C 403.407,469.955 401.407,469.122 399.5,468C 395.452,464.284 391.118,460.95 386.5,458C 381.244,451.919 375.911,446.086 370.5,440.5C 370.5,438.833 370.5,437.167 370.5,435.5C 375.875,435.172 381.208,435.505 386.5,436.5C 391.817,448.475 398.151,459.808 405.5,470.5 Z"/></g>
<g><path style="opacity:1" fill="#646770" d="M 124.5,465.5 C 119.743,467.959 116.076,471.626 113.5,476.5C 116.337,475.865 118.837,476.865 121,479.5C 121.181,482.695 121.681,485.695 122.5,488.5C 112.683,498.771 110.849,510.438 117,523.5C 119.297,526.98 122.464,528.98 126.5,529.5C 124.542,545.579 122.042,561.579 119,577.5C 111.367,606.03 104.367,634.697 98,663.5C 97.9931,650.495 91.9931,641.495 80,636.5C 78.5456,634.756 78.3789,633.089 79.5,631.5C 81.4665,634.296 83.9665,636.63 87,638.5C 88.9439,637.561 90.6106,636.227 92,634.5C 102.119,617.748 108.119,600.414 110,582.5C 111.258,565.848 111.591,549.181 111,532.5C 110.055,528.886 109.388,525.219 109,521.5C 104.155,514.41 103.155,506.743 106,498.5C 108.346,494.51 110.179,490.344 111.5,486C 111.385,484.105 110.718,482.438 109.5,481C 106.854,480.503 104.187,480.336 101.5,480.5C 103.267,470.011 105.6,459.678 108.5,449.5C 115.181,453.567 120.514,458.9 124.5,465.5 Z"/></g>
<g><path style="opacity:1" fill="#8d9098" d="M 164.5,502.5 C 159.96,500.849 155.293,500.349 150.5,501C 183.442,514.393 213.276,534.56 240,561.5C 243.03,566.015 246.197,570.349 249.5,574.5C 249.461,575.756 249.961,576.756 251,577.5C 251,576.167 251,574.833 251,573.5C 257.615,583.116 264.615,592.45 272,601.5C 274.142,610.123 277.142,618.456 281,626.5C 281.95,632.674 281.617,638.674 280,644.5C 275.356,623.552 266.689,604.552 254,587.5C 245.518,577.384 236.685,567.55 227.5,558C 215.551,549.719 203.885,541.052 192.5,532C 190.182,530.007 187.516,528.841 184.5,528.5C 175.525,521.727 165.858,515.894 155.5,511C 147.15,507.889 139.15,507.723 131.5,510.5C 130.167,510.5 128.833,510.5 127.5,510.5C 126.217,503.826 126.217,497.159 127.5,490.5C 136.848,482.34 147.515,480.34 159.5,484.5C 163.829,485.303 165.329,483.303 164,478.5C 158.844,473.504 154.677,467.837 151.5,461.5C 154.193,455.322 158.86,453.156 165.5,455C 168.326,465.413 172.16,475.58 177,485.5C 183.151,491.474 188.317,498.141 192.5,505.5C 192.167,505.833 191.833,506.167 191.5,506.5C 183.668,502.611 175.501,499.611 167,497.5C 164.843,498.385 164.01,500.052 164.5,502.5 Z"/></g>
<g><path style="opacity:1" fill="#8e9199" d="M 676.5,465.5 C 678.716,466.203 680.549,467.536 682,469.5C 684.673,473.664 687.507,477.664 690.5,481.5C 689.043,484.991 688.043,488.658 687.5,492.5C 684.694,493.168 682.028,493.834 679.5,494.5C 673.439,495.526 667.772,497.693 662.5,501C 655.026,505.982 648.026,511.482 641.5,517.5C 640.448,517.351 639.448,517.517 638.5,518C 625.135,525.696 613.968,535.863 605,548.5C 599.507,559.49 593.507,570.157 587,580.5C 581.437,590.956 576.437,601.623 572,612.5C 571.886,609.167 572.219,605.834 573,602.5C 575.206,594.882 577.206,587.216 579,579.5C 579.814,577.098 579.647,574.765 578.5,572.5C 574.979,575.187 571.979,578.353 569.5,582C 566.397,583.439 563.564,585.273 561,587.5C 558.07,593.457 555.237,599.457 552.5,605.5C 552.167,604.167 551.833,602.833 551.5,601.5C 552.171,597.824 552.838,594.157 553.5,590.5C 559.182,579.136 564.849,567.802 570.5,556.5C 571.404,555.791 571.737,554.791 571.5,553.5C 574.187,553.664 576.854,553.497 579.5,553C 588.408,548.591 594.741,541.757 598.5,532.5C 615.564,508.601 635.897,487.768 659.5,470C 664.285,466.941 669.285,464.441 674.5,462.5C 674.285,464.179 674.952,465.179 676.5,465.5 Z"/></g>
<g><path style="opacity:1" fill="#656870" d="M 715.5,507.5 C 715.53,511.279 714.53,514.779 712.5,518C 718.461,537.343 724.961,556.51 732,575.5C 736.824,592.463 741.491,609.463 746,626.5C 750.066,625.536 754.233,625.203 758.5,625.5C 758.5,624.167 758.5,622.833 758.5,621.5C 759.657,624.273 760.324,627.273 760.5,630.5C 759.833,630.5 759.5,630.833 759.5,631.5C 757.411,631.857 755.411,632.523 753.5,633.5C 752.347,634.687 752.347,635.687 753.5,636.5C 753.5,636.833 753.5,637.167 753.5,637.5C 752.069,637.119 751.236,636.119 751,634.5C 749.583,635.078 748.75,636.078 748.5,637.5C 745.448,638.88 743.282,641.214 742,644.5C 737.199,610.29 728.199,577.29 715,545.5C 708.702,531.247 702.036,517.247 695,503.5C 694.454,506.899 694.787,510.232 696,513.5C 702.414,530.652 709.081,547.652 716,564.5C 720.769,577.578 724.602,590.911 727.5,604.5C 719.641,589.794 709.641,576.628 697.5,565C 685.5,564.333 673.5,564.333 661.5,565C 641.371,569.97 624.538,580.136 611,595.5C 605.507,606.49 599.507,617.157 593,627.5C 584.513,655.551 580.18,684.217 580,713.5C 591.821,720.315 602.155,728.982 611,739.5C 614.5,733.333 619.333,728.5 625.5,725C 629.167,724.333 632.833,724.333 636.5,725C 637.814,725.985 638.814,727.152 639.5,728.5C 635.896,731.602 632.396,734.935 629,738.5C 624.58,744.071 620.413,749.738 616.5,755.5C 608.907,744.862 598.907,737.362 586.5,733C 578.146,729.205 570.146,729.705 562.5,734.5C 561.336,727.524 561.169,720.524 562,713.5C 564.053,691.092 566.72,668.759 570,646.5C 585.037,607.072 605.703,571.072 632,538.5C 638.833,531.667 645.667,524.833 652.5,518C 661.485,510.005 671.818,504.338 683.5,501C 688.5,500.333 693.5,500.333 698.5,501C 699.667,502.167 700.833,503.333 702,504.5C 700.287,500.12 697.12,496.953 692.5,495C 688.179,494.501 683.846,494.334 679.5,494.5C 682.028,493.834 684.694,493.168 687.5,492.5C 688.043,488.658 689.043,484.991 690.5,481.5C 687.507,477.664 684.673,473.664 682,469.5C 680.549,467.536 678.716,466.203 676.5,465.5C 676.343,464.127 676.51,462.793 677,461.5C 691.49,467.323 701.157,477.656 706,492.5C 707.11,494.037 708.61,494.703 710.5,494.5C 711.716,502.072 709.883,508.739 705,514.5C 704.333,516.167 704.333,517.833 705,519.5C 706.333,520.833 707.667,520.833 709,519.5C 710.941,515.278 713.108,511.278 715.5,507.5 Z"/></g>
<g><path style="opacity:1" fill="#898c94" d="M 124.5,465.5 C 124.5,466.167 124.833,466.5 125.5,466.5C 125.666,472.842 125.5,479.175 125,485.5C 124.148,486.571 123.315,487.571 122.5,488.5C 121.681,485.695 121.181,482.695 121,479.5C 118.837,476.865 116.337,475.865 113.5,476.5C 116.076,471.626 119.743,467.959 124.5,465.5 Z"/></g>
<g><path style="opacity:1" fill="#8e9199" d="M 720.5,466.5 C 737.398,517.095 750.065,568.761 758.5,621.5C 758.5,622.833 758.5,624.167 758.5,625.5C 754.233,625.203 750.066,625.536 746,626.5C 741.491,609.463 736.824,592.463 732,575.5C 724.961,556.51 718.461,537.343 712.5,518C 714.53,514.779 715.53,511.279 715.5,507.5C 715.666,503.154 715.499,498.821 715,494.5C 714,493.5 713,492.5 712,491.5C 711.41,486.994 710.243,482.661 708.5,478.5C 708.184,475.022 708.684,471.688 710,468.5C 710.333,470.833 710.667,473.167 711,475.5C 712.823,471.018 715.989,468.018 720.5,466.5 Z"/></g>
<g><path style="opacity:1" fill="#c74f4f" d="M 476.5,474.5 C 472.497,486.167 464.497,493.833 452.5,497.5C 448.392,496.531 444.559,494.864 441,492.5C 439.786,487.657 440.953,483.49 444.5,480C 445.873,479.125 447.373,478.625 449,478.5C 453.825,480.517 458.658,482.017 463.5,483C 461.675,481.534 461.175,479.701 462,477.5C 464.132,473.569 466.965,470.236 470.5,467.5C 473.243,469.239 475.243,471.573 476.5,474.5 Z"/></g>
<g><path style="opacity:1" fill="#ad2d2d" d="M 476.5,474.5 C 478.32,476.129 479.653,478.129 480.5,480.5C 476.792,496.004 467.459,501.671 452.5,497.5C 464.497,493.833 472.497,486.167 476.5,474.5 Z"/></g>
<g><path style="opacity:1" fill="#8e9199" d="M 101.5,480.5 C 104.187,480.336 106.854,480.503 109.5,481C 110.718,482.438 111.385,484.105 111.5,486C 110.179,490.344 108.346,494.51 106,498.5C 103.155,506.743 104.155,514.41 109,521.5C 109.388,525.219 110.055,528.886 111,532.5C 111.591,549.181 111.258,565.848 110,582.5C 108.119,600.414 102.119,617.748 92,634.5C 90.6106,636.227 88.9439,637.561 87,638.5C 83.9665,636.63 81.4665,634.296 79.5,631.5C 80.7312,614.183 81.7312,596.85 82.5,579.5C 83.889,574.731 84.5557,569.731 84.5,564.5C 86.5395,546.392 89.3728,528.392 93,510.5C 95.2368,500.204 98.0701,490.204 101.5,480.5 Z"/></g>
<g><path style="opacity:1" fill="#646770" d="M 551.5,502.5 C 544.337,509.824 536.171,515.824 527,520.5C 527.374,517.725 528.374,515.058 530,512.5C 530.667,510.833 530.667,509.167 530,507.5C 528.861,510.583 527.528,513.583 526,516.5C 516.046,524.892 505.213,531.892 493.5,537.5C 508.804,522.36 523.638,506.693 538,490.5C 538.903,497.577 538.07,504.41 535.5,511C 538.088,510.243 540.754,509.243 543.5,508C 545.546,505.097 548.213,503.264 551.5,502.5 Z"/></g>
<g><path style="opacity:1" fill="#60636c" d="M 127.5,490.5 C 126.217,497.159 126.217,503.826 127.5,510.5C 128.833,510.5 130.167,510.5 131.5,510.5C 130.542,511.962 129.376,513.295 128,514.5C 127.825,518.211 127.325,521.878 126.5,525.5C 123.478,523.312 120.978,520.645 119,517.5C 118.706,511.412 118.539,505.412 118.5,499.5C 121.188,496.146 124.188,493.146 127.5,490.5 Z"/></g>
<g><path style="opacity:1" fill="#0c0c0d" d="M 164.5,502.5 C 201.749,515.96 230.082,539.96 249.5,574.5C 246.197,570.349 243.03,566.015 240,561.5C 213.276,534.56 183.442,514.393 150.5,501C 155.293,500.349 159.96,500.849 164.5,502.5 Z"/></g>
<g><path style="opacity:1" fill="#656871" d="M 251.5,729.5 C 252.568,728.566 253.901,728.232 255.5,728.5C 255.646,710.433 254.812,692.433 253,674.5C 248.598,642.278 236.598,613.278 217,587.5C 205.24,573.069 192.74,559.236 179.5,546C 165.927,536.712 151.26,529.879 135.5,525.5C 134.824,526.602 134.158,527.602 133.5,528.5C 133.334,523.821 133.501,519.155 134,514.5C 143.054,513.218 151.554,515.051 159.5,520C 199.288,545.455 232.122,577.955 258,617.5C 279.813,656.029 287.98,697.362 282.5,741.5C 274.626,731.645 264.293,727.645 251.5,729.5 Z"/></g>
<g><path style="opacity:1" fill="#8f929a" d="M 251.5,729.5 C 248.575,729.46 245.909,730.293 243.5,732C 240.669,734.001 238.003,736.167 235.5,738.5C 232.813,738.336 230.146,738.503 227.5,739C 220.677,742.853 213.677,743.353 206.5,740.5C 202.785,734.251 198.452,728.417 193.5,723C 182.854,715.829 172.187,715.829 161.5,723C 158.964,725.705 156.297,728.205 153.5,730.5C 142.666,730.997 132.332,728.997 122.5,724.5C 118.694,720.095 114.027,716.928 108.5,715C 104.482,714.148 100.649,714.648 97,716.5C 96.5,716.167 96,715.833 95.5,715.5C 96.6667,713.167 97.8333,710.833 99,708.5C 100.08,689.272 102.747,670.272 107,651.5C 113.227,626.469 119.56,601.469 126,576.5C 129.318,560.624 131.818,544.624 133.5,528.5C 134.158,527.602 134.824,526.602 135.5,525.5C 151.26,529.879 165.927,536.712 179.5,546C 192.74,559.236 205.24,573.069 217,587.5C 236.598,613.278 248.598,642.278 253,674.5C 254.812,692.433 255.646,710.433 255.5,728.5C 253.901,728.232 252.568,728.566 251.5,729.5 Z"/></g>
<g><path style="opacity:1" fill="#646770" d="M 449.5,552.5 C 445.056,553.813 440.389,554.646 435.5,555C 428.167,555.333 420.833,555.667 413.5,556C 412.289,556.893 412.289,557.726 413.5,558.5C 416.07,559.634 418.736,560.468 421.5,561C 430.167,561.333 438.833,561.667 447.5,562C 441.469,564.168 435.469,566.001 429.5,567.5C 427.833,567.5 426.167,567.5 424.5,567.5C 420.665,566.539 416.665,565.705 412.5,565C 407.429,563.427 403.762,560.26 401.5,555.5C 402.729,554.719 404.062,554.219 405.5,554C 414.827,553.5 424.161,553.334 433.5,553.5C 433.295,550.886 433.295,548.552 433.5,546.5C 438.784,548.705 444.118,550.705 449.5,552.5 Z"/></g>
<g><path style="opacity:1" fill="#0f0f10" d="M 570.5,556.5 C 564.849,567.802 559.182,579.136 553.5,590.5C 548.846,597.742 546.013,605.742 545,614.5C 546.562,592.049 554.729,572.382 569.5,555.5C 570.107,555.624 570.44,555.957 570.5,556.5 Z"/></g>
<g><path style="opacity:1" fill="#8f929a" d="M 727.5,604.5 C 732.753,628.211 737.086,652.211 740.5,676.5C 739.907,690.308 738.073,703.975 735,717.5C 734.114,720.093 732.614,722.093 730.5,723.5C 725.984,720.386 720.984,719.219 715.5,720C 711.035,724.43 707.701,729.596 705.5,735.5C 701.936,736.423 698.269,736.756 694.5,736.5C 688.09,727.409 679.423,722.076 668.5,720.5C 666.527,719.837 664.361,719.504 662,719.5C 658.523,719.328 655.356,719.994 652.5,721.5C 647.763,723.036 643.429,725.369 639.5,728.5C 638.814,727.152 637.814,725.985 636.5,725C 632.833,724.333 629.167,724.333 625.5,725C 619.333,728.5 614.5,733.333 611,739.5C 602.155,728.982 591.821,720.315 580,713.5C 580.18,684.217 584.513,655.551 593,627.5C 599.507,617.157 605.507,606.49 611,595.5C 624.538,580.136 641.371,569.97 661.5,565C 673.5,564.333 685.5,564.333 697.5,565C 709.641,576.628 719.641,589.794 727.5,604.5 Z"/></g>
<g><path style="opacity:1" fill="#090a0b" d="M 259.5,573.5 C 261.783,573.608 263.783,574.441 265.5,576C 291.11,599.821 299.943,628.654 292,662.5C 290.887,664.329 289.387,665.163 287.5,665C 290.912,661.211 292.245,656.711 291.5,651.5C 291.515,622.543 281.348,597.876 261,577.5C 260.209,576.255 259.709,574.922 259.5,573.5 Z"/></g>
<g><path style="opacity:1" fill="#4a4b4f" d="M 84.5,564.5 C 84.5557,569.731 83.889,574.731 82.5,579.5C 82.4443,574.269 83.111,569.269 84.5,564.5 Z"/></g>
<g><path style="opacity:0.297" fill="#75777e" d="M 73.5,630.5 C 76.1272,633.377 75.7939,636.044 72.5,638.5C 73.2653,635.904 73.5987,633.237 73.5,630.5 Z"/></g>
<g><path style="opacity:1" fill="#c9c6be" d="M 753.5,637.5 C 753.189,645.294 754.023,652.961 756,660.5C 759.721,667.446 763.554,674.279 767.5,681C 771.139,682.325 774.806,683.492 778.5,684.5C 777.571,685.315 776.571,686.148 775.5,687C 765.817,687.62 756.15,687.454 746.5,686.5C 745.893,674.093 744.559,661.76 742.5,649.5C 743.168,644.832 745.168,640.832 748.5,637.5C 748.75,636.078 749.583,635.078 751,634.5C 751.236,636.119 752.069,637.119 753.5,637.5 Z"/></g>
<g><path style="opacity:1" fill="#d9d7d2" d="M 753.5,636.5 C 755.655,636.372 757.655,636.872 759.5,638C 772.289,650.76 778.622,666.26 778.5,684.5C 774.806,683.492 771.139,682.325 767.5,681C 763.554,674.279 759.721,667.446 756,660.5C 754.023,652.961 753.189,645.294 753.5,637.5C 753.5,637.167 753.5,636.833 753.5,636.5 Z"/></g>
<g><path style="opacity:1" fill="#d9d7d2" d="M 81.5,643.5 C 84.3175,649.448 86.6508,655.615 88.5,662C 86.7753,666.722 83.4419,669.722 78.5,671C 74.8333,671.667 71.1667,671.667 67.5,671C 66.7476,670.329 66.4142,669.496 66.5,668.5C 69.3102,658.548 73.4768,649.214 79,640.5C 80.045,641.373 80.8783,642.373 81.5,643.5 Z"/></g>
<g><path style="opacity:1" fill="#c5c2ba" d="M 81.5,643.5 C 87.034,648.881 91.8673,654.881 96,661.5C 96.8184,664.107 97.3184,666.774 97.5,669.5C 96.7015,674.157 96.0348,678.824 95.5,683.5C 94.8333,684.167 94.1667,684.833 93.5,685.5C 91.8869,684.308 90.2202,683.308 88.5,682.5C 82.3471,681.347 76.0137,681.18 69.5,682C 68.2625,682.232 67.2625,682.732 66.5,683.5C 64.9826,683.511 63.8159,684.177 63,685.5C 62.0093,684.57 61.5093,683.404 61.5,682C 62.5038,677.144 64.1705,672.644 66.5,668.5C 66.4142,669.496 66.7476,670.329 67.5,671C 71.1667,671.667 74.8333,671.667 78.5,671C 83.4419,669.722 86.7753,666.722 88.5,662C 86.6508,655.615 84.3175,649.448 81.5,643.5 Z"/></g>
<g><path style="opacity:1" fill="#8f9299" d="M 516.5,704.5 C 502.899,710.751 488.566,714.918 473.5,717C 417.478,722.829 364.811,712.329 315.5,685.5C 313.3,681.761 311.633,677.761 310.5,673.5C 311.634,670.003 314.134,668.336 318,668.5C 352.844,675.724 388.011,680.724 423.5,683.5C 439.541,683.1 455.541,682.267 471.5,681C 474.893,680.202 478.226,679.202 481.5,678C 488.226,673.97 495.226,670.47 502.5,667.5C 506.197,668.566 509.864,669.732 513.5,671C 521.118,673.046 523.618,677.88 521,685.5C 518.623,690.263 516.789,695.263 515.5,700.5C 515.623,701.925 515.957,703.258 516.5,704.5 Z"/></g>
<g><path style="opacity:1" fill="#5b5a56" d="M 88.5,682.5 C 81.1319,682.317 73.7985,682.65 66.5,683.5C 67.2625,682.732 68.2625,682.232 69.5,682C 76.0137,681.18 82.3471,681.347 88.5,682.5 Z"/></g>
<g><path style="opacity:1" fill="#646770" d="M 740.5,676.5 C 742.771,683.924 744.605,691.59 746,699.5C 746.929,714.257 748.263,728.923 750,743.5C 744.639,735.64 738.139,728.973 730.5,723.5C 732.614,722.093 734.114,720.093 735,717.5C 738.073,703.975 739.907,690.308 740.5,676.5 Z"/></g>
<g><path style="opacity:0.4" fill="#6b6d73" d="M 95.5,683.5 C 94.501,690.827 93.501,698.16 92.5,705.5C 91.6043,706.506 90.9377,706.506 90.5,705.5C 92.211,699.976 92.8776,694.31 92.5,688.5C 91.448,688.649 90.448,688.483 89.5,688C 91.0664,687.392 92.3998,686.558 93.5,685.5C 94.1667,684.833 94.8333,684.167 95.5,683.5 Z"/></g>
<g><path style="opacity:0.537" fill="#b4b2ad" d="M 776.5,691.5 C 780.339,691.612 780.339,692.279 776.5,693.5C 775.537,693.03 775.537,692.363 776.5,691.5 Z"/></g>
<g><path style="opacity:0.733" fill="#9c9b96" d="M 747.5,691.5 C 750.179,692.226 752.846,693.059 755.5,694C 753.473,694.498 751.473,694.331 749.5,693.5C 748.287,693.253 747.62,692.586 747.5,691.5 Z"/></g>
<g><path style="opacity:1" fill="#38393c" d="M 668.5,720.5 C 663.13,720.392 657.797,720.725 652.5,721.5C 655.356,719.994 658.523,719.328 662,719.5C 664.361,719.504 666.527,719.837 668.5,720.5 Z"/></g>
<g><path style="opacity:1" fill="#dad8d3" d="M 122.5,734.5 C 127.122,749.72 121.456,756.22 105.5,754C 97.8288,751.387 90.1621,748.887 82.5,746.5C 82.5,745.5 82.5,744.5 82.5,743.5C 85.1741,735.151 88.6741,727.151 93,719.5C 98.3857,719.075 103.886,719.575 109.5,721C 114.71,724.709 119.043,729.209 122.5,734.5 Z"/></g>
<g><path style="opacity:1" fill="#d7d5d0" d="M 732.5,733.5 C 735.141,738.914 737.308,744.581 739,750.5C 739.579,754.203 739.412,757.869 738.5,761.5C 728.594,765.096 718.594,765.429 708.5,762.5C 707.081,761.549 705.415,761.216 703.5,761.5C 703.802,758.941 703.468,756.607 702.5,754.5C 701.677,752.545 701.51,750.545 702,748.5C 706.037,739.812 710.87,731.645 716.5,724C 723.137,724.771 728.47,727.938 732.5,733.5 Z"/></g>
<g><path style="opacity:1" fill="#646770" d="M 122.5,724.5 C 132.332,728.997 142.666,730.997 153.5,730.5C 147.447,738.613 142.447,747.28 138.5,756.5C 137.624,756.631 136.957,756.298 136.5,755.5C 135.042,750.585 133.042,745.919 130.5,741.5C 131.043,741.44 131.376,741.107 131.5,740.5C 128.476,735.112 125.476,729.779 122.5,724.5 Z"/></g>
<g><path style="opacity:1" fill="#dbd9d4" d="M 199.5,745.5 C 193.396,753.551 185.396,758.551 175.5,760.5C 167.981,760.036 160.981,757.87 154.5,754C 152.536,752.549 151.203,750.716 150.5,748.5C 155.261,737.905 162.928,730.072 173.5,725C 178.111,723.993 182.445,724.66 186.5,727C 192.246,732.234 196.579,738.401 199.5,745.5 Z"/></g>
<g><path style="opacity:1" fill="#dcdad5" d="M 678.5,730.5 C 682.333,738.337 683.5,746.671 682,755.5C 680.332,758.98 678.166,761.98 675.5,764.5C 662.411,768.504 649.078,769.504 635.5,767.5C 635.804,766.85 636.137,766.183 636.5,765.5C 631.209,758.941 629.543,751.608 631.5,743.5C 638.343,735.838 646.676,730.338 656.5,727C 664.281,725.659 671.614,726.826 678.5,730.5 Z"/></g>
<g><path style="opacity:0.034" fill="#000000" d="M 828.5,732.5 C 828.5,733.167 828.5,733.833 828.5,734.5C 827.312,735.048 826.145,735.381 825,735.5C 824.5,734.333 823.667,733.5 822.5,733C 823.701,732.097 824.535,730.931 825,729.5C 826.039,730.71 827.206,731.71 828.5,732.5 Z"/></g>
<g><path style="opacity:0.004" fill="#000000" d="M 820.5,731.5 C 821.833,732.167 821.833,732.167 820.5,731.5 Z"/></g>
<g><path style="opacity:1" fill="#c4c1ba" d="M 678.5,730.5 C 689.413,737.362 695.413,747.029 696.5,759.5C 689.153,759.727 682.153,761.394 675.5,764.5C 678.166,761.98 680.332,758.98 682,755.5C 683.5,746.671 682.333,738.337 678.5,730.5 Z"/></g>
<g><path style="opacity:1" fill="#c0bdb6" d="M 122.5,734.5 C 125.79,736.124 128.457,738.457 130.5,741.5C 133.042,745.919 135.042,750.585 136.5,755.5C 136.957,756.298 137.624,756.631 138.5,756.5C 138.5,757.833 138.5,759.167 138.5,760.5C 127.495,760.667 116.495,760.5 105.5,760C 97.3181,758.08 88.9848,756.58 80.5,755.5C 80.0834,751.183 80.7501,747.183 82.5,743.5C 82.5,744.5 82.5,745.5 82.5,746.5C 90.1621,748.887 97.8288,751.387 105.5,754C 121.456,756.22 127.122,749.72 122.5,734.5 Z"/></g>
<g><path style="opacity:1" fill="#dcdad5" d="M 271.5,741.5 C 272.179,752.128 268.513,760.794 260.5,767.5C 257.5,767.5 254.5,767.5 251.5,767.5C 254.018,765.643 254.018,763.81 251.5,762C 246.669,760.39 242.003,758.39 237.5,756C 235.536,754.549 234.203,752.716 233.5,750.5C 237.763,744.738 243.096,740.238 249.5,737C 254.558,736.339 259.558,736.672 264.5,738C 267.445,738.139 269.779,739.306 271.5,741.5 Z"/></g>
<g><path style="opacity:1" fill="#c2bfb7" d="M 591.5,742.5 C 586.254,741.251 580.921,740.251 575.5,739.5C 572.302,739.622 569.302,740.455 566.5,742C 565.42,748.773 565.42,755.607 566.5,762.5C 562.681,761.019 558.681,760.186 554.5,760C 555.667,759.5 556.5,758.667 557,757.5C 557.959,750.341 559.793,743.507 562.5,737C 573.012,734.546 582.679,736.38 591.5,742.5 Z"/></g>
<g><path style="opacity:1" fill="#60636b" d="M 705.5,735.5 C 703.65,739.033 701.984,742.7 700.5,746.5C 698.489,743.139 696.489,739.806 694.5,736.5C 698.269,736.756 701.936,736.423 705.5,735.5 Z"/></g>
<g><path style="opacity:1" fill="#c1beb7" d="M 732.5,733.5 C 735.13,735.628 737.63,737.961 740,740.5C 744.376,747.419 748.876,754.252 753.5,761C 748.511,761.499 743.511,761.666 738.5,761.5C 739.412,757.869 739.579,754.203 739,750.5C 737.308,744.581 735.141,738.914 732.5,733.5 Z"/></g>
<g><path style="opacity:0.708" fill="#3b3c40" d="M 290.5,713.5 C 291.184,726.372 291.851,739.372 292.5,752.5C 291.726,753.711 290.893,753.711 290,752.5C 290.299,739.52 290.466,726.52 290.5,713.5 Z"/></g>
<g><path style="opacity:0.039" fill="#000000" d="M 828.5,738.5 C 828.5,739.833 828.5,741.167 828.5,742.5C 823.946,742.343 822.946,740.676 825.5,737.5C 826.417,738.127 827.417,738.461 828.5,738.5 Z"/></g>
<g><path style="opacity:1" fill="#63666e" d="M 235.5,738.5 C 228.429,745.906 222.096,753.906 216.5,762.5C 214.955,763.452 213.288,763.785 211.5,763.5C 211.443,762.391 211.11,761.391 210.5,760.5C 213.261,761.085 214.927,760.085 215.5,757.5C 212.074,752.07 209.074,746.403 206.5,740.5C 213.677,743.353 220.677,742.853 227.5,739C 230.146,738.503 232.813,738.336 235.5,738.5 Z"/></g>
<g><path style="opacity:1" fill="#dcdad5" d="M 591.5,742.5 C 595.5,744.833 599.5,747.167 603.5,749.5C 605.476,755.748 604.476,761.415 600.5,766.5C 593.833,766.5 587.167,766.5 580.5,766.5C 575.685,765.54 571.018,764.207 566.5,762.5C 565.42,755.607 565.42,748.773 566.5,742C 569.302,740.455 572.302,739.622 575.5,739.5C 580.921,740.251 586.254,741.251 591.5,742.5 Z"/></g>
<g><path style="opacity:1" fill="#c9c6be" d="M 271.5,741.5 C 273.5,741.833 275.5,742.167 277.5,742.5C 280.105,746.935 282.105,751.601 283.5,756.5C 283.662,758.527 283.495,760.527 283,762.5C 280.341,764.246 277.508,765.58 274.5,766.5C 269.87,767.229 265.203,767.563 260.5,767.5C 268.513,760.794 272.179,752.128 271.5,741.5 Z"/></g>
<g><path style="opacity:1" fill="#666971" d="M 277.5,742.5 C 279.5,742.5 281.5,742.5 283.5,742.5C 283.5,747.167 283.5,751.833 283.5,756.5C 282.105,751.601 280.105,746.935 277.5,742.5 Z"/></g>
<g><path style="opacity:1" fill="#c5c3bb" d="M 631.5,743.5 C 629.543,751.608 631.209,758.941 636.5,765.5C 636.137,766.183 635.804,766.85 635.5,767.5C 629.783,766.934 624.117,766.267 618.5,765.5C 612.455,765.303 606.455,765.637 600.5,766.5C 604.476,761.415 605.476,755.748 603.5,749.5C 608.091,752.378 612.591,755.378 617,758.5C 621.337,752.997 626.17,747.997 631.5,743.5 Z"/></g>
<g><path style="opacity:1" fill="#c7c4bd" d="M 199.5,745.5 C 201.559,748.611 203.392,751.944 205,755.5C 206.704,757.373 208.537,759.04 210.5,760.5C 211.11,761.391 211.443,762.391 211.5,763.5C 207.837,762.888 204.17,762.721 200.5,763C 194.167,766 187.833,769 181.5,772C 168.646,773.12 156.646,770.453 145.5,764C 147.301,763.683 147.634,763.016 146.5,762C 144.744,761.798 143.078,761.298 141.5,760.5C 144.521,756.432 147.521,752.432 150.5,748.5C 151.203,750.716 152.536,752.549 154.5,754C 160.981,757.87 167.981,760.036 175.5,760.5C 185.396,758.551 193.396,753.551 199.5,745.5 Z"/></g>
<g><path style="opacity:1" fill="#c5c2ba" d="M 233.5,750.5 C 234.203,752.716 235.536,754.549 237.5,756C 242.003,758.39 246.669,760.39 251.5,762C 254.018,763.81 254.018,765.643 251.5,767.5C 249.5,767.5 247.5,767.5 245.5,767.5C 237.118,766.73 228.785,765.397 220.5,763.5C 224.521,758.812 228.854,754.479 233.5,750.5 Z"/></g>
<g><path style="opacity:0.012" fill="#000000" d="M 816.5,751.5 C 817.833,752.167 817.833,752.167 816.5,751.5 Z"/></g>
<g><path style="opacity:0.016" fill="#000000" d="M 25.5,753.5 C 25.631,754.239 25.4643,754.906 25,755.5C 24.3083,754.563 24.475,753.897 25.5,753.5 Z"/></g>
<g><path style="opacity:0.567" fill="#a7a6a1" d="M 74.5,755.5 C 78.5894,757.414 78.4227,758.747 74,759.5C 73.4209,758.072 73.5876,756.738 74.5,755.5 Z"/></g>
<g><path style="opacity:0.012" fill="#000000" d="M 821.5,758.5 C 821.897,757.475 822.563,757.308 823.5,758C 822.906,758.464 822.239,758.631 821.5,758.5 Z"/></g>
<g><path style="opacity:0.047" fill="#000000" d="M 821.5,758.5 C 820.833,759.167 820.833,759.167 821.5,758.5 Z"/></g>
<g><path style="opacity:1" fill="#62615c" d="M 702.5,754.5 C 703.468,756.607 703.802,758.941 703.5,761.5C 705.415,761.216 707.081,761.549 708.5,762.5C 706.5,762.5 704.5,762.5 702.5,762.5C 702.5,759.833 702.5,757.167 702.5,754.5 Z"/></g>
<g><path style="opacity:0.48" fill="#626366" d="M 696.5,759.5 C 700.335,760.004 700.335,761.004 696.5,762.5C 696.709,763.086 697.043,763.586 697.5,764C 695.471,764.681 693.471,765.014 691.5,765C 693.373,763.296 695.04,761.463 696.5,759.5 Z"/></g>
<g><path style="opacity:0.694" fill="#9c9a96" d="M 749.5,762.5 C 751.975,762.747 751.975,763.413 749.5,764.5C 748.537,764.03 748.537,763.363 749.5,762.5 Z"/></g>
<g><path style="opacity:1" fill="#2d2c2b" d="M 618.5,765.5 C 605.864,767.486 593.198,767.819 580.5,766.5C 587.167,766.5 593.833,766.5 600.5,766.5C 606.455,765.637 612.455,765.303 618.5,765.5 Z"/></g>
<g><path style="opacity:1" fill="#2f2f2d" d="M 274.5,766.5 C 274.389,767.117 274.056,767.617 273.5,768C 263.991,768.824 254.657,768.658 245.5,767.5C 247.5,767.5 249.5,767.5 251.5,767.5C 254.5,767.5 257.5,767.5 260.5,767.5C 265.203,767.563 269.87,767.229 274.5,766.5 Z"/></g>
<g><path style="opacity:0.408" fill="#53555a" d="M 209.5,767.5 C 212.568,767.547 215.568,768.047 218.5,769C 215.333,769.252 212.333,769.418 209.5,769.5C 208.537,769.03 208.537,768.363 209.5,767.5 Z"/></g>
<g><path style="opacity:0.024" fill="#000000" d="M 36.5,770.5 C 37.7759,771.386 37.7759,772.386 36.5,773.5C 35.913,772.767 35.913,771.767 36.5,770.5 Z"/></g>
<g><path style="opacity:0.012" fill="#000000" d="M 41.5,771.5 C 42.8333,772.167 42.8333,772.167 41.5,771.5 Z"/></g>
<g><path style="opacity:0.02" fill="#000000" d="M 37.5,775.5 C 40.199,778.272 39.8656,778.772 36.5,777C 37.056,776.617 37.3893,776.117 37.5,775.5 Z"/></g>
<g><path style="opacity:0.026" fill="#000000" d="M 807.5,786.5 C 808.573,787.251 808.74,788.251 808,789.5C 807.517,788.552 807.351,787.552 807.5,786.5 Z"/></g>
<g><path style="opacity:0.031" fill="#000000" d="M 78.5,791.5 C 79.8333,792.167 79.8333,792.167 78.5,791.5 Z"/></g>
<g><path style="opacity:0.031" fill="#000000" d="M 782.5,801.5 C 783.077,800.227 783.743,800.227 784.5,801.5C 784.03,802.463 783.363,802.463 782.5,801.5 Z"/></g>
<g><path style="opacity:0.037" fill="#000000" d="M 120.5,815.5 C 120.483,817.028 119.816,817.528 118.5,817C 119.044,816.283 119.711,815.783 120.5,815.5 Z"/></g>
<g><path style="opacity:0.008" fill="#000000" d="M 142.5,819.5 C 141.833,818.167 141.833,818.167 142.5,819.5 Z"/></g>
<g><path style="opacity:0.041" fill="#000000" d="M 647.5,824.5 C 648.756,824.461 649.756,824.961 650.5,826C 648.852,829.374 646.852,829.874 644.5,827.5C 645.34,826.265 646.34,825.265 647.5,824.5 Z"/></g>
<g><path style="opacity:0.016" fill="#000000" d="M 534.5,833.5 C 535.833,834.167 535.833,834.167 534.5,833.5 Z"/></g>
<g><path style="opacity:0.035" fill="#000000" d="M 502.5,835.5 C 503.833,836.167 503.833,836.167 502.5,835.5 Z"/></g>
<g><path style="opacity:0.023" fill="#000000" d="M 408.5,845.5 C 409.5,845.5 410.5,845.5 411.5,845.5C 411.5,846.5 411.5,847.5 411.5,848.5C 410.5,848.5 409.5,848.5 408.5,848.5C 408.5,847.5 408.5,846.5 408.5,845.5 Z"/></g>
<g><path style="opacity:0.014" fill="#000000" d="M 358.5,846.5 C 361.595,847.119 361.929,848.119 359.5,849.5C 357.481,848.867 357.147,847.867 358.5,846.5 Z"/></g>
<g><path style="opacity:0.021" fill="#000000" d="M 362.5,848.5 C 364.337,848.639 364.67,849.306 363.5,850.5C 362.702,850.043 362.369,849.376 362.5,848.5 Z"/></g>
</svg>
